<?xml version="1.0" standalone="no"?>
<!DOCTYPE svg PUBLIC "-//W3C//DTD SVG 1.1//EN" "http://www.w3.org/Graphics/SVG/1.1/DTD/svg11.dtd" >
<svg>
<metadata>
Created by FontForge 20090914 at Sun Nov 26 21:35:10 2017
 By www-data
Copyright 2016 SIL International, all rights reserved
</metadata>
<defs>
<font id="Padauk-Regular" horiz-adv-x="0" >
  <font-face 
    font-family="Padauk"
    font-weight="400"
    font-stretch="normal"
    units-per-em="1024"
    panose-1="2 0 4 0 2 0 0 2 0 4"
    ascent="819"
    descent="-205"
    x-height="445"
    cap-height="643"
    bbox="-1113 -497.997 2094 955.007"
    underline-thickness="50"
    underline-position="-500"
    unicode-range="U+000D-U+FE00"
  />
<missing-glyph 
d="M106 408v-357h365v357h-365zM520 459v-459h-465v459h465z" />
    <glyph glyph-name="u1075.kham" unicode="&#x1075;" unicode="&#xfe00;" horiz-adv-x="578" 
d="M522 202c0 -52 -8.32812 -94.8311 -24.9951 -128.498s-41 -63.167 -73 -88.5l-30 43c51.333 46.667 77 104.667 77 174c0 59.333 -18 108.166 -54 146.499s-80 57.5 -132 57.5c-49.333 0 -91 -13.5 -125 -40.5s-51 -54.5 -51 -82.5c0 -7.33301 2.5 -12.166 7.5 -14.499
s16.167 -3.5 33.5 -3.5c33.333 0 61.666 -13.833 84.999 -41.5s35 -59.167 35 -94.5c0 -38.667 -14 -72.334 -42 -101.001s-60.667 -43 -98 -43c-20 0 -37.5 7.66699 -52.5 23s-22.5 33 -22.5 53c0 20.667 7.5 38.334 22.5 53.001s32.5 22 52.5 22
c13.333 0 26.666 -4 39.999 -12s23.666 -20.333 30.999 -37c12 8 18 22 18 42c0 17.333 -5.33301 35.833 -16 55.5s-28.334 29.5 -53.001 29.5c-63.333 0 -95 23 -95 69c0 43.333 22.5 83.166 67.5 119.499s99.167 54.5 162.5 54.5c67.333 0 123.666 -23.833 168.999 -71.5
s68 -108.834 68 -183.501z" />
    <glyph glyph-name="u1078.kham" unicode="&#x1078;" unicode="&#xfe00;" horiz-adv-x="999" 
d="M892 222c0 51.333 -17.833 95.166 -53.5 131.499s-78.834 54.5 -129.501 54.5c-50 0 -92.5 -18.167 -127.5 -54.5s-52.5 -80.166 -52.5 -131.499s17.833 -95.166 53.5 -131.499s78.834 -54.5 129.501 -54.5c50 0 92.5 18.167 127.5 54.5s52.5 80.166 52.5 131.499z
M943 222c0 -65.333 -22.6729 -121.167 -68.0059 -167.5s-100.666 -69.5 -165.999 -69.5c-40.667 0 -78.167 10 -112.5 30s-61.833 47 -82.5 81c-17.333 -46 -44.666 -83 -81.999 -111l-30 43c50.667 46.667 76 104.667 76 174c0 59.333 -18 108.166 -54 146.499
s-80 57.5 -132 57.5s-96 -19.167 -132 -57.5s-54 -87.166 -54 -146.499c0 -32 5.66699 -62.333 17 -91c16.667 16.667 35.667 25 57 25c20 0 37.5 -7.33301 52.5 -22s22.5 -32.334 22.5 -53.001c0 -20 -7.5 -37.667 -22.5 -53s-32.5 -23 -52.5 -23
c-25.333 0 -47.833 11.667 -67.5 35s-34.167 51.166 -43.5 83.499s-14 65.166 -14 98.499c0 74.667 22.833 135.834 68.5 183.501s101.834 71.5 168.501 71.5c49.333 0 91.833 -11.667 127.5 -35s62.834 -55.666 81.501 -96.999c18.667 40.667 46.834 73.167 84.501 97.5
s79.834 36.5 126.501 36.5c64 0 118.5 -23.167 163.5 -69.5s67.5 -102.166 67.5 -167.499z" />
    <glyph glyph-name="u1080.kham" unicode="&#x1080;" unicode="&#xfe00;" horiz-adv-x="997" 
d="M373 58c-41.333 63.333 -94.667 95 -160 95c-32 0 -64.667 -8.66699 -98 -26c34 -60.667 90 -91 168 -91c28.667 0 58.667 7.33301 90 22zM941.999 222c0 -65.333 -22.8291 -121.162 -68.4961 -167.495s-100.5 -69.5 -164.5 -69.5
c-42.667 0 -82.334 13.167 -119.001 39.5s-66.334 60.5 -89.001 102.5c-18.667 -42.667 -47.834 -77 -87.501 -103s-83.167 -39 -130.5 -39c-36.667 0 -70.167 6.33301 -100.5 19s-54 28.5 -71 47.5s-30.333 37.333 -40 55s-15.167 33.167 -16.5 46.5
c61.333 34 113 51 155 51c41.333 0 80.666 -10.5 117.999 -31.5s67 -48.167 89 -81.5c34.667 39.333 52 83 52 131c0 47.333 -17 90.166 -51 128.499s-79 57.5 -135 57.5c-39.333 0 -74.666 -11.667 -105.999 -35c24.667 -12.667 37 -34 37 -64
c0 -20.667 -7.33301 -38.667 -22 -54s-32.334 -23 -53.001 -23c-20 0 -37.5 7.66699 -52.5 23s-22.5 33.333 -22.5 54c0 32 21.5 65 64.5 99s94.5 51 154.5 51c66.667 0 122.834 -24.167 168.501 -72.5s68.5 -100.833 68.5 -157.5v-1
c5.33301 -48.667 27 -92.834 65 -132.501s79.333 -59.5 124 -59.5c50.667 0 93.667 18.167 129 54.5s53 80.166 53 131.499s-17.667 95.166 -53 131.499s-78.333 54.5 -129 54.5c-18 0 -35 -3.66699 -51 -11l-19 47c23.333 10 46.666 15 69.999 15
c64 0 118.833 -23.333 164.5 -70s68.5 -102.334 68.5 -167.001z" />
    <glyph glyph-name="uAA60.kham" unicode="&#xaa60;" unicode="&#xfe00;" horiz-adv-x="938" 
d="M825 177c-16.667 3.33301 -30.334 5.00098 -41.001 5.00098c-26 0 -51 -5.66699 -75 -17c-28.667 -14 -50.5 -30.667 -65.5 -50s-27.5 -44.333 -37.5 -75c11.333 -2.66699 24.333 -4 39 -4c42.667 0 80.834 12.667 114.501 38s55.5 59.666 65.5 102.999zM883 222.001
c0 -68.667 -24.1689 -125.332 -72.502 -169.999s-105.166 -67 -170.499 -67c-36 0 -70 7.33301 -102 22c16 52.667 34.333 94.834 55 126.501s52 57.167 94 76.5c37.333 16.667 70.666 25 99.999 25c14.667 0 29.667 -1.33301 45 -4c0 48 -18.667 89.5 -56 124.5
s-81 52.5 -131 52.5c-59.333 0 -109.333 -22.667 -150 -68c22.667 -40 34 -85.333 34 -136c0 -96.667 -32.333 -169.667 -97 -219l-30 43c50.667 46.667 76 104.667 76 174c0 59.333 -18 108.166 -54 146.499s-80 57.5 -132 57.5s-96 -19.167 -132 -57.5
s-54 -87.166 -54 -146.499c0 -30.667 5.66699 -61 17 -91c16.667 16.667 35.667 25 57 25c20 0 37.5 -7.33301 52.5 -22s22.5 -32.334 22.5 -53.001c0 -20 -7.5 -37.667 -22.5 -53s-32.5 -23 -52.5 -23c-25.333 0 -47.833 11.667 -67.5 35s-34.167 51.166 -43.5 83.499
s-14 65.166 -14 98.499c0 74.667 22.833 135.834 68.5 183.501s101.834 71.5 168.501 71.5s124.334 -25 173.001 -75c45.333 51.333 105.333 77 180 77c65.333 0 121.333 -23 168 -69s70 -102 70 -168z" />
    <glyph glyph-name="uAA61.kham" unicode="&#xaa61;" unicode="&#xfe00;" horiz-adv-x="991" 
d="M885 222c0 51.333 -17.833 95.166 -53.5 131.499s-78.834 54.5 -129.501 54.5c-50 0 -92.5 -18.167 -127.5 -54.5s-52.5 -80.166 -52.5 -131.499s17.833 -95.166 53.5 -131.499s78.834 -54.5 129.501 -54.5c50 0 92.5 18.167 127.5 54.5s52.5 80.166 52.5 131.499z
M936 222c0 -65.333 -22.667 -121.169 -68 -167.502s-100.666 -69.5 -165.999 -69.5c-41.333 0 -79 9.83301 -113 29.5s-62 46.834 -84 81.501c-14.667 -43.333 -41.667 -80.333 -81 -111l-30 43c51.333 46.667 77 104.667 77 174c0 59.333 -18 108.166 -54 146.499
s-80 57.5 -132 57.5c-49.333 0 -91 -14 -125 -42s-51 -55 -51 -81c0 -7.33301 2.16699 -12.166 6.5 -14.499s12.5 -3.5 24.5 -3.5c40 0 71.667 -13.667 95 -41s35 -59 35 -95c0 -38.667 -14 -72.334 -42 -101.001s-60.667 -43 -98 -43c-20 0 -37.5 7.66699 -52.5 23
s-22.5 33 -22.5 53c0 20.667 7.5 38.334 22.5 53.001s32.5 22 52.5 22c13.333 0 26.666 -4 39.999 -12s23.666 -20.333 30.999 -37c12 8 18 22 18 42s-6 39.333 -18 58s-32.333 28 -61 28c-56.667 0 -85 23.333 -85 70c0 40 21.833 78.667 65.5 116s98.5 56 164.5 56
c46 0 87.333 -11.5 124 -34.5s65.334 -54.833 86.001 -95.5c18.667 40 46.5 72 83.5 96s79.167 36 126.5 36c64 0 118.5 -23.167 163.5 -69.5s67.5 -102.166 67.5 -167.499z" />
    <glyph glyph-name="uAA62.kham" unicode="&#xaa62;" unicode="&#xfe00;" horiz-adv-x="640" 
d="M585 222c0 -65.333 -15.5 -121.168 -46.5 -167.501s-69.5 -69.5 -115.5 -69.5c-29.333 0 -56.166 10.833 -80.499 32.5s-42.666 45.5 -54.999 71.5s-24.5 49.833 -36.5 71.5s-21.667 32.5 -29 32.5s-17.333 -10.833 -30 -32.5s-27.834 -50 -45.501 -85
s-31.167 -60.167 -40.5 -75.5h-51v384c0 20 7.5 37.5 22.5 52.5s32.5 22.5 52.5 22.5c20.667 0 38.334 -7.5 53.001 -22.5s22 -32.5 22 -52.5c0 -20.667 -7.33301 -38.667 -22 -54s-32.334 -23 -53.001 -23c-6 0 -14 1.66699 -24 5v-203c20 40.667 38.167 72 54.5 94
s28.5 35.167 36.5 39.5s16.333 6.5 25 6.5c18 0 35.5 -11.167 52.5 -33.5s31.167 -46.666 42.5 -72.999s26.5 -50.666 45.5 -72.999s39.167 -33.5 60.5 -33.5c31.333 0 57.666 18.167 78.999 54.5s32 80.166 32 131.499c0 63.333 -15.333 110.166 -46 140.499
s-66 45.5 -106 45.5c-13.333 0 -24.666 -3 -33.999 -9l-21 45c13.333 10 31.666 15 54.999 15c62 0 111.333 -22.667 148 -68s55 -101.666 55 -168.999z" />
    <glyph glyph-name="uAA63.kham" unicode="&#xaa63;" unicode="&#xfe00;" horiz-adv-x="990" 
d="M471 199c0 51.333 -12 93.333 -36 126c-48 -37.333 -72 -84.333 -72 -141c0 -42.667 12.333 -82.667 37 -120c47.333 47.333 71 92.333 71 135zM884 222c0 50.667 -17.668 94.334 -53.001 131.001s-77.666 55 -126.999 55c-50 0 -93 -18.167 -129 -54.5
s-54 -79.5 -54 -129.5c0 -55.333 17.667 -100.5 53 -135.5s77.666 -52.5 126.999 -52.5c50.667 0 93.834 18.167 129.501 54.5s53.5 80.166 53.5 131.499zM934.999 222c0 -65.333 -22.5 -121.167 -67.5 -167.5s-99.5 -69.5 -163.5 -69.5c-44 0 -84 10.667 -120 32
s-64 50.333 -84 87c-18 -38.667 -52.333 -78.334 -103 -119.001c-56.667 56.667 -85 122 -85 196c0 74.667 29 136.334 87 185.001c-33.333 26.667 -71.333 40 -114 40c-48.667 0 -90.167 -14.167 -124.5 -42.5s-51.5 -55.5 -51.5 -81.5c0 -6.66699 2.5 -11.167 7.5 -13.5
s15.167 -3.5 30.5 -3.5c36 0 65.5 -13.667 88.5 -41s34.5 -59 34.5 -95c0 -38.667 -14 -72.334 -42 -101.001s-60.667 -43 -98 -43c-20 0 -37.5 7.66699 -52.5 23s-22.5 33 -22.5 53c0 20.667 7.5 38.334 22.5 53.001s32.5 22 52.5 22c33.333 0 57 -16.333 71 -49
c12 8 18 22 18 42c0 19.333 -6 38.5 -18 57.5s-30 28.5 -54 28.5c-30 0 -52.833 5.5 -68.5 16.5s-23.5 30.167 -23.5 57.5c0 37.333 22 74.666 66 111.999s98.667 56 164 56c45.333 0 86.5 -11.667 123.5 -35s65.5 -55 85.5 -95c20 40 48.333 72 85 96s77.334 36 122.001 36
c65.333 0 120.666 -23.167 165.999 -69.5s68 -102.166 68 -167.499z" />
    <glyph glyph-name="uAA64.kham" unicode="&#xaa64;" unicode="&#xfe00;" horiz-adv-x="999" 
d="M892 222c0 51.333 -17.5 95.166 -52.5 131.499s-77.5 54.5 -127.5 54.5c-50.667 0 -93.834 -18.167 -129.501 -54.5s-53.5 -80.166 -53.5 -131.499s17.5 -95.166 52.5 -131.499s77.5 -54.5 127.5 -54.5c50.667 0 93.834 18.167 129.501 54.5s53.5 80.166 53.5 131.499z
M943 222c0 -65.333 -22.4941 -121.167 -67.4941 -167.5s-99.5 -69.5 -163.5 -69.5c-46.667 0 -88.834 12.167 -126.501 36.5s-65.834 56.833 -84.501 97.5c-18.667 -41.333 -45.834 -73.666 -81.501 -96.999s-78.167 -35 -127.5 -35
c-66.667 0 -122.834 23.833 -168.501 71.5s-68.5 108.834 -68.5 183.501c0 33.333 4.66699 66.166 14 98.499s23.833 60.166 43.5 83.499s42.167 35 67.5 35c20 0 37.5 -7.66699 52.5 -23s22.5 -33 22.5 -53c0 -20.667 -7.5 -38.334 -22.5 -53.001s-32.5 -22 -52.5 -22
c-21.333 0 -40.333 8.33301 -57 25c-11.333 -28.667 -17 -59 -17 -91c0 -59.333 18 -108.166 54 -146.499s80 -57.5 132 -57.5s96 19.167 132 57.5s54 87.166 54 146.499c0 69.333 -25.333 127.333 -76 174l30 43c37.333 -28 64.666 -65 81.999 -111
c20.667 34 48.167 61 82.5 81s71.833 30 112.5 30c65.333 0 120.666 -23.167 165.999 -69.5s68 -102.166 68 -167.499z" />
    <glyph glyph-name="uAA65.kham" unicode="&#xaa65;" unicode="&#xfe00;" horiz-adv-x="1006" 
d="M951 222c0 -64.667 -22.8281 -120.335 -68.4951 -167.002s-100.5 -70 -164.5 -70c-26 0 -49.333 5 -70 15l19 46c14 -6.66699 31 -10 51 -10c50.667 0 93.667 18.167 129 54.5s53 80.166 53 131.499s-17.667 95.166 -53 131.499s-78.333 54.5 -129 54.5
s-94.834 -22.333 -132.501 -67s-56.5 -83 -56.5 -115v-501c0 -50 -15.333 -91.667 -46 -125s-72.334 -50 -125.001 -50h-159c-40.667 0 -72.334 11.833 -95.001 35.5s-34 50.167 -34 79.5v33h51v-21c0 -27.333 7.5 -46.833 22.5 -58.5s33.5 -17.5 55.5 -17.5h165
c30 0 56.5 12.667 79.5 38s34.5 57.666 34.5 96.999v340c-43.333 -60.667 -105.333 -91 -186 -91c-66.667 0 -122.834 23.833 -168.501 71.5s-68.5 108.834 -68.5 183.501c0 62 13.5 113.5 40.5 154.5s55.167 61.5 84.5 61.5c20 0 37.5 -7.5 52.5 -22.5
s22.5 -32.5 22.5 -52.5c0 -20.667 -7.5 -38.667 -22.5 -54s-32.5 -23 -52.5 -23c-21.333 0 -40.333 9 -57 27c-11.333 -28.667 -17 -59 -17 -91c0 -59.333 18 -108.166 54 -146.499s80 -57.5 132 -57.5c49.333 0 92.666 18.333 129.999 55s56 84.667 56 144
c0 72.667 -25.333 132.334 -76 179.001l30 43c42.667 -34 71 -75.333 85 -124c22.667 36.667 51.667 66.834 87 90.501s73.333 35.5 114 35.5c64 0 118.833 -23.167 164.5 -69.5s68.5 -102.166 68.5 -167.499z" />
    <glyph glyph-name="uAA66.kham" unicode="&#xaa66;" unicode="&#xfe00;" horiz-adv-x="997" 
d="M364 222c0 -20.667 -7.5 -38.5 -22.5 -53.5s-32.5 -22.5 -52.5 -22.5c-20.667 0 -38.334 7.5 -53.001 22.5s-22 32.833 -22 53.5s7.33301 38.334 22 53.001s32.334 22 53.001 22c20 0 37.5 -7.33301 52.5 -22s22.5 -32.334 22.5 -53.001zM469 217
c0 52.667 -17.166 97.665 -51.499 134.998s-77.166 56 -128.499 56c-50.667 0 -93.834 -18.167 -129.501 -54.5s-53.5 -80.166 -53.5 -131.499s17.667 -95.166 53 -131.499s77.666 -54.5 126.999 -54.5c52 0 95.5 18.5 130.5 55.5s52.5 78.833 52.5 125.5zM942.001 221.998
c0 -60.667 -21.167 -115.333 -63.5 -164s-93.833 -73 -154.5 -73h-15c-17.333 0 -34.166 7 -50.499 21s-24.5 32.333 -24.5 55c0 20.667 7.5 38.334 22.5 53.001s32.5 22 52.5 22c20.667 0 38.334 -7.33301 53.001 -22s22 -32.334 22 -53.001c0 -6 -0.333008 -10.333 -1 -13
c34 14 60.5 38.333 79.5 73s28.5 68.334 28.5 101.001c0 51.333 -17.667 95.166 -53 131.499s-78.333 54.5 -129 54.5c-38 0 -72.167 -13.167 -102.5 -39.5s-52.333 -54.333 -66 -84s-20.5 -55.167 -20.5 -76.5c0 -30 -8.5 -61.667 -25.5 -95s-43.833 -63 -80.5 -89
s-78.334 -39 -125.001 -39c-66 0 -121.5 23 -166.5 69s-67.5 102 -67.5 168c0 64.667 22.667 120.334 68 167.001s99.666 70 162.999 70c47.333 0 90.5 -13.167 129.5 -39.5s67.5 -60.833 85.5 -103.5c22 41.333 51.833 75.5 89.5 102.5s77.167 40.5 118.5 40.5
c63.333 0 118 -23.333 164 -70s69 -102.334 69 -167.001z" />
    <glyph glyph-name="uAA6B.kham" unicode="&#xaa6b;" unicode="&#xfe00;" horiz-adv-x="714" 
d="M325 109c0 25.333 -8.16797 47.667 -24.501 67s-38.5 33 -66.5 41c-2 -6 -3 -15.667 -3 -29c0 -24 6 -50 18 -78s28.333 -48.667 49 -62c6.66699 4 12.834 11.667 18.501 23s8.5 24 8.5 38zM657.999 202.001c0 -52.667 -8.33398 -95.666 -25.001 -128.999
s-40.667 -62.666 -72 -87.999l-30 43c50.667 48.667 76 106.667 76 174c0 60 -18 109 -54 147s-80 57 -132 57c-44.667 0 -83.334 -14 -116.001 -42s-53.334 -60 -62.001 -96c86.667 -32.667 130 -85.667 130 -159c0 -46 -21.333 -87.333 -64 -124
c-41.333 17.333 -73 45.166 -95 83.499s-33 80.833 -33 127.5c0 10.667 1.66699 25.334 5 44.001c-25.333 13.333 -46.166 25.333 -62.499 36s-31.833 25.667 -46.5 45s-22 39.666 -22 60.999c0 20.667 7.5 38.334 22.5 53.001s32.5 22 52.5 22
c20.667 0 38.334 -7.33301 53.001 -22s22 -32.334 22 -53.001c0 -30 -14.333 -53 -43 -69c8 -8 20 -16 36 -24c16 52 44 93 84 123s86.333 45 139 45c66.667 0 122.834 -23.833 168.501 -71.5s68.5 -108.834 68.5 -183.501z" />
    <glyph glyph-name="uAA6C.kham" unicode="&#xaa6c;" unicode="&#xfe00;" horiz-adv-x="990" 
d="M934 222c0 -65.333 -20.6748 -121.166 -62.0078 -167.499s-93 -69.5 -155 -69.5c-42 0 -75.667 7.33301 -101 22s-42.166 32.5 -50.499 53.5s-14.5 41.833 -18.5 62.5s-9.66699 38.334 -17 53.001s-19 22 -35 22s-27.667 -7.33301 -35 -22s-13.166 -32.5 -17.499 -53.5
s-10.666 -41.833 -18.999 -62.5s-25 -38.334 -50 -53.001s-58.5 -22 -100.5 -22c-64.667 0 -117.167 23 -157.5 69s-60.5 106.333 -60.5 181c0 66 21.667 122 65 168s96.666 69 159.999 69c27.333 0 49.166 -7.5 65.499 -22.5s24.5 -32.833 24.5 -53.5
s-7.33301 -38.334 -22 -53.001s-32.334 -22 -53.001 -22c-20 0 -37.5 7.33301 -52.5 22s-22.5 31.667 -22.5 51c0 3.33301 0.666992 9 2 17c-34.667 -13.333 -62.667 -36 -84 -68s-32 -68 -32 -108c0 -60.667 15.333 -109 46 -145s71 -54 121 -54
c34.667 0 61.334 7.33301 80.001 22s30.834 32.334 36.501 53.001s10.834 41.5 15.501 62.5s13.834 38.833 27.501 53.5s34.5 22 62.5 22s48.833 -7.33301 62.5 -22s22.834 -32.5 27.501 -53.5s9.83398 -41.833 15.501 -62.5s17.834 -38.334 36.501 -53.001
s45.334 -22 80.001 -22c48.667 0 88.5 18 119.5 54s46.5 80 46.5 132c0 53.333 -13.167 97.666 -39.5 132.999s-63.5 53 -111.5 53c-15.333 0 -27 -3 -35 -9l-21 45c13.333 10 32 15 56 15c62 0 111.167 -22.667 147.5 -68s54.5 -101.666 54.5 -168.999z" />
    <glyph glyph-name="uAA6F.kham" unicode="&#xaa6f;" unicode="&#xfe00;" horiz-adv-x="726" 
d="M619 222c0 51.333 -17.667 95.166 -53 131.499s-77.666 54.5 -126.999 54.5c-50.667 0 -93.834 -18.167 -129.501 -54.5s-53.5 -80.166 -53.5 -131.499s17.667 -95.166 53 -131.499s77.666 -54.5 126.999 -54.5c50.667 0 93.834 18.167 129.501 54.5
s53.5 80.166 53.5 131.499zM670 222c0 -65.333 -22.498 -121.165 -67.498 -167.498s-99.5 -69.5 -163.5 -69.5c-60.667 0 -113.334 21 -158.001 63s-70 93.333 -76 154c-35.333 57.333 -68.333 107 -99 149v-219c7.33301 2.66699 15.333 4 24 4c20 0 37.5 -7.66699 52.5 -23
s22.5 -33 22.5 -53c0 -20.667 -7.33301 -38.334 -22 -53.001s-32.334 -22 -53.001 -22c-20 0 -37.5 7.33301 -52.5 22s-22.5 32.334 -22.5 53.001v384h51c30 -40.667 66 -93.334 108 -158.001c14 50 41.333 91.333 82 124s87.334 49 140.001 49
c65.333 0 120.666 -23.333 165.999 -70s68 -102.334 68 -167.001z" />
    <glyph glyph-name=".notdef" 
d="M106 408v-357h365v357h-365zM520 459v-459h-465v459h465z" />
    <glyph glyph-name="nonmarkingreturn" unicode="&#xd;" horiz-adv-x="1000" 
 />
    <glyph glyph-name="space" unicode=" " horiz-adv-x="378" 
 />
    <glyph glyph-name="exclam" unicode="!" horiz-adv-x="229" 
d="M115 813c21.333 0 33.0039 -18.667 35.0039 -56c0.666992 -9.33301 1 -26.333 1 -51c0 -169.333 -6.66699 -315.333 -20 -438c-4.66699 -41.333 -7.83398 -66.333 -9.50098 -75s-3.83398 -13 -6.50098 -13s-4.83398 4.5 -6.50098 13.5s-4.83398 34.167 -9.50098 75.5
c-12.667 116 -19 261.667 -19 437c0 24.667 0.333008 41.667 1 51c2 37.333 13.333 56 34 56zM174.004 42c0 -15.333 -6 -28.666 -18 -39.999s-25.667 -17 -41 -17s-29 5.66699 -41 17s-18 24.666 -18 39.999s6 28.666 18 39.999s25.667 17 41 17s29 -5.66699 41 -17
s18 -24.666 18 -39.999z" />
    <glyph glyph-name="quotedbl" unicode="&#x22;" horiz-adv-x="403" 
d="M156 643l-21 -256h-53l-21 256h95zM340 643l-21 -256h-54l-19 256h94z" />
    <glyph glyph-name="numbersign" unicode="#" horiz-adv-x="516" 
d="M324 282h-120l-15 -120h120zM460 111h-106l-18 -141h-51l18 141h-120l-18 -141h-51l18 141h-77v51h83l15 120h-98v51h105l20 156h51l-20 -156h120l20 156h51l-20 -156h78v-51h-85l-15 -120h100v-51z" />
    <glyph glyph-name="dollar" unicode="$" horiz-adv-x="498" 
d="M376 166c0 22 -2.16699 39.9971 -6.5 53.9971s-11 24.667 -20 32s-18.667 13 -29 17s-22.833 7.66699 -37.5 11c-4.66699 0.666992 -8 1.33398 -10 2.00098v-216c36 0.666992 62.167 8.33398 78.5 23.001s24.5 40.334 24.5 77.001zM228 372.997l0.00195312 185
c-22.667 0 -41 -2.33301 -55 -7s-24 -12.167 -30 -22.5s-9.83301 -20 -11.5 -29s-2.5 -21.5 -2.5 -37.5c0 -10.667 0.666992 -19.834 2 -27.501s3.66602 -14.167 6.99902 -19.5s6.5 -9.66602 9.5 -12.999s8.16699 -6.5 15.5 -9.5s13.166 -5.16699 17.499 -6.5
s11.833 -3.33301 22.5 -6s19 -5 25 -7zM466.002 171.997c0 -114.667 -64.3291 -175.998 -192.996 -183.998v-81h-45v79c-65.333 0 -114.5 18 -147.5 54s-49.5 84.667 -49.5 146h90c0 -81.333 35.667 -122 107 -122v222l-43.5 11.5c-9 2.33301 -21.667 6.33301 -38 12
s-28.5 11.167 -36.5 16.5s-17.5 12.5 -28.5 21.5s-18.833 18.667 -23.5 29s-9 23 -13 38s-6 31.833 -6 50.5c0 50 16.667 91 50 123s79.666 48 138.999 48v72h45v-71c56 0 98 -16.333 126 -49s42 -73.334 42 -122.001h-90c0 35.333 -5.5 59.5 -16.5 72.5
s-31.5 19.5 -61.5 19.5v-195c2 -0.666992 10.333 -2.5 25 -5.5s25.167 -5.33301 31.5 -7s16.666 -5 30.999 -10s25.166 -10.167 32.499 -15.5s16.5 -12.833 27.5 -22.5s19.167 -20.334 24.5 -32.001s10.166 -26 14.499 -43s6.5 -35.5 6.5 -55.5z" />
    <glyph glyph-name="percent" unicode="%" horiz-adv-x="624" 
d="M546 94c0 20 -7.33496 37.501 -22.002 52.501s-32 22.5 -52 22.5c-21.333 0 -39.166 -7.33301 -53.499 -22s-21.5 -32.334 -21.5 -53.001c0 -20 7.33301 -37.5 22 -52.5s32.334 -22.5 53.001 -22.5c19.333 0 36.5 7.5 51.5 22.5s22.5 32.5 22.5 52.5zM225.998 334.001
c0 20.667 -7.33496 38.334 -22.002 53.001s-31.667 22 -51 22c-21.333 0 -39.166 -7.33301 -53.499 -22s-21.5 -32.334 -21.5 -53.001c0 -20 7.33301 -37.5 22 -52.5s32.334 -22.5 53.001 -22.5c19.333 0 36.333 7.5 51 22.5s22 32.5 22 52.5zM594.996 94.001
c0 -32 -12.3311 -60.667 -36.998 -86s-53.334 -38 -86.001 -38c-33.333 0 -62.333 12.5 -87 37.5s-37 53.833 -37 86.5c0 34 12.333 63.333 37 88s53.667 37 87 37s62.166 -12.333 86.499 -37s36.5 -54 36.5 -88zM275.998 334.001c0 -32 -12.3311 -60.667 -36.998 -86
s-53.334 -38 -86.001 -38c-33.333 0 -62.5 12.5 -87.5 37.5s-37.5 53.833 -37.5 86.5c0 34 12.333 63.333 37 88s54 37 88 37c33.333 0 62.166 -12.333 86.499 -37s36.5 -54 36.5 -88zM519 463.001l-375 -531l-39 33l372 530z" />
    <glyph glyph-name="ampersand" unicode="&#x26;" horiz-adv-x="682" 
d="M432 116c-58.667 52.667 -124.333 122 -197 208c-24.667 -6 -46.334 -23 -65.001 -51s-28 -56.667 -28 -86c0 -26 13 -53.167 39 -81.5s57 -42.5 93 -42.5c64.667 0 117.334 17.667 158.001 53zM373.001 524c0 18 -7.83105 33.3311 -23.498 45.998s-33.834 19 -54.501 19
c-28.667 0 -49.834 -6.5 -63.501 -19.5s-20.5 -29.5 -20.5 -49.5c0 -28 17.667 -64 53 -108c31.333 12.667 57.333 29.334 78 50.001s31 41.334 31 62.001zM675.003 -0.00195312h-124.998l-70 63c-61.333 -50 -131 -75 -209 -75c-60.667 0 -112.334 18.333 -155.001 55
s-64 83.667 -64 141c0 50 12.5 89.333 37.5 118s59.5 53 103.5 73c-46 50 -69 96 -69 138c0 41.333 15.167 75.333 45.5 102s68.166 40 113.499 40c48 0 87.333 -11.167 118 -33.5s46 -52.166 46 -89.499c0 -21.333 -4.16699 -40.833 -12.5 -58.5s-21 -33.667 -38 -48
s-31 -25 -42 -32s-26.833 -16.167 -47.5 -27.5c38 -47.333 94 -108 168 -182c11.333 33.333 17 67.666 17 102.999c0 15.333 -2 41.666 -6 78.999h93v-18c0 -84.667 -16 -157.667 -48 -219c10.667 -13.333 32 -34.166 64 -62.499s58.667 -50.5 80 -66.5z" />
    <glyph glyph-name="quotesingle" unicode="'" horiz-adv-x="328" 
d="M210 643l-20 -256h-54l-19 256h93z" />
    <glyph glyph-name="parenleft" unicode="(" horiz-adv-x="396" 
d="M340 -450h-51c-76.667 94.667 -131.5 195 -164.5 301s-49.5 225.667 -49.5 359c0 137.333 16.833 261 50.5 371s88.167 217.333 163.5 322h51c-74.667 -101.333 -129 -206.333 -163 -315s-51 -234.667 -51 -378c0 -263.333 71.333 -483.333 214 -660z" />
    <glyph glyph-name="parenright" unicode=")" horiz-adv-x="396" 
d="M321 222c0 -134 -16.667 -253.832 -50 -359.499s-88.333 -205.834 -165 -300.501h-51c143.333 176.667 215 396.667 215 660c0 142.667 -17.167 268.5 -51.5 377.5s-88.833 214.167 -163.5 315.5h51c75.333 -104.667 130 -212.167 164 -322.5s51 -233.833 51 -370.5z" />
    <glyph glyph-name="asterisk" unicode="*" horiz-adv-x="564" 
d="M509 358l-30 -50l-168 99v-196h-56v196l-171 -99l-29 50l171 98l-171 99l29 47l168 -97v196h59v-195l168 96l30 -47l-172 -99z" />
    <glyph glyph-name="plus" unicode="+" horiz-adv-x="570" 
d="M477 247v-51h-167v-165h-51v165h-166v51h166v168h51v-168h167z" />
    <glyph glyph-name="comma" unicode="," horiz-adv-x="231" 
d="M191 53c0 -48 -10.833 -91.667 -32.5 -131s-45.167 -63.666 -70.5 -72.999l-14 9c44 30.667 66 76.667 66 138c0 14.667 -1 25 -3 31c-5.33301 -4.66699 -16.333 -10.334 -33 -17.001s-29.667 -10 -39 -10c-16.667 0 -25 17.667 -25 53c0 23.333 7.83301 42.5 23.5 57.5
s33.167 22.5 52.5 22.5c20 0 37.5 -7.16699 52.5 -21.5s22.5 -33.833 22.5 -58.5z" />
    <glyph glyph-name="hyphen" unicode="-" horiz-adv-x="495" 
d="M439 247v-51h-384v51h384z" />
    <glyph glyph-name="period" unicode="." horiz-adv-x="199" 
d="M159 42c0 -16 -5.83301 -29.5 -17.5 -40.5s-25.5 -16.5 -41.5 -16.5s-30 5.5 -42 16.5s-18 24.5 -18 40.5c0 15.333 6 28.666 18 39.999s26 17 42 17c15.333 0 29 -5.66699 41 -17s18 -24.666 18 -39.999z" />
    <glyph glyph-name="slash" unicode="/" horiz-adv-x="495" 
d="M439 775l-346 -987l-38 38l347 987z" />
    <glyph glyph-name="zero" unicode="0" horiz-adv-x="498" 
d="M367 334c0 38.667 -1.33594 71.166 -4.00293 97.499s-8 51.666 -16 75.999s-20.167 42.5 -36.5 54.5s-36.833 18 -61.5 18c-25.333 0 -46.166 -6 -62.499 -18s-28.5 -30.167 -36.5 -54.5s-13.333 -49.666 -16 -75.999s-4 -58.833 -4 -97.5
c0 -40 1.33301 -74.167 4 -102.5s7.83398 -56.5 15.501 -84.5s19.834 -49.333 36.501 -64s37.667 -22 63 -22c24.667 0 45.167 7.33301 61.5 22s28.5 35.834 36.5 63.501s13.333 56 16 85s4 63.167 4 102.5zM452.997 333.999c0 -35.333 -1.16699 -67 -3.5 -95
s-7.66602 -58.667 -15.999 -92s-19.5 -61 -33.5 -83s-33.833 -40.5 -59.5 -55.5s-56.167 -22.5 -91.5 -22.5s-65.833 7.5 -91.5 22.5s-45.5 33.5 -59.5 55.5s-25.167 49.667 -33.5 83s-13.666 64 -15.999 92s-3.5 59.667 -3.5 95c0 34.667 1.16699 65.5 3.5 92.5
s7.66602 55.5 15.999 85.5s19.5 54.833 33.5 74.5s33.833 36 59.5 49s56.167 19.5 91.5 19.5s65.833 -6.5 91.5 -19.5s45.5 -29.333 59.5 -49s25.167 -44.5 33.5 -74.5s13.666 -58.5 15.999 -85.5s3.5 -57.833 3.5 -92.5z" />
    <glyph glyph-name="one" unicode="1" horiz-adv-x="498" 
d="M337 0h-82v535c-42 -36.667 -88.667 -61 -140 -73v73c53.333 17.333 97.333 53.333 132 108h90v-643z" />
    <glyph glyph-name="two" unicode="2" horiz-adv-x="498" 
d="M442 0l-387.001 -0.000976562v82c56.667 43.333 104.834 84 144.501 122s69.167 69.167 88.5 93.5s34.166 49 44.499 74s16.166 43 17.499 54s2 25.167 2 42.5c0 38.667 -7.16699 67 -21.5 85s-39.166 27 -74.499 27c-31.333 0 -55 -8.83301 -71 -26.5
s-26.333 -46.167 -31 -85.5h-91c10.667 124.667 75 187 193 187c58.667 0 104.334 -17.667 137.001 -53s49 -75.666 49 -120.999c0 -24 -1 -43.833 -3 -59.5s-8.16699 -36.5 -18.5 -62.5s-25.333 -51.667 -45 -77s-48.167 -56.333 -85.5 -93s-83 -76.667 -137 -120h289v-69z
" />
    <glyph glyph-name="three" unicode="3" horiz-adv-x="498" 
d="M456 171c0 -52.667 -19.835 -96.666 -59.502 -131.999s-89.834 -53 -150.501 -53c-68 0 -119.333 18.167 -154 54.5s-52 79.166 -52 128.499h95c8.66699 -76 46 -114 112 -114c30.667 0 58.334 11 83.001 33s37 47.667 37 77c0 49.333 -10 84.166 -30 104.499
s-53.333 30.5 -100 30.5v70c44.667 0 75.834 9.16699 93.501 27.5s26.5 49.833 26.5 94.5c0 33.333 -11.5 57.333 -34.5 72s-48.5 22 -76.5 22c-56 0 -90 -37 -102 -111h-90c7.33301 58.667 27 103.334 59 134.001s75.333 46 130 46c60.667 0 109.834 -16.167 147.501 -48.5
s56.5 -72.5 56.5 -120.5c0 -40 -5.83301 -71.167 -17.5 -93.5s-28.5 -40.833 -50.5 -55.5c17.333 -10.667 31 -21.667 41 -33s18.5 -28 25.5 -50s10.5 -49.667 10.5 -83z" />
    <glyph glyph-name="four" unicode="4" horiz-adv-x="498" 
d="M309 231v313l-212 -313h212zM471 156h-80v-156h-82v156h-284v93l269 394h97v-412h80v-75z" />
    <glyph glyph-name="five" unicode="5" horiz-adv-x="498" 
d="M450 210c0 -54 -19 -104.501 -57 -151.501s-83 -70.5 -135 -70.5c-66 0 -117.833 14.833 -155.5 44.5s-56.5 70.834 -56.5 123.501h95c0 -32 9.66699 -56.333 29 -73s45 -25 77 -25c30 0 56.333 13.333 79 40s34 63.334 34 110.001c0 102 -34.667 153 -104 153
c-50.667 0 -90.667 -31 -120 -93h-79l12 375h340v-75h-253l-11 -201c17.333 21.333 35.333 36.666 54 45.999s43.667 14 75 14c54.667 0 97.667 -21 129 -63s47 -93.333 47 -154z" />
    <glyph glyph-name="six" unicode="6" horiz-adv-x="498" 
d="M366 192c0 90.667 -37.667 136 -113 136c-76 0 -114 -45.333 -114 -136c0 -91.333 38 -137 114 -137c75.333 0 113 45.667 113 137zM456 192c0 -22 -2.99707 -43.8301 -8.99707 -65.4971s-15.667 -43.667 -29 -66s-34 -40.333 -62 -54s-61.333 -20.5 -100 -20.5
s-71.167 4.83301 -97.5 14.5s-47.166 22.167 -62.499 37.5s-27 37.666 -35 66.999s-13.167 58.5 -15.5 87.5s-3.5 66.833 -3.5 113.5s2.83301 88.5 8.5 125.5s15.667 73.5 30 109.5s36.666 64 66.999 84s67.5 30 111.5 30c56.667 0 98.667 -13.333 126 -40
s45 -68.334 53 -125.001h-86c-2.66699 35.333 -11.834 60.166 -27.501 74.499s-37.834 21.5 -66.501 21.5c-86 0 -129 -90.333 -129 -271c31.333 54 76.666 81 135.999 81c39.333 0 72.5 -6.83301 99.5 -20.5s46.667 -32 59 -55s20.833 -44.667 25.5 -65s7 -41.5 7 -63.5z
" />
    <glyph glyph-name="seven" unicode="7" horiz-adv-x="498" 
d="M447 553l-210 -553h-98l228 571h-316v72h396v-90z" />
    <glyph glyph-name="eight" unicode="8" horiz-adv-x="498" 
d="M373 183c0 37.333 -10.833 67.168 -32.5 89.501s-52.167 33.5 -91.5 33.5c-38.667 0 -69.334 -11.333 -92.001 -34s-34 -52.334 -34 -89.001c0 -38 10.333 -68.5 31 -91.5s52.334 -34.5 95.001 -34.5c82.667 0 124 42 124 126zM360 480.002
c0 33.333 -9.83301 59.333 -29.5 78s-46.834 28 -81.501 28s-61.667 -9.33301 -81 -28s-29 -44.667 -29 -78c0 -31.333 10.667 -57 32 -77s47.333 -30 78 -30s56.834 9.83301 78.501 29.5s32.5 45.5 32.5 77.5zM460 165.002c0 -60 -21.334 -104.501 -64.001 -133.501
s-91.667 -43.5 -147 -43.5c-24.667 0 -48.667 3.16699 -72 9.5s-45.666 16 -66.999 29s-38.5 31.5 -51.5 55.5s-19.5 51.667 -19.5 83c0 80.667 40.333 139 121 175c-68.667 33.333 -103 86 -103 158c0 50 19.5 88.667 58.5 116s83.5 41 133.5 41
c50.667 0 95.5 -13.667 134.5 -41s58.5 -66 58.5 -116c0 -37.333 -10.5 -70 -31.5 -98s-45.833 -48 -74.5 -60c30.667 -11.333 59 -32.166 85 -62.499s39 -67.833 39 -112.5z" />
    <glyph glyph-name="nine" unicode="9" horiz-adv-x="498" 
d="M357 450c0 45.333 -8.83301 79.333 -26.5 102s-46.5 34 -86.5 34s-68.667 -11.333 -86 -34s-26 -56.667 -26 -102s8.66699 -79.5 26 -102.5s46 -34.5 86 -34.5s68.833 11.5 86.5 34.5s26.5 57.167 26.5 102.5zM456 337c0 -234 -72.667 -351 -218 -351
c-56.667 0 -98.834 13.667 -126.501 41s-45.5 69.333 -53.5 126h87c2.66699 -36 12 -61.333 28 -76s38.333 -22 67 -22c27.333 0 50.333 9.33301 69 28s32 43.834 40 75.501s13.333 60.5 16 86.5s4 53.667 4 83c-17.333 -28.667 -36.333 -49.5 -57 -62.5
s-47.667 -19.5 -81 -19.5c-32 0 -59.833 4.83301 -83.5 14.5s-42 21.5 -55 35.5s-23.5 30.833 -31.5 50.5s-13.167 37.5 -15.5 53.5s-3.5 32.667 -3.5 50s1.66699 34.666 5 51.999s9.5 35.5 18.5 54.5s20.667 35.5 35 49.5s33.5 25.667 57.5 35s51.667 14 83 14
c38.667 0 71.334 -4.83301 98.001 -14.5s47.667 -22.167 63 -37.5s27 -37.333 35 -66s13.167 -57.5 15.5 -86.5s3.5 -66.833 3.5 -113.5z" />
    <glyph glyph-name="colon" unicode=":" horiz-adv-x="199" 
d="M159 43c0 -15.333 -6.00098 -28.833 -18.001 -40.5s-25.667 -17.5 -41 -17.5s-29.166 5.83301 -41.499 17.5s-18.5 25.167 -18.5 40.5c0 16 6 29.5 18 40.5s26 16.5 42 16.5s29.833 -5.5 41.5 -16.5s17.5 -24.5 17.5 -40.5zM158.999 400
c0 -15.333 -6 -28.666 -18 -39.999s-25.667 -17 -41 -17c-16 0 -30 5.66699 -42 17s-18 24.666 -18 39.999c0 16 6 29.833 18 41.5s26 17.5 42 17.5c15.333 0 29 -5.83301 41 -17.5s18 -25.5 18 -41.5z" />
    <glyph glyph-name="semicolon" unicode=";" horiz-adv-x="207" 
d="M160 33c0 -30 -7.50098 -57.3311 -22.501 -81.998s-30.833 -42 -47.5 -52l-8 6c28 20 42 53.667 42 101c0 5.33301 -0.333008 9.33301 -1 12c-25.333 -13.333 -46 -20 -62 -20c-6 0 -11 4.16699 -15 12.5s-6 18.166 -6 29.499c0 16 6 29.833 18 41.5s25 17.5 39 17.5
c16.667 0 31.334 -6.33301 44.001 -19s19 -28.334 19 -47.001zM158.999 402.002c0 -16 -6 -29.833 -18 -41.5s-25.667 -17.5 -41 -17.5c-16 0 -30 5.83301 -42 17.5s-18 25.5 -18 41.5c0 15.333 6 28.666 18 39.999s26 17 42 17c15.333 0 29 -5.66699 41 -17
s18 -24.666 18 -39.999z" />
    <glyph glyph-name="less" unicode="&#x3c;" horiz-adv-x="891" 
d="M712 90v-56l-534 204v57l534 204v-55l-477 -177z" />
    <glyph glyph-name="equal" unicode="=" horiz-adv-x="576" 
d="M520 333v-51h-465v51h465zM520 162v-51h-465v51h465z" />
    <glyph glyph-name="greater" unicode="&#x3e;" horiz-adv-x="891" 
d="M712 295v-57l-534 -204v56l477 177l-477 177v55z" />
    <glyph glyph-name="question" unicode="?" horiz-adv-x="446" 
d="M391 590c0 -27.333 -5.33398 -51.166 -16.001 -71.499s-23.5 -36.333 -38.5 -48l-44.5 -33c-14.667 -10.333 -27.334 -23.166 -38.001 -38.499s-16 -33.333 -16 -54v-145h-51v159c0 24 5.33301 45 16 63s23.5 32.667 38.5 44l44.5 33
c14.667 10.667 27.334 23.667 38.001 39s16 32.666 16 51.999c0 32.667 -12.667 62.834 -38 90.501s-55 41.5 -89 41.5c-36.667 0 -67 -15.167 -91 -45.5s-36 -55.833 -36 -76.5v-52h-51v52c0 11.333 3.16699 25.666 9.5 42.999s15.833 36.166 28.5 56.499
s31.334 37.666 56.001 51.999s52.667 21.5 84 21.5c52 0 94.667 -18.167 128 -54.5s50 -79.166 50 -128.499zM267.999 55c0 -16.667 -5.66699 -30 -17 -40s-24 -15 -38 -15s-26.667 5 -38 15s-17 23.333 -17 40c0 18 5.5 31.833 16.5 41.5s23.833 14.5 38.5 14.5
c14 0 26.667 -5 38 -15s17 -23.667 17 -41z" />
    <glyph glyph-name="at" unicode="@" horiz-adv-x="891" 
d="M528 237c0 40 -8.33301 73.167 -25 99.5s-41 39.5 -73 39.5c-32.667 0 -57 -13.167 -73 -39.5s-24 -59.5 -24 -99.5c0 -102 32.333 -153 97 -153c31.333 0 55.5 15 72.5 45s25.5 66 25.5 108zM837 265c0 -66 -17.3369 -123.665 -52.0039 -172.998
s-77.334 -74 -128.001 -74c-52.667 0 -91.667 28.333 -117 85c-15.333 -27.333 -33.166 -47.666 -53.499 -60.999s-47.166 -20 -80.499 -20c-45.333 0 -83.166 20 -113.499 60s-45.5 89.667 -45.5 149c0 63.333 15 113.666 45 150.999s68 56 114 56
c28.667 0 52.167 -4.16699 70.5 -12.5s36.5 -23.833 54.5 -46.5v53h81v-300c0 -24 17.333 -36 52 -36c20.667 0 40.334 13.5 59.001 40.5s28 69.833 28 128.5c0 104 -26.667 178.833 -80 224.5s-129 68.5 -227 68.5c-36.667 0 -71.834 -5.16699 -105.501 -15.5
s-66.167 -26.333 -97.5 -48s-56.333 -52.834 -75 -93.501s-28 -88 -28 -142c0 -106 26.833 -188.667 80.5 -248s132.167 -89 235.5 -89c38.667 0 66.667 0.833008 84 2.5s40 6.16699 68 13.5v-73c-30.667 -10.667 -54.5 -17.334 -71.5 -20.001s-41.167 -4 -72.5 -4
c-42.667 0 -82.667 3.83301 -120 11.5s-74.166 21.5 -110.499 41.5s-67.333 45.333 -93 76s-46.5 70.667 -62.5 120s-24 105.333 -24 168c0 114.667 38.5 206.5 115.5 275.5s167.167 103.5 270.5 103.5c122.667 0 219.834 -32 291.501 -96s107.5 -156 107.5 -276z" />
    <glyph glyph-name="A" unicode="A" horiz-adv-x="667" 
d="M453 247l-123 296l-120 -296h243zM654 0h-93l-71 171h-315l-70 -171h-92l269 643h99z" />
    <glyph glyph-name="B" unicode="B" horiz-adv-x="600" 
d="M459 189c0 35.333 -13.832 62.666 -41.499 81.999s-67.834 29 -120.501 29h-137v-222h141c46.667 0 84.667 10.333 114 31s44 47.334 44 80.001zM439.001 471c0 62.667 -45.333 94 -136 94h-143v-192h141c92 0 138 32.667 138 98zM546.001 178
c0 -50.667 -19.334 -92.999 -58.001 -126.999s-84 -51 -136 -51h-280v643h258c55.333 0 101.333 -13.5 138 -40.5s55 -66.5 55 -118.5c0 -34 -11.167 -64 -33.5 -90s-48.166 -43 -77.499 -51c37.333 -10 69 -29.833 95 -59.5s39 -64.834 39 -105.501z" />
    <glyph glyph-name="C" unicode="C" horiz-adv-x="606" 
d="M552 171c0 -52.667 -21.001 -96.6709 -63.001 -132.004s-99 -53 -171 -53c-48 0 -89.833 8.83301 -125.5 26.5s-63.334 42.334 -83.001 74.001s-34.167 66.334 -43.5 104.001s-14 79.5 -14 125.5s4.66699 88.333 14 127s23.833 74.334 43.5 107.001
s47.334 58.334 83.001 77.001s77.834 28 126.501 28c76.667 0 134.167 -17.167 172.5 -51.5s57.5 -78.5 57.5 -132.5h-90c0 38.667 -11 67.334 -33 86.001s-57.667 28 -107 28c-116.667 0 -175 -89.667 -175 -269c0 -92.667 14.5 -158.834 43.5 -198.501
s71.833 -59.5 128.5 -59.5c97.333 0 146 37.667 146 113h90z" />
    <glyph glyph-name="D" unicode="D" horiz-adv-x="640" 
d="M499 322c0 78 -20 138 -60 180s-95.333 63 -166 63h-113v-487h113c70 0 125.167 21.333 165.5 64s60.5 102.667 60.5 180zM588 322c0 -32.667 -3.16895 -63.833 -9.50195 -93.5s-17.166 -58.667 -32.499 -87s-34.666 -52.833 -57.999 -73.5
s-53.666 -37.167 -90.999 -49.5s-79.333 -18.5 -126 -18.5h-199v643h199c58.667 0 109.167 -8.83301 151.5 -26.5s75.166 -42 98.499 -73s40.333 -64.833 51 -101.5s16 -76.667 16 -120z" />
    <glyph glyph-name="E" unicode="E" horiz-adv-x="540" 
d="M478 0h-406v643h397v-78h-309v-198h300v-76h-300v-213h318v-78z" />
    <glyph glyph-name="F" unicode="F" horiz-adv-x="507" 
d="M427 291h-267v-291h-88v643h373v-78h-285v-198h267v-76z" />
    <glyph glyph-name="G" unicode="G" horiz-adv-x="678" 
d="M606 31c-86 -30 -163.999 -45.001 -233.999 -45.001c-213.333 0 -320 120 -320 360c0 88.667 28.333 162.334 85 221.001s132.334 88 227.001 88c77.333 0 137.666 -18.5 180.999 -55.5s65 -75.833 65 -116.5h-90c0 20.667 -14.167 41.5 -42.5 62.5
s-63.5 31.5 -105.5 31.5c-77.333 0 -134.5 -21 -171.5 -63s-55.5 -98.333 -55.5 -169c0 -38 3.66699 -73 11 -105s19.166 -61.333 35.499 -88s38.833 -47.667 67.5 -63s62.667 -23 102 -23c58 0 110 7 156 21v178h-147v78h236v-312z" />
    <glyph glyph-name="H" unicode="H" horiz-adv-x="631" 
d="M561 0h-92v291h-309v-291h-88v643h88v-276h309v276h92v-643z" />
    <glyph glyph-name="I" unicode="I" horiz-adv-x="232" 
d="M160 0h-88v643h88v-643z" />
    <glyph glyph-name="J" unicode="J" horiz-adv-x="507" 
d="M435 192c0 -61.333 -18.335 -111.002 -55.002 -149.002s-84 -57 -142 -57c-55.333 0 -100.166 17.333 -134.499 52s-51.5 79.334 -51.5 134.001h89c0.666992 -70.667 34.667 -106 102 -106c28.667 0 52.834 10.833 72.501 32.5s29.5 52.834 29.5 93.501v451h90v-451z" />
    <glyph glyph-name="K" unicode="K" horiz-adv-x="592" 
d="M570 0h-120l-290 339v-339h-88v643h88v-274l266 274h111l-273 -277z" />
    <glyph glyph-name="L" unicode="L" horiz-adv-x="471" 
d="M445 0h-373v643h88v-565h285v-78z" />
    <glyph glyph-name="M" unicode="M" horiz-adv-x="799" 
d="M727 0h-88v558l-206 -558h-70l-203 553v-553h-88v643h141l186 -519l187 519h141v-643z" />
    <glyph glyph-name="N" unicode="N" horiz-adv-x="643" 
d="M573 0h-129l-284 526v-526h-88v643h126l285 -528v528h90v-643z" />
    <glyph glyph-name="O" unicode="O" horiz-adv-x="688" 
d="M543 334c0 75.333 -14.832 134.667 -44.499 178s-80.834 65 -153.501 65c-133.333 0 -200 -81 -200 -243c0 -36 3.16699 -69.167 9.5 -99.5s16.833 -58.5 31.5 -84.5s35.5 -46.5 62.5 -61.5s59.167 -22.5 96.5 -22.5s69.5 7.5 96.5 22.5s47.5 35.667 61.5 62
s24.167 54.5 30.5 84.5s9.5 63 9.5 99zM636.001 334.001c0 -63.333 -10.166 -120.665 -30.499 -171.998s-53 -93.5 -98 -126.5s-99.167 -49.5 -162.5 -49.5s-117.5 16.5 -162.5 49.5s-78 75.167 -99 126.5s-31.5 108.666 -31.5 171.999c0 95.333 25 172.666 75 231.999
s122.667 89 218 89s167.666 -29.5 216.999 -88.5s74 -136.5 74 -232.5z" />
    <glyph glyph-name="P" unicode="P" horiz-adv-x="555" 
d="M415 457c0 39.333 -12.8311 67.167 -38.498 83.5s-65.834 24.5 -120.501 24.5h-96v-214h96c55.333 0 95.666 8 120.999 24s38 43.333 38 82zM501.002 457.001c0 -38.667 -6.83398 -70.833 -20.501 -96.5s-33.167 -44.5 -58.5 -56.5s-51 -20.167 -77 -24.5
s-56.667 -6.5 -92 -6.5h-93v-273h-88v643h181c27.333 0 51.833 -1.16699 73.5 -3.5s43.834 -7.5 66.501 -15.5s41.5 -18.5 56.5 -31.5s27.333 -31 37 -54s14.5 -50.167 14.5 -81.5z" />
    <glyph glyph-name="Q" unicode="Q" horiz-adv-x="699" 
d="M543 334c0 75.333 -14.832 134.667 -44.499 178s-80.834 65 -153.501 65c-133.333 0 -200 -81 -200 -243c0 -36 3.16699 -69.167 9.5 -99.5s16.833 -58.5 31.5 -84.5s35.5 -46.5 62.5 -61.5s59.167 -22.5 96.5 -22.5s69.5 7.5 96.5 22.5s47.5 35.667 61.5 62
s24.167 54.5 30.5 84.5s9.5 63 9.5 99zM672.001 0.000976562l-241.999 0.000976562c-35.333 -9.33301 -63.666 -14 -84.999 -14c-94 0 -166.333 33.5 -217 100.5s-76 149.5 -76 247.5c0 96 25 173.5 75 232.5s122.667 88.5 218 88.5s167.666 -29.5 216.999 -88.5
s74 -136.5 74 -232.5c0 -56.667 -8.33301 -109.334 -25 -158.001s-40.334 -87 -71.001 -115h132v-61z" />
    <glyph glyph-name="R" unicode="R" horiz-adv-x="561" 
d="M417 466c0 36.667 -12.332 62.333 -36.999 77s-60.334 22 -107.001 22h-113v-196h113c96 0 144 32.333 144 97zM523.001 -0.000976562l-90.999 0.00292969c-7.33301 32.667 -13.333 62.5 -18 89.5s-8.66699 48.5 -12 64.5c-5.33301 24 -9.83301 43 -13.5 57
s-8.83398 26.667 -15.501 38s-12.834 19.5 -18.501 24.5s-15 9.16699 -28 12.5s-25.167 5.16602 -36.5 5.49902s-28.666 0.5 -51.999 0.5h-78v-292h-88v643h202c78.667 0 137.167 -13.5 175.5 -40.5s57.5 -72.5 57.5 -136.5c0 -54 -40 -100 -120 -138
c40 -8.66699 67.333 -31.667 82 -69c4.66699 -12.667 11.167 -48.834 19.5 -108.501s19.833 -109.834 34.5 -150.501z" />
    <glyph glyph-name="S" unicode="S" horiz-adv-x="589" 
d="M535 178c0 -36 -7.99902 -67.0039 -23.999 -93.0039s-37.667 -45.833 -65 -59.5s-55.833 -23.667 -85.5 -30s-61.5 -9.5 -95.5 -9.5c-61.333 0 -112.166 18.833 -152.499 56.5s-60.5 87.5 -60.5 149.5h92c0 -35.333 11.333 -65.166 34 -89.499s51.334 -36.5 86.001 -36.5
c23.333 0 43.666 1 60.999 3s36.333 6.16699 57 12.5s36.667 17 48 32s17 34.167 17 57.5c0 27.333 -7.16699 49.5 -21.5 66.5s-32.833 29.167 -55.5 36.5s-47.667 13.166 -75 17.499s-54.666 9.66602 -81.999 15.999s-52.333 15 -75 26s-41.167 28.833 -55.5 53.5
s-21.5 55.667 -21.5 93c0 52.667 22.833 95 68.5 127s95.834 48 150.501 48c30 0 58.167 -3 84.5 -9s50.666 -15.5 72.999 -28.5s40 -31.167 53 -54.5s19.5 -50.666 19.5 -81.999h-90c0 20.667 -4 37.834 -12 51.501s-19.5 23.5 -34.5 29.5s-29.833 10 -44.5 12
s-32.334 3 -53.001 3c-83.333 0 -125 -33.333 -125 -100c0 -26 9.5 -46.667 28.5 -62s42.667 -25.666 71 -30.999s59.166 -12.166 92.499 -20.499s64.166 -17.666 92.499 -27.999s52 -28.833 71 -55.5s28.5 -60.667 28.5 -102z" />
    <glyph glyph-name="T" unicode="T" horiz-adv-x="546" 
d="M528 565h-210v-565h-90v565h-210v78h510v-78z" />
    <glyph glyph-name="U" unicode="U" horiz-adv-x="655" 
d="M585 286c0 -106.667 -20.335 -183.335 -61.002 -230.002s-106 -70 -196 -70c-90.667 0 -156 23.333 -196 70s-60 123.334 -60 230.001v357h88v-357c0 -46.667 4.33301 -85.167 13 -115.5s21.334 -52.833 38.001 -67.5s34 -24.5 52 -29.5s39.667 -7.5 65 -7.5
c24.667 0 45.834 2.5 63.501 7.5s35 14.667 52 29s29.833 36.833 38.5 67.5s13 69.334 13 116.001v357h90v-357z" />
    <glyph glyph-name="V" unicode="V" horiz-adv-x="582" 
d="M568 643l-228 -643h-99l-228 643h101l177 -528l177 528h100z" />
    <glyph glyph-name="W" unicode="W" horiz-adv-x="865" 
d="M852 643l-191 -643h-81l-148 535l-149 -535h-79l-191 643h95l135 -510l136 510h107l136 -510l135 510h95z" />
    <glyph glyph-name="X" unicode="X" horiz-adv-x="627" 
d="M604 0h-114l-183 279l-180 -279h-106l237 343l-206 300h114l153 -237l149 237h105l-206 -300z" />
    <glyph glyph-name="Y" unicode="Y" horiz-adv-x="594" 
d="M579 643l-239 -387v-256h-88v256l-239 387h110l178 -309l177 309h101z" />
    <glyph glyph-name="Z" unicode="Z" horiz-adv-x="549" 
d="M508 0h-468v97l362 468h-345v78h442v-99l-361 -466h370v-78z" />
    <glyph glyph-name="bracketleft" unicode="[" horiz-adv-x="352" 
d="M259 -177h-165v820h165v-46h-88v-729h88v-45z" />
    <glyph glyph-name="backslash" unicode="\" horiz-adv-x="495" 
d="M439 -174l-37 -38l-347 987l38 38z" />
    <glyph glyph-name="bracketright" unicode="]" horiz-adv-x="352" 
d="M259 -177h-165v45h89v729h-89v46h165v-820z" />
    <glyph glyph-name="asciicircum" unicode="^" horiz-adv-x="453" 
d="M453 640l-27 -27l-200 198l-199 -198l-27 27l226 227z" />
    <glyph glyph-name="underscore" unicode="_" horiz-adv-x="576" 
d="M576 -137h-576v51h576v-51z" />
    <glyph glyph-name="grave" unicode="`" horiz-adv-x="204" 
d="M156 534h-54l-125 153h90z" />
    <glyph glyph-name="a" unicode="a" horiz-adv-x="492" 
d="M345 219c-20 2 -35 2.99902 -45 2.99902c-17.333 0 -35 -1.5 -53 -4.5s-36.5 -7.66699 -55.5 -14s-34.667 -16.166 -47 -29.499s-18.5 -29 -18.5 -47c0 -24 8.5 -43.167 25.5 -57.5s37.833 -21.5 62.5 -21.5c50.667 0 85.167 15 103.5 45s27.5 72 27.5 126z
M439 -0.000976562h-78.9971c-4.66699 20.667 -8.33398 42 -11.001 64c-21.333 -27.333 -42 -46.833 -62 -58.5s-44.333 -17.5 -73 -17.5c-42.667 0 -81.834 11.5 -117.501 34.5s-53.5 54.5 -53.5 94.5c0 32 7.33301 59.333 22 82s34.667 39.5 60 50.5s51 18.833 77 23.5
s53.667 7 83 7h61c1.33301 12 2 21 2 27c0 59.333 -33 89 -99 89c-26.667 0 -49.834 -5.83301 -69.501 -17.5s-29.5 -29.5 -29.5 -53.5h-83c0 87.333 59.667 131 179 131c96.667 0 154 -25 172 -75c6 -15.333 9 -52 9 -110v-146c0 -63.333 4 -105 12 -125z" />
    <glyph glyph-name="b" unicode="b" horiz-adv-x="525" 
d="M394 232c0 50 -9.83398 91.333 -29.501 124s-51.167 49 -94.5 49c-42 0 -74 -17 -96 -51s-33 -74.667 -33 -122c0 -122.667 42.333 -184 127 -184c36.667 0 66.834 16.667 90.501 50s35.5 78 35.5 134zM480.999 241c0 -77.333 -19.168 -138.833 -57.501 -184.5
s-82.166 -68.5 -131.499 -68.5c-60 0 -110 21.333 -150 64v-52h-81v643h78v-259c33.333 48 84 72 152 72c34.667 0 65 -7.16699 91 -21.5s45.833 -33 59.5 -56s23.667 -46 30 -69s9.5 -45.833 9.5 -68.5z" />
    <glyph glyph-name="c" unicode="c" horiz-adv-x="463" 
d="M420 150c0 -46 -14.335 -84.5 -43.002 -115.5s-74 -46.5 -136 -46.5c-130.667 0 -196 78 -196 234c0 79.333 14.833 138.166 44.5 176.499s77.167 57.5 142.5 57.5c60.667 0 106.5 -12 137.5 -36s46.5 -56.333 46.5 -97c0 -7.33301 -0.333008 -13 -1 -17h-79
c0.666992 4 1 9.66699 1 17c0 48.667 -37 73 -111 73c-68 0 -102 -58 -102 -174c0 -62 9.83301 -106.5 29.5 -133.5s48.834 -40.5 87.501 -40.5c34.667 0 59.834 10.833 75.501 32.5s23.5 44.834 23.5 69.501h80z" />
    <glyph glyph-name="d" unicode="d" horiz-adv-x="526" 
d="M381 219c0 50 -13.1699 93.167 -39.5029 129.5s-59.166 54.5 -98.499 54.5s-68.666 -17.833 -87.999 -53.5s-29 -77.167 -29 -124.5c0 -48 12 -88.833 36 -122.5s55 -50.5 93 -50.5c40.667 0 71.834 17.167 93.501 51.5s32.5 72.833 32.5 115.5zM462.997 0
l-79 0.000976562v51c-36 -42 -80 -63 -132 -63c-54 0 -102 21.833 -144 65.5s-63 97.167 -63 160.5c0 40 5.33301 77.167 16 111.5s30.5 64.666 59.5 90.999s65.167 39.5 108.5 39.5c70 0 121.667 -23 155 -69v256h79v-643z" />
    <glyph glyph-name="e" unicode="e" horiz-adv-x="496" 
d="M363 268c0.666992 4.66699 1 11.333 1 20c0 32.667 -9.16699 59.5 -27.5 80.5s-47.5 31.5 -87.5 31.5c-65.333 0 -105 -44 -119 -132h233zM448 141.999c-7.33301 -42.667 -27.5 -78.9961 -60.5 -108.996s-79.833 -45 -140.5 -45c-35.333 0 -66.5 7.33301 -93.5 22
s-48.167 33.834 -63.5 57.501s-26.666 48.5 -33.999 74.5s-11 52.667 -11 80c0 29.333 3.66699 57.166 11 83.499s18.666 51.166 33.999 74.499s37 41.833 65 55.5s60.667 20.5 98 20.5c33.333 0 62.5 -5 87.5 -15s44.333 -22.167 58 -36.5s24.667 -31.333 33 -51
s13.666 -37.334 15.999 -53.001s3.5 -31.834 3.5 -48.501c0 -15.333 -1 -29.333 -3 -42h-318c0 -49.333 9.66699 -89 29 -119s49.333 -45 90 -45c36.667 0 63.834 9.66699 81.501 29s28.5 41.666 32.5 66.999h85z" />
    <glyph glyph-name="f" unicode="f" horiz-adv-x="294" 
d="M294 577c-17.333 7.33301 -33.332 11 -47.999 11c-24 0 -41.333 -6 -52 -18s-16 -32 -16 -60v-65h107v-58h-107v-387h-81v387h-88v58h88v68c0 52 10.833 88 32.5 108s55.167 30 100.5 30c23.333 0 44.666 -2.66699 63.999 -8v-66z" />
    <glyph glyph-name="g" unicode="g" horiz-adv-x="525" 
d="M381 235c0 50.667 -10.833 90.833 -32.5 120.5s-55.5 44.5 -101.5 44.5c-80 0 -120 -54.333 -120 -163c0 -52 10.667 -93 32 -123s52.333 -45 93 -45c44 0 76.5 15.833 97.5 47.5s31.5 71.167 31.5 118.5zM463 24.999c0 -59.333 -18.999 -107.83 -56.999 -145.497
s-91.333 -56.5 -160 -56.5c-34.667 0 -64.5 5.16699 -89.5 15.5s-43.5 23.5 -55.5 39.5s-20.667 31.167 -26 45.5s-8 27.833 -8 40.5h83c0 -28 11 -49.333 33 -64s48 -22 78 -22c42 0 72.667 15.167 92 45.5s29 83.166 29 158.499c-12 -20.667 -31.333 -37.5 -58 -50.5
s-54.334 -19.5 -83.001 -19.5c-62 0 -110.167 18.667 -144.5 56s-51.5 93.666 -51.5 168.999c0 63.333 17.333 115.666 52 156.999s79.667 62 135 62c77.333 0 127.333 -20 150 -60v49h81v-420z" />
    <glyph glyph-name="h" unicode="h" horiz-adv-x="510" 
d="M448 0l-81.001 0.00195312v280c0 39.333 -8.83301 69 -26.5 89s-39.834 30 -66.501 30c-39.333 0 -71.166 -10.333 -95.499 -31s-36.5 -42.334 -36.5 -65.001v-303h-81v643h81v-255c32.667 45.333 79.334 68 140.001 68c58.667 0 101 -14.333 127 -43
s39 -74.334 39 -137.001v-276z" />
    <glyph glyph-name="i" unicode="i" horiz-adv-x="204" 
d="M142 0h-81v445h81v-445zM145 561h-87v82h87v-82z" />
    <glyph glyph-name="j" unicode="j" horiz-adv-x="256" 
d="M193 -72c0 -32.667 -7.83203 -60.166 -23.499 -82.499s-42.167 -33.5 -79.5 -33.5c-18.667 0 -39.334 4.33301 -62.001 13s-41 20 -55 34l51 51c14 -18 32 -27 54 -27c13.333 0 22.333 5.66699 27 17s7 29.666 7 54.999v490h81v-517zM195.001 561.001h-84v82h84v-82z" />
    <glyph glyph-name="k" unicode="k" horiz-adv-x="444" 
d="M426 0h-107l-177 237v-237h-81v643h81v-384l170 186h100l-178 -193z" />
    <glyph glyph-name="l" unicode="l" horiz-adv-x="204" 
d="M142 0h-81v643h81v-643z" />
    <glyph glyph-name="m" unicode="m" horiz-adv-x="798" 
d="M736 0h-80.999v288c0 34.667 -8.33301 62 -25 82s-41.667 30 -75 30c-30.667 0 -57.334 -12.167 -80.001 -36.5s-34 -49.5 -34 -75.5v-288h-81v288c0 30 -9.16699 56.167 -27.5 78.5s-41.833 33.5 -70.5 33.5c-32.667 0 -60.834 -12.333 -84.501 -37
s-35.5 -49.667 -35.5 -75v-288h-81v445h81v-61c36 48 80 72 132 72c40.667 0 71.834 -6 93.501 -18s41.167 -32 58.5 -60c38 52 86 78 144 78c110.667 0 166 -56 166 -168v-288z" />
    <glyph glyph-name="n" unicode="n" horiz-adv-x="511" 
d="M448 0h-79v295c0 30 -10.833 55.5 -32.5 76.5s-47.5 31.5 -77.5 31.5c-32 0 -59.5 -11 -82.5 -33s-34.5 -49.333 -34.5 -82v-288h-81v445h81v-57c32 45.333 77 68 135 68c114 0 171 -54.667 171 -164v-292z" />
    <glyph glyph-name="o" unicode="o" horiz-adv-x="526" 
d="M399 222c0 46.667 -11.667 88 -35 124s-56.666 54 -99.999 54c-44.667 0 -78.667 -17.833 -102 -53.5s-35 -77.167 -35 -124.5s11.667 -88.5 35 -123.5s57.333 -52.5 102 -52.5c43.333 0 76.666 17.667 99.999 53s35 76.333 35 123zM483 222
c0 -76 -20.668 -134 -62.001 -174s-93.666 -60 -156.999 -60c-64.667 0 -117.334 20 -158.001 60s-61 98 -61 174c0 76.667 20.333 134.834 61 174.501s93.334 59.5 158.001 59.5c64 0 116.5 -19.833 157.5 -59.5s61.5 -97.834 61.5 -174.501z" />
    <glyph glyph-name="p" unicode="p" horiz-adv-x="534" 
d="M403 222c0 50 -10.833 92.167 -32.5 126.5s-54.167 51.5 -97.5 51.5c-44.667 0 -77.667 -17 -99 -51s-32 -76.333 -32 -127s10.667 -92.834 32 -126.501s54.333 -50.5 99 -50.5c43.333 0 75.833 16.833 97.5 50.5s32.5 75.834 32.5 126.501zM489 222
c0 -70.667 -16.667 -127.666 -50 -170.999s-85.666 -65 -156.999 -65c-42.667 0 -89.334 20 -140.001 60v-223h-81v622h81v-57c24.667 22.667 47.334 39.667 68.001 51s44.667 17 72 17c71.333 0 123.666 -21.333 156.999 -64s50 -99.334 50 -170.001z" />
    <glyph glyph-name="q" unicode="q" horiz-adv-x="534" 
d="M391 222c0 50 -10.833 92.167 -32.5 126.5s-54.167 51.5 -97.5 51.5c-44.667 0 -77.834 -17.167 -99.501 -51.5s-32.5 -76.5 -32.5 -126.5c0 -50.667 10.833 -92.834 32.5 -126.501s54.834 -50.5 99.501 -50.5c43.333 0 75.833 16.833 97.5 50.5
s32.5 75.834 32.5 126.501zM471 -177l-81 -0.000976562v223c-50.667 -40 -97.667 -60 -141 -60c-70.667 0 -122.334 21.5 -155.001 64.5s-49 100.167 -49 171.5c0 70.667 16.333 127.334 49 170.001s84.334 64 155.001 64c46.667 0 93.667 -22.667 141 -68v57h81v-622z" />
    <glyph glyph-name="r" unicode="r" horiz-adv-x="322" 
d="M306 373c-109.333 0 -164.001 -41.333 -164.001 -124v-249h-81v445h81v-61c12.667 22 29.834 37.667 51.501 47s59.167 14 112.5 14v-72z" />
    <glyph glyph-name="s" unicode="s" horiz-adv-x="448" 
d="M403 130c0 -50 -18.668 -86.1689 -56.001 -108.502s-83.666 -33.5 -138.999 -33.5c-48.667 0 -88 11.333 -118 34s-45 58.334 -45 107.001h81c0.666992 -55.333 31.667 -83 93 -83c26.667 0 50.334 6.83301 71.001 20.5s31 32.834 31 57.501
c0 20.667 -9.16699 36.167 -27.5 46.5s-40.5 17.666 -66.5 21.999s-52 9.83301 -78 16.5s-48.167 20.334 -66.5 41.001s-27.5 48.667 -27.5 84c0 34 13.167 62.833 39.5 86.5s68.833 35.5 127.5 35.5c53.333 0 94.666 -9.33301 123.999 -28s44 -53 44 -103h-81
c0 50 -29.667 75 -89 75c-23.333 0 -43.166 -6.16699 -59.499 -18.5s-24.5 -28.166 -24.5 -47.499c0 -20.667 9.16699 -36.5 27.5 -47.5s40.666 -18.833 66.999 -23.5s52.5 -10.334 78.5 -17.001s48.167 -19.5 66.5 -38.5s27.5 -44.833 27.5 -77.5z" />
    <glyph glyph-name="t" unicode="t" horiz-adv-x="312" 
d="M285 0c-23.333 -8 -45.334 -12.001 -66.001 -12.001c-41.333 0 -70.5 9.33301 -87.5 28s-25.5 52.334 -25.5 101.001v271h-81v57h81v89l81 33v-122h98v-57h-98v-271c0 -26.667 3.83301 -44.667 11.5 -54s19.834 -14 36.501 -14c17.333 0 34 2.66699 50 8v-57z" />
    <glyph glyph-name="u" unicode="u" horiz-adv-x="510" 
d="M448 0h-81v57c-28 -46 -73 -69 -135 -69c-114 0 -171 54.333 -171 163v294h81v-295c0 -30.667 10.667 -56.334 32 -77.001s46.333 -31 75 -31c32.667 0 60.5 10.833 83.5 32.5s34.5 49.834 34.5 84.501v286h81v-445z" />
    <glyph glyph-name="v" unicode="v" horiz-adv-x="477" 
d="M463 445l-184 -445h-81l-185 445h93l137 -348l135 348h85z" />
    <glyph glyph-name="w" unicode="w" horiz-adv-x="724" 
d="M711 445l-150 -445h-80l-118 369l-120 -369h-80l-150 445h86l105 -348l105 348h106l105 -348l107 348h84z" />
    <glyph glyph-name="x" unicode="x" horiz-adv-x="487" 
d="M469 0h-102l-130 175l-126 -175h-93l177 231l-164 214h101l117 -160l115 160h93l-165 -214z" />
    <glyph glyph-name="y" unicode="y" horiz-adv-x="477" 
d="M463 445l-214 -544.001c-10.667 -27.333 -23.667 -48 -39 -62s-38 -21 -68 -21c-53.333 0 -93.333 27 -120 81l63 33c14 -28.667 32.667 -43 56 -43c9.33301 0 17.333 4.83301 24 14.5s13.667 24.834 21 45.501l18 51l-191 445h93l140 -336l130 336h87z" />
    <glyph glyph-name="z" unicode="z" horiz-adv-x="417" 
d="M372 0h-327v73l235 309h-219v63h311v-73l-239 -311h239v-61z" />
    <glyph glyph-name="braceleft" unicode="{" horiz-adv-x="406" 
d="M351 -443c-22.667 0 -42.667 4.5 -60 13.5s-32 20.667 -44 35s-22.167 34 -30.5 59s-14.833 49.667 -19.5 74s-8.33398 55 -11.001 92s-4.33398 70.833 -5.00098 101.5s-1 68.667 -1 114c0 23.333 -5.66699 44.833 -17 64.5s-24 35 -38 46s-26.667 22.667 -38 35
s-17 23.5 -17 33.5c0 9.33301 5.66699 20.166 17 32.499s24 24 38 35s26.667 26.333 38 46s17 41.167 17 64.5c0 45.333 0.333008 83.333 1 114s2.33398 64.5 5.00098 101.5s6.33398 67.667 11.001 92s11.167 49 19.5 74s18.5 44.667 30.5 59s26.667 26 44 35
s37.333 13.5 60 13.5v-49c-48.667 0 -80.834 -35.5 -96.501 -106.5s-23.5 -187.167 -23.5 -348.5c0 -25.333 -5.66699 -48.666 -17 -69.999s-24 -37.333 -38 -48l-38 -28.5c-11.333 -8.33301 -17 -13.833 -17 -16.5s5.66699 -8.33398 17 -17.001l38 -29
c14 -10.667 26.667 -26.667 38 -48s17 -44.666 17 -69.999c0 -160.667 7.83301 -276.5 23.5 -347.5s47.834 -106.5 96.501 -106.5v-50z" />
    <glyph glyph-name="bar" unicode="|" horiz-adv-x="307" 
d="M177 -230h-47v939h47v-939z" />
    <glyph glyph-name="braceright" unicode="}" horiz-adv-x="406" 
d="M336 225c0 -10 -5.66699 -21.167 -17 -33.5s-24 -24 -38 -35s-26.667 -26.333 -38 -46s-17 -41.167 -17 -64.5c0 -45.333 -0.333008 -83.333 -1 -114s-2.33398 -64.5 -5.00098 -101.5s-6.33398 -67.667 -11.001 -92s-11.167 -49 -19.5 -74s-18.5 -44.667 -30.5 -59
s-26.667 -26 -44 -35s-37.333 -13.5 -60 -13.5v50c48.667 0 80.834 35.5 96.501 106.5s23.5 186.833 23.5 347.5c0 25.333 5.66699 48.666 17 69.999s24 37.333 38 48l38 29c11.333 8.66699 17 14.334 17 17.001s-5.66699 8.16699 -17 16.5l-38 28.5
c-14 10.667 -26.667 26.667 -38 48s-17 44.666 -17 69.999c0 161.333 -7.83301 277.5 -23.5 348.5s-47.834 106.5 -96.501 106.5v49c22.667 0 42.667 -4.5 60 -13.5s32 -20.667 44 -35s22.167 -34 30.5 -59s14.833 -49.667 19.5 -74s8.33398 -55 11.001 -92
s4.33398 -70.833 5.00098 -101.5s1 -68.667 1 -114c0 -23.333 5.66699 -44.833 17 -64.5s24 -35 38 -46s26.667 -22.667 38 -35s17 -23.166 17 -32.499z" />
    <glyph glyph-name="asciitilde" unicode="~" horiz-adv-x="562" 
d="M507 238c-42 -40 -86.668 -60 -134.001 -60c-30 0 -64.333 10.5 -103 31.5s-64.334 31.5 -77.001 31.5c-17.333 0 -34.333 -3.66699 -51 -11s-40.667 -23 -72 -47l-15 37c26 22.667 49.333 38.667 70 48s43.334 14 68.001 14c22.667 0 51.834 -10.5 87.501 -31.5
s66.5 -31.5 92.5 -31.5c30 0 66 16.333 108 49z" />
    <glyph glyph-name="multiply" unicode="&#xd7;" horiz-adv-x="495" 
d="M400 105l-36 -36l-117 117l-117 -117l-37 37l117 117l-117 117l36 36l117 -117l118 119l38 -38l-119 -118z" />
    <glyph glyph-name="u1000" unicode="&#x1000;" horiz-adv-x="1002" 
d="M946 222c0 -65.333 -22.835 -121.163 -68.502 -167.496s-100.167 -69.5 -163.5 -69.5c-26.667 0 -50.334 5 -71.001 15l20 46c15.333 -6.66699 32.333 -10 51 -10c50 0 92.667 18.167 128 54.5s53 80.166 53 131.499s-17.667 95.166 -53 131.499s-78 54.5 -128 54.5
c-48 0 -90.833 -22.833 -128.5 -68.5s-56.5 -94.834 -56.5 -147.501c-0.666992 -88 -33 -157 -97 -207l-30 43c50.667 46 76 104 76 174c0 59.333 -18 108.166 -54 146.499s-80 57.5 -132 57.5s-96 -19.167 -132 -57.5s-54 -87.166 -54 -146.499c0 -70 25.667 -128 77 -174
l-30 -43c-31.333 26 -55.5 55.667 -72.5 89s-25.5 76 -25.5 128c0 74.667 22.833 135.834 68.5 183.501s101.834 71.5 168.501 71.5c48 0 91.333 -12.833 130 -38.5s67.334 -60.834 86.001 -105.501c21.333 43.333 50.333 78.5 87 105.5s76.334 40.5 119.001 40.5
c63.333 0 117.833 -23.333 163.5 -70s68.5 -102.334 68.5 -167.001z" />
    <glyph glyph-name="u1001" unicode="&#x1001;" horiz-adv-x="576" 
d="M374 59c-14.667 27.333 -37 49.833 -67 67.5s-61.333 26.5 -94 26.5c-33.333 0 -66 -8.66699 -98 -26c36 -60.667 92 -91 168 -91c32 0 62.333 7.66699 91 23zM520 222c0 -65.333 -23.168 -121.166 -69.501 -167.499s-102.166 -69.5 -167.499 -69.5
c-57.333 0 -107.5 15.667 -150.5 47s-68.833 71.666 -77.5 120.999c56 34 107.667 51 155 51c44 0 84.833 -11.167 122.5 -33.5s65.834 -48.833 84.501 -79.5c34.667 38 52 81.667 52 131c0 50.667 -18.167 94.334 -54.5 131.001s-80.166 55 -131.499 55
c-35.333 0 -69.5 -10 -102.5 -30s-57.833 -47 -74.5 -81l-43 25c17.333 41.333 46.666 74.5 87.999 99.5s85.333 37.5 132 37.5c65.333 0 121.166 -23.333 167.499 -70s69.5 -102.334 69.5 -167.001z" />
    <glyph glyph-name="u1002" unicode="&#x1002;" horiz-adv-x="585" 
d="M529 202c0 -52.667 -8.16895 -95.6699 -24.502 -129.003s-40.5 -62.666 -72.5 -87.999l-30 43c50.667 46 76 104 76 174c0 59.333 -18 108.166 -54 146.499s-80 57.5 -132 57.5s-96 -19.167 -132 -57.5s-54 -87.166 -54 -146.499c0 -70 25.667 -128 77 -174l-30 -43
c-31.333 26 -55.5 55.667 -72.5 89s-25.5 76 -25.5 128c0 74.667 22.833 135.834 68.5 183.501s101.834 71.5 168.501 71.5s122.834 -23.667 168.501 -71s68.5 -108.666 68.5 -183.999z" />
    <glyph glyph-name="u1003" unicode="&#x1003;" horiz-adv-x="999" 
d="M943 222c0 -65.333 -22.8311 -121.17 -68.498 -167.503s-100.167 -69.5 -163.5 -69.5c-43.333 0 -83.833 13.333 -121.5 40s-67.167 61.667 -88.5 105c-18.667 -44.667 -47.334 -80 -86.001 -106s-82 -39 -130 -39c-66 0 -120.833 19.5 -164.5 58.5
s-65.5 80.5 -65.5 124.5c0 28.667 7.33301 52.667 22 72s30.667 32.833 48 40.5s33.333 16.5 48 26.5s22 20.667 22 32c0 22.667 -5.33301 39.334 -16 50.001s-23 16 -37 16c-10.667 0 -20.334 -3.83301 -29.001 -11.5s-13.334 -13.834 -14.001 -18.501l-44 27
c3.33301 10.667 14.333 22.334 33 35.001s36.667 19 54 19c28.667 0 53.167 -10.5 73.5 -31.5s30.5 -49.5 30.5 -85.5c0 -21.333 -7.33301 -39.666 -22 -54.999s-30.667 -26.666 -48 -33.999s-33.333 -18 -48 -32s-22 -30.667 -22 -50c0 -7.33301 3.5 -17.666 10.5 -30.999
s17 -27.833 30 -43.5s31.833 -29.167 56.5 -40.5s52 -17 82 -17c57.333 0 102.666 20.833 135.999 62.5s50 92.834 50 153.501c0 32.667 -7.33301 63.167 -22 91.5s-33 51.833 -55 70.5l30 43c65.333 -52.667 98 -125 98 -217c0 -47.333 19.833 -93.166 59.5 -137.499
s82.834 -66.5 129.501 -66.5c50 0 92.667 18.167 128 54.5s53 80.166 53 131.499s-17.667 95.166 -53 131.499s-78 54.5 -128 54.5c-19.333 0 -36.333 -3.66699 -51 -11l-20 47c22.667 10 46.334 15 71.001 15c63.333 0 117.833 -23.333 163.5 -70
s68.5 -102.334 68.5 -167.001z" />
    <glyph glyph-name="u1004" unicode="&#x1004;" horiz-adv-x="568" 
d="M513 121c-18 -43.333 -47.6689 -76.833 -89.002 -100.5s-85.333 -35.5 -132 -35.5c-65.333 0 -121.166 23.167 -167.499 69.5s-69.5 102.166 -69.5 167.499c0 64.667 23.333 120.334 70 167.001s102.334 70 167.001 70c46.667 0 90.667 -12 132 -36s71 -57.667 89 -101
l-44 -25c-18 34.667 -43 61.834 -75 81.501s-66 29.5 -102 29.5c-50.667 0 -94.334 -18.333 -131.001 -55s-55 -80.334 -55 -131.001s18.333 -94.334 55 -131.001s80.334 -55 131.001 -55c36 0 70 9.83301 102 29.5s57 46.834 75 81.501z" />
    <glyph glyph-name="u1005" unicode="&#x1005;" horiz-adv-x="576" 
d="M241 222c0 52.667 -21.999 101 -65.999 145c-20.667 -16.667 -37.334 -38 -50.001 -64s-19 -53 -19 -81c0 -61.333 22.667 -109.333 68 -144c44.667 44.667 67 92.667 67 144zM469.001 222c0 50.667 -17.6689 94.334 -53.002 131.001s-77.666 55 -126.999 55
c-23.333 0 -46.333 -4.66699 -69 -14c48 -46 72 -103.333 72 -172c0 -67.333 -24 -125 -72 -173c24.667 -8.66699 46.667 -13 66 -13c50.667 0 93.834 18.167 129.501 54.5s53.5 80.166 53.5 131.499zM519.999 222c0 -65.333 -22.499 -121.169 -67.499 -167.502
s-99.5 -69.5 -163.5 -69.5c-66 0 -121.5 23 -166.5 69s-67.5 102 -67.5 168c0 64.667 22.5 120.334 67.5 167.001s99.5 70 163.5 70c65.333 0 120.666 -23.167 165.999 -69.5s68 -102.166 68 -167.499z" />
    <glyph glyph-name="u1006" unicode="&#x1006;" horiz-adv-x="990" 
d="M373 58c-16.667 28.667 -39 51.667 -67 69s-58.667 26 -92 26c-26.667 0 -59.667 -9 -99 -27c34 -60 90 -90 168 -90c28.667 0 58.667 7.33301 90 22zM883 222c0 50.667 -17.667 94.334 -53 131.001s-78 55 -128 55s-92.833 -18.333 -128.5 -55
s-53.5 -80.334 -53.5 -131.001c0 -51.333 17.833 -95.166 53.5 -131.499s78.5 -54.5 128.5 -54.5s92.667 18.167 128 54.5s53 80.166 53 131.499zM934 222c0 -65.333 -22.833 -121.168 -68.5 -167.501s-100.167 -69.5 -163.5 -69.5c-44.667 0 -85.667 11.833 -123 35.5
s-65.333 54.834 -84 93.501c-20.667 -38.667 -49.834 -69.834 -87.501 -93.501s-79.167 -35.5 -124.5 -35.5c-54.667 0 -104.834 15.833 -150.501 47.5s-71.5 71.834 -77.5 120.501c23.333 12 41.5 21 54.5 27s28.667 11.5 47 16.5s36.166 7.5 53.499 7.5
c40 0 78.333 -10.167 115 -30.5s67.334 -47.833 92.001 -82.5c34.667 38 52 81.667 52 131c0 50.667 -18.167 94.334 -54.5 131.001s-80.166 55 -131.499 55c-34.667 0 -68 -10 -100 -30s-57.667 -47 -77 -81l-43 25c17.333 42 46.333 75.333 87 100s85 37 133 37
c45.333 0 86.833 -11.833 124.5 -35.5s66.834 -54.834 87.501 -93.501c18.667 38.667 46.667 69.834 84 93.501s78.333 35.5 123 35.5c63.333 0 117.833 -23.333 163.5 -70s68.5 -102.334 68.5 -167.001z" />
    <glyph glyph-name="u1007" unicode="&#x1007;" horiz-adv-x="609" 
d="M436 261c-22.667 18.667 -47.6689 27.999 -75.002 27.999c-34 0 -51 -16.333 -51 -49c0 -11.333 4.83301 -20.166 14.5 -26.499s21.834 -9.5 36.501 -9.5c18.667 0 35.334 4.5 50.001 13.5s23 23.5 25 43.5zM567.998 155.999l-39.9951 -29.0039
c-25.333 43.333 -43.333 72.333 -54 87c-11.333 -19.333 -27.333 -34.333 -48 -45s-42.334 -16 -65.001 -16c-28.667 0 -52.834 7.5 -72.501 22.5s-29.5 36.5 -29.5 64.5c0 29.333 9.16699 53.333 27.5 72s43.166 28 74.499 28c22 0 43 -5 63 -15
c-21.333 55.333 -66.333 83 -135 83c-51.333 0 -94.666 -18.667 -129.999 -56s-53 -80.666 -53 -129.999c0 -53.333 17.167 -97.666 51.5 -132.999s77.166 -53 128.499 -53c28.667 0 53.5 4.66699 74.5 14s43.833 25 68.5 47l33 -40
c-29.333 -25.333 -56.833 -43.666 -82.5 -54.999s-56.834 -17 -93.501 -17c-66.667 0 -121.834 22.833 -165.501 68.5s-65.5 101.834 -65.5 168.501c0 64 22.667 119.5 68 166.5s99.666 70.5 162.999 70.5c58.667 0 106.334 -17.167 143.001 -51.5s56 -75.833 58 -124.5
c24 -28 51 -70.333 81 -127z" />
    <glyph glyph-name="u1008" unicode="&#x1008;" horiz-adv-x="721" 
d="M241 222c0 54 -22 102.332 -66 144.999c-46 -37.333 -69 -85.666 -69 -144.999c0 -58.667 22 -106.667 66 -144c46 44 69 92 69 144zM469 221.999c0 51.333 -17.6699 95.168 -53.0029 131.501s-77.666 54.5 -126.999 54.5c-19.333 0 -41.666 -4.66699 -66.999 -14
c46.667 -48.667 70 -106 70 -172c0 -67.333 -24 -125 -72 -173c19.333 -8.66699 41.333 -13 66 -13c50.667 0 93.834 18.167 129.501 54.5s53.5 80.166 53.5 131.499zM665.997 -449.999l-314.998 80.999v363c-20 -6 -40.667 -9 -62 -9c-66 0 -121.5 23 -166.5 69
s-67.5 102 -67.5 168c0 64.667 22.667 120.334 68 167.001s99.666 70 162.999 70c65.333 0 120.666 -23.167 165.999 -69.5s68 -102.166 68 -167.499c0 -44.667 -10.5 -85.334 -31.5 -122.001s-49.5 -65 -85.5 -85v-344l212 -55v828h51v-894z" />
    <glyph glyph-name="u1009" unicode="&#x1009;" horiz-adv-x="568" 
d="M919 -302l-0.000976562 -45.001c0 -38 -5.33301 -63.333 -16 -76c-14.667 -18 -37.334 -27 -68.001 -27h-514c-47.333 0 -86.5 5.33301 -117.5 16s-58.5 28.334 -82.5 53.001c-44 44.667 -66 110 -66 196v306l45 26c18 -34.667 42.833 -61.834 74.5 -81.501
s65.5 -29.5 101.5 -29.5c50.667 0 94.334 18.333 131.001 55s55 80.334 55 131.001s-18.333 94.334 -55 131.001s-80.334 55 -131.001 55c-36 0 -69.833 -9.83301 -101.5 -29.5s-56.5 -46.834 -74.5 -81.501l-45 25c18 43.333 47.667 77 89 101s85.333 36 132 36
c64.667 0 120.334 -23.333 167.001 -70s70 -102.334 70 -167.001c0 -65.333 -23.167 -121.166 -69.5 -167.499s-102.166 -69.5 -167.499 -69.5s-122 21.333 -170 64v-216c0 -84.667 17.667 -144.667 53 -180c34 -34.667 93.333 -52 178 -52h473c26.667 0 43 3.16699 49 9.5
s9 23.5 9 51.5v36h51z" />
    <glyph glyph-name="u100A" unicode="&#x100a;" horiz-adv-x="990" 
d="M934 222c0 -65.333 -22.8359 -121.163 -68.5029 -167.496s-100.167 -69.5 -163.5 -69.5c-43.333 0 -83.5 13.167 -120.5 39.5s-66.5 60.5 -88.5 102.5c-18.667 -42.667 -47.667 -77 -87 -103s-82.666 -39 -129.999 -39c-65.333 0 -122 21.333 -170 64v-216
c0 -84.667 17.667 -144.667 53 -180c34 -34.667 93.333 -52 178 -52h473c26.667 0 43 3.16699 49 9.5s9 23.5 9 51.5v36h51v-45c0 -38 -5.33301 -63.333 -16 -76c-14.667 -18 -37.334 -27 -68.001 -27h-514c-47.333 0 -86.5 5.33301 -117.5 16s-58.5 28.334 -82.5 53.001
c-44 44.667 -66 110 -66 196v306l45 26c18 -34.667 42.833 -61.834 74.5 -81.501s65.5 -29.5 101.5 -29.5c50.667 0 94.334 18 131.001 54s55 79 55 129c0 47.333 -18 90.666 -54 129.999s-80 59 -132 59c-79.333 0 -138 -37 -176 -111l-45 25c18 43.333 47.667 77 89 101
s85.333 36 132 36c62.667 0 117.167 -22.833 163.5 -68.5s70.833 -99.834 73.5 -162.501c6 -49.333 27.833 -93.666 65.5 -132.999s78.834 -59 123.501 -59c50 0 92.667 18.167 128 54.5s53 80.166 53 131.499s-17.667 95.166 -53 131.499s-78 54.5 -128 54.5
c-16 0 -33 -3.66699 -51 -11l-20 47c28.667 10 52.334 15 71.001 15c63.333 0 117.833 -23.333 163.5 -70s68.5 -102.334 68.5 -167.001z" />
    <glyph glyph-name="u100B" unicode="&#x100b;" horiz-adv-x="568" 
d="M597 -423c-39.333 -18 -65.002 -27 -77.002 -27c-38.667 0 -58 24 -58 72v115c-48 -20 -104.667 -30 -170 -30c-82 0 -151 20 -207 60v192c71.333 -44 140.333 -66 207 -66c54.667 0 111.334 15.667 170.001 47v109c-48 -42.667 -104.667 -64 -170 -64
s-121.166 23.167 -167.499 69.5s-69.5 102.166 -69.5 167.499c0 64.667 23.333 120.334 70 167.001s102.334 70 167.001 70c46.667 0 90.667 -12 132 -36s71 -57.667 89 -101l-44 -25c-18 34.667 -43 61.834 -75 81.501s-66 29.5 -102 29.5
c-50.667 0 -94.334 -18.333 -131.001 -55s-55 -80.334 -55 -131.001s18.333 -94.334 55 -131.001s80.334 -55 131.001 -55c36 0 70 9.83301 102 29.5s57 46.834 75 81.501l44 -26v-210c-72.667 -46 -146.334 -69 -221.001 -69c-56 0 -108 11 -156 33v-79
c48.667 -25.333 100.667 -38 156 -38c70.667 0 144.334 18.667 221.001 56v-183c0 -17.333 4 -26 12 -26c15.333 0 34.666 7 57.999 21z" />
    <glyph glyph-name="u100C" unicode="&#x100c;" horiz-adv-x="568" 
d="M513 121l-0.000976562 -396.002c0 -46 -17 -86 -51 -120c-36.667 -36.667 -78.334 -55 -125.001 -55h-166c-30.667 0 -55.167 10.167 -73.5 30.5s-27.5 44.5 -27.5 72.5c0 26.667 10.167 50.334 30.5 71.001s47.166 31 80.499 31c27.333 0 48.333 -7.33301 63 -22
l-34 -39c-10.667 6.66699 -20.334 10 -29.001 10c-19.333 0 -34.166 -4.66699 -44.499 -14s-15.5 -21.666 -15.5 -36.999c0 -12.667 4.83301 -24.5 14.5 -35.5s21.5 -16.5 35.5 -16.5h136c31.333 0 54.333 2.16699 69 6.5s30.334 14.5 47.001 30.5c26 24 39 56.667 39 98
v313c-48 -42.667 -104.667 -64 -170 -64s-121.166 23.167 -167.499 69.5s-69.5 102.166 -69.5 167.499c0 64.667 23.333 120.334 70 167.001s102.334 70 167.001 70c46.667 0 90.667 -12 132 -36s71 -57.667 89 -101l-44 -25c-18 34.667 -43 61.834 -75 81.501
s-66 29.5 -102 29.5c-50.667 0 -94.334 -18.333 -131.001 -55s-55 -80.334 -55 -131.001s18.333 -94.334 55 -131.001s80.334 -55 131.001 -55c36 0 70 9.83301 102 29.5s57 46.834 75 81.501z" />
    <glyph glyph-name="u100D" unicode="&#x100d;" horiz-adv-x="568" 
d="M547 -450h-130.002v319c-47.333 -18 -94.333 -27 -141 -27c-74.667 0 -148.334 23 -221.001 69v210l45 26c18 -34.667 42.833 -61.834 74.5 -81.501s65.5 -29.5 101.5 -29.5c50.667 0 94.334 18.333 131.001 55s55 80.334 55 131.001s-18.333 94.334 -55 131.001
s-80.334 55 -131.001 55c-36 0 -69.833 -9.83301 -101.5 -29.5s-56.5 -46.834 -74.5 -81.501l-45 25c18 43.333 47.667 77 89 101s85.333 36 132 36c64.667 0 120.334 -23.333 167.001 -70s70 -102.334 70 -167.001c0 -65.333 -23.167 -121.166 -69.5 -167.499
s-102.166 -69.5 -167.499 -69.5s-122 21.333 -170 64v-109c58.667 -31.333 115.334 -47 170.001 -47c60 0 124 18.667 192 56v-348h79v-51z" />
    <glyph glyph-name="u100E" unicode="&#x100e;" horiz-adv-x="577" 
d="M522 240c0 -75.333 -22.666 -136.668 -67.999 -184.001s-101.666 -71 -168.999 -71c-66 0 -120.833 19.5 -164.5 58.5s-65.5 80.5 -65.5 124.5c0 28.667 7.33301 52.667 22 72s30.667 32.833 48 40.5s33.333 16.5 48 26.5s22 20.667 22 32
c0 22.667 -5.33301 39.334 -16 50.001s-23 16 -37 16c-10.667 0 -20.334 -3.83301 -29.001 -11.5s-13.334 -13.834 -14.001 -18.501l-44 27c1.33301 9.33301 11 20.666 29 33.999s37.333 20 58 20c28.667 0 53.167 -10.5 73.5 -31.5s30.5 -49.5 30.5 -85.5
c0 -21.333 -7.33301 -39.666 -22 -54.999s-30.667 -26.666 -48 -33.999s-33.333 -18 -48 -32s-22 -30.667 -22 -50c0 -7.33301 3.5 -17.666 10.5 -30.999s17 -27.833 30 -43.5s31.833 -29.167 56.5 -40.5s52 -17 82 -17c52 0 96 19.167 132 57.5s54 87.166 54 146.499
c0 70 -25.667 128 -77 174l30 43c65.333 -50.667 98 -123 98 -217z" />
    <glyph glyph-name="u100F" unicode="&#x100f;" horiz-adv-x="1032" 
d="M603 381c-27.333 18 -56.333 27.001 -87 27.001c-31.333 0 -60.333 -9 -87 -27c30.667 -44.667 46 -97.667 46 -159c0 -11.333 -4 -32.833 -12 -64.5s-12 -50.834 -12 -57.501c0 -20 6.16699 -35.667 18.5 -47s27.833 -17 46.5 -17c14 0 28.167 5.83301 42.5 17.5
s21.5 27.167 21.5 46.5c0 13.333 -3.66699 34.5 -11 63.5s-11 48.5 -11 58.5c0 62 15 115 45 159zM976 222.001c0 -68 -18.166 -124.499 -54.499 -169.499s-85.5 -67.5 -147.5 -67.5c-24 0 -42.667 5 -56 15l21 45c11.333 -6 23 -9 35 -9c48 0 85.167 17.667 111.5 53
s39.5 79.666 39.5 132.999c0 52 -15.5 96 -46.5 132s-70.833 54 -119.5 54s-85.834 -17.5 -111.501 -52.5s-38.5 -79.5 -38.5 -133.5c0 -20.667 3.66699 -42.5 11 -65.5s11 -41.833 11 -56.5c0 -32.667 -10.5 -60 -31.5 -82s-48.833 -33 -83.5 -33
c-32.667 0 -60.167 11.167 -82.5 33.5s-33.5 49.5 -33.5 81.5c0 14.667 4 33.5 12 56.5s12 44.833 12 65.5c0 53.333 -13.167 97.666 -39.5 132.999s-63.5 53 -111.5 53c-48.667 0 -88.667 -18 -120 -54s-47 -80 -47 -132c0 -54 13.167 -98.5 39.5 -133.5
s63.833 -52.5 112.5 -52.5c16 0 28.333 3 37 9l18 -45c-13.333 -10 -31.666 -15 -54.999 -15c-62 0 -111.333 22.5 -148 67.5s-55 101.5 -55 169.5c0 66 20.5 122 61.5 168s93.167 69 156.5 69c45.333 0 84.666 -13 117.999 -39c28 26 69.667 39 125 39
c54.667 0 96 -13 124 -39c36 26 75.667 39 119 39c62.667 0 114.5 -23.167 155.5 -69.5s61.5 -102.166 61.5 -167.499z" />
    <glyph glyph-name="u1010" unicode="&#x1010;" horiz-adv-x="997" 
d="M469 217c0 52.667 -17.166 97.665 -51.499 134.998s-77.166 56 -128.499 56c-50.667 0 -93.834 -18.167 -129.501 -54.5s-53.5 -80.166 -53.5 -131.499s17.667 -95.166 53 -131.499s77.666 -54.5 126.999 -54.5c52 0 95.5 18.5 130.5 55.5s52.5 78.833 52.5 125.5z
M942.001 221.998c0 -65.333 -22.9971 -121.165 -68.9971 -167.498s-100.667 -69.5 -164 -69.5c-26.667 0 -50 5 -70 15l21 46c15.333 -6.66699 31.666 -10 48.999 -10c50.667 0 93.667 18.167 129 54.5s53 80.166 53 131.499s-17.667 95.166 -53 131.499
s-78.333 54.5 -129 54.5c-38 0 -72.167 -13.167 -102.5 -39.5s-52.333 -54.333 -66 -84s-20.5 -55.167 -20.5 -76.5c0 -30 -8.5 -61.667 -25.5 -95s-43.833 -63 -80.5 -89s-78.334 -39 -125.001 -39c-66 0 -121.5 23 -166.5 69s-67.5 102 -67.5 168
c0 64.667 22.667 120.334 68 167.001s99.666 70 162.999 70c47.333 0 90.5 -13.167 129.5 -39.5s67.5 -60.833 85.5 -103.5c22 41.333 51.833 75.5 89.5 102.5s77.167 40.5 118.5 40.5c63.333 0 118 -23.333 164 -70s69 -102.334 69 -167.001z" />
    <glyph glyph-name="u1011" unicode="&#x1011;" horiz-adv-x="990" 
d="M469 222c0 51.333 -17.667 95.166 -53 131.499s-77.666 54.5 -126.999 54.5c-50.667 0 -93.834 -18.167 -129.501 -54.5s-53.5 -80.166 -53.5 -131.499s17.667 -95.166 53 -131.499s77.666 -54.5 126.999 -54.5c50.667 0 93.834 18.167 129.501 54.5
s53.5 80.166 53.5 131.499zM883 222c0 51.333 -17.667 95.166 -53 131.499s-78 54.5 -128 54.5c-50.667 0 -93.667 -18.167 -129 -54.5s-53 -80.166 -53 -131.499s17.667 -95.166 53 -131.499s78.333 -54.5 129 -54.5c50 0 92.667 18.167 128 54.5s53 80.166 53 131.499z
M934 222c0 -65.333 -22.833 -121.171 -68.5 -167.504s-100.167 -69.5 -163.5 -69.5c-44.667 0 -85.667 11.833 -123 35.5s-65.333 54.834 -84 93.501c-20.667 -39.333 -49.167 -70.666 -85.5 -93.999s-76.5 -35 -120.5 -35c-66 0 -121.5 23 -166.5 69s-67.5 102 -67.5 168
c0 64.667 22.667 120.334 68 167.001s99.666 70 162.999 70c44.667 0 85.334 -11.667 122.001 -35s65.667 -54.666 87 -93.999c18.667 38.667 46.667 69.834 84 93.501s78.333 35.5 123 35.5c63.333 0 117.833 -23.333 163.5 -70s68.5 -102.334 68.5 -167.001z" />
    <glyph glyph-name="u1012" unicode="&#x1012;" horiz-adv-x="534" 
d="M478 123c0 -41.333 -17.499 -74.668 -52.499 -100.001s-87.833 -38 -158.5 -38c-67.333 0 -119.5 11.833 -156.5 35.5s-55.5 55.167 -55.5 94.5l47 18c0 -63.333 55 -95.666 165 -96.999c44.667 0 82.5 6.83301 113.5 20.5s46.5 35.834 46.5 66.501
c0 40.667 -47 65 -141 73v51c17.333 2 31.666 4 42.999 6s25.833 5.5 43.5 10.5s31.167 12.333 40.5 22s14 21.5 14 35.5c0 30.667 -15.5 52.834 -46.5 66.501s-68.833 20.5 -113.5 20.5c-110 0 -165 -32.667 -165 -98l-47 18c0 39.333 18.5 71 55.5 95s89.167 36 156.5 36
c70.667 0 123.5 -12.833 158.5 -38.5s52.5 -58.834 52.5 -99.501c0 -24 -7.5 -45.333 -22.5 -64s-35.5 -30.334 -61.5 -35.001c26 -5.33301 46.5 -17.333 61.5 -36s22.5 -39.667 22.5 -63z" />
    <glyph glyph-name="u1013" unicode="&#x1013;" horiz-adv-x="576" 
d="M430 108c-42 42 -89 63 -141 63c-50 0 -98 -21.667 -144 -65c37.333 -46.667 84.333 -70 141 -70c60 0 108 24 144 72zM469 222c0 50.667 -17.667 94.334 -53 131.001s-77.666 55 -126.999 55c-50.667 0 -93.834 -18.333 -129.501 -55s-53.5 -80.334 -53.5 -131.001
c0 -24 4.66699 -47 14 -69c46 46 101.333 69 166 69c67.333 0 124 -23 170 -69c8.66699 21.333 13 44.333 13 69zM520 222c0 -65.333 -22.499 -121.169 -67.499 -167.502s-99.5 -69.5 -163.5 -69.5c-66 0 -121.5 23 -166.5 69s-67.5 102 -67.5 168
c0 64.667 22.5 120.334 67.5 167.001s99.5 70 163.5 70c65.333 0 120.666 -23.167 165.999 -69.5s68 -102.166 68 -167.499z" />
    <glyph glyph-name="u1014" unicode="&#x1014;" horiz-adv-x="530" 
d="M277 36c-4.66699 30.667 -15.335 56.834 -32.002 78.501s-37 32.5 -61 32.5c-21.333 0 -39.666 -4.66699 -54.999 -14s-23 -21.333 -23 -36c0 -13.333 3.83301 -24.333 11.5 -33s18.834 -14.834 33.501 -18.501s28.5 -6.16699 41.5 -7.5s28.167 -2 45.5 -2h39z
M474.999 145c0 -44 -12.001 -77.999 -36.001 -101.999s-60.333 -41 -109 -51v-442h-51v435h-41c-122 0 -183 37.333 -183 112c0 26.667 12.333 50.167 37 70.5s55.334 30.5 92.001 30.5c42 0 75.333 -15.333 100 -46c24 -30 38.667 -66.667 44 -110
c64 11.333 96 45.666 96 102.999c0 22.667 -9.66699 42 -29 58s-42.666 28.667 -69.999 38l-82 28c-27.333 9.33301 -50.666 21.833 -69.999 37.5s-29 34.5 -29 56.5c0 30.667 13.333 54.334 40 71.001s56.334 25 89.001 25c44.667 0 82 -12.667 112 -38l-33 -39
c-6 5.33301 -16.5 11 -31.5 17s-30.833 9 -47.5 9c-20 0 -38 -3.5 -54 -10.5s-24 -18.167 -24 -33.5c0 -12 9.66699 -22.667 29 -32s42.666 -18.333 69.999 -27s54.666 -18.834 81.999 -30.501s50.666 -28.5 69.999 -50.5s29 -48.333 29 -79z" />
    <glyph glyph-name="u1015" unicode="&#x1015;" horiz-adv-x="584" 
d="M529 240c0 -74.667 -22.8311 -135.835 -68.498 -183.502s-101.834 -71.5 -168.501 -71.5s-122.834 23.833 -168.501 71.5s-68.5 108.834 -68.5 183.501c0 90.667 32.667 163 98 217l30 -43c-51.333 -46.667 -77 -104.667 -77 -174c0 -59.333 18 -108.166 54 -146.499
s80 -57.5 132 -57.5s96 19.167 132 57.5s54 87.166 54 146.499c0 69.333 -25.333 127.333 -76 174l30 43c64.667 -51.333 97 -123.666 97 -216.999z" />
    <glyph glyph-name="u1016" unicode="&#x1016;" horiz-adv-x="585" 
d="M478 240c0 42.667 -23.333 88.668 -70 138.001c-25.333 -38.667 -38 -78.334 -38 -119.001c0 -58.667 24 -106 72 -142c24 33.333 36 74.333 36 123zM529 240.001c0 -75.333 -22.8301 -136.669 -68.4971 -184.002s-101.834 -71 -168.501 -71s-122.834 23.667 -168.501 71
s-68.5 108.666 -68.5 183.999c0 92 32.667 164.333 98 217l30 -43c-51.333 -46.667 -77 -104.667 -77 -174c0 -59.333 18 -108.166 54 -146.499s80 -57.5 132 -57.5c44.667 0 82.667 13.333 114 40c-58 48.667 -87 110.334 -87 185.001s28.667 140 86 196
c17.333 -14.667 31.666 -27.667 42.999 -39s24 -26.166 38 -44.499s24.667 -38.833 32 -61.5s11 -46.667 11 -72z" />
    <glyph glyph-name="u1017" unicode="&#x1017;" horiz-adv-x="585" 
d="M478 222c0 60 -13 109.333 -39 148c-34 -52.667 -83 -79 -147 -79c-62.667 0 -111.667 26.333 -147 79c-26 -36 -39 -85.333 -39 -148c0 -50.667 18.5 -94.334 55.5 -131.001s80.5 -55 130.5 -55s93.5 18.333 130.5 55s55.5 80.334 55.5 131.001zM529 222
c0 -65.333 -23.3311 -121.165 -69.998 -167.498s-102.334 -69.5 -167.001 -69.5s-120.334 23.167 -167.001 69.5s-70 102.166 -70 167.499c0 52.667 7.83301 100.167 23.5 142.5s38.834 73.166 69.501 92.499c13.333 -24.667 24.833 -44 34.5 -58s24.167 -27 43.5 -39
s41.333 -18 66 -18c36.667 0 65 9.66699 85 29s39.667 48 59 86c29.333 -19.333 52.166 -50.333 68.499 -93s24.5 -90 24.5 -142z" />
    <glyph glyph-name="u1018" unicode="&#x1018;" horiz-adv-x="986" 
d="M931 222c0 -65.333 -22.833 -121.164 -68.5 -167.497s-100.167 -69.5 -163.5 -69.5c-26 0 -49.667 5 -71 15l20 46c14 -6.66699 31 -10 51 -10c50 0 92.667 18.167 128 54.5s53 80.166 53 131.499c0 50.667 -17.667 94.334 -53 131.001s-78 55 -128 55
c-46.667 0 -89.667 -23.167 -129 -69.5s-59 -94.166 -59 -143.499c0 -44 -21.833 -90 -65.5 -138s-100.167 -72 -169.5 -72c-48 0 -92.5 12.167 -133.5 36.5s-70.167 57.5 -87.5 99.5l45 26c18 -34.667 42.833 -61.834 74.5 -81.501s65.5 -29.5 101.5 -29.5
c52.667 0 96.834 18.167 132.501 54.5s53.5 78.5 53.5 126.5c0 52.667 -18 97.667 -54 135s-80 56 -132 56c-36 0 -69.833 -10 -101.5 -30s-56.5 -47 -74.5 -81l-45 25c19.333 42.667 49.166 76.167 89.499 100.5s84.166 36.5 131.499 36.5c48 0 91.5 -12.833 130.5 -38.5
s67.833 -59.834 86.5 -102.501c21.333 41.333 50.333 75.166 87 101.499s76.334 39.5 119.001 39.5c63.333 0 117.833 -23.333 163.5 -70s68.5 -102.334 68.5 -167.001z" />
    <glyph glyph-name="u1019" unicode="&#x1019;" horiz-adv-x="585" 
d="M436 106c-44 43.333 -92.001 65 -144.001 65c-51.333 0 -98.666 -22 -141.999 -66c34.667 -46 82 -69 142 -69s108 23.333 144 70zM528.999 240c0 -75.333 -22.8311 -136.666 -68.498 -183.999s-101.834 -71 -168.501 -71s-122.834 23.667 -168.501 71
s-68.5 108.666 -68.5 183.999c0 92 32.667 164.333 98 217l30 -43c-51.333 -46.667 -77 -104.667 -77 -174c0 -28.667 5.66699 -58.334 17 -89.001c48 47.333 104.333 71 169 71c67.333 0 124 -23 170 -69c10.667 27.333 16 56.333 16 87c0 67.333 -25.333 125.333 -76 174
l30 43c64.667 -51.333 97 -123.666 97 -216.999z" />
    <glyph glyph-name="u101A" unicode="&#x101a;" horiz-adv-x="994" 
d="M939 222c0 -65.333 -23.001 -121.165 -69.001 -167.498s-100.667 -69.5 -164 -69.5c-40.667 0 -78.667 13.333 -114 40s-63.666 60.667 -84.999 102c-19.333 -44 -48 -78.667 -86 -104s-81 -38 -129 -38c-66.667 0 -122.834 23.833 -168.501 71.5
s-68.5 108.834 -68.5 183.501c0 90.667 32.667 163 98 217l30 -43c-51.333 -46.667 -77 -104.667 -77 -174c0 -59.333 18 -108.166 54 -146.499s80 -57.5 132 -57.5s96 19.167 132 57.5s54 87.166 54 146.499c0 69.333 -25.333 127.333 -76 174l30 43
c64.667 -54 97 -124 97 -210c0 -52.667 17.833 -101 53.5 -145s76.834 -66 123.501 -66c50.667 0 93.667 18.167 129 54.5s53 80.166 53 131.499s-17.667 95.166 -53 131.499s-78.333 54.5 -129 54.5c-18.667 0 -35.667 -3.66699 -51 -11l-19 47c22 10 45.333 15 70 15
c63.333 0 118 -23.333 164 -70s69 -102.334 69 -167.001z" />
    <glyph glyph-name="u101B" unicode="&#x101b;" horiz-adv-x="588" 
d="M333 40c-10.667 31.333 -23.668 56.833 -39.001 76.5s-37 35.834 -65 48.501c-24 10.667 -48.667 16 -74 16l-43 -4c10 -40.667 31.5 -74.334 64.5 -101.001s71.5 -40 115.5 -40c14.667 0 28.334 1.33301 41.001 4zM614.999 -450l-134.001 0.000976562v652
c0 60 -18.5 109.333 -55.5 148s-81.5 58 -133.5 58c-48.667 0 -91.167 -17.833 -127.5 -53.5s-55.833 -77.5 -58.5 -125.5c14 2 28.333 3 43 3c40 0 74.333 -7.33301 103 -22c39.333 -18.667 68.833 -43.334 88.5 -74.001s38.5 -73.667 56.5 -129
c-8 -4.66699 -23 -9.5 -45 -14.5s-42 -7.5 -60 -7.5c-65.333 0 -121.166 23.167 -167.499 69.5s-69.5 102.166 -69.5 167.499c0 64 23.333 119.167 70 165.5s102.334 69.5 167.001 69.5c67.333 0 124.166 -23.667 170.499 -71s69.5 -108.666 69.5 -183.999v-601h83v-51z" />
    <glyph glyph-name="u101C" unicode="&#x101c;" horiz-adv-x="960" 
d="M904 222c0 -66 -21.498 -121.999 -64.498 -167.999s-96.5 -69 -160.5 -69c-60.667 0 -110.334 22.167 -149.001 66.5s-64 101.166 -76 170.499c-8.66699 54 -27.834 98.5 -57.501 133.5s-68.5 52.5 -116.5 52.5c-48.667 0 -89.834 -18.333 -123.501 -55
s-50.5 -80.334 -50.5 -131.001c0 -52 16.833 -96 50.5 -132s74.834 -54 123.501 -54c19.333 0 36 3.33301 50 10l19 -46c-20.667 -10 -43.667 -15 -69 -15c-63.333 0 -116.666 23 -159.999 69s-65 102 -65 168c0 65.333 21.833 121.166 65.5 167.499
s96.834 69.5 159.501 69.5c60.667 0 110.834 -22.667 150.501 -68s64.5 -101.666 74.5 -168.999c8 -53.333 27.167 -97.666 57.5 -132.999s69.166 -53 116.499 -53c49.333 0 90.666 18 123.999 54s50 80 50 132c0 51.333 -16.833 95.166 -50.5 131.499
s-74.834 54.5 -123.501 54.5c-16.667 0 -33 -3.66699 -49 -11l-20 47c21.333 10 44.333 15 69 15c64 0 117.5 -23.167 160.5 -69.5s64.5 -102.166 64.5 -167.499z" />
    <glyph glyph-name="u101D" unicode="&#x101d;" horiz-adv-x="575" 
d="M469 222c0 50.667 -18 94.3301 -54 130.997s-78.667 55 -128 55c-50.667 0 -93.5 -18.167 -128.5 -54.5s-52.5 -80.166 -52.5 -131.499s17.5 -95.166 52.5 -131.499s77.833 -54.5 128.5 -54.5c49.333 0 92 18.333 128 55s54 80.334 54 131.001zM520 221.996
c0 -65.333 -22.833 -121.166 -68.5 -167.499s-100.5 -69.5 -164.5 -69.5c-63.333 0 -117.833 23.167 -163.5 69.5s-68.5 102.166 -68.5 167.499c0 64.667 22.833 120.334 68.5 167.001s100.167 70 163.5 70c64 0 118.833 -23.333 164.5 -70s68.5 -102.334 68.5 -167.001z
" />
    <glyph glyph-name="u101E" unicode="&#x101e;" horiz-adv-x="990" 
d="M934 222c0 -65.333 -22.835 -121.165 -68.502 -167.498s-100.167 -69.5 -163.5 -69.5c-42 0 -81.667 13.333 -119 40s-67.333 60.667 -90 102c-18.667 -42.667 -47.5 -77 -86.5 -103s-82.5 -39 -130.5 -39c-47.333 0 -91.166 11.833 -131.499 35.5
s-70.166 57.167 -89.499 100.5l45 26c18 -34.667 42.833 -61.834 74.5 -81.501s65.5 -29.5 101.5 -29.5c55.333 0 100.166 18.5 134.499 55.5s51.5 82.833 51.5 137.5c0 48 -19 89.833 -57 125.5s-81 53.5 -129 53.5c-36 0 -69.833 -10 -101.5 -30s-56.5 -47 -74.5 -81
l-45 25c17.333 42 46.5 75.333 87.5 100s85.5 37 133.5 37c58.667 0 112.5 -21.667 161.5 -65s73.5 -93.666 73.5 -150.999c0 -46.667 19 -92.834 57 -138.501s82.667 -68.5 134 -68.5c50 0 92.667 18.167 128 54.5s53 80.166 53 131.499
c0 50.667 -17.667 94.334 -53 131.001s-78 55 -128 55c-18 0 -35 -3.66699 -51 -11l-20 47c20.667 10 44.334 15 71.001 15c63.333 0 117.833 -23.333 163.5 -70s68.5 -102.334 68.5 -167.001z" />
    <glyph glyph-name="u101F" unicode="&#x101f;" horiz-adv-x="1002" 
d="M946 222c0 -65.333 -22.8291 -121.164 -68.4961 -167.497s-100.167 -69.5 -163.5 -69.5c-26.667 0 -50.334 5 -71.001 15l20 46c14 -6.66699 31 -10 51 -10c50 0 92.667 18.167 128 54.5s53 80.166 53 131.499s-17.667 95.166 -53 131.499s-78 54.5 -128 54.5
c-48 0 -90.833 -22 -128.5 -66s-56.5 -84.667 -56.5 -122c0 -58.667 -21.333 -112.5 -64 -161.5s-100.334 -73.5 -173.001 -73.5c-66.667 0 -122.834 23.833 -168.501 71.5s-68.5 108.834 -68.5 183.501c0 90.667 32.667 163 98 217l30 -43
c-51.333 -46.667 -77 -104.667 -77 -174c0 -59.333 18 -108.166 54 -146.499s80 -57.5 132 -57.5s96 19.167 132 57.5s54 87.166 54 146.499c0 69.333 -25.333 127.333 -76 174l30 43c43.333 -36.667 71.666 -78 84.999 -124c22.667 37.333 51.5 67.666 86.5 90.999
s71.833 35 110.5 35c63.333 0 117.833 -23.333 163.5 -70s68.5 -102.334 68.5 -167.001z" />
    <glyph glyph-name="u1020" unicode="&#x1020;" horiz-adv-x="583" 
d="M513 -89c-72.667 -46 -146.334 -68.9932 -221.001 -68.9932c-58 0 -110 11 -156 33v-139c0 -42.667 13.667 -75.334 41 -98.001c18.667 -16 34.334 -26.167 47.001 -30.5s35 -6.5 67 -6.5h114c38 0 57 17.333 57 52c0 15.333 -5.16699 27.666 -15.5 36.999
s-25.166 14 -44.499 14c-8.66699 0 -18.334 -3.33301 -29.001 -10l-34 39c13.333 14.667 34.333 22 63 22c32.667 0 59.334 -10.333 80.001 -31s31 -44.334 31 -71.001c0 -31.333 -7.83301 -56.333 -23.5 -75s-39.834 -28 -72.501 -28h-156c-47.333 0 -89 18 -125 54
c-13.333 12 -25.166 29.167 -35.499 51.5s-15.5 45.5 -15.5 69.5v234c72 -44 141 -66 207 -66c54 0 110.667 15.667 170 47v109c-46.667 -42.667 -103.334 -64 -170.001 -64c-65.333 0 -121.166 23.167 -167.499 69.5s-69.5 102.166 -69.5 167.499
c0 64.667 23.167 120.334 69.5 167.001s102.166 70 167.499 70c46.667 0 90.667 -12 132 -36s71 -57.667 89 -101l-44 -25c-18 35.333 -42.833 62.666 -74.5 81.999s-65.834 29 -102.501 29c-50.667 0 -94.334 -18.333 -131.001 -55s-55 -80.334 -55 -131.001
s18.333 -94.334 55 -131.001s80.334 -55 131.001 -55c36.667 0 70.834 9.66699 102.501 29s56.5 46.666 74.5 81.999l44 -26v-210z" />
    <glyph glyph-name="u1021" unicode="&#x1021;" horiz-adv-x="940" 
d="M829 180c-8.66699 1.33301 -20.6631 2.00098 -35.9961 2.00098c-30.667 0 -57.667 -5.66699 -81 -17c-28.667 -13.333 -50.834 -29.833 -66.501 -49.5s-27.834 -44.834 -36.501 -75.501c11.333 -2.66699 24.666 -4 39.999 -4c39.333 0 74.666 11 105.999 33
c36 24.667 60.667 61.667 74 111zM885.004 222.001c0 -68.667 -23.9971 -125.334 -71.9971 -170.001s-104.667 -67 -170 -67c-36 0 -70 7.33301 -102 22c8.66699 26.667 16.167 48 22.5 64s15.166 33.5 26.499 52.5s25.166 35.333 41.499 49s35.833 26.167 58.5 37.5
c32 16 68.667 24 110 24c13.333 0 25 -1 35 -3c0 47.333 -18.667 88.666 -56 123.999s-81 53 -131 53c-34 0 -66 -8.66699 -96 -26s-55 -41.666 -75 -72.999c-3.33301 -22.667 -12.166 -41.667 -26.499 -57s-33.166 -25.333 -56.499 -30
c25.333 -5.33301 45.666 -17.333 60.999 -36s23 -39.667 23 -63c0 -38 -16.667 -70.667 -50 -98c-32.667 -26.667 -86.334 -40 -161.001 -40c-68 0 -120.333 11.833 -157 35.5s-55 55.167 -55 94.5l47 18c0 -63.333 55 -95.666 165 -96.999c45.333 0 83.333 6.66699 114 20
s46 35.666 46 66.999c0 42.667 -47 67 -141 73v51c18.667 2 33.167 3.83301 43.5 5.5s24.5 5.16699 42.5 10.5s31.667 12.833 41 22.5s14 21.5 14 35.5c0 30 -15.5 52 -46.5 66s-68.833 21 -113.5 21c-110 0 -165 -32.667 -165 -98l-47 18c0 39.333 18.5 71 55.5 95
s89.167 36 156.5 36c100 0 166 -26.667 198 -80c49.333 53.333 110.333 80 183 80c65.333 0 121.166 -23.167 167.499 -69.5s69.5 -102.166 69.5 -167.499z" />
    <glyph glyph-name="u1022" unicode="&#x1022;" horiz-adv-x="999" 
d="M943 222c0 -64.667 -22.8301 -120.331 -68.4971 -166.998s-100.167 -70 -163.5 -70c-26.667 0 -50.334 5 -71.001 15l20 46c15.333 -6.66699 32.333 -10 51 -10c50 0 92.667 18.167 128 54.5s53 80.166 53 131.499s-17.667 95.166 -53 131.499s-78 54.5 -128 54.5
c-46.667 0 -89.834 -22.333 -129.501 -67s-59.5 -90.334 -59.5 -137.001c0 -93.333 -32.667 -165.333 -98 -216l-30 43c51.333 42 77 96 77 162c0 60.667 -16.667 111.834 -50 153.501s-78.666 62.5 -135.999 62.5c-30 0 -57.333 -5.66699 -82 -17
s-43.5 -24.833 -56.5 -40.5s-23 -30.167 -30 -43.5s-10.5 -23.666 -10.5 -30.999c0 -19.333 7.33301 -36 22 -50s30.667 -24.667 48 -32s33.333 -19.333 48 -36s22 -37.667 22 -63c0 -32 -10.333 -57.833 -31 -77.5s-45 -29.5 -73 -29.5c-18.667 0 -37 5.5 -55 16.5
s-28.667 23.5 -32 37.5l43 26c9.33301 -19.333 24 -29 44 -29c14.667 0 27.167 4.83301 37.5 14.5s15.5 23.5 15.5 41.5c0 15.333 -7.33301 28.666 -22 39.999s-30.667 20.833 -48 28.5s-33.333 21.167 -48 40.5s-22 43.333 -22 72c0 44 21.833 85.5 65.5 124.5
s98.5 58.5 164.5 58.5c48 0 91.167 -13.167 129.5 -39.5s67.166 -62.166 86.499 -107.499c22 43.333 51.667 78.5 89 105.5s77.666 40.5 120.999 40.5c63.333 0 117.833 -23.333 163.5 -70s68.5 -102.334 68.5 -167.001z" />
    <glyph glyph-name="u1023" unicode="&#x1023;" horiz-adv-x="1008" 
d="M883 -450h-129.998v33c38 38 57 83 57 135c0 47.333 -13.667 85.333 -41 114s-61.333 43 -102 43s-74.834 -14.5 -102.501 -43.5s-41.5 -66.833 -41.5 -113.5v-84h-39v84c0 46.667 -13.833 84.5 -41.5 113.5s-61.834 43.5 -102.501 43.5c-40 0 -73.667 -14.5 -101 -43.5
s-41 -66.833 -41 -113.5c0 -57.333 19 -102.333 57 -135l-21 -33c-50 38 -75 94 -75 168c0 56.667 17.5 103.5 52.5 140.5s77.833 55.5 128.5 55.5c36 0 68.333 -9.16699 97 -27.5s51 -43.5 67 -75.5c15.333 32 37.333 57.167 66 75.5s61 27.5 97 27.5
c51.333 0 94.5 -18.5 129.5 -55.5s52.5 -83.833 52.5 -140.5c0 -50.667 -13 -93.667 -39 -129h73v-39zM952.002 202c0 -92 -32.335 -164.333 -97.002 -217l-30 43c50.667 46.667 76 104.667 76 174c0 59.333 -18 108.166 -54 146.499s-80 57.5 -132 57.5
s-96 -19.167 -132 -57.5s-54 -87.166 -54 -146.499v-108h-51v108c0 59.333 -18 108.166 -54 146.499s-80 57.5 -132 57.5s-96 -19.167 -132 -57.5s-54 -87.166 -54 -146.499c0 -69.333 25.667 -127.333 77 -174l-30 -43c-65.333 52.667 -98 125 -98 217
c0 74.667 22.833 135.834 68.5 183.501s101.834 71.5 168.501 71.5c46 0 87.667 -12 125 -36s66.333 -57 87 -99c20 42 48.667 75 86 99s79 36 125 36c66.667 0 122.834 -23.833 168.501 -71.5s68.5 -108.834 68.5 -183.501z" />
    <glyph glyph-name="u1024" unicode="&#x1024;" horiz-adv-x="1180" 
d="M1110 -450l-51.001 -0.000976562v840c0 26 -6 49.667 -18 71s-27.167 38.666 -45.5 51.999l-59 42.5l-59 43c-18.333 13.667 -33.5 31.5 -45.5 53.5s-18 46.667 -18 74c0 49.333 17.5 91.333 52.5 126s77.5 52 127.5 52c34.667 0 63.334 -8.83301 86.001 -26.5
s37.667 -38.167 45 -61.5l-47 -20c-5.33301 16.667 -16.166 30.334 -32.499 41.001s-33.5 16 -51.5 16c-34.667 0 -64.834 -12.333 -90.501 -37s-38.5 -54.667 -38.5 -90c0 -21.333 6 -41 18 -59s27.167 -33 45.5 -45s38 -25.667 59 -41s40.667 -30.666 59 -45.999
s33.5 -35.5 45.5 -60.5s18 -53.167 18 -84.5v-840zM945.999 -275.001c0 -46 -16.999 -86.002 -50.999 -120.002c-36.667 -36.667 -78 -55 -124 -55h-605c-36 0 -63.5 11.5 -82.5 34.5s-28.5 45.833 -28.5 68.5c0 98 89.667 147 269 147c78.667 0 145.667 -7.66699 201 -23
s93.333 -32.666 114 -51.999l-30 -36c-23.333 12 -43.166 21.333 -59.499 28s-44.833 13.667 -85.5 21s-87.334 11 -140.001 11c-145.333 0 -218 -32 -218 -96c0 -11.333 5.16699 -22.833 15.5 -34.5s25.166 -17.5 44.499 -17.5h575c32.667 0 55.334 2.16699 68.001 6.5
s28 14.5 46 30.5c26.667 24.667 40 57.334 40 98.001v486c0 51.333 -17.667 95.166 -53 131.499s-78 54.5 -128 54.5c-48 0 -90.833 -23 -128.5 -69s-56.5 -95 -56.5 -147c0 -88.667 -32.333 -157.667 -97 -207l-30 43c50.667 46.667 76 104.667 76 174
c0 59.333 -18 108.166 -54 146.499s-80 57.5 -132 57.5s-96 -19.167 -132 -57.5s-54 -87.166 -54 -146.499c0 -69.333 25.667 -127.333 77 -174l-30 -43c-65.333 52.667 -98 125 -98 217c0 74.667 22.833 135.834 68.5 183.501s101.834 71.5 168.501 71.5
c48.667 0 92.167 -12.667 130.5 -38s66.833 -60.666 85.5 -105.999c21.333 43.333 50.166 78.5 86.499 105.5s76.166 40.5 119.499 40.5c63.333 0 117.833 -23.333 163.5 -70s68.5 -102.334 68.5 -167.001v-497z" />
    <glyph glyph-name="u1025" unicode="&#x1025;" horiz-adv-x="568" 
d="M498 -302l-0.00195312 -47.999c0 -38.667 -8 -65.334 -24 -80.001c-14.667 -13.333 -41.334 -20 -80.001 -20h-163c-47.333 0 -89 18 -125 54c-13.333 13.333 -25.166 30.833 -35.499 52.5s-15.5 44.5 -15.5 68.5v396l45 26c18 -34.667 42.833 -61.834 74.5 -81.501
s65.5 -29.5 101.5 -29.5c50.667 0 94.334 18.333 131.001 55s55 80.334 55 131.001s-18.333 94.334 -55 131.001s-80.334 55 -131.001 55c-36 0 -69.833 -9.83301 -101.5 -29.5s-56.5 -46.834 -74.5 -81.501l-45 25c18 43.333 47.667 77 89 101s85.333 36 132 36
c64.667 0 120.334 -23.333 167.001 -70s70 -102.334 70 -167.001c0 -65.333 -23.167 -121.166 -69.5 -167.499s-102.166 -69.5 -167.499 -69.5s-122 21.333 -170 64v-313c0 -43.333 13 -76 39 -98c29.333 -24.667 62.333 -37 99 -37h147c23.333 0 38.5 2.83301 45.5 8.5
s10.5 19.167 10.5 40.5v48h51z" />
    <glyph glyph-name="u1026" unicode="&#x1026;" horiz-adv-x="568" 
d="M498 -302l-0.00195312 -47.999c0 -38.667 -8 -65.334 -24 -80.001c-14.667 -13.333 -41.334 -20 -80.001 -20h-163c-47.333 0 -89 18 -125 54c-13.333 13.333 -25.166 30.833 -35.499 52.5s-15.5 44.5 -15.5 68.5v396l45 26c18 -34.667 42.833 -61.834 74.5 -81.501
s65.5 -29.5 101.5 -29.5c50.667 0 94.334 18.333 131.001 55s55 80.334 55 131.001s-18.333 94.334 -55 131.001s-80.334 55 -131.001 55c-36 0 -69.833 -9.83301 -101.5 -29.5s-56.5 -46.834 -74.5 -81.501l-45 25c18 43.333 47.667 77 89 101s85.333 36 132 36
c64.667 0 120.334 -23.333 167.001 -70s70 -102.334 70 -167.001c0 -65.333 -23.167 -121.166 -69.5 -167.499s-102.166 -69.5 -167.499 -69.5s-122 21.333 -170 64v-313c0 -43.333 13 -76 39 -98c29.333 -24.667 62.333 -37 99 -37h147c23.333 0 38.5 2.83301 45.5 8.5
s10.5 19.167 10.5 40.5v48h51zM389.998 634.001c-16.667 18.667 -35.834 32.167 -57.501 40.5s-40.5 12.5 -56.5 12.5c-40 0 -77 -17.667 -111 -53c12 -16 28.333 -29.667 49 -41s41.334 -17 62.001 -17c50 0 88 19.333 114 58zM415.998 720.001
c0 39.333 -13.667 73.165 -41 101.498s-60.333 42.5 -99 42.5c-38 0 -70.667 -14.167 -98 -42.5s-41 -62.166 -41 -101.499c0 -17.333 3.33301 -35 10 -53c36 36 79 54 129 54c53.333 0 97 -18 131 -54c6 16.667 9 34.334 9 53.001zM454.998 720
c0 -50.667 -17.5 -93.834 -52.5 -129.501s-77.167 -53.5 -126.5 -53.5c-48.667 0 -90.5 17.833 -125.5 53.5s-52.5 78.834 -52.5 129.501s17.5 93.834 52.5 129.501s76.833 53.5 125.5 53.5c49.333 0 91.5 -17.833 126.5 -53.5s52.5 -78.834 52.5 -129.501z" />
    <glyph glyph-name="u1027" unicode="&#x1027;" horiz-adv-x="576" 
d="M456 121c-34.667 17.333 -64.666 26 -89.999 26c-39.333 0 -70.833 -7.5 -94.5 -22.5s-45.834 -37.5 -66.501 -67.5c30 -14 59 -21 87 -21c73.333 0 128 28.333 164 85zM457.001 321c-16.667 28 -39.999 49.499 -69.999 64.499s-61.667 22.5 -95 22.5
c-28 0 -57.333 -7.33301 -88 -22c24 -31.333 48.167 -54.166 72.5 -68.499s53.166 -21.5 86.499 -21.5c34.667 0 66 8.33301 94 25zM520.002 135.999c-44.667 -100.667 -120.669 -151.001 -228.002 -151.001c-65.333 0 -121.166 23.167 -167.499 69.5
s-69.5 102.166 -69.5 167.499c0 64.667 23.333 120.334 70 167.001s102.334 70 167.001 70c52 0 98.333 -13.5 139 -40.5s70 -64.167 88 -111.5c-46.667 -34.667 -98.667 -52 -156 -52c-80 0 -145.667 34.333 -197 103c-40 -33.333 -60 -78.666 -60 -135.999
c0 -53.333 20 -99 60 -137c51.333 69.333 118 104 200 104c54 0 105.333 -17.667 154 -53z" />
    <glyph glyph-name="u1028" unicode="&#x1028;" horiz-adv-x="576" 
d="M520 -214c0 -60 -21.4941 -114.329 -64.4941 -162.996s-97.5 -73 -163.5 -73c-70.667 0 -127.834 24.167 -171.501 72.5s-65.5 103.166 -65.5 164.499v438c0 61.333 21.667 115.666 65 162.999s100.666 71 171.999 71c65.333 0 119.666 -24.833 162.999 -74.5
s65 -103.167 65 -160.5c0 -28.667 -3.33301 -56.5 -10 -83.5s-16.834 -52.5 -30.501 -76.5s-32.834 -43.167 -57.501 -57.5s-53.334 -21.5 -86.001 -21.5c-29.333 0 -55.166 7.5 -77.499 22.5s-33.5 37.167 -33.5 66.5c0 17.333 5.66699 31.166 17 41.499s24 16.833 38 19.5
s26.667 6.5 38 11.5s17 11.167 17 18.5c0 18.667 -5.33301 32.667 -16 42s-23 14 -37 14c-10.667 0 -20.5 -3.83301 -29.5 -11.5s-13.5 -13.834 -13.5 -18.501l-44 27c2 10 11.833 21.5 29.5 34.5s36.834 19.5 57.501 19.5c28 0 52.333 -9.83301 73 -29.5s31 -45.5 31 -77.5
c0 -17.333 -5.66699 -31.5 -17 -42.5s-24 -18.167 -38 -21.5s-26.667 -7.16602 -38 -11.499s-17 -9.5 -17 -15.5c0 -25.333 20 -38 60 -38c38 0 69.667 16 95 48s38 78.667 38 140c0 51.333 -18.333 94.833 -55 130.5s-77.334 53.5 -122.001 53.5
c-52 0 -96 -17.5 -132 -52.5s-54 -79.5 -54 -133.5v-435c0 -52.667 18.167 -96.834 54.5 -132.501s80.166 -53.5 131.499 -53.5c50 0 92 19.167 126 57.5s51 80.833 51 127.5h51z" />
    <glyph glyph-name="u1029" unicode="&#x1029;" horiz-adv-x="1174" 
d="M1119 -110l-0.000976562 -74.9971c0 -86 -22 -151.333 -66 -196c-26.667 -28 -56 -46.5 -88 -55.5s-69.333 -13.5 -112 -13.5h-517c-75.333 0 -137 22.333 -185 67c-28 25.333 -48.5 56.666 -61.5 93.999s-19.5 72 -19.5 104v875c0 32.667 6.5 66.667 19.5 102
s33.5 66.666 61.5 93.999c48.667 46 110.334 69 185.001 69h517c43.333 0 80.333 -4.83301 111 -14.5s59.667 -28.167 87 -55.5c20 -21.333 35.833 -45.5 47.5 -72.5s18.5 -50.5 20.5 -70.5h-51c0 12 -5 29 -15 51s-23 41.667 -39 59c-20 21.333 -44.667 35.333 -74 42
s-65.333 10 -108 10h-466c-78.667 0 -137.334 -17.333 -176.001 -52c-24.667 -21.333 -42.334 -48.833 -53.001 -82.5s-16 -65.834 -16 -96.501v-840c0 -30 5.33301 -62 16 -96s28.334 -62.333 53.001 -85c37.333 -34 96 -51 176 -51h466c26.667 0 47.834 0.5 63.501 1.5
s35.5 5.66699 59.5 14s43.667 20.5 59 36.5c36 36.667 54 96.667 54 180v57h51zM1104 222.003c0 -65.333 -22.833 -121.166 -68.5 -167.499s-100.5 -69.5 -164.5 -69.5c-42 0 -81.667 13.333 -119 40s-67 60.667 -89 102c-18.667 -42.667 -47.667 -77 -87 -103
s-83 -39 -131 -39c-47.333 0 -91.333 11.833 -132 35.5s-70 57.167 -88 100.5l43 26c19.333 -35.333 44.666 -62.666 75.999 -81.999s65 -29 101 -29c55.333 0 100.166 18.333 134.499 55s51.5 82.667 51.5 138c0 48.667 -19.167 90.667 -57.5 126s-81.166 53 -128.499 53
c-36 0 -69.667 -9.66699 -101 -29s-56.666 -46.666 -75.999 -81.999l-43 25c18 43.333 47.5 77 88.5 101s84.833 36 131.5 36c59.333 0 113.5 -21.833 162.5 -65.5s73.5 -93.834 73.5 -150.501c0 -47.333 18.833 -93.666 56.5 -138.999s82.167 -68 133.5 -68
c50.667 0 93.667 18.167 129 54.5s53 80.166 53 131.499s-17.667 95.166 -53 131.499s-78.333 54.5 -129 54.5c-16.667 0 -33 -3.66699 -49 -11l-21 47c22 10 45.333 15 70 15c64 0 118.833 -23.333 164.5 -70s68.5 -102.334 68.5 -167.001z" />
    <glyph glyph-name="u102A" unicode="&#x102a;" horiz-adv-x="2149" 
d="M2092 826l-29.0029 -23.9971c-24.667 41.333 -60.667 62 -108 62c-36 0 -68.167 -13.333 -96.5 -40s-42.5 -61.334 -42.5 -104.001c0 -25.333 5.66699 -48.333 17 -69s25.333 -36.334 42 -47.001s32.334 -18.834 47.001 -24.501s27.334 -8.5 38.001 -8.5v-39
c-42 0 -83 17.333 -123 52s-60 80 -60 136c0 52 17.833 95.5 53.5 130.5s76.834 52.5 123.501 52.5c30.667 0 58.5 -7 83.5 -21s43.167 -32.667 54.5 -56zM459.997 127.003c-32 16 -64.333 24 -97 24c-70 0 -123.667 -31 -161 -93c31.333 -14.667 61.333 -22 90 -22
c78 0 134 30.333 168 91zM519.997 153.003c-0.666992 -13.333 -5.83301 -28.9971 -15.5 -46.9971s-23.167 -36.333 -40.5 -55s-41.166 -34.334 -71.499 -47.001s-63.833 -19 -100.5 -19c-65.333 0 -121.166 23.167 -167.499 69.5s-69.5 102.166 -69.5 167.499
c0 64.667 23.333 120.334 70 167.001s102.334 70 167.001 70c48 0 92.5 -12.333 133.5 -37s70.167 -58 87.5 -100l-44 -25c-18.667 34 -43.834 61 -75.501 81s-65.5 30 -101.5 30c-50.667 0 -94.334 -18.333 -131.001 -55s-55 -80.334 -55 -131.001
c0 -48.667 17.667 -92.334 53 -131.001c50 74 119 111 207 111c39.333 0 90.666 -16.333 153.999 -49zM2094 222.006c0 -65.333 -22.999 -121.165 -68.999 -167.498s-100.667 -69.5 -164 -69.5c-32.667 0 -61.667 6 -87 18l20 46c17.333 -8.66699 39.666 -13 66.999 -13
c50 0 92.833 18.167 128.5 54.5s53.5 80.166 53.5 131.499c0 50.667 -17.833 94.334 -53.5 131.001s-78.5 55 -128.5 55c-33.333 0 -63.833 -7.66699 -91.5 -23s-65.167 -42 -112.5 -80c10 -26.667 15 -54.334 15 -83.001c0 -65.333 -22.833 -121.166 -68.5 -167.499
s-100.167 -69.5 -163.5 -69.5c-42 0 -81.667 13.333 -119 40s-67.333 60.667 -90 102c-18.667 -42.667 -47.5 -77 -86.5 -103s-82.5 -39 -130.5 -39s-92.5 12.167 -133.5 36.5s-70.167 57.5 -87.5 99.5l45 26c18 -34.667 42.833 -61.834 74.5 -81.501
s65.5 -29.5 101.5 -29.5c55.333 0 100.166 18.5 134.499 55.5s51.5 82.833 51.5 137.5c0 48 -19 89.833 -57 125.5s-81 53.5 -129 53.5c-36 0 -69.833 -10 -101.5 -30s-56.5 -47 -74.5 -81l-45 25c19.333 42.667 49.166 76.167 89.499 100.5s84.166 36.5 131.499 36.5
c58.667 0 112.5 -21.667 161.5 -65s73.5 -93.666 73.5 -150.999c0 -46.667 19 -92.834 57 -138.501s82.667 -68.5 134 -68.5c50 0 92.667 18.167 128 54.5s53 80.166 53 131.499c0 50.667 -17.667 94.334 -53 131.001s-78 55 -128 55c-18 0 -35 -3.66699 -51 -11l-20 47
c20.667 10 44.334 15 71.001 15c38.667 0 75.5 -9.83301 110.5 -29.5s62.167 -45.5 81.5 -77.5c48.667 39.333 89.334 67 122.001 83s68.334 24 107.001 24c63.333 0 118 -23.333 164 -70s69 -102.334 69 -167.001zM1687 742.007l-51.002 0.000976562
c0 10.667 -5.5 27.334 -16.5 50.001s-24.167 42 -39.5 58s-34.666 28.333 -57.999 37s-43.333 13.667 -60 15s-37.334 2 -62.001 2h-466c-78.667 0 -137.334 -17.333 -176.001 -52c-46 -39.333 -69 -100 -69 -182v-837c0 -30 5.33301 -62 16 -96s28.334 -62.333 53.001 -85
c37.333 -34 96 -51 176 -51h466c26.667 0 47.834 0.5 63.501 1.5s35.5 5.66699 59.5 14s43.667 20.5 59 36.5c36 36.667 54 96.667 54 180v57h51v-75c0 -86 -22 -151.333 -66 -196c-26.667 -28 -56 -46.5 -88 -55.5s-69.333 -13.5 -112 -13.5h-517
c-75.333 0 -137 22.333 -185 67c-28 25.333 -48.5 56.666 -61.5 93.999s-19.5 72 -19.5 104v875c0 32.667 6.5 66.667 19.5 102s33.5 66.666 61.5 93.999c48.667 46 110.334 69 185.001 69h517c86 0 152 -23.333 198 -70c20 -21.333 35.833 -45.5 47.5 -72.5
s18.5 -50.5 20.5 -70.5z" />
    <glyph glyph-name="u102B" unicode="&#x102b;" horiz-adv-x="177" 
d="M121 0h-51v714c0 48 -10 82 -30 102s-49 30.333 -87 31c-78 0 -117 -44.333 -117 -133h-51c0 56 14.667 100.667 44 134s70.666 50 123.999 50c52.667 0 93.834 -15.833 123.501 -47.5s44.5 -77.167 44.5 -136.5v-714z" />
    <glyph glyph-name="u102C" unicode="&#x102c;" horiz-adv-x="421" 
d="M366 222c0 -65.333 -23 -121.166 -69 -167.499s-100.667 -69.5 -164 -69.5c-32.667 0 -61.667 6 -87 18l20 46c17.333 -8.66699 39.666 -13 66.999 -13c50 0 92.833 18.167 128.5 54.5s53.5 80.166 53.5 131.499c0 50.667 -17.833 94.334 -53.5 131.001
s-78.5 55 -128.5 55c-35.333 0 -68.666 -9.16699 -99.999 -27.5s-71.333 -47.833 -120 -88.5l-30 45c36.667 30 64.667 51.833 84 65.5s44 26.5 74 38.5s60.667 18 92 18c63.333 0 118 -23.333 164 -70s69 -102.334 69 -167.001z" />
    <glyph glyph-name="u102D" unicode="&#x102d;" 
d="M-94 720c0 38.667 -13.833 72.334 -41.5 101.001s-60.5 43 -98.5 43s-70.667 -14.333 -98 -43s-41 -62.334 -41 -101.001c0 -39.333 13.667 -73.166 41 -101.499s60 -42.5 98 -42.5c38.667 0 71.667 14.167 99 42.5s41 62.166 41 101.499zM-55 720
c0 -51.333 -17.5 -94.666 -52.5 -129.999s-77.167 -53 -126.5 -53s-91.333 17.667 -126 53s-52 78.666 -52 129.999c0 50.667 17.333 93.834 52 129.501s76.667 53.5 126 53.5s91.5 -17.833 126.5 -53.5s52.5 -78.834 52.5 -129.501z" />
    <glyph glyph-name="u102E" unicode="&#x102e;" 
d="M-120 634c-16.667 18.667 -35.834 32.167 -57.501 40.5s-40.5 12.5 -56.5 12.5c-40 0 -77 -17.667 -111 -53c12 -16 28.333 -29.667 49 -41s41.334 -17 62.001 -17c50 0 88 19.333 114 58zM-234 864c-38 0 -70.667 -14.168 -98 -42.501s-41 -62.166 -41 -101.499
c0 -17.333 3.33301 -35 10 -53c36 36 79 54 129 54c53.333 0 97 -18 131 -54c6 16.667 9 34.334 9 53.001c0 39.333 -13.667 73.166 -41 101.499s-60.333 42.5 -99 42.5zM-55 719.999c0 -50.667 -17.5 -93.834 -52.5 -129.501s-77.167 -53.5 -126.5 -53.5
c-48.667 0 -90.5 17.833 -125.5 53.5s-52.5 78.834 -52.5 129.501s17.5 93.834 52.5 129.501s76.833 53.5 125.5 53.5c49.333 0 91.5 -17.833 126.5 -53.5s52.5 -78.834 52.5 -129.501z" />
    <glyph glyph-name="u102F" unicode="&#x102f;" horiz-adv-x="147" 
d="M174 -450h-134v894h51v-843h83v-51z" />
    <glyph glyph-name="u1030" unicode="&#x1030;" horiz-adv-x="295" 
d="M91 -450h-51v894h51v-894zM321 -450h-132v894h51v-843h81v-51z" />
    <glyph glyph-name="u1031" unicode="&#x1031;" horiz-adv-x="576" 
d="M460 127c-32 16 -64.333 24 -97 24c-70 0 -123.667 -31 -161 -93c31.333 -14.667 61.333 -22 90 -22c78 0 134 30.333 168 91zM520 153c-0.666992 -13.333 -5.83301 -28.9971 -15.5 -46.9971s-23.167 -36.333 -40.5 -55s-41.166 -34.334 -71.499 -47.001
s-63.833 -19 -100.5 -19c-65.333 0 -121.166 23.167 -167.499 69.5s-69.5 102.166 -69.5 167.499c0 64.667 23.333 120.334 70 167.001s102.334 70 167.001 70c48.667 0 93.5 -12.333 134.5 -37s69.833 -58 86.5 -100l-44 -25c-18.667 34 -43.834 61 -75.501 81
s-65.5 30 -101.5 30c-50.667 0 -94.334 -18.333 -131.001 -55s-55 -80.334 -55 -131.001c0 -48.667 17.667 -92.334 53 -131.001c50 74 119 111 207 111c39.333 0 90.666 -16.333 153.999 -49z" />
    <glyph glyph-name="u1032" unicode="&#x1032;" 
d="M-55 643l-23 -33l-298 237l22 33z" />
    <glyph glyph-name="u1033" unicode="&#x1033;" 
d="M-186 720c0 12.667 -4.5 23.5 -13.5 32.5s-19.833 13.5 -32.5 13.5c-13.333 0 -24.5 -4.5 -33.5 -13.5s-13.5 -19.833 -13.5 -32.5c0 -13.333 4.5 -24.666 13.5 -33.999s20.167 -14 33.5 -14c12.667 0 23.5 4.66699 32.5 14s13.5 20.666 13.5 33.999zM-157 720
c0 -20.667 -7.5 -38.667 -22.5 -54s-32.5 -23 -52.5 -23c-20.667 0 -38.334 7.66699 -53.001 23s-22 33.333 -22 54c0 20 7.33301 37.5 22 52.5s32.334 22.5 53.001 22.5c20 0 37.5 -7.5 52.5 -22.5s22.5 -32.5 22.5 -52.5zM-94 720c0 38.667 -13.5 72.167 -40.5 100.5
s-59.5 42.5 -97.5 42.5c-39.333 0 -72.666 -14.167 -99.999 -42.5s-41 -61.833 -41 -100.5c0 -40 13.5 -73.833 40.5 -101.5s59.5 -41.5 97.5 -41.5c39.333 0 72.666 13.833 99.999 41.5s41 61.5 41 101.5zM-55 720c0 -50.667 -17.332 -93.834 -51.999 -129.501
s-76.334 -53.5 -125.001 -53.5c-50.667 0 -93.5 17.833 -128.5 53.5s-52.5 78.834 -52.5 129.501c0 50 17.333 92.833 52 128.5s76.667 53.5 126 53.5c50 0 92.5 -17.833 127.5 -53.5s52.5 -78.5 52.5 -128.5z" />
    <glyph glyph-name="u1034" unicode="&#x1034;" 
d="M-55 819l-300 -239l-23 33l300 239z" />
    <glyph glyph-name="u1035" unicode="&#x1035;" 
d="M-99 654c-26 14 -51 21.001 -75 21.001c-26.667 0 -52 -7 -76 -21s-42 -32.667 -54 -56c26.667 -12.667 51 -19 73 -19c27.333 0 53.333 6.66699 78 20s42.667 31.666 54 54.999zM-55 670.001c0 -24.667 -16.166 -52.502 -48.499 -83.502s-74.833 -46.5 -127.5 -46.5
c-50 0 -92.667 17.833 -128 53.5s-53 78.834 -53 129.501s17.667 93.834 53 129.501s78 53.5 128 53.5c35.333 0 69 -9.5 101 -28.5s55 -44.5 69 -76.5l-33 -21c-14 27.333 -33.333 48.666 -58 63.999s-51 23 -79 23c-39.333 0 -72.833 -14.167 -100.5 -42.5
s-41.5 -62.166 -41.5 -101.499s14 -73 42 -101c35.333 58 87.666 87 156.999 87c31.333 0 71 -13 119 -39z" />
    <glyph glyph-name="u1036" unicode="&#x1036;" 
d="M-84 663c0 12.667 -4.5 23.5 -13.5 32.5s-19.833 13.5 -32.5 13.5c-13.333 0 -24.5 -4.5 -33.5 -13.5s-13.5 -19.833 -13.5 -32.5c0 -13.333 4.5 -24.666 13.5 -33.999s20.167 -14 33.5 -14c12.667 0 23.5 4.66699 32.5 14s13.5 20.666 13.5 33.999zM-55 663
c0 -20.667 -7.5 -38.667 -22.5 -54s-32.5 -23 -52.5 -23c-20.667 0 -38.334 7.66699 -53.001 23s-22 33.333 -22 54c0 20 7.33301 37.5 22 52.5s32.334 22.5 53.001 22.5c20 0 37.5 -7.5 52.5 -22.5s22.5 -32.5 22.5 -52.5z" />
    <glyph glyph-name="u1037" unicode="&#x1037;" horiz-adv-x="55" 
d="M-29 -227c0 13.333 -4.5 24.5 -13.5 33.5s-19.833 13.5 -32.5 13.5c-13.333 0 -24.5 -4.5 -33.5 -13.5s-13.5 -20.167 -13.5 -33.5c0 -12.667 4.5 -23.834 13.5 -33.501s20.167 -14.5 33.5 -14.5c12.667 0 23.5 4.83301 32.5 14.5s13.5 20.834 13.5 33.501zM0 -227
c0 -20 -7.50098 -37.667 -22.501 -53s-32.5 -23 -52.5 -23s-37.5 7.66699 -52.5 23s-22.5 33 -22.5 53c0 20.667 7.33301 38.334 22 53.001s32.334 22 53.001 22c20 0 37.5 -7.33301 52.5 -22s22.5 -32.334 22.5 -53.001z" />
    <glyph glyph-name="u1038" unicode="&#x1038;" horiz-adv-x="260" 
d="M176 384c0 12 -4.33301 22.667 -13 32s-19.667 14 -33 14c-14 0 -25.333 -4.66699 -34 -14s-13 -20 -13 -32s4.33301 -23 13 -33s20 -15 34 -15c13.333 0 24.333 5 33 15s13 21 13 33zM205 384c0 -21.333 -7.50098 -39.5 -22.501 -54.5s-32.5 -22.5 -52.5 -22.5
c-20.667 0 -38.334 7.5 -53.001 22.5s-22 33.167 -22 54.5s7.33301 39.166 22 53.499s32.334 21.5 53.001 21.5s38.334 -7.16699 53.001 -21.5s22 -32.166 22 -53.499zM175.999 75c0 12 -4.33301 23 -13 33s-19.667 15 -33 15c-14 0 -25.333 -5 -34 -15s-13 -21 -13 -33
c0 -12.667 4.16699 -23.667 12.5 -33s19.833 -14 34.5 -14c13.333 0 24.333 4.83301 33 14.5s13 20.5 13 32.5zM204.999 75c0 -20.667 -7.5 -38.334 -22.5 -53.001s-32.5 -22 -52.5 -22c-20.667 0 -38.334 7.33301 -53.001 22s-22 32.334 -22 53.001
c0 21.333 7.33301 39.333 22 54s32.334 22 53.001 22c20 0 37.5 -7.33301 52.5 -22s22.5 -32.667 22.5 -54z" />
    <glyph glyph-name="u1039" unicode="&#x1039;" horiz-adv-x="55" 
d="M-13 -331c0 -10.667 -5.33301 -16 -16 -16c-11.333 0 -17 5.33301 -17 16c0 11.333 5.66699 17 17 17c10.667 0 16 -5.66699 16 -17zM-49 -385c0 -11.333 -5.66699 -17 -17 -17s-17 5.66699 -17 17s5.66699 17 17 17s17 -5.66699 17 -17zM-104 -421
c0 -10 -5.33301 -15 -16 -15c-11.333 0 -17 5 -17 15c0 11.333 5.66699 17 17 17c10.667 0 16 -5.66699 16 -17zM-168 -434c0 -10 -5 -15 -15 -15c-11.333 0 -17 5 -17 15c0 11.333 5.66699 17 17 17c10 0 15 -5.66699 15 -17zM-231 -421c0 -10 -5.66699 -15 -17 -15
s-17 5 -17 15c0 11.333 5.66699 17 17 17s17 -5.66699 17 -17zM-286 -385c0 -11.333 -5.33301 -17 -16 -17c-11.333 0 -17 5.66699 -17 17s5.66699 17 17 17c10.667 0 16 -5.66699 16 -17zM-322 -331c0 -10.667 -5.33301 -16 -16 -16c-11.333 0 -17 5.33301 -17 16
c0 11.333 5.66699 17 17 17c10.667 0 16 -5.66699 16 -17zM-335 -266c0 -11.333 -5.33301 -17 -16 -17c-11.333 0 -17 5.66699 -17 17s5.66699 17 17 17c10.667 0 16 -5.66699 16 -17zM-322 -203c0 -10.667 -5.33301 -16 -16 -16c-11.333 0 -17 5.33301 -17 16
c0 11.333 5.66699 17 17 17c10.667 0 16 -5.66699 16 -17zM-286 -149c0 -11.333 -5.33301 -17 -16 -17c-11.333 0 -17 5.66699 -17 17s5.66699 17 17 17c10.667 0 16 -5.66699 16 -17zM-231 -112c0 -11.333 -5.66699 -17 -17 -17s-17 5.66699 -17 17s5.66699 17 17 17
s17 -5.66699 17 -17zM-168 -100c0 -10.667 -5 -16 -15 -16c-11.333 0 -17 5.33301 -17 16c0 11.333 5.66699 17 17 17c10 0 15 -5.66699 15 -17zM-104 -112c0 -11.333 -5.33301 -17 -16 -17c-11.333 0 -17 5.66699 -17 17s5.66699 17 17 17c10.667 0 16 -5.66699 16 -17z
M-49 -149c0 -11.333 -5.66699 -17 -17 -17s-17 5.66699 -17 17s5.66699 17 17 17s17 -5.66699 17 -17zM-13 -203c0 -10.667 -5.33301 -16 -16 -16c-11.333 0 -17 5.33301 -17 16c0 11.333 5.66699 17 17 17c10.667 0 16 -5.66699 16 -17zM0 -266
c0 -11.333 -5.66699 -17 -17 -17s-17 5.66699 -17 17s5.66699 17 17 17s17 -5.66699 17 -17z" />
    <glyph glyph-name="u103A" unicode="&#x103a;" horiz-adv-x="55" 
d="M0 834l-29.0029 -23.9971c-24.667 41.333 -60.667 62 -108 62c-36 0 -68.167 -13.333 -96.5 -40s-42.5 -61.334 -42.5 -104.001c0 -25.333 5.66699 -48.333 17 -69s25.333 -36.334 42 -47.001s32.334 -18.834 47.001 -24.501s27.334 -8.5 38.001 -8.5v-39
c-42 0 -83 17.333 -123 52s-60 80 -60 136c0 52 17.833 95.5 53.5 130.5s76.834 52.5 123.501 52.5c30.667 0 58.5 -7 83.5 -21s43.167 -32.667 54.5 -56z" />
    <glyph glyph-name="u103B" unicode="&#x103b;" horiz-adv-x="162" 
d="M106 -450l-313 81v415h51v-375l211 -55v828h51v-894z" />
    <glyph glyph-name="u103C" unicode="&#x103c;" horiz-adv-x="172" 
d="M697 -95l0.00292969 -89.999c0 -85.333 -22 -150.666 -66 -195.999c-26.667 -28 -55.834 -46.5 -87.501 -55.5s-68.834 -13.5 -111.501 -13.5h-96c-42.667 0 -80 4.5 -112 13.5s-61.333 27.5 -88 55.5c-44 44.667 -66 110 -66 196v875c0 86.667 22 152 66 196
c46 46 112.667 69 200 69h96c86 0 152 -23.333 198 -70c20.667 -21.333 37 -45.833 49 -73.5s18 -50.834 18 -69.501h-51c0 11.333 -5.33301 28.333 -16 51s-23.667 41.667 -39 57c-16 16.667 -35.667 29.167 -59 37.5s-43 13.166 -59 14.499s-36.667 2 -62 2h-54
c-25.333 0 -46 -0.666992 -62 -2s-35.833 -6 -59.5 -14s-43.834 -20 -60.501 -36c-36 -36 -54 -96.667 -54 -182v-837c0 -84 18 -144 54 -180c34.667 -34.667 95.667 -52 183 -52h51c87.333 0 148.333 17.333 183 52c36 36 54 96 54 180v72h51z" />
    <glyph glyph-name="u103D" unicode="&#x103d;" 
d="M-94 -267c0 39.333 -13.667 73.166 -41 101.499s-60 42.5 -98 42.5c-38.667 0 -71.667 -14.167 -99 -42.5s-41 -62.166 -41 -101.499s13.667 -73.166 41 -101.499s60.333 -42.5 99 -42.5c38 0 70.667 14.167 98 42.5s41 62.166 41 101.499zM-55 -267
c0 -50.667 -17.5 -93.834 -52.5 -129.501s-76.833 -53.5 -125.5 -53.5c-49.333 0 -91.5 17.833 -126.5 53.5s-52.5 78.834 -52.5 129.501s17.5 93.834 52.5 129.501s77.167 53.5 126.5 53.5c48.667 0 90.5 -17.833 125.5 -53.5s52.5 -78.834 52.5 -129.501z" />
    <glyph glyph-name="u103E" unicode="&#x103e;" 
d="M-55 -450h-134v51h83v304h51v-355z" />
    <glyph glyph-name="u103F" unicode="&#x103f;" horiz-adv-x="1411" 
d="M1356 222c0 -65.333 -22.6709 -121.168 -68.0039 -167.501s-100.333 -69.5 -165 -69.5c-43.333 0 -83.166 12.833 -119.499 38.5s-65.833 60.167 -88.5 103.5c-18 -42.667 -46.167 -77 -84.5 -103s-81.166 -39 -128.499 -39c-42 0 -81.667 13.333 -119 40
s-67.333 60.667 -90 102c-18.667 -42.667 -47.5 -77 -86.5 -103s-82.5 -39 -130.5 -39c-47.333 0 -91.166 11.833 -131.499 35.5s-70.166 57.167 -89.499 100.5l45 26c18 -34.667 42.833 -61.834 74.5 -81.501s65.5 -29.5 101.5 -29.5c52.667 0 96.834 18.5 132.501 55.5
s53.5 81.833 53.5 134.5c0 50 -18.5 92.833 -55.5 128.5s-80.5 53.5 -130.5 53.5c-36 0 -69.833 -10 -101.5 -30s-56.5 -47 -74.5 -81l-45 25c17.333 42 46.5 75.333 87.5 100s85.5 37 133.5 37c63.333 0 118.666 -23 165.999 -69s71 -99 71 -159c0 -12 4 -28.167 12 -48.5
s19.167 -41.666 33.5 -63.999s34.333 -41.666 60 -57.999s53.5 -24.5 83.5 -24.5c52 0 95.167 18.5 129.5 55.5s51.5 81.833 51.5 134.5c0 45.333 -17.167 87 -51.5 125s-77.5 57 -129.5 57c-18 0 -35 -3.66699 -51 -11l-20 47c20.667 10 44.334 15 71.001 15
c66 0 121.167 -24 165.5 -72s66.5 -100 66.5 -156c0 -12.667 4.16699 -29.167 12.5 -49.5s19.833 -41.666 34.5 -63.999s34.667 -41.5 60 -57.5s52.666 -24 81.999 -24c50 0 92.833 18.167 128.5 54.5s53.5 80.166 53.5 131.499c0 50.667 -17.833 94.334 -53.5 131.001
s-78.5 55 -128.5 55c-16.667 0 -33 -3.66699 -49 -11l-21 47c20.667 10 44 15 70 15c64.667 0 119.667 -23.333 165 -70s68 -102.334 68 -167.001z" />
    <glyph glyph-name="u1040" unicode="&#x1040;" horiz-adv-x="576" 
d="M469 222c0 51.333 -17.5 95.166 -52.5 131.499s-77.5 54.5 -127.5 54.5c-50.667 0 -93.834 -18.167 -129.501 -54.5s-53.5 -80.166 -53.5 -131.499s17.5 -95.166 52.5 -131.499s77.5 -54.5 127.5 -54.5c50.667 0 93.834 18.167 129.501 54.5s53.5 80.166 53.5 131.499z
M520 222c0 -65.333 -22.499 -121.169 -67.499 -167.502s-99.5 -69.5 -163.5 -69.5c-66 0 -121.5 23 -166.5 69s-67.5 102 -67.5 168c0 64.667 22.5 120.334 67.5 167.001s99.5 70 163.5 70c65.333 0 120.666 -23.167 165.999 -69.5s68 -102.166 68 -167.499z" />
    <glyph glyph-name="u1041" unicode="&#x1041;" horiz-adv-x="576" 
d="M516 222c0 -65.333 -23.1689 -121.166 -69.502 -167.499s-102.166 -69.5 -167.499 -69.5c-46.667 0 -90.667 11.833 -132 35.5s-71 57.167 -89 100.5l44 26c18 -34.667 43 -61.834 75 -81.501s66 -29.5 102 -29.5c51.333 0 95.166 18.333 131.499 55
s54.5 80.334 54.5 131.001s-18.167 94.334 -54.5 131.001s-80.166 55 -131.499 55c-36 0 -70 -9.83301 -102 -29.5s-57 -46.834 -75 -81.501l-44 25c18 43.333 47.667 77 89 101s85.333 36 132 36c64.667 0 120.334 -23.333 167.001 -70s70 -102.334 70 -167.001z" />
    <glyph glyph-name="u1042" unicode="&#x1042;" horiz-adv-x="503" 
d="M448 445v-729.999c0 -46.667 -17 -85.834 -51 -117.501s-82.333 -47.5 -145 -47.5c-64 0 -112.833 16.333 -146.5 49s-50.5 76.667 -50.5 132h51c0 -45.333 13.667 -78.333 41 -99s62.333 -31 105 -31c41.333 0 75.833 10.833 103.5 32.5s41.5 54.167 41.5 97.5v714h51z
" />
    <glyph glyph-name="u1043" unicode="&#x1043;" horiz-adv-x="576" 
d="M516 222c0 -65.333 -23.165 -121.165 -69.498 -167.498s-102.166 -69.5 -167.499 -69.5c-29.333 0 -60 5.33301 -92 16l270 -451h-61l-312 526c-12.667 18 -21.334 33 -26.001 45l44 26c18 -34.667 43 -61.834 75 -81.501s66 -29.5 102 -29.5
c50.667 0 94.334 18.167 131.001 54.5s55 80.166 55 131.499c0 50.667 -18.333 94.334 -55 131.001s-80.334 55 -131.001 55c-36 0 -69.833 -10 -101.5 -30s-56.834 -47 -75.501 -81l-44 25c19.333 42.667 49.166 76.167 89.499 100.5s84.166 36.5 131.499 36.5
c64.667 0 120.334 -23.333 167.001 -70s70 -102.334 70 -167.001z" />
    <glyph glyph-name="u1044" unicode="&#x1044;" horiz-adv-x="576" 
d="M517 121c-8 -16.667 -17 -31.668 -27 -45.001l-310 -526h-62l270 451c-32 -10.667 -62.333 -16 -91 -16c-65.333 0 -121.166 23.167 -167.499 69.5s-69.5 102.166 -69.5 167.499c0 64.667 23.167 120.334 69.5 167.001s102.166 70 167.499 70
c48 0 92.333 -12.333 133 -37s69.667 -58 87 -100l-43 -25c-19.333 34 -45 61 -77 81s-65.333 30 -100 30c-51.333 0 -95.166 -18.333 -131.499 -55s-54.5 -80.334 -54.5 -131.001c0 -51.333 18.167 -95.166 54.5 -131.499s80.166 -54.5 131.499 -54.5
c35.333 0 68.833 9.83301 100.5 29.5s57.167 46.834 76.5 81.501z" />
    <glyph glyph-name="u1045" unicode="&#x1045;" horiz-adv-x="576" 
d="M225 225c0 16 -5.83203 29.5 -17.499 40.5s-25.834 16.5 -42.501 16.5c-17.333 0 -31.5 -5.5 -42.5 -16.5s-16.5 -24.5 -16.5 -40.5c0 -17.333 5.83301 -32 17.5 -44s25.5 -18 41.5 -18s30 6 42 18s18 26.667 18 44zM520.001 -216
c0 -61.333 -21.6689 -115.669 -65.002 -163.002s-100.666 -71 -171.999 -71c-66 0 -120.5 24.333 -163.5 73s-64.5 102.667 -64.5 162h51c0 -46 17.167 -88.167 51.5 -126.5s76.166 -57.5 125.499 -57.5c52 0 96 17.5 132 52.5s54 79.5 54 133.5v435
c0 52.667 -18 96.834 -54 132.501s-80 53.5 -132 53.5c-58 0 -105.333 -26 -142 -78c8 2 16 3 24 3c28 0 53.5 -10.167 76.5 -30.5s34.5 -46.166 34.5 -77.499c0 -30.667 -11 -57.167 -33 -79.5s-48 -33.5 -78 -33.5c-30.667 0 -56.667 11.5 -78 34.5s-32 49.167 -32 78.5v9
c2.66699 57.333 25.334 109.166 68.001 155.499s96 69.5 160 69.5c70.667 0 127.834 -24.167 171.501 -72.5s65.5 -103.166 65.5 -164.499v-438z" />
    <glyph glyph-name="u1046" unicode="&#x1046;" horiz-adv-x="576" 
d="M390 340c0 17.333 -5.5 31.5 -16.5 42.5s-25.167 16.5 -42.5 16.5c-16 0 -29.667 -5.5 -41 -16.5s-17 -25.167 -17 -42.5c0 -16.667 5.66699 -31 17 -43s25 -18 41 -18c17.333 0 31.5 6 42.5 18s16.5 26.333 16.5 43zM520 220c0 -58 -21.6719 -111.664 -65.0049 -160.997
s-97.666 -74 -162.999 -74c-71.333 0 -128.666 23.667 -171.999 71s-65 101.666 -65 162.999v438c0 61.333 21.833 116.166 65.5 164.499s100.834 72.5 171.501 72.5c66 0 120.5 -24.333 163.5 -73s64.5 -103 64.5 -163h-51c0 46.667 -17 89.167 -51 127.5
s-76 57.5 -126 57.5c-51.333 0 -95.166 -17.833 -131.499 -53.5s-54.5 -79.834 -54.5 -132.501v-435c0 -54 18 -98.5 54 -133.5s80 -52.5 132 -52.5c41.333 0 78.333 14.833 111 44.5s53.334 64.167 62.001 103.5l-153 48c-60 18 -90 54 -90 108c0 30 10.667 55.833 32 77.5
s47 32.5 77 32.5s55.833 -11.167 77.5 -33.5s32.5 -47.833 32.5 -76.5c0 -34.667 -13 -62.667 -39 -84z" />
    <glyph glyph-name="u1047" unicode="&#x1047;" horiz-adv-x="576" 
d="M421 -414c-13.333 -14.667 -26.167 -24.335 -38.5 -29.002s-27.833 -7 -46.5 -7c-29.333 0 -53.333 10.333 -72 31s-30.667 41.167 -36 61.5s-8 38.833 -8 55.5c0 38 13 83.833 39 137.5s54.5 102.667 85.5 147s59.5 89.5 85.5 135.5s39 80.667 39 104
c0 32 -5.83301 60.667 -17.5 86s-27 44.833 -46 58.5s-38.667 24 -59 31s-40.5 10.5 -60.5 10.5c-54 0 -97.5 -19.5 -130.5 -58.5s-49.5 -81.5 -49.5 -127.5h-51c0 36 8.5 71.667 25.5 107s43.667 65.833 80 91.5s78.166 38.5 125.499 38.5
c56.667 0 109.834 -21.5 159.501 -64.5s74.5 -100.5 74.5 -172.5c0 -26 -13 -63 -39 -111s-54.5 -94.667 -85.5 -140s-59.5 -94 -85.5 -146s-39 -94.333 -39 -127c0 -7.33301 1.5 -17.666 4.5 -30.999s9.83301 -27.666 20.5 -42.999s24 -23 40 -23
c19.333 0 36.333 7.33301 51 22z" />
    <glyph glyph-name="u1048" unicode="&#x1048;" horiz-adv-x="585" 
d="M214 184c0 60 -24 107 -72 141c-24 -36.667 -36 -77.667 -36 -123c0 -44.667 23.667 -90.667 71 -138c24.667 40 37 80 37 120zM529 202c0 -52.667 -8.33594 -95.8311 -25.0029 -129.498s-40.667 -62.834 -72 -87.501l-30 43c50.667 48.667 76 106.667 76 174
c0 59.333 -18 108.166 -54 146.499s-80 57.5 -132 57.5c-45.333 0 -83.333 -13.333 -114 -40c30.667 -24.667 52.834 -51 66.501 -79s20.5 -62.333 20.5 -103c0 -76 -28.333 -142.333 -85 -199c-36.667 27.333 -66.667 58 -90 92s-35 75.667 -35 125
c0 75.333 22.833 136.666 68.5 183.999s101.834 71 168.501 71s122.834 -23.667 168.501 -71s68.5 -108.666 68.5 -183.999z" />
    <glyph glyph-name="u1049" unicode="&#x1049;" horiz-adv-x="576" 
d="M390 73c0 17.333 -5.83301 31.666 -17.5 42.999s-25.5 17 -41.5 17s-29.667 -5.66699 -41 -17s-17 -25.666 -17 -42.999c0 -16 5.5 -29.667 16.5 -41s24.833 -17 41.5 -17c17.333 0 31.5 5.66699 42.5 17s16.5 25 16.5 41zM520 -185
c0 -77.333 -21.002 -140.833 -63.002 -190.5s-97 -74.5 -165 -74.5c-71.333 0 -128.666 24 -171.999 72s-65 103 -65 165v438c0 60.667 21.667 114.834 65 162.501s100.666 71.5 171.999 71.5c69.333 0 124.666 -25 165.999 -75s62 -113.667 62 -191l-118 -36
c26 -23.333 39 -51.333 39 -84c0 -30 -10.833 -55.667 -32.5 -77s-47.5 -32 -77.5 -32s-55.667 10.667 -77 32s-32 47 -32 77c0 55.333 30 92 90 110l154 46c-6 54.667 -24.667 98.167 -56 130.5s-70.666 48.5 -117.999 48.5c-51.333 0 -95.166 -17.833 -131.499 -53.5
s-54.5 -79.834 -54.5 -132.501v-435c0 -54 18 -98.5 54 -133.5s80 -52.5 132 -52.5c52.667 0 95.334 19.333 128.001 58s49 90.667 49 156h51z" />
    <glyph glyph-name="u104A" unicode="&#x104a;" horiz-adv-x="162" 
d="M106 0h-51v444h51v-444z" />
    <glyph glyph-name="u104B" unicode="&#x104b;" horiz-adv-x="310" 
d="M106 0h-51v444h51v-444zM255 0h-51v444h51v-444z" />
    <glyph glyph-name="u104C" unicode="&#x104c;" horiz-adv-x="568" 
d="M498 826l-29.002 -24.001c-27.333 41.333 -63.333 62 -108 62c-35.333 0 -67.333 -13.5 -96 -40.5s-43 -61.5 -43 -103.5c0 -20.667 4 -39.667 12 -57s17.833 -31.5 29.5 -42.5s24.334 -20.333 38.001 -28s26 -13.167 37 -16.5s20.167 -5 27.5 -5v-39
c-43.333 0 -84.666 17.167 -123.999 51.5s-59 79.833 -59 136.5c0 52.667 17.833 96.334 53.5 131.001s77.167 52 124.5 52c30 0 57.5 -7 82.5 -21s43.167 -32.667 54.5 -56zM512.998 221.999c0 -65.333 -23.168 -121.17 -69.501 -167.503s-102.166 -69.5 -167.499 -69.5
c-66.667 0 -123.334 21.333 -170.001 64v-109c59.333 -31.333 116 -47 170 -47c67.333 0 136.333 22 207 66v-234c0 -46.667 -16.667 -86.667 -50 -120c-36.667 -36.667 -78.667 -55 -126 -55h-151c-32 0 -56.833 10.167 -74.5 30.5s-26.5 44.5 -26.5 72.5
c0 26.667 10 50.334 30 71.001s47 31 81 31c27.333 0 48.333 -7.33301 63 -22l-34 -39c-10.667 6.66699 -20.334 10 -29.001 10c-19.333 0 -34.166 -4.66699 -44.499 -14s-15.5 -21.666 -15.5 -36.999c0 -13.333 4.5 -25.333 13.5 -36s21.167 -16 36.5 -16h121
c31.333 0 54 2.33301 68 7s30 14.667 48 30c26 22 39 54.667 39 98v139c-48.667 -22 -100.667 -33 -156 -33c-74.667 0 -148.334 23 -221.001 69v210l45 26c17.333 -35.333 41.833 -62.666 73.5 -81.999s65.834 -29 102.501 -29c50.667 0 94.334 18.333 131.001 55
s55 80.334 55 131.001s-18.333 94.334 -55 131.001s-80.334 55 -131.001 55c-36.667 0 -70.667 -9.83301 -102 -29.5s-56 -46.834 -74 -81.501l-45 25c18 43.333 47.667 77 89 101s85.333 36 132 36c64.667 0 120.334 -23.333 167.001 -70s70 -102.334 70 -167.001z" />
    <glyph glyph-name="u104D" unicode="&#x104d;" horiz-adv-x="766" 
d="M333 39c-22 62.667 -56.666 104.668 -103.999 126.001c-24 10.667 -49.333 16 -76 16c-8.66699 0 -22.334 -1.33301 -41.001 -4c9.33301 -40.667 30.833 -74.334 64.5 -101.001s72.167 -40 115.5 -40c17.333 0 31 1 41 3zM532.001 -305.999l-51 0.00195312v508
c0 60 -18.5 109.333 -55.5 148s-81.5 58 -133.5 58c-49.333 0 -92 -17.5 -128 -52.5s-55.333 -76.833 -58 -125.5c12.667 2.66699 26.667 4 42 4c35.333 0 70 -8 104 -24c41.333 -20.667 71.666 -46 90.999 -76s38 -72.333 56 -127c-31.333 -14.667 -67 -22 -107 -22
c-65.333 0 -121.166 23.167 -167.499 69.5s-69.5 102.166 -69.5 167.499c0 64 23.167 119.167 69.5 165.5s102.166 69.5 167.499 69.5c66.667 0 123.334 -23.833 170.001 -71.5s70 -108.834 70 -183.501v-508zM696.001 -274.997c0 -46 -17 -86.002 -51 -120.002
c-36.667 -36.667 -78.334 -55 -125.001 -55h-349c-30.667 0 -55.167 10.167 -73.5 30.5s-27.5 44.5 -27.5 72.5c0 26.667 10.167 50.334 30.5 71.001s47.166 31 80.499 31c27.333 0 48.333 -7.33301 63 -22l-34 -39c-10.667 6.66699 -20.334 10 -29.001 10
c-19.333 0 -34.166 -4.66699 -44.499 -14s-15.5 -21.666 -15.5 -36.999c0 -12.667 4.66699 -24.5 14 -35.5s21.333 -16.5 36 -16.5h319c32 0 54.333 2.16699 67 6.5s28.334 14.5 47.001 30.5c27.333 22.667 41 55.334 41 98.001v654c0 26 -6 49.667 -18 71
s-27.167 38.666 -45.5 51.999l-59 42.5l-59 43c-18.333 13.667 -33.5 31.5 -45.5 53.5s-18 46.667 -18 74c0 49.333 17.833 91.333 53.5 126s77.834 52 126.501 52c34.667 0 63.334 -8.83301 86.001 -26.5s37.667 -38.167 45 -61.5l-47 -20
c-5.33301 17.333 -16 31.166 -32 41.499s-33.333 15.5 -52 15.5c-34.667 0 -64.834 -12.333 -90.501 -37s-38.5 -54.667 -38.5 -90c0 -21.333 6 -41 18 -59s27.167 -33 45.5 -45s38 -25.667 59 -41s40.667 -30.666 59 -45.999s33.5 -35.5 45.5 -60.5s18 -53.167 18 -84.5
v-665z" />
    <glyph glyph-name="u104E" unicode="&#x104e;" horiz-adv-x="568" 
d="M513 -450l-50.999 0.00390625v499c-46.667 -42.667 -103.334 -64 -170.001 -64c-65.333 0 -121.166 23.167 -167.499 69.5s-69.5 102.166 -69.5 167.499c0 64.667 23.167 120.334 69.5 167.001s102.166 70 167.499 70c46.667 0 90.667 -12 132 -36s71 -57.667 89 -101
l-44 -25c-18 35.333 -42.833 62.666 -74.5 81.999s-65.834 29 -102.501 29c-50.667 0 -94.334 -18.333 -131.001 -55s-55 -80.334 -55 -131.001s18.333 -94.334 55 -131.001s80.334 -55 131.001 -55c36.667 0 70.834 9.66699 102.501 29s56.5 46.666 74.5 81.999l44 -26
v-571z" />
    <glyph glyph-name="u104F" unicode="&#x104f;" horiz-adv-x="912" 
d="M456 322c-16.667 28 -39.833 49.333 -69.5 64s-61.167 22 -94.5 22c-25.333 0 -54.333 -7 -87 -21c40 -60.667 92.667 -91 158 -91c31.333 0 62.333 8.66699 93 26zM456.001 121c-34.667 18 -64.667 27 -90 27c-65.333 0 -119 -30.333 -161 -91c30 -14 59 -21 87 -21
c73.333 0 128 28.333 164 85zM841.001 0l-51 0.000976562v390c0 26 -6 49.667 -18 71s-27 38.666 -45 51.999l-59 42.5l-59 43c-18 13.667 -33 31.5 -45 53.5s-18 46.667 -18 74c0 49.333 17.667 91.333 53 126s77.666 52 126.999 52c64 0 107.333 -29.333 130 -88l-46 -20
c-5.33301 17.333 -16 31.166 -32 41.499s-33.333 15.5 -52 15.5c-35.333 0 -65.666 -12.167 -90.999 -36.5s-38 -54.5 -38 -90.5c0 -21.333 6 -41 18 -59s27 -33 45 -45l59 -41c21.333 -15.333 41 -30.5 59 -45.5s33 -35.167 45 -60.5s18 -53.666 18 -84.999v-390z
M678.001 0.000976562h-51v319c0 59.333 -24 89 -72 89c-29.333 0 -55 -11 -77 -33c16.667 -20.667 30.334 -43.334 41.001 -68.001c-30.667 -20 -57.334 -33.667 -80.001 -41s-48 -11 -76 -11c-79.333 0 -145 34.333 -197 103c-40 -33.333 -60 -78.666 -60 -135.999
c0 -53.333 20 -99 60 -137c23.333 32 52.166 57.333 86.499 76s72.166 28 113.499 28c28 0 56.667 -5.5 86 -16.5s52 -23.167 68 -36.5c-44.667 -100.667 -120.667 -151 -228 -151c-65.333 0 -121.166 23.167 -167.499 69.5s-69.5 102.166 -69.5 167.499
c0 64.667 23.333 120.334 70 167.001s102.334 70 167.001 70c54 0 103 -16 147 -48c34 32 72.667 48 116 48c82 0 123 -46.667 123 -140v-319z" />
    <glyph glyph-name="u1050" unicode="&#x1050;" horiz-adv-x="585" 
d="M352 202c0 16.667 -5.83301 30.834 -17.5 42.501s-25.834 17.5 -42.501 17.5c-17.333 0 -31.833 -5.83301 -43.5 -17.5s-17.5 -25.834 -17.5 -42.501c0 -17.333 5.83301 -32 17.5 -44s26.167 -18 43.5 -18c16.667 0 30.834 6 42.501 18s17.5 26.667 17.5 44zM389 202
c0 -26 -9.5 -49.167 -28.5 -69.5s-41.833 -30.5 -68.5 -30.5s-49.667 10 -69 30s-29 43.333 -29 70c0 26 9.66699 48.667 29 68s42.333 29 69 29c26 0 48.667 -9.66699 68 -29s29 -42 29 -68zM529 202c0 -94.667 -32.335 -167 -97.002 -217l-30 43
c50.667 46.667 76 104.667 76 174c0 59.333 -18 108.166 -54 146.499s-80 57.5 -132 57.5s-96 -19.167 -132 -57.5s-54 -87.166 -54 -146.499c0 -69.333 25.667 -127.333 77 -174l-30 -43c-65.333 52.667 -98 125 -98 217c0 74.667 22.833 135.834 68.5 183.501
s101.834 71.5 168.501 71.5s122.834 -23.833 168.501 -71.5s68.5 -108.834 68.5 -183.501z" />
    <glyph glyph-name="u1051" unicode="&#x1051;" horiz-adv-x="585" 
d="M352 240c0 16.667 -5.83301 30.834 -17.5 42.501s-25.834 17.5 -42.501 17.5c-17.333 0 -31.833 -5.83301 -43.5 -17.5s-17.5 -25.834 -17.5 -42.501c0 -17.333 5.83301 -32 17.5 -44s26.167 -18 43.5 -18c16.667 0 30.834 6 42.501 18s17.5 26.667 17.5 44zM389 240
c0 -26 -9.5 -49.167 -28.5 -69.5s-41.833 -30.5 -68.5 -30.5s-49.667 10 -69 30s-29 43.333 -29 70c0 26 9.66699 48.667 29 68s42.333 29 69 29c26 0 48.667 -9.66699 68 -29s29 -42 29 -68zM529 240c0 -74.667 -22.8311 -135.834 -68.498 -183.501
s-101.834 -71.5 -168.501 -71.5s-122.834 23.833 -168.501 71.5s-68.5 108.834 -68.5 183.501c0 92 32.667 164.333 98 217l30 -43c-51.333 -46.667 -77 -104.667 -77 -174c0 -59.333 18 -108.166 54 -146.499s80 -57.5 132 -57.5s96 19.167 132 57.5s54 87.166 54 146.499
c0 69.333 -25.333 127.333 -76 174l30 43c64.667 -50 97 -122.333 97 -217z" />
    <glyph glyph-name="u1052" unicode="&#x1052;" horiz-adv-x="577" 
d="M522 168c0 -44 -21.832 -85.501 -65.499 -124.501s-98.5 -58.5 -164.5 -58.5c-67.333 0 -123.666 23.833 -168.999 71.5s-68 108.834 -68 183.501c0 52 8.33301 94.833 25 128.5s41 63.167 73 88.5l30 -43c-51.333 -46.667 -77 -104.667 -77 -174
c0 -59.333 18 -108.166 54 -146.499s80 -57.5 132 -57.5c30 0 57.167 5.66699 81.5 17s43.166 24.833 56.499 40.5s23.5 30.167 30.5 43.5s10.5 23.666 10.5 30.999c0 16 -4.83301 30 -14.5 42s-21.334 21.667 -35.001 29l-41 23c-13.667 8 -25.334 18.5 -35.001 31.5
s-14.5 28.167 -14.5 45.5c0 36 10.167 64.5 30.5 85.5s44.833 31.5 73.5 31.5c18.667 0 36.834 -5.66699 54.501 -17s28.5 -23.666 32.5 -36.999l-44 -27c-1.33301 6.66699 -6.5 13.334 -15.5 20.001s-18.167 10 -27.5 10c-14.667 0 -27.167 -5.33301 -37.5 -16
s-15.5 -27.334 -15.5 -50.001c0 -11.333 7.33301 -22 22 -32s30.667 -18.667 48 -26s33.333 -20.833 48 -40.5s22 -43.834 22 -72.501z" />
    <glyph glyph-name="u1053" unicode="&#x1053;" horiz-adv-x="630" 
d="M574 403l-42.999 -26.999l-5 7c-2.66699 4.66699 -5.33398 8.33398 -8.00098 11.001s-6.83398 5.33398 -12.501 8.00098s-11.834 4 -18.501 4c-14 0 -26.167 -5.33301 -36.5 -16s-15.5 -27.334 -15.5 -50.001c0 -9.33301 3.66699 -18 11 -26s16.5 -15.333 27.5 -22
s21.833 -14.667 32.5 -24s19.667 -22.5 27 -39.5s11 -37.167 11 -60.5c0 -44 -21.667 -85.5 -65 -124.5s-98 -58.5 -164 -58.5s-120.833 19.5 -164.5 58.5s-65.5 80.5 -65.5 124.5c0 23.333 3.83301 43.5 11.5 60.5s16.834 30.167 27.501 39.5s21.334 17.333 32.001 24
s19.834 14 27.501 22s11.5 16.667 11.5 26c0 22.667 -5.33301 39.334 -16 50.001s-23 16 -37 16c-4.66699 0 -9 -0.666992 -13 -2s-7.33301 -2.83301 -10 -4.5s-5.33398 -3.83398 -8.00098 -6.50098s-4.5 -4.83398 -5.5 -6.50098s-2.16699 -3.83398 -3.5 -6.50098l-3 -4
l-44 27c4 12 13.833 24 29.5 36s34.834 18 57.501 18c28.667 0 53.167 -10.333 73.5 -31s30.5 -49.334 30.5 -86.001c0 -21.333 -5.66699 -39.666 -17 -54.999s-24 -26.833 -38 -34.5s-26.667 -18.5 -38 -32.5s-17 -30.667 -17 -50c0 -7.33301 3.5 -17.666 10.5 -30.999
s17 -27.833 30 -43.5s31.833 -29.167 56.5 -40.5s52 -17 82 -17s57.167 5.66699 81.5 17s43 24.833 56 40.5s23 30.167 30 43.5s10.5 23.666 10.5 30.999c0 19.333 -5.66699 36 -17 50s-23.833 24.833 -37.5 32.5s-26.167 19.167 -37.5 34.5s-17 33.666 -17 54.999
c0 36.667 10 65.334 30 86.001s44.333 31 73 31c23.333 0 42.666 -6 57.999 -18s25 -24 29 -36z" />
    <glyph glyph-name="u1054" unicode="&#x1054;" horiz-adv-x="576" 
d="M460 317c-34 60.667 -90 91 -168 91c-28.667 0 -58.667 -7.33301 -90 -22c18 -30 41.167 -53.333 69.5 -70s58.5 -25 90.5 -25c27.333 0 60 8.66699 98 26zM520 291c-36.667 -19.333 -65.6621 -32.665 -86.9951 -39.998s-44 -11 -68 -11
c-40.667 0 -79.834 10.5 -117.501 31.5s-67.5 48.167 -89.5 81.5c-34.667 -38 -52 -81.667 -52 -131c0 -50.667 18.167 -94.334 54.5 -131.001s80.166 -55 131.499 -55c36.667 0 70.5 9.66699 101.5 29s56.167 46.666 75.5 81.999l43 -25
c-20 -43.333 -49.833 -77 -89.5 -101s-83.167 -36 -130.5 -36c-65.333 0 -121.166 23.333 -167.499 70s-69.5 102.334 -69.5 167.001c0 65.333 23.167 121.166 69.5 167.499s102.166 69.5 167.499 69.5c36.667 0 70.167 -6.33301 100.5 -19s54.166 -28.5 71.499 -47.5
s30.666 -37.167 39.999 -54.5s14.666 -33 15.999 -47z" />
    <glyph glyph-name="u1055" unicode="&#x1055;" horiz-adv-x="576" 
d="M460 317c-34 60.667 -90 91 -168 91c-28.667 0 -58.667 -7.33301 -90 -22c37.333 -62 90.666 -93 159.999 -93c30.667 0 63.334 8 98.001 24zM520 291c-63.333 -32.667 -114.991 -49.0049 -154.991 -49.0049c-42 0 -81.333 10 -118 30s-66.334 47 -89.001 81
c-34.667 -38 -52 -81.667 -52 -131c0 -41.333 10 -82.666 30 -123.999s44 -62 72 -62c6.66699 0 13 5.83301 19 17.5s11.5 24.334 16.5 38.001s12.667 26.334 23 38.001s22.166 17.5 35.499 17.5c17.333 0 31.666 -9.16699 42.999 -27.5s20.666 -36.833 27.999 -55.5
s15 -28 23 -28c12.667 0 24.5 8.16699 35.5 24.5s19.833 34.833 26.5 55.5l47 -20c-9.33301 -29.333 -23.5 -55.166 -42.5 -77.499s-41.167 -33.5 -66.5 -33.5c-16 0 -29.833 5.83301 -41.5 17.5s-19.834 24.334 -24.501 38.001s-9.5 26.334 -14.5 38.001
s-9.5 17.5 -13.5 17.5c-4.66699 0 -10.167 -9.16699 -16.5 -27.5s-16 -36.833 -29 -55.5s-29.833 -28 -50.5 -28c-29.333 0 -55.833 12.667 -79.5 38s-41.5 55.833 -53.5 91.5s-18 71.5 -18 107.5c0 65.333 23.167 121.166 69.5 167.499s102.166 69.5 167.499 69.5
c36.667 0 70.167 -6.33301 100.5 -19s54.166 -28.5 71.499 -47.5s30.666 -37.167 39.999 -54.5s14.666 -33 15.999 -47z" />
    <glyph glyph-name="u1056" unicode="&#x1056;" horiz-adv-x="502" 
d="M447 175c0 -62.667 -18.8369 -109.83 -56.5039 -141.497s-84.167 -47.5 -139.5 -47.5c-21.333 0 -43.166 3 -65.499 9s-46.166 18.333 -71.499 37s-45 42.667 -59 72l43 29c14 -32 35.667 -56.167 65 -72.5s58 -24.5 86 -24.5c38.667 0 72.834 10.833 102.501 32.5
s44.5 57.167 44.5 106.5c0 20 -6.66699 36.667 -20 50s-29.5 23.5 -48.5 30.5l-57 21.5c-19 7.33301 -35.167 18.166 -48.5 32.499s-20 32.5 -20 54.5c0 29.333 9.16699 52.666 27.5 69.999s38.5 26 60.5 26c44.667 0 80.334 -16 107.001 -48l-33 -39
c-18.667 16 -32.5 26 -41.5 30s-19.833 6 -32.5 6c-10 0 -18.667 -4.33301 -26 -13s-11 -19.334 -11 -32.001c0 -13.333 10.167 -24.833 30.5 -34.5s42.5 -18.167 66.5 -25.5s46.167 -22 66.5 -44s30.5 -50.333 30.5 -85z" />
    <glyph glyph-name="u1057" unicode="&#x1057;" horiz-adv-x="511" 
d="M456 175c0 -41.333 -11.165 -83.333 -33.498 -126s-45.5 -64 -69.5 -64c-16 0 -29.667 5.83301 -41 17.5s-19.666 24.334 -24.999 38.001l-15.5 38c-5 11.667 -9.5 17.5 -13.5 17.5c-4.66699 0 -10 -9.16699 -16 -27.5s-15.333 -36.833 -28 -55.5
s-29.334 -28 -50.001 -28c-24 0 -45.667 10.5 -65 31.5s-34 47.5 -44 79.5l47 20c8 -24 17.667 -43.333 29 -58s22.333 -22 33 -22c6.66699 0 13 5.83301 19 17.5s11.5 24.334 16.5 38.001s12.667 26.334 23 38.001s22.166 17.5 35.499 17.5
c17.333 0 31.666 -9.16699 42.999 -27.5s20.666 -36.833 27.999 -55.5s15 -28 23 -28c12 0 23.833 16.5 35.5 49.5s17.5 62.833 17.5 89.5c0 20 -6.66699 36.667 -20 50s-29.5 23.5 -48.5 30.5l-57 21.5c-19 7.33301 -35.167 18.166 -48.5 32.499s-20 32.5 -20 54.5
c0 29.333 9.16699 52.666 27.5 69.999s38.5 26 60.5 26c44.667 0 80.334 -16 107.001 -48l-33 -39c-18.667 16 -32.5 26 -41.5 30s-19.833 6 -32.5 6c-10 0 -18.667 -4.33301 -26 -13s-11 -19.334 -11 -32.001c0 -13.333 10.167 -24.833 30.5 -34.5s42.5 -18.167 66.5 -25.5
s46.167 -22 66.5 -44s30.5 -50.333 30.5 -85z" />
    <glyph glyph-name="u1058" unicode="&#x1058;" horiz-adv-x="468" 
d="M368 -198c-11.333 23.333 -29.168 41.5 -53.501 54.5s-50.5 19.5 -78.5 19.5c-23.333 0 -47.666 -6 -72.999 -18c10.667 -22 28.5 -40.333 53.5 -55s50.5 -22 76.5 -22c24 0 49 7 75 21zM411.998 -214c-50 -27.333 -89.667 -41.002 -119 -41.002
c-28 0 -58 8.66699 -90 26s-54.333 38.333 -67 63c-28 -28 -42 -61.667 -42 -101s13.833 -72.833 41.5 -100.5s61.167 -41.5 100.5 -41.5c28 0 54.333 7.33301 79 22s44 35.667 58 63l33 -21c-14 -32 -37 -57.5 -69 -76.5s-65.667 -28.5 -101 -28.5
c-50 0 -92.667 17.833 -128 53.5s-53 78.834 -53 129.501s17.667 93.834 53 129.501s78 53.5 128 53.5c52.667 0 95.167 -15.5 127.5 -46.5s48.5 -58.833 48.5 -83.5z" />
    <glyph glyph-name="u1059" unicode="&#x1059;" horiz-adv-x="469" 
d="M367 -193c-26.667 46.667 -69.667 70 -129 70c-22 0 -45 -5.66699 -69 -17c29.333 -47.333 70.333 -71 123 -71c24 0 49 6 75 18zM413 -213c-49.333 -25.333 -88.998 -38.001 -118.998 -38.001c-67.333 0 -120.333 28.667 -159 86c-26.667 -28.667 -40 -62.667 -40 -102
c0 -32 7.66699 -63.833 23 -95.5s33.666 -47.5 54.999 -47.5c6 0 11.833 7.16699 17.5 21.5s13 28.5 22 42.5s20.167 21 33.5 21s24.333 -7.16699 33 -21.5s15.834 -28.5 21.501 -42.5s11.5 -21 17.5 -21c9.33301 0 19.666 9.83301 30.999 29.5s19.666 38.167 24.999 55.5
l33 -19c-6 -24.667 -17.333 -48.5 -34 -71.5s-35 -34.5 -55 -34.5c-16 0 -28.833 7.16699 -38.5 21.5s-16.834 28.666 -21.501 42.999s-8.66699 21.5 -12 21.5c-4 0 -8.5 -7.16699 -13.5 -21.5s-12.333 -28.666 -22 -42.999s-22.5 -21.5 -38.5 -21.5
c-34 0 -62 19.5 -84 58.5s-33 80.5 -33 124.5c0 50.667 17.833 93.834 53.5 129.501s78.834 53.5 129.501 53.5c53.333 0 95.333 -15 126 -45s47 -58 49 -84z" />
    <glyph glyph-name="u105A" unicode="&#x105a;" horiz-adv-x="568" 
d="M380 -192c0 -18.667 -15.833 -48.832 -47.5 -90.499s-47.5 -71.834 -47.5 -90.501c0 -17.333 8.66699 -26 26 -26c10 0 19.333 3.66699 28 11l14 -45c-11.333 -11.333 -25.333 -17 -42 -17c-52 0 -78 25.667 -78 77c0 22 8.16699 46 24.5 72s32.5 49 48.5 69
s24 33.333 24 40c0 26.667 -13.333 40 -40 40c-11.333 0 -20.333 -3.66699 -27 -11s-10 -17 -10 -29h-50c0 22.667 7.83301 43.5 23.5 62.5s36.834 28.5 63.501 28.5c23.333 0 44.166 -7.33301 62.499 -22s27.5 -37.667 27.5 -69zM513 121.002
c-17.333 -43.333 -46.832 -76.8291 -88.499 -100.496s-85.834 -35.5 -132.501 -35.5c-65.333 0 -121.166 23.167 -167.499 69.5s-69.5 102.166 -69.5 167.499c0 64.667 23.167 120.334 69.5 167.001s102.166 70 167.499 70c46.667 0 90.667 -12 132 -36s71 -57.667 89 -101
l-44 -25c-18 35.333 -42.833 62.666 -74.5 81.999s-65.834 29 -102.501 29c-50.667 0 -94.334 -18.333 -131.001 -55s-55 -80.334 -55 -131.001s18.333 -94.334 55 -131.001s80.334 -55 131.001 -55c36.667 0 70.834 9.66699 102.501 29s56.5 46.666 74.5 81.999z" />
    <glyph glyph-name="u105B" unicode="&#x105b;" horiz-adv-x="721" 
d="M436 261c-22.667 18.667 -47.667 27.999 -75 27.999c-34 0 -51 -16.333 -51 -49c0 -11.333 4.83301 -20.166 14.5 -26.499s21.834 -9.5 36.501 -9.5c19.333 0 36.166 4.5 50.499 13.5s22.5 23.5 24.5 43.5zM666 -450.001l-312.999 80.9961v362
c-21.333 -5.33301 -43.666 -8 -66.999 -8c-66.667 0 -121.834 22.833 -165.501 68.5s-65.5 101.834 -65.5 168.501c0 64.667 22.667 120.334 68 167.001s99.666 70 162.999 70c60 0 107.833 -17.333 143.5 -52s54.834 -79 57.501 -133c24.667 -28 51.667 -67.333 81 -118
l-40 -29c-23.333 39.333 -41.333 68.333 -54 87c-11.333 -19.333 -27.333 -34.333 -48 -45s-42.334 -16 -65.001 -16c-28.667 0 -52.834 7.5 -72.501 22.5s-29.5 36.5 -29.5 64.5c0 30 9.16699 54.167 27.5 72.5s43.166 27.5 74.499 27.5c21.333 0 42.333 -5 63 -15
c-8.66699 24 -24.334 43.833 -47.001 59.5s-52 23.5 -88 23.5c-51.333 0 -94.666 -18.667 -129.999 -56s-53 -80.666 -53 -129.999c0 -53.333 17.333 -97.666 52 -132.999s77.334 -53 128.001 -53c28.667 0 53.667 4.66699 75 14s44 25 68 47l33 -40
c-21.333 -19.333 -40.666 -34 -57.999 -44v-342l211 -55v828h51v-894z" />
    <glyph glyph-name="u105C" unicode="&#x105c;" horiz-adv-x="575" 
d="M350 222c0 16.667 -5.83301 30.834 -17.5 42.501s-25.834 17.5 -42.501 17.5c-17.333 0 -31.833 -5.83301 -43.5 -17.5s-17.5 -25.834 -17.5 -42.501c0 -17.333 5.83301 -32 17.5 -44s26.167 -18 43.5 -18c16.667 0 30.834 6 42.501 18s17.5 26.667 17.5 44zM387 222
c0 -26.667 -9.66699 -50 -29 -70s-42 -30 -68 -30c-26.667 0 -49.667 10 -69 30s-29 43.333 -29 70c0 26 9.66699 48.667 29 68s42.333 29 69 29c26 0 48.667 -9.66699 68 -29s29 -42 29 -68zM469 222c0 50 -17.498 93.501 -52.498 130.501s-77.167 55.5 -126.5 55.5
c-50.667 0 -93.834 -18.333 -129.501 -55s-53.5 -80.334 -53.5 -131.001c0 -52 17.333 -96 52 -132s77 -54 127 -54c51.333 0 94.666 18 129.999 54s53 80 53 132zM520.002 222.001c0 -66 -22.499 -122.167 -67.499 -168.5s-99.167 -69.5 -162.5 -69.5
c-66 0 -121.667 23.167 -167 69.5s-68 102.5 -68 168.5c0 64.667 22.5 120.334 67.5 167.001s99.5 70 163.5 70c65.333 0 120.666 -23.333 165.999 -70s68 -102.334 68 -167.001z" />
    <glyph glyph-name="u105D" unicode="&#x105d;" horiz-adv-x="584" 
d="M436 106c-44 43.333 -92.001 65 -144.001 65c-51.333 0 -98.666 -22 -141.999 -66c34.667 -46 82 -69 142 -69s108 23.333 144 70zM528.999 -265c0 -53.333 -17.666 -97.502 -52.999 -132.502s-78.333 -52.5 -129 -52.5h-160c-30.667 0 -55.167 10.167 -73.5 30.5
s-27.5 44.5 -27.5 72.5c0 26.667 10.167 50.334 30.5 71.001s47.166 31 80.499 31c27.333 0 48.333 -7.33301 63 -22l-34 -39c-10.667 6.66699 -20.334 10 -29.001 10c-19.333 0 -34.166 -4.66699 -44.499 -14s-15.5 -21.666 -15.5 -36.999
c0 -12.667 4.66699 -24.5 14 -35.5s21.333 -16.5 36 -16.5h156c44 0 77.5 13.833 100.5 41.5s34.5 58.834 34.5 93.501v340c-21.333 -29.333 -48.666 -51.833 -81.999 -67.5s-68 -23.5 -104 -23.5c-66.667 0 -122.834 23.667 -168.501 71s-68.5 108.666 -68.5 183.999
c0 92 32.667 164.333 98 217l30 -43c-51.333 -46.667 -77 -104.667 -77 -174c0 -28.667 5.66699 -58.334 17 -89.001c48 47.333 104.333 71 169 71c67.333 0 124 -23 170 -69c10.667 27.333 16 56.333 16 87c0 67.333 -25.333 125.333 -76 174l30 43
c64.667 -51.333 97 -123.666 97 -216.999v-505z" />
    <glyph glyph-name="u105E" unicode="&#x105e;" 
d="M-106 -251c-75.333 -4.66699 -113 -29.333 -113 -74c0 -19.333 8 -36.5 24 -51.5s33.333 -22.5 52 -22.5c14.667 0 24.5 3.16699 29.5 9.5s7.5 16.5 7.5 30.5v108zM71 -262.999l-19.999 -30.0029c-30.667 20.667 -66 34 -106 40v-107
c0 -33.333 -6.5 -56.666 -19.5 -69.999s-35.833 -20 -68.5 -20c-8 0 -18 1.66699 -30 5s-25.833 9 -41.5 17s-28.834 21 -39.501 39s-16 39.333 -16 64c0 78.667 54.667 120.334 164 125.001v105h51v-107c48 -7.33301 90 -27.666 126 -60.999z" />
    <glyph glyph-name="u105F" unicode="&#x105f;" 
d="M61 -387c-46 -42 -99.668 -62.998 -161.001 -62.998c-113.333 0 -170 41.667 -170 125c0 25.333 6 46.833 18 64.5s27.5 30.5 46.5 38.5s36.5 13.667 52.5 17s31.667 5 47 5v105h51v-159c-11.333 2 -26.333 3 -45 3c-20 0 -38.167 -1.83301 -54.5 -5.5
s-31.166 -11.334 -44.499 -23.001s-20 -26.834 -20 -45.501c0 -49.333 39.667 -74 119 -74c52.667 0 99.667 14 141 42z" />
    <glyph glyph-name="u1060" unicode="&#x1060;" 
d="M-55 -450h-329l195 355h57l-165 -304h242v-51z" />
    <glyph glyph-name="u1061" unicode="&#x1061;" horiz-adv-x="588" 
d="M384 -450h-134v51h83v304h51v-355zM333 39c-10.667 31.333 -23.667 57.168 -39 77.501s-37 36.5 -65 48.5c-26 10.667 -51 16 -75 16c-15.333 0 -29.333 -1.33301 -42 -4c10 -40.667 31.5 -74.334 64.5 -101.001s71.5 -40 115.5 -40c17.333 0 31 1 41 3zM532 -449.998
l-50.999 0.000976562v652c0 60 -18.5 109.333 -55.5 148s-81.5 58 -133.5 58c-48.667 0 -91.167 -17.667 -127.5 -53s-55.833 -77 -58.5 -125c14 2 28.333 3 43 3c37.333 0 71.666 -7.66699 102.999 -23c40 -19.333 70.167 -44.333 90.5 -75s39.166 -73.334 56.499 -128.001
c-32 -14.667 -67.667 -22 -107 -22c-65.333 0 -121.166 23.167 -167.499 69.5s-69.5 102.166 -69.5 167.499c0 64 23.333 119.167 70 165.5s102.334 69.5 167.001 69.5c67.333 0 124.166 -23.667 170.499 -71s69.5 -108.666 69.5 -183.999v-652z" />
    <glyph glyph-name="u1062" unicode="&#x1062;" horiz-adv-x="271" 
d="M216 0h-51v393h-125v51h176v-444z" />
    <glyph glyph-name="u1063" unicode="&#x1063;" horiz-adv-x="568" 
d="M513 222c0 -65.333 -23.1689 -121.166 -69.502 -167.499s-102.166 -69.5 -167.499 -69.5s-122 21.333 -170 64v-499h-51v571l44 26c18 -34.667 43 -61.834 75 -81.501s66 -29.5 102 -29.5c50.667 0 94.334 18.333 131.001 55s55 80.334 55 131.001
s-18.333 94.334 -55 131.001s-80.334 55 -131.001 55c-36 0 -70 -9.83301 -102 -29.5s-57 -46.834 -75 -81.501l-44 25c16 38.667 43.667 71.167 83 97.5s85.333 39.5 138 39.5c64.667 0 120.334 -23.333 167.001 -70s70 -102.334 70 -167.001z" />
    <glyph glyph-name="u1064" unicode="&#x1064;" horiz-adv-x="384" 
d="M343 0h-178v393h-125v51h176v-393h127v-51z" />
    <glyph glyph-name="u1065" unicode="&#x1065;" horiz-adv-x="576" 
d="M516 222c0 -65.333 -23.1689 -121.166 -69.502 -167.499s-102.166 -69.5 -167.499 -69.5c-46.667 0 -90.667 11.833 -132 35.5s-71 57.167 -89 100.5l44 26c18 -34.667 43 -61.834 75 -81.501s66 -29.5 102 -29.5c51.333 0 95.166 18.333 131.499 55
s54.5 80.334 54.5 131.001s-18.167 94.334 -54.5 131.001s-80.166 55 -131.499 55c-36 0 -70 -9.83301 -102 -29.5s-57 -46.834 -75 -81.501l-44 25c18 43.333 47.667 77 89 101s85.333 36 132 36c64.667 0 120.334 -23.333 167.001 -70s70 -102.334 70 -167.001z" />
    <glyph glyph-name="u1066" unicode="&#x1066;" horiz-adv-x="584" 
d="M318 -450h-134v51h83v304h51v-355zM529 240c0 -74.667 -22.8311 -135.835 -68.498 -183.502s-101.834 -71.5 -168.501 -71.5s-122.834 23.833 -168.501 71.5s-68.5 108.834 -68.5 183.501c0 90.667 32.667 163 98 217l30 -43c-51.333 -46.667 -77 -104.667 -77 -174
c0 -59.333 18 -108.166 54 -146.499s80 -57.5 132 -57.5s96 19.167 132 57.5s54 87.166 54 146.499c0 69.333 -25.333 127.333 -76 174l30 43c64.667 -51.333 97 -123.666 97 -216.999z" />
    <glyph glyph-name="u1067" unicode="&#x1067;" horiz-adv-x="277" 
d="M184 84c0 12.667 -4.5 23.498 -13.5 32.498s-19.833 13.5 -32.5 13.5s-23.667 -4.5 -33 -13.5s-14 -19.833 -14 -32.5c0 -13.333 4.66699 -24.666 14 -33.999s20.333 -14 33 -14c13.333 0 24.333 4.83301 33 14.5s13 20.834 13 33.501zM237 458.998
l-0.000976562 -362.001c0 -33.333 -9.16699 -60.333 -27.5 -81s-42.166 -31 -71.499 -31c-26.667 0 -49.667 9.83301 -69 29.5s-29 42.834 -29 69.501c0 26 9.66699 48.667 29 68s42.333 29 69 29c17.333 0 33.333 -4.33301 48 -13v291h51z" />
    <glyph glyph-name="u1068" unicode="&#x1068;" horiz-adv-x="336" 
d="M231 0h-176v51h125v393h51v-444zM252 663c0 12.667 -4.5 23.5 -13.5 32.5s-19.833 13.5 -32.5 13.5s-23.667 -4.5 -33 -13.5s-14 -19.833 -14 -32.5c0 -13.333 4.66699 -24.666 14 -33.999s20.333 -14 33 -14s23.5 4.66699 32.5 14s13.5 20.666 13.5 33.999zM281 663
c0 -20.667 -7.5 -38.667 -22.5 -54s-32.5 -23 -52.5 -23c-20.667 0 -38.334 7.66699 -53.001 23s-22 33.333 -22 54c0 20 7.33301 37.5 22 52.5s32.334 22.5 53.001 22.5c20 0 37.5 -7.5 52.5 -22.5s22.5 -32.5 22.5 -52.5z" />
    <glyph glyph-name="u1069" unicode="&#x1069;" horiz-adv-x="354" 
d="M313 334c0 -32 -10.332 -57.3311 -30.999 -75.998c-12.667 -11.333 -28.334 -20.666 -47.001 -27.999s-38 -13.333 -58 -18s-33 -8.33398 -39 -11.001c-31.333 -14.667 -47 -35.667 -47 -63c0 -36.667 9.66699 -62.834 29 -78.501s39.333 -23.5 60 -23.5
c32 0 60 12 84 36l33 -39c-24.667 -32 -63.667 -48 -117 -48c-14 0 -28.5 2.66699 -43.5 8s-30 13.5 -45 24.5s-27.333 27 -37 48s-14.5 45.5 -14.5 73.5c0 16 5 34 15 54s27 36.333 51 49c9.33301 4.66699 31.5 12 66.5 22s58.5 20 70.5 30c12.667 10.667 19 24 19 40
c0 19.333 -6.83301 36.666 -20.5 51.999s-32.167 23 -55.5 23c-28.667 0 -56.667 -12 -84 -36l-33 39c26 32 65 48 117 48c36 0 66.167 -11 90.5 -33s36.5 -53 36.5 -93z" />
    <glyph glyph-name="u106A" unicode="&#x106a;" horiz-adv-x="291" 
d="M251 444v-347c0 -33.333 -9.16699 -60.333 -27.5 -81s-41.833 -31 -70.5 -31c-29.333 0 -52.833 9.33301 -70.5 28s-26.5 41.667 -26.5 69h51c0 -13.333 4.66699 -24.333 14 -33s20 -13 32 -13c12.667 0 23.667 5.16699 33 15.5s14 25.5 14 45.5v347h51z" />
    <glyph glyph-name="u106B" unicode="&#x106b;" horiz-adv-x="291" 
d="M235 0h-51v346c0 20.667 -4.5 36.167 -13.5 46.5s-19.833 15.5 -32.5 15.5c-12 0 -22.833 -4.33301 -32.5 -13s-14.5 -20 -14.5 -34h-51c0 27.333 8.83301 50.5 26.5 69.5s41.5 28.5 71.5 28.5c28.667 0 52 -10.333 70 -31s27 -48 27 -82v-346z" />
    <glyph glyph-name="u106C" unicode="&#x106c;" horiz-adv-x="291" 
d="M235 82c0 -27.333 -8.83301 -50.333 -26.5 -69s-41.167 -28 -70.5 -28c-28.667 0 -52.167 10.333 -70.5 31s-27.5 47.667 -27.5 81v347h51v-347c0 -20 4.66699 -35.167 14 -45.5s20.333 -15.5 33 -15.5c12 0 22.667 4.33301 32 13s14 19.667 14 33h51z" />
    <glyph glyph-name="u106D" unicode="&#x106d;" horiz-adv-x="354" 
d="M313 139c0 -52.667 -14.999 -91.5029 -44.999 -116.503s-61.333 -37.5 -94 -37.5c-53.333 0 -92.333 16 -117 48l33 39c23.333 -24 51.333 -36 84 -36c10 0 21 2.33301 33 7s24.167 15.334 36.5 32.001s18.5 37.667 18.5 63c0 28 -15.333 49 -46 63
c-6 2.66699 -19 6.33398 -39 11.001s-39.333 10.667 -58 18s-34.334 16.666 -47.001 27.999c-21.333 18.667 -32 44 -32 76c0 40 12.167 71 36.5 93s54.833 33 91.5 33c51.333 0 90.333 -16 117 -48l-33 -39c-28 24 -56 36 -84 36c-23.333 0 -42 -7.66699 -56 -23
s-21 -32.666 -21 -51.999c0 -15.333 6.66699 -28.666 20 -39.999c11.333 -10 34.5 -20 69.5 -30s57.167 -17.333 66.5 -22c24 -12.667 41 -29 51 -49s15 -38 15 -54z" />
    <glyph glyph-name="u106E" unicode="&#x106e;" horiz-adv-x="1185" 
d="M1130 222c0 -65.333 -22.835 -121.162 -68.502 -167.495s-100.167 -69.5 -163.5 -69.5c-26.667 0 -50.334 5 -71.001 15l20 46c15.333 -6.66699 32.333 -10 51 -10c50 0 92.667 18.167 128 54.5s53 80.166 53 131.499s-17.667 95.166 -53 131.499s-78 54.5 -128 54.5
c-48 0 -90.833 -22.833 -128.5 -68.5s-56.5 -94.834 -56.5 -147.501c-0.666992 -88 -33 -157 -97 -207l-30 43c50.667 46 76 104 76 174c0 59.333 -18 108.166 -54 146.499s-80 57.5 -132 57.5c-14.667 0 -26 -1 -34 -3c58 -47.333 87 -114.333 87 -201
c-0.666992 -53.333 -9 -96.5 -25 -129.5s-40 -62.167 -72 -87.5l-30 43c50.667 46 76 104 76 174c0 59.333 -18 108.166 -54 146.499s-80 57.5 -132 57.5s-96 -19.167 -132 -57.5s-54 -87.166 -54 -146.499c0 -70 25.667 -128 77 -174l-30 -43
c-31.333 26 -55.5 55.667 -72.5 89s-25.5 76 -25.5 128c0 74.667 22.833 135.834 68.5 183.501s101.834 71.5 168.501 71.5c35.333 0 66 -6 92 -18c24 12 54.667 18 92 18c48 0 91.333 -12.833 130 -38.5s67.334 -60.834 86.001 -105.501
c21.333 43.333 50.333 78.5 87 105.5s76.334 40.5 119.001 40.5c63.333 0 117.833 -23.333 163.5 -70s68.5 -102.334 68.5 -167.001z" />
    <glyph glyph-name="u106F" unicode="&#x106f;" horiz-adv-x="1002" 
d="M737 -450h-134v51h83v304h51v-355zM946 222c0 -65.333 -22.8291 -121.164 -68.4961 -167.497s-100.167 -69.5 -163.5 -69.5c-26.667 0 -50.334 5 -71.001 15l20 46c14 -6.66699 31 -10 51 -10c50 0 92.667 18.167 128 54.5s53 80.166 53 131.499
s-17.667 95.166 -53 131.499s-78 54.5 -128 54.5c-48 0 -90.833 -22 -128.5 -66s-56.5 -84.667 -56.5 -122c0 -58.667 -21.333 -112.5 -64 -161.5s-100.334 -73.5 -173.001 -73.5c-66.667 0 -122.834 23.833 -168.501 71.5s-68.5 108.834 -68.5 183.501
c0 90.667 32.667 163 98 217l30 -43c-51.333 -46.667 -77 -104.667 -77 -174c0 -59.333 18 -108.166 54 -146.499s80 -57.5 132 -57.5s96 19.167 132 57.5s54 87.166 54 146.499c0 69.333 -25.333 127.333 -76 174l30 43c43.333 -36.667 71.666 -78 84.999 -124
c22.667 37.333 51.5 67.666 86.5 90.999s71.833 35 110.5 35c63.333 0 117.833 -23.333 163.5 -70s68.5 -102.334 68.5 -167.001z" />
    <glyph glyph-name="u1070" unicode="&#x1070;" horiz-adv-x="999" 
d="M737 -450h-134v51h83v304h51v-355zM943 222c0 -65.333 -22.833 -121.169 -68.5 -167.502s-100.167 -69.5 -163.5 -69.5c-44 0 -84.5 13.333 -121.5 40s-66.5 61.667 -88.5 105c-19.333 -45.333 -48.166 -80.833 -86.499 -106.5s-81.5 -38.5 -129.5 -38.5
c-66 0 -120.833 19.5 -164.5 58.5s-65.5 80.5 -65.5 124.5c0 28.667 7.33301 52.667 22 72s30.667 32.833 48 40.5s33.333 16.334 48 26.001s22 20.5 22 32.5c0 22.667 -5.33301 39.334 -16 50.001s-23 16 -37 16c-9.33301 0 -18 -3 -26 -9s-13.667 -13 -17 -21l-44 27
c7.33301 14 19.166 26.5 35.499 37.5s33.5 16.5 51.5 16.5c28.667 0 53.167 -10.5 73.5 -31.5s30.5 -49.5 30.5 -85.5c0 -17.333 -4.83301 -32.5 -14.5 -45.5s-21.334 -23.5 -35.001 -31.5l-41 -23c-13.667 -7.33301 -25.334 -17 -35.001 -29s-14.5 -26 -14.5 -42
c0 -7.33301 3.5 -17.833 10.5 -31.5s17.167 -28.167 30.5 -43.5s32.166 -28.666 56.499 -39.999s51.5 -17 81.5 -17c56.667 0 101.834 20.833 135.501 62.5s50.5 92.834 50.5 153.501c0 56.667 -25.667 110.667 -77 162l30 43c32 -25.333 56.333 -54.833 73 -88.5
s25 -76.5 25 -128.5c0 -47.333 19.833 -93.166 59.5 -137.499s82.834 -66.5 129.501 -66.5c50 0 92.667 18.167 128 54.5s53 80.166 53 131.499s-17.667 95.166 -53 131.499s-78 54.5 -128 54.5c-19.333 0 -36.333 -3.66699 -51 -11l-20 47c22.667 10 46.334 15 71.001 15
c63.333 0 117.833 -23.333 163.5 -70s68.5 -102.334 68.5 -167.001z" />
    <glyph glyph-name="u1071" unicode="&#x1071;" horiz-adv-x="462" 
d="M379 614c0 11.333 -4.33301 21.833 -13 31.5s-19.667 14.5 -33 14.5s-24.5 -4.83301 -33.5 -14.5s-13.5 -20.167 -13.5 -31.5c0 -12 4.5 -23 13.5 -33s20.167 -15 33.5 -15s24.333 5 33 15s13 21 13 33zM408 614c0 -21.333 -7.5 -39.5 -22.5 -54.5
s-32.5 -22.5 -52.5 -22.5s-37.5 7.5 -52.5 22.5s-22.5 33.167 -22.5 54.5c0 20.667 7.5 38.334 22.5 53.001s32.5 22 52.5 22s37.5 -7.33301 52.5 -22s22.5 -32.334 22.5 -53.001zM175 614c0 11.333 -4.33301 21.833 -13 31.5s-19.667 14.5 -33 14.5
s-24.5 -4.83301 -33.5 -14.5s-13.5 -20.167 -13.5 -31.5c0 -12 4.5 -23 13.5 -33s20.167 -15 33.5 -15s24.333 5 33 15s13 21 13 33zM204 614c0 -21.333 -7.5 -39.5 -22.5 -54.5s-32.5 -22.5 -52.5 -22.5s-37.5 7.5 -52.5 22.5s-22.5 33.167 -22.5 54.5
c0 20.667 7.5 38.334 22.5 53.001s32.5 22 52.5 22s37.5 -7.33301 52.5 -22s22.5 -32.334 22.5 -53.001z" />
    <glyph glyph-name="u1072" unicode="&#x1072;" 
d="M-55 834l-29.0029 -23.9971c-24.667 41.333 -60.667 62 -108 62c-36 0 -68.167 -13.333 -96.5 -40s-42.5 -61.334 -42.5 -104.001c0 -25.333 5.66699 -48.333 17 -69s25.333 -36.334 42 -47.001s32.334 -18.834 47.001 -24.501s27.334 -8.5 38.001 -8.5v-39
c-42 0 -83 17.333 -123 52s-60 80 -60 136c0 52 17.833 95.5 53.5 130.5s76.834 52.5 123.501 52.5c30.667 0 58.5 -7 83.5 -21s43.167 -32.667 54.5 -56z" />
    <glyph glyph-name="u1073" unicode="&#x1073;" horiz-adv-x="453" 
d="M453 640l-29 -28l-198 199l-198 -199l-28 28l226 227z" />
    <glyph glyph-name="u1074" unicode="&#x1074;" 
d="M-55 839l-227 -227l-226 227l28 28l198 -199l198 199z" />
    <glyph glyph-name="u1075" unicode="&#x1075;" horiz-adv-x="577" 
d="M522 202c0 -52 -8.33594 -94.8359 -25.0029 -128.503s-41 -63.167 -73 -88.5l-30 43c51.333 46.667 77 104.667 77 174c0 59.333 -18 108.166 -54 146.499s-80 57.5 -132 57.5c-30 0 -57.167 -5.66699 -81.5 -17s-43.166 -24.833 -56.499 -40.5
s-23.5 -30.167 -30.5 -43.5s-10.5 -23.666 -10.5 -30.999c0 -16 4.83301 -30 14.5 -42s21.334 -21.667 35.001 -29l41 -23c13.667 -8 25.334 -18.5 35.001 -31.5s14.5 -28.167 14.5 -45.5c0 -36 -10.167 -64.5 -30.5 -85.5s-44.833 -31.5 -73.5 -31.5
c-19.333 0 -37.666 5.83301 -54.999 17.5s-28 23.834 -32 36.501l44 27c2 -7.33301 7.33301 -14.166 16 -20.499s17.667 -9.5 27 -9.5c14 0 26.333 5.33301 37 16s16 27.334 16 50.001c0 11.333 -7.33301 22 -22 32s-30.667 18.667 -48 26s-33.333 20.833 -48 40.5
s-22 43.834 -22 72.501c0 44 21.833 85.5 65.5 124.5s98.5 58.5 164.5 58.5c67.333 0 123.666 -23.833 168.999 -71.5s68 -108.834 68 -183.501z" />
    <glyph glyph-name="u1076" unicode="&#x1076;" horiz-adv-x="582" 
d="M379 58c-18 28.667 -40.833 51.667 -68.5 69s-58.167 26 -91.5 26c-32 0 -64.667 -8.66699 -98 -26c34 -60.667 90 -91 168 -91c28.667 0 58.667 7.33301 90 22zM526 222c0 -65.333 -23.166 -121.164 -69.499 -167.497s-102.166 -69.5 -167.499 -69.5
c-36.667 0 -70.167 6.33301 -100.5 19s-54 28.5 -71 47.5s-30.333 37.333 -40 55s-15.167 33.167 -16.5 46.5c63.333 34 115 51 155 51s78.667 -10.167 116 -30.5s67.666 -47.833 90.999 -82.5c34.667 39.333 52 83 52 131c0 52.667 -18.5 96.834 -55.5 132.501
s-75.5 53.5 -115.5 53.5c-14 0 -24.833 -4.83301 -32.5 -14.5s-13.334 -21.334 -17.001 -35.001s-8 -27.334 -13 -41.001s-13.667 -25.334 -26 -35.001s-29.166 -14.5 -50.499 -14.5c-26.667 0 -51.667 9 -75 27s-35 43 -35 75c0 41.333 17.667 71 53 89l27 -44
c-19.333 -8.66699 -29 -23 -29 -43c0 -14 5.33301 -26.333 16 -37s25 -16 43 -16c15.333 0 27.166 7.33301 35.499 22s14 30.667 17 48s11.667 33.333 26 48s34.5 22 60.5 22c58 0 109.5 -23.833 154.5 -71.5s67.5 -102.834 67.5 -165.501z" />
    <glyph glyph-name="u1077" unicode="&#x1077;" horiz-adv-x="577" 
d="M471 202c0 49.333 -12 90.334 -36 123.001c-48 -36 -72 -83.333 -72 -142c0 -40.667 12.667 -80.334 38 -119.001c46.667 49.333 70 95.333 70 138zM522 202.001c0 -26 -3.49902 -50.1709 -10.499 -72.5039s-17.667 -42.666 -32 -60.999s-27 -33 -38 -44
s-25.5 -24.167 -43.5 -39.5c-57.333 56 -86 121.333 -86 196s29 136.334 87 185.001c-30.667 26.667 -68.667 40 -114 40c-30 0 -57.167 -5.66699 -81.5 -17s-43.166 -24.833 -56.499 -40.5s-23.5 -30.167 -30.5 -43.5s-10.5 -23.666 -10.5 -30.999
c0 -16 4.83301 -30 14.5 -42s21.334 -21.667 35.001 -29l41 -23c13.667 -8 25.334 -18.5 35.001 -31.5s14.5 -28.167 14.5 -45.5c0 -36 -10.167 -64.5 -30.5 -85.5s-44.833 -31.5 -73.5 -31.5c-20 0 -39 6.5 -57 19.5s-28 24.5 -30 34.5l44 27
c0 -4.66699 4.5 -10.834 13.5 -18.501s18.833 -11.5 29.5 -11.5c14 0 26.333 5.33301 37 16s16 27.334 16 50.001c0 10 -4.83301 18.833 -14.5 26.5s-21.334 14.834 -35.001 21.501s-27.334 14.5 -41.001 23.5s-25.334 22 -35.001 39s-14.5 37.167 -14.5 60.5
c0 44 21.833 85.5 65.5 124.5s98.5 58.5 164.5 58.5c67.333 0 123.666 -23.5 168.999 -70.5s68 -108.5 68 -184.5z" />
    <glyph glyph-name="u1078" unicode="&#x1078;" horiz-adv-x="997" 
d="M891 222c0 51.333 -17.832 95.168 -53.499 131.501s-78.834 54.5 -129.501 54.5c-51.333 0 -94.166 -18.667 -128.499 -56s-51.5 -82.333 -51.5 -135c0 -46.667 17.5 -88.5 52.5 -125.5s78.5 -55.5 130.5 -55.5c49.333 0 91.666 18.167 126.999 54.5
s53 80.166 53 131.499zM942.001 222.002c0 -66 -22.498 -122.001 -67.498 -168.001s-100.5 -69 -166.5 -69c-46.667 0 -88.334 13 -125.001 39s-63.5 55.667 -80.5 89s-25.5 65 -25.5 95c0 21.333 -6.83301 46.833 -20.5 76.5s-35.667 57.667 -66 84s-64.5 39.5 -102.5 39.5
c-50.667 0 -93.667 -18.167 -129 -54.5s-53 -80.166 -53 -131.499s17.667 -95.166 53 -131.499s78.333 -54.5 129 -54.5c14.667 0 31 3.33301 49 10l21 -46c-24.667 -10 -48 -15 -70 -15c-63.333 0 -118 23.167 -164 69.5s-69 102.166 -69 167.499
c0 64.667 23 120.334 69 167.001s100.667 70 164 70c41.333 0 80.833 -13.5 118.5 -40.5s67.5 -61.167 89.5 -102.5c18 42.667 46.5 77.167 85.5 103.5s82.167 39.5 129.5 39.5c63.333 0 117.666 -23.333 162.999 -70s68 -102.334 68 -167.001z" />
    <glyph glyph-name="u1079" unicode="&#x1079;" horiz-adv-x="937" 
d="M112 177c9.33301 -40.667 30.833 -74.333 64.5 -101s71.834 -40 114.501 -40c15.333 0 28.666 1.33301 39.999 4c-10 30.667 -22.5 55.667 -37.5 75s-36.833 36 -65.5 50c-24.667 11.333 -49 17 -73 17c-12 0 -26.333 -1.66699 -43 -5zM831 222.001
c0 51.333 -17.833 95.166 -53.5 131.499s-78.834 54.5 -129.501 54.5c-50 0 -92.5 -18.167 -127.5 -54.5s-52.5 -80.166 -52.5 -131.499s17.833 -95.166 53.5 -131.499s78.834 -54.5 129.501 -54.5c50 0 92.5 18.167 127.5 54.5s52.5 80.166 52.5 131.499zM882 222.001
c0 -65.333 -22.832 -121.164 -68.499 -167.497s-100.834 -69.5 -165.501 -69.5c-64 0 -118.5 23.167 -163.5 69.5s-67.5 102.166 -67.5 167.499c0 40 9.33301 77.333 28 112c-40.667 49.333 -91.667 74 -153 74c-50 0 -93 -17.333 -129 -52s-55.333 -76.334 -58 -125.001
c13.333 2 26.666 3 39.999 3c36.667 0 71.334 -7.66699 104.001 -23c42.667 -20 74.5 -45.833 95.5 -77.5s39.167 -73.834 54.5 -126.501c-32 -14.667 -66 -22 -102 -22c-65.333 0 -122 22.333 -170 67s-72 101.334 -72 170.001c0 66 23.167 122 69.5 168
s102.166 69 167.499 69c75.333 0 136.333 -26.667 183 -80c48.667 53.333 107.334 80 176.001 80c64 0 118.5 -23.333 163.5 -70s67.5 -102.334 67.5 -167.001z" />
    <glyph glyph-name="u107A" unicode="&#x107a;" horiz-adv-x="1008" 
d="M952 222c0 -65.333 -22.833 -121.162 -68.5 -167.495s-100.167 -69.5 -163.5 -69.5c-36.667 0 -71.334 10 -104.001 30s-60.667 46 -84 78v-492h83v-51h-134v652c0 59.333 -19.333 108.5 -58 147.5s-84.334 58.5 -137.001 58.5c-49.333 0 -91.666 -18.333 -126.999 -55
s-53 -80 -53 -130c0 -54.667 18.333 -99.5 55 -134.5s78.334 -52.5 125.001 -52.5c30.667 0 56.667 5.33301 78 16l18 -48c-24 -12.667 -56 -19 -96 -19c-62.667 0 -116.834 22.667 -162.501 68s-68.5 101.666 -68.5 168.999c0 64.667 22.167 120 66.5 166
s99.166 69 164.499 69c66 0 122.833 -22.667 170.5 -68s72.834 -104 75.501 -176c8.66699 -44.667 31.334 -85.334 68.001 -122.001s76.667 -55 120 -55c50 0 92.667 18.167 128 54.5s53 80.166 53 131.499s-17.667 95.166 -53 131.499s-78 54.5 -128 54.5
c-20 0 -37 -3.66699 -51 -11l-20 47c23.333 10 47 15 71 15c63.333 0 117.833 -23.333 163.5 -70s68.5 -102.334 68.5 -167.001z" />
    <glyph glyph-name="u107B" unicode="&#x107b;" horiz-adv-x="937" 
d="M825 177c-13.333 2.66699 -27.333 4 -42 4c-26 0 -50.667 -5.33301 -74 -16c-28.667 -14 -50.5 -30.667 -65.5 -50s-27.5 -44.333 -37.5 -75c11.333 -2.66699 24 -4 38 -4c42 0 80 13 114 39s56.333 60 67 102zM469 222c0 51.333 -17.5 95.166 -52.5 131.499
s-77.5 54.5 -127.5 54.5c-50.667 0 -93.834 -18.167 -129.501 -54.5s-53.5 -80.166 -53.5 -131.499s17.5 -95.166 52.5 -131.499s77.5 -54.5 127.5 -54.5c50.667 0 93.834 18.167 129.501 54.5s53.5 80.166 53.5 131.499zM882 222
c0 -68.667 -23.998 -125.335 -71.998 -170.002s-104.667 -67 -170 -67c-36 0 -70 7.33301 -102 22c15.333 55.333 34.166 98.5 56.499 129.5s53.166 55.5 92.499 73.5c34.667 16 69.334 24 104.001 24c13.333 0 27 -1 41 -3c-2.66699 48.667 -22 90.334 -58 125.001
s-79 52 -129 52c-61.333 0 -112.333 -24.667 -153 -74c18.667 -34.667 28 -72 28 -112c0 -65.333 -22.5 -121.166 -67.5 -167.499s-99.5 -69.5 -163.5 -69.5c-64.667 0 -119.834 23.167 -165.501 69.5s-68.5 102.166 -68.5 167.499c0 64.667 22.5 120.334 67.5 167.001
s99.5 70 163.5 70c68.667 0 127.334 -26.667 176.001 -80c47.333 53.333 108.333 80 183 80c65.333 0 121.166 -23 167.499 -69s69.5 -102 69.5 -168z" />
    <glyph glyph-name="u107C" unicode="&#x107c;" horiz-adv-x="990" 
d="M865 126c-41.333 50 -94.334 75.001 -159.001 75.001c-24 0 -50.667 -6.83301 -80 -20.5s-55.666 -33.5 -78.999 -59.5c44.667 -56.667 97.667 -85 159 -85c30.667 0 61 7.66699 91 23s52.667 37.666 68 66.999zM440.999 121.001
c-21.333 24 -46.332 43.332 -74.999 57.999s-56.334 22 -83.001 22c-64 0 -117.333 -25 -160 -75c16 -29.333 38.667 -51.666 68 -66.999s60 -23 92 -23c64 0 116.667 28.333 158 85zM928 129c-3.33301 -11.333 -9.33398 -23.667 -18.001 -37s-21.167 -28.833 -37.5 -46.5
s-39.166 -32.167 -68.499 -43.5s-62 -17 -98 -17c-46 0 -87.667 11.667 -125 35s-66 54.666 -86 93.999c-20 -38.667 -49 -69.834 -87 -93.501s-79.667 -35.5 -125 -35.5c-29.333 0 -56.5 4 -81.5 12s-45.333 17.667 -61 29s-29.5 24.333 -41.5 39
s-20.667 26.834 -26 36.501s-9.33301 18.834 -12 27.501c47.333 82 121.333 123 222 123c68.667 0 128.667 -26.667 180 -80c4 12 6 27.333 6 46c0 53.333 -18.333 98.333 -55 135s-80.334 55 -131.001 55c-35.333 0 -69 -9.83301 -101 -29.5s-57.333 -46.834 -76 -81.501
l-43 25c18 43.333 47.5 77 88.5 101s84.833 36 131.5 36c45.333 0 87 -12 125 -36s67 -55.667 87 -95c20 39.333 48.833 71 86.5 95s79.167 36 124.5 36c46.667 0 90.667 -12 132 -36s71 -57.667 89 -101l-44 -25c-18 34.667 -43 61.834 -75 81.501s-66 29.5 -102 29.5
c-51.333 0 -95.166 -18.167 -131.499 -54.5s-54.5 -81.5 -54.5 -135.5c0 -16.667 2 -32 6 -46c27.333 29.333 55 50 83 62s60.333 18 97 18c100.667 0 174.667 -41 222 -123z" />
    <glyph glyph-name="u107D" unicode="&#x107d;" horiz-adv-x="1002" 
d="M883 127c-36 17.333 -68.332 26 -96.999 26c-66.667 0 -120.334 -31.667 -161.001 -95c30.667 -14.667 60.667 -22 90 -22c77.333 0 133.333 30.333 168 91zM943.001 153c-0.666992 -13.333 -5.83789 -28.8389 -15.5049 -46.5059s-23.167 -35.834 -40.5 -54.501
s-41.166 -34.5 -71.499 -47.5s-63.833 -19.5 -100.5 -19.5c-46 0 -88 12 -126 36s-67 56 -87 96c-19.333 -41.333 -47.666 -73.666 -84.999 -96.999s-79 -35 -125 -35c-66 0 -120.833 19.5 -164.5 58.5s-65.5 80.5 -65.5 124.5c0 28.667 7.33301 52.667 22 72
s30.667 32.833 48 40.5s33.333 16.5 48 26.5s22 20.667 22 32c0 22.667 -5.16699 39.334 -15.5 50.001s-22.166 16 -35.499 16c-10 0 -19.167 -3 -27.5 -9s-14.166 -13 -17.499 -21l-44 27c6.66699 14 18.167 26.5 34.5 37.5s33.833 16.5 52.5 16.5
c28.667 0 53.167 -10.5 73.5 -31.5s30.5 -49.5 30.5 -85.5c0 -21.333 -7.33301 -39.666 -22 -54.999s-30.667 -26.666 -48 -33.999s-33.333 -18 -48 -32s-22 -30.667 -22 -50c0 -7.33301 3.5 -17.666 10.5 -30.999s17 -27.833 30 -43.5s31.833 -29.167 56.5 -40.5
s52 -17 82 -17c52 0 96 19.167 132 57.5s54 87.166 54 146.499c0 70.667 -25.333 128.667 -76 174l30 43c38 -29.333 65 -66.666 81 -111.999c21.333 34.667 50 62.334 86 83.001s74.667 31 116 31c46 0 89.833 -12.167 131.5 -36.5s71.5 -57.833 89.5 -100.5l-44 -25
c-18 34.667 -43 61.834 -75 81.501s-66 29.5 -102 29.5c-50 0 -93.5 -17.667 -130.5 -53s-55.5 -77.333 -55.5 -126c0 -53.333 17.667 -99.333 53 -138c22 33.333 51.333 60.5 88 81.5s75.334 31.5 116.001 31.5c46 0 98.333 -17 157 -51z" />
    <glyph glyph-name="u107E" unicode="&#x107e;" horiz-adv-x="1002" 
d="M883 127c-36 17.333 -68.332 26 -96.999 26c-66.667 0 -120.334 -31.667 -161.001 -95c30.667 -14.667 60.667 -22 90 -22c77.333 0 133.333 30.333 168 91zM943.001 153c-0.666992 -13.333 -5.83789 -28.8389 -15.5049 -46.5059s-23.167 -35.834 -40.5 -54.501
s-41.166 -34.5 -71.499 -47.5s-63.833 -19.5 -100.5 -19.5c-46 0 -88 12 -126 36s-67 56 -87 96c-19.333 -41.333 -47.666 -73.666 -84.999 -96.999s-79 -35 -125 -35c-66 0 -120.833 19.5 -164.5 58.5s-65.5 80.5 -65.5 124.5c0 28.667 7.33301 52.667 22 72
s30.667 32.833 48 40.5s33.333 16.5 48 26.5s22 20.667 22 32c0 22.667 -5.16699 39.334 -15.5 50.001s-22.166 16 -35.499 16c-10 0 -19.167 -3 -27.5 -9s-14.166 -13 -17.499 -21l-44 27c6.66699 14 18.167 26.5 34.5 37.5s33.833 16.5 52.5 16.5
c28.667 0 53.167 -10.5 73.5 -31.5s30.5 -49.5 30.5 -85.5c0 -21.333 -7.33301 -39.666 -22 -54.999s-30.667 -26.666 -48 -33.999s-33.333 -18 -48 -32s-22 -30.667 -22 -50c0 -7.33301 3.5 -17.666 10.5 -30.999s17 -27.833 30 -43.5s31.833 -29.167 56.5 -40.5
s52 -17 82 -17c52 0 96 19.167 132 57.5s54 87.166 54 146.499c0 70.667 -25.333 128.667 -76 174l30 43c38 -29.333 65 -66.666 81 -111.999c21.333 34.667 50 62.334 86 83.001s74.667 31 116 31c46 0 89.833 -12.167 131.5 -36.5s71.5 -57.833 89.5 -100.5l-44 -25
c-18 34.667 -43 61.834 -75 81.501s-66 29.5 -102 29.5c-50 0 -93.5 -17.667 -130.5 -53s-55.5 -77.333 -55.5 -126c0 -53.333 17.667 -99.333 53 -138c22 33.333 51.333 60.5 88 81.5s75.334 31.5 116.001 31.5c46 0 98.333 -17 157 -51zM736.997 -450.006h-134v51h83v304
h51v-355z" />
    <glyph glyph-name="u107F" unicode="&#x107f;" horiz-adv-x="585" 
d="M214 259c0 40.667 -12.667 80.333 -38 119c-46.667 -45.333 -70 -91.333 -70 -138c0 -48.667 12 -89.667 36 -123c48 36 72 83.333 72 142zM529 239.999c0 -75.333 -22.8311 -136.664 -68.498 -183.997s-101.834 -71 -168.501 -71s-122.834 23.667 -168.501 71
s-68.5 108.666 -68.5 183.999c0 43.333 10.5 82 31.5 116s51.833 67.667 92.5 101c57.333 -56 86 -121.333 86 -196s-29 -136.334 -87 -185.001c31.333 -26.667 69.333 -40 114 -40c52 0 96 19.167 132 57.5s54 87.166 54 146.499c0 69.333 -25.667 127.333 -77 174l30 43
c65.333 -52.667 98 -125 98 -217z" />
    <glyph glyph-name="u1080" unicode="&#x1080;" horiz-adv-x="997" 
d="M373 58c-18 28.667 -40.833 51.667 -68.5 69s-58.167 26 -91.5 26c-32 0 -64.667 -8.66699 -98 -26c34 -60.667 90 -91 168 -91c28.667 0 58.667 7.33301 90 22zM942 222c0 -65.333 -22.832 -121.164 -68.499 -167.497s-100.5 -69.5 -164.5 -69.5
c-42 0 -81.667 13.167 -119 39.5s-67 60.5 -89 102.5c-19.333 -42.667 -48.666 -77 -87.999 -103s-82.666 -39 -129.999 -39c-36.667 0 -70.167 6.33301 -100.5 19s-54 28.5 -71 47.5s-30.333 37.333 -40 55s-15.167 33.167 -16.5 46.5c60 34 111.667 51 155 51
c40 0 78.667 -10.167 116 -30.5s67.666 -47.833 90.999 -82.5c34.667 39.333 52 83 52 131c0 47.333 -17 90.166 -51 128.499s-79 57.5 -135 57.5c-35.333 0 -69 -9.83301 -101 -29.5s-57.333 -46.834 -76 -81.501l-43 25c18 43.333 47.5 77 88.5 101s84.833 36 131.5 36
c64 0 119 -22.667 165 -68s70 -99.666 72 -162.999c6 -49.333 27.667 -93.666 65 -132.999s78.666 -59 123.999 -59c50.667 0 93.667 18.167 129 54.5s53 80.166 53 131.499s-17.667 95.166 -53 131.499s-78.333 54.5 -129 54.5c-18 0 -35 -3.66699 -51 -11l-19 47
c23.333 10 46.666 15 69.999 15c64 0 118.833 -23.333 164.5 -70s68.5 -102.334 68.5 -167.001z" />
    <glyph glyph-name="u1081" unicode="&#x1081;" horiz-adv-x="567" 
d="M513 322l-44 -25c-18 34.667 -43 61.834 -75 81.501s-66 29.5 -102 29.5c-50.667 0 -94.334 -18.333 -131.001 -55s-55 -80.334 -55 -131.001c0 -48.667 16.333 -90.667 49 -126s73 -55.333 121 -60l48 135l48 -17l-216 -604l-126 45l18 48l76 -27l134 372
c-58 7.33301 -106.333 33.166 -145 77.499s-58 96.5 -58 156.5c0 64.667 23.333 120.334 70 167.001s102.334 70 167.001 70c46.667 0 90.667 -12 132 -36s71 -57.667 89 -101z" />
    <glyph glyph-name="u1082" unicode="&#x1082;" horiz-adv-x="426" 
d="M469 -389c-11.333 -23.333 -29.333 -41.834 -54 -55.501s-52 -20.5 -82 -20.5c-47.333 0 -89 17.333 -125 52s-54 78.334 -54 131.001c0 55.333 20 100.333 60 135s81 52 123 52v-39c-10 0 -22.5 -2.83301 -37.5 -8.5s-30.833 -13.834 -47.5 -24.501
s-30.667 -26.167 -42 -46.5s-17 -43.166 -17 -68.499c0 -42 14.333 -76.333 43 -103s61 -40 97 -40c47.333 0 83.333 20 108 60z" />
    <glyph glyph-name="u1083" unicode="&#x1083;" horiz-adv-x="283" 
d="M323 -450h-175v843h-128v51h176v-843h127v-51z" />
    <glyph glyph-name="u1084" unicode="&#x1084;" horiz-adv-x="534" 
d="M478 115c0 -39.333 -18.333 -70.8281 -55 -94.4951s-88.667 -35.5 -156 -35.5c-70.667 0 -123.667 12.667 -159 38s-53 58.666 -53 99.999c0 24 7.66699 45.167 23 63.5s35.666 30.166 60.999 35.499c-25.333 5.33301 -45.666 17.166 -60.999 35.499s-23 39.5 -23 63.5
c0 40.667 17.667 73.834 53 99.501s88.333 38.5 159 38.5c68 0 120.167 -12 156.5 -36s54.5 -55.667 54.5 -95l-46 -18c0 65.333 -55 98 -165 98c-44.667 0 -82.667 -6.83301 -114 -20.5s-47 -35.834 -47 -66.501c0 -42 47 -66.667 141 -74v-51
c-94 -6.66699 -141 -31 -141 -73c0 -30.667 15.667 -52.834 47 -66.501s69.333 -20.5 114 -20.5c110 1.33301 165 33.666 165 96.999z" />
    <glyph glyph-name="u1085" unicode="&#x1085;" 
d="M-55 639c0 -30.667 -14.167 -55.166 -42.5 -73.499s-68.833 -27.5 -121.5 -27.5c-54.667 0 -95.5 10 -122.5 30s-40.5 45.667 -40.5 77c0 18.667 6 35.167 18 49.5s28 23.166 48 26.499c-20 4 -36 13.167 -48 27.5s-18 30.833 -18 49.5c0 32 13.5 57.667 40.5 77
s67.833 29 122.5 29c52.667 0 93.167 -9 121.5 -27s42.5 -42.333 42.5 -73l-36 -15c0 50.667 -42.667 76 -128 76c-34.667 0 -64 -5.16699 -88 -15.5s-36 -27.5 -36 -51.5c0 -18 11.167 -32 33.5 -42s47.5 -15 75.5 -15v-39c-27.333 -1.33301 -52.333 -6.83301 -75 -16.5
s-34 -23.167 -34 -40.5c0 -45.333 41.333 -68 124 -68c39.333 0 70.5 6.5 93.5 19.5s34.5 32.167 34.5 57.5z" />
    <glyph glyph-name="u1086" unicode="&#x1086;" 
d="M-94 792c0 18.667 -7.16797 35.5 -21.501 50.5s-32.166 22.5 -53.499 22.5s-39 -7.5 -53 -22.5s-21 -31.833 -21 -50.5s7.16699 -36.667 21.5 -54s31.833 -26 52.5 -26c22 0 40 8 54 24s21 34.667 21 56zM-55.001 792v-6c0 -59.333 -15.167 -111 -45.5 -155
s-63.833 -75 -100.5 -93l-16 12c21.333 14 40 32.833 56 56.5s27.667 47.5 35 71.5c-14.667 -3.33301 -29 -5 -43 -5c-30.667 0 -57.167 11.667 -79.5 35s-33.5 51.333 -33.5 84c0 31.333 11.167 57.833 33.5 79.5s48.833 32.5 79.5 32.5c32 0 59 -10.667 81 -32
s33 -48 33 -80z" />
    <glyph glyph-name="u1087" unicode="&#x1087;" horiz-adv-x="258" 
d="M175 76c0 12 -4.33301 22.833 -13 32.5s-19.667 14.5 -33 14.5c-14 0 -25.333 -4.83301 -34 -14.5s-13 -20.5 -13 -32.5s4.33301 -23 13 -33s20 -15 34 -15s25.167 4.5 33.5 13.5s12.5 20.5 12.5 34.5zM204 76v-3c-0.666992 -39.333 -11 -73.5 -31 -102.5
s-41.667 -48.833 -65 -59.5l-11 8c29.333 18.667 49 47 59 85c-8 -2.66699 -17 -4 -27 -4c-20.667 0 -38.334 7.5 -53.001 22.5s-22 32.833 -22 53.5s7.33301 38.334 22 53.001s32.334 22 53.001 22c20 0 37.5 -7.33301 52.5 -22s22.5 -32.334 22.5 -53.001z" />
    <glyph glyph-name="u1088" unicode="&#x1088;" horiz-adv-x="258" 
d="M175 384c0 11.333 -4.33301 21.833 -13 31.5s-19.667 14.5 -33 14.5s-24.5 -4.83301 -33.5 -14.5s-13.5 -20.167 -13.5 -31.5c0 -12 4.5 -23 13.5 -33s20.167 -15 33.5 -15s24.333 5 33 15s13 21 13 33zM204 384c0 -21.333 -7.5 -39.5 -22.5 -54.5
s-32.5 -22.5 -52.5 -22.5s-37.5 7.5 -52.5 22.5s-22.5 33.167 -22.5 54.5c0 20.667 7.5 38.334 22.5 53.001s32.5 22 52.5 22s37.5 -7.33301 52.5 -22s22.5 -32.334 22.5 -53.001zM175 76c0 12 -4.33301 22.833 -13 32.5s-19.667 14.5 -33 14.5s-24.5 -4.83301 -33.5 -14.5
s-13.5 -20.5 -13.5 -32.5c0 -11.333 4.5 -22.166 13.5 -32.499s20.167 -15.5 33.5 -15.5s24.333 5.16699 33 15.5s13 21.166 13 32.499zM204 69c-0.666992 -36.667 -11.3359 -70 -32.0029 -100s-42 -49.333 -64 -58l-11 8c28.667 18.667 48.334 47 59.001 85
c-8 -2.66699 -17 -4 -27 -4c-20 0 -37.5 7.5 -52.5 22.5s-22.5 32.833 -22.5 53.5c0 21.333 7.33301 39.166 22 53.499s32.334 21.5 53.001 21.5s38.334 -7.66699 53.001 -23s22 -34.666 22 -57.999v-1z" />
    <glyph glyph-name="u1089" unicode="&#x1089;" horiz-adv-x="258" 
d="M175 76c0 12 -4.33301 22.833 -13 32.5s-19.667 14.5 -33 14.5c-14 0 -25.333 -4.83301 -34 -14.5s-13 -20.5 -13 -32.5s4.33301 -23 13 -33s20 -15 34 -15c13.333 0 24.333 5 33 15s13 21 13 33zM204 76c0 -20.667 -7.5 -38.5 -22.5 -53.5s-32.5 -22.5 -52.5 -22.5
c-20.667 0 -38.334 7.5 -53.001 22.5s-22 32.833 -22 53.5s7.33301 38.334 22 53.001s32.334 22 53.001 22c20 0 37.5 -7.33301 52.5 -22s22.5 -32.334 22.5 -53.001z" />
    <glyph glyph-name="u108A" unicode="&#x108a;" horiz-adv-x="351" 
d="M178 75c0 13.333 -5 24.333 -15 33s-21 13 -33 13s-22.667 -4.33301 -32 -13s-14 -19.667 -14 -33c0 -14 4.66699 -25.333 14 -34s20 -13 32 -13s23 4.33301 33 13s15 20 15 34zM295 96c-10.667 -24 -30.333 -45.833 -59 -65.5s-63 -29.834 -103 -30.501h-3
c-20.667 0 -38.334 7.33301 -53.001 22s-22 32.334 -22 53.001c0 20 7.33301 37.5 22 52.5s32.334 22.5 53.001 22.5s38.667 -7.5 54 -22.5s23 -32.5 23 -52.5c0 -8 -1.66699 -17 -5 -27c37.333 8.66699 66 28 86 58zM178.001 384c0 13.333 -5 24.333 -15 33s-21 13 -33 13
s-22.667 -4.33301 -32 -13s-14 -19.667 -14 -33c0 -14 4.66699 -25.333 14 -34s20 -13 32 -13s23 4.33301 33 13s15 20 15 34zM295.001 405c-10.667 -24 -30.333 -45.833 -59 -65.5s-63 -29.834 -103 -30.501h-3c-20.667 0 -38.334 7.33301 -53.001 22
s-22 32.334 -22 53.001c0 20 7.33301 37.5 22 52.5s32.334 22.5 53.001 22.5s38.667 -7.5 54 -22.5s23 -32.5 23 -52.5c0 -8 -1.66699 -17 -5 -27c37.333 8.66699 66 28 86 58z" />
    <glyph glyph-name="u108B" unicode="&#x108b;" horiz-adv-x="258" 
d="M175 229c0 11.333 -4.33301 21.833 -13 31.5s-19.667 14.5 -33 14.5s-24.5 -4.83301 -33.5 -14.5s-13.5 -20.167 -13.5 -31.5c0 -12 4.5 -23 13.5 -33s20.167 -15 33.5 -15s24.333 5 33 15s13 21 13 33zM204 229c0 -21.333 -7.5 -39.5 -22.5 -54.5
s-32.5 -22.5 -52.5 -22.5s-37.5 7.5 -52.5 22.5s-22.5 33.167 -22.5 54.5c0 20.667 7.5 38.334 22.5 53.001s32.5 22 52.5 22s37.5 -7.33301 52.5 -22s22.5 -32.334 22.5 -53.001z" />
    <glyph glyph-name="u108C" unicode="&#x108c;" horiz-adv-x="462" 
d="M379 229c0 11.333 -4.33301 21.833 -13 31.5s-19.667 14.5 -33 14.5s-24.5 -4.83301 -33.5 -14.5s-13.5 -20.167 -13.5 -31.5c0 -12 4.5 -23 13.5 -33s20.167 -15 33.5 -15s24.333 5 33 15s13 21 13 33zM408 229c0 -21.333 -7.5 -39.5 -22.5 -54.5
s-32.5 -22.5 -52.5 -22.5s-37.5 7.5 -52.5 22.5s-22.5 33.167 -22.5 54.5c0 20.667 7.5 38.334 22.5 53.001s32.5 22 52.5 22s37.5 -7.33301 52.5 -22s22.5 -32.334 22.5 -53.001zM175 229c0 11.333 -4.33301 21.833 -13 31.5s-19.667 14.5 -33 14.5
s-24.5 -4.83301 -33.5 -14.5s-13.5 -20.167 -13.5 -31.5c0 -12 4.5 -23 13.5 -33s20.167 -15 33.5 -15s24.333 5 33 15s13 21 13 33zM204 229c0 -21.333 -7.5 -39.5 -22.5 -54.5s-32.5 -22.5 -52.5 -22.5s-37.5 7.5 -52.5 22.5s-22.5 33.167 -22.5 54.5
c0 20.667 7.5 38.334 22.5 53.001s32.5 22 52.5 22s37.5 -7.33301 52.5 -22s22.5 -32.334 22.5 -53.001z" />
    <glyph glyph-name="u108D" unicode="&#x108d;" horiz-adv-x="580" 
d="M525 -135h-470v51h470v-51z" />
    <glyph glyph-name="u108E" unicode="&#x108e;" horiz-adv-x="576" 
d="M429 337c-37.333 47.333 -85 71 -143 71c-55.333 0 -102.333 -23.667 -141 -71c42 -42.667 89 -64 141 -64c53.333 0 101 21.333 143 64zM469 222c0 24.667 -4.33203 48 -12.999 70c-46.667 -46.667 -103.334 -70 -170.001 -70c-64.667 0 -120 23 -166 69
c-9.33301 -24 -14 -47 -14 -69c0 -51.333 17.667 -95.166 53 -131.499s77.666 -54.5 126.999 -54.5c50.667 0 93.834 18.167 129.501 54.5s53.5 80.166 53.5 131.499zM520.001 222c0 -65.333 -22.8301 -121.169 -68.4971 -167.502s-100.834 -69.5 -165.501 -69.5
s-119.334 23 -164.001 69s-67 102 -67 168c0 64.667 22.5 120.334 67.5 167.001s99.5 70 163.5 70c65.333 0 120.666 -23.167 165.999 -69.5s68 -102.166 68 -167.499z" />
    <glyph glyph-name="u108F" unicode="&#x108f;" horiz-adv-x="258" 
d="M175 384c0 12 -4.33301 22.667 -13 32s-19.667 14 -33 14c-14 0 -25.333 -4.66699 -34 -14s-13 -20 -13 -32s4.33301 -23 13 -33s20 -15 34 -15c13.333 0 24.333 5 33 15s13 21 13 33zM204 384c0 -20.667 -7.5 -38.667 -22.5 -54s-32.5 -23 -52.5 -23
c-20.667 0 -38.334 7.5 -53.001 22.5s-22 33.167 -22 54.5c0 20.667 7.33301 38.334 22 53.001s32.334 22 53.001 22c20 0 37.5 -7.33301 52.5 -22s22.5 -32.334 22.5 -53.001zM175 76c0 12 -4.33301 22.833 -13 32.5s-19.667 14.5 -33 14.5
c-14 0 -25.333 -4.83301 -34 -14.5s-13 -20.5 -13 -32.5s4.33301 -23 13 -33s20 -15 34 -15c13.333 0 24.333 5 33 15s13 21 13 33zM204 76c0 -20.667 -7.50098 -38.498 -22.501 -53.498s-32.5 -22.5 -52.5 -22.5c-10 0 -19 1.33301 -27 4c8.66699 -38 28 -66.333 58 -85
l-10 -8c-24 10.667 -46 30.167 -66 58.5s-30 61.5 -30 99.5v1c0 23.333 7.33301 42.666 22 57.999s32.334 23 53.001 23c20 0 37.5 -7.33301 52.5 -22s22.5 -32.334 22.5 -53.001z" />
    <glyph glyph-name="u1090" unicode="&#x1090;" horiz-adv-x="575" 
d="M469 -213v435c0 53.333 -17.333 97.666 -52 132.999s-78 53 -130 53s-95.333 -17.667 -130 -53s-52 -79.666 -52 -132.999v-435c0 -54.667 17.333 -99.334 52 -134.001s78 -52 130 -52s95.333 17.333 130 52s52 79.334 52 134.001zM520 -216
c0 -62 -21.167 -116.5 -63.5 -163.5s-98.833 -70.5 -169.5 -70.5c-70 0 -126.167 23.5 -168.5 70.5s-63.5 101.5 -63.5 163.5v438c0 61.333 21.167 116.166 63.5 164.499s98.5 72.5 168.5 72.5c70.667 0 127.167 -24.167 169.5 -72.5s63.5 -103.166 63.5 -164.499v-438z" />
    <glyph glyph-name="u1091" unicode="&#x1091;" horiz-adv-x="605" 
d="M550 -319l-273 -131v823l-202 -97l-20 46l273 131v-823l202 97z" />
    <glyph glyph-name="u1092" unicode="&#x1092;" horiz-adv-x="584" 
d="M529 222c0 -39.333 -7.83301 -76 -23.5 -110s-35.834 -63.667 -60.501 -89s-52 -49.833 -82 -73.5l-90.5 -71c-30.333 -23.667 -57.833 -48 -82.5 -73s-44.834 -54.5 -60.501 -88.5s-23.5 -70.333 -23.5 -109v-58h-51v53c0 45.333 7.83301 87.166 23.5 125.499
s35.834 71.333 60.501 99s52 53.834 82 78.501l90.5 71c30.333 22.667 57.833 45.667 82.5 69s44.834 50 60.501 80s23.5 62 23.5 96c0 48 -18.333 91.167 -55 129.5s-79.334 57.5 -128.001 57.5c-52 0 -96.5 -19.333 -133.5 -58s-55.5 -91.667 -55.5 -159h-51v266h50v-95
c19.333 27.333 45.5 50 78.5 68s70.167 27 111.5 27c64.667 0 119.834 -23.167 165.501 -69.5s68.5 -101.833 68.5 -166.5z" />
    <glyph glyph-name="u1093" unicode="&#x1093;" horiz-adv-x="654" 
d="M599 -450l-51.0029 0.000976562v222c0 53.333 -17.333 97.666 -52 132.999s-78 53 -130 53c-7.33301 0 -16.666 -0.833008 -27.999 -2.5s-27.666 -6.33398 -48.999 -14.001s-39.666 -18.167 -54.999 -31.5l-126 -360h-53l320 899h50l-164 -463c34 15.333 69 23 105 23
c70.667 0 127.167 -24.167 169.5 -72.5s63.5 -103.166 63.5 -164.499v-222z" />
    <glyph glyph-name="u1094" unicode="&#x1094;" horiz-adv-x="720" 
d="M665 -319l-273 -131v751l-284 -751h-53l338 899h50v-819l202 97z" />
    <glyph glyph-name="u1095" unicode="&#x1095;" horiz-adv-x="647" 
d="M478 -194v167h-139c-75.333 0 -133 -17.333 -173 -52s-60 -79.667 -60 -135c0 -48.667 18.5 -92 55.5 -130s79.5 -57 127.5 -57c52 0 96.5 19.5 133.5 58.5s55.5 88.5 55.5 148.5zM592 -27l-63.002 -0.000976562v-167c0 -75.333 -23.167 -136.833 -69.5 -184.5
s-103.166 -71.5 -170.499 -71.5c-65.333 0 -120.666 23.167 -165.999 69.5s-68 101.833 -68 166.5c0 68.667 24.5 125.334 73.5 170.001s119.167 67 210.5 67h139v435h51v-435h63v-50z" />
    <glyph glyph-name="u1096" unicode="&#x1096;" horiz-adv-x="647" 
d="M478 35v167c0 60 -18.5 109.5 -55.5 148.5s-81.5 58.5 -133.5 58.5c-50 0 -93 -18.167 -129 -54.5s-54 -80.5 -54 -132.5c0 -56 20 -101.167 60 -135.5s97.667 -51.5 173 -51.5h139zM591 -15l-62 -0.000976562v-435h-51v435h-139c-91.333 0 -161.5 22.333 -210.5 67
s-73.5 101.334 -73.5 170.001c0 64.667 22.833 120.167 68.5 166.5s100.834 69.5 165.501 69.5c67.333 0 124.166 -23.833 170.499 -71.5s69.5 -109.167 69.5 -184.5v-167h62v-50z" />
    <glyph glyph-name="u1097" unicode="&#x1097;" horiz-adv-x="526" 
d="M471 -450h-366l250 843h-300v51h366l-250 -843h300v-51z" />
    <glyph glyph-name="u1098" unicode="&#x1098;" horiz-adv-x="584" 
d="M476 -212c0 52.667 -18.832 98.5 -56.499 137.5s-79.834 58.5 -126.501 58.5c-45.333 0 -86.833 -19.667 -124.5 -59s-56.5 -85 -56.5 -137c0 -53.333 18.333 -97.833 55 -133.5s79 -53.5 127 -53.5s90.333 18.167 127 54.5s55 80.5 55 132.5zM527.001 -212
c0 -60.667 -22.166 -115.502 -66.499 -164.502s-99.833 -73.5 -166.5 -73.5c-66 0 -121.167 24.5 -165.5 73.5s-66.5 103.833 -66.5 164.5c0 45.333 11.833 87.833 35.5 127.5s58.167 68.834 103.5 87.501c-16 6.66699 -31.333 15.334 -46 26.001s-30.167 25 -46.5 43
s-29.333 41.5 -39 70.5s-14.5 61.5 -14.5 97.5c0 90.667 32.667 163 98 217l30 -43c-51.333 -46.667 -77 -104.667 -77 -174c0 -59.333 18 -108.166 54 -146.499s80 -57.5 132 -57.5s96 19.167 132 57.5s54 87.166 54 146.499c0 69.333 -25.333 127.333 -76 174l30 43
c64.667 -51.333 97 -123.666 97 -216.999c0 -36 -5 -68.667 -15 -98s-23.167 -53 -39.5 -71s-32 -32.5 -47 -43.5s-29.833 -19.167 -44.5 -24.5c47.333 -18.667 83.166 -47.834 107.499 -87.501s36.5 -82.167 36.5 -127.5z" />
    <glyph glyph-name="u1099" unicode="&#x1099;" horiz-adv-x="584" 
d="M476 219c0 52 -18.334 96.167 -55.001 132.5s-79 54.5 -127 54.5s-90.333 -17.833 -127 -53.5s-55 -80.167 -55 -133.5c0 -52 18.833 -97.667 56.5 -137s79.167 -59 124.5 -59c46.667 0 88.834 19.5 126.501 58.5s56.5 84.833 56.5 137.5zM528.999 -233
c0 -93.333 -32.334 -165.667 -97.001 -217l-30 43c50.667 46.667 76 104.667 76 174c0 59.333 -18 108.166 -54 146.499s-80 57.5 -132 57.5s-96 -19.167 -132 -57.5s-54 -87.166 -54 -146.499c0 -69.333 25.667 -127.333 77 -174l-30 -43
c-65.333 53.333 -98 125.666 -98 216.999c0 36 4.83301 68.5 14.5 97.5s22.667 52.5 39 70.5s31.833 32.333 46.5 43s30 19.334 46 26.001c-45.333 18.667 -79.833 47.834 -103.5 87.501s-35.5 82.167 -35.5 127.5c0 60.667 22.167 115.5 66.5 164.5s99.5 73.5 165.5 73.5
c66.667 0 122.167 -24.5 166.5 -73.5s66.5 -103.833 66.5 -164.5c0 -45.333 -12.167 -87.833 -36.5 -127.5s-60.166 -68.834 -107.499 -87.501c14.667 -5.33301 29.5 -13.5 44.5 -24.5s30.667 -25.5 47 -43.5s29.5 -41.667 39.5 -71s15 -62 15 -98z" />
    <glyph glyph-name="u109A" unicode="&#x109a;" horiz-adv-x="258" 
d="M175 384c0 11.333 -4.33301 21.833 -13 31.5s-19.667 14.5 -33 14.5s-24.5 -4.83301 -33.5 -14.5s-13.5 -20.167 -13.5 -31.5c0 -12 4.5 -23 13.5 -33s20.167 -15 33.5 -15s24.333 5 33 15s13 21 13 33zM204 384c0 -21.333 -7.5 -39.5 -22.5 -54.5
s-32.5 -22.5 -52.5 -22.5s-37.5 7.5 -52.5 22.5s-22.5 33.167 -22.5 54.5c0 20.667 7.5 38.334 22.5 53.001s32.5 22 52.5 22s37.5 -7.33301 52.5 -22s22.5 -32.334 22.5 -53.001z" />
    <glyph glyph-name="u109B" unicode="&#x109b;" horiz-adv-x="258" 
d="M175 614c0 12 -4.33301 22.833 -13 32.5s-19.667 14.5 -33 14.5c-14 0 -25.333 -4.83301 -34 -14.5s-13 -20.5 -13 -32.5s4.33301 -23 13 -33s20 -15 34 -15c13.333 0 24.333 5 33 15s13 21 13 33zM204 614c0 -40 -10 -74.832 -30 -104.499s-42 -49.834 -66 -60.501
l-11 8c29.333 18.667 49 47 59 85c-8 -2.66699 -17 -4 -27 -4c-20.667 0 -38.334 7.5 -53.001 22.5s-22 32.833 -22 53.5s7.33301 38.334 22 53.001s32.334 22 53.001 22c20 0 37.5 -7.33301 52.5 -22s22.5 -32.334 22.5 -53.001z" />
    <glyph glyph-name="u109C" unicode="&#x109c;" horiz-adv-x="351" 
d="M178 75c0 14 -5 25.333 -15 34s-21 13 -33 13s-22.667 -4.33301 -32 -13s-14 -20 -14 -34c0 -13.333 4.66699 -24.333 14 -33s20 -13 32 -13s23 4.33301 33 13s15 19.667 15 33zM295 54l-7 -10.001c-20 30 -48.667 49.333 -86 58c3.33301 -10 5 -19 5 -27
c0 -20 -7.66699 -37.5 -23 -52.5s-33.333 -22.5 -54 -22.5s-38.334 7.5 -53.001 22.5s-22 32.5 -22 52.5c0 20.667 7.33301 38.334 22 53.001s32.334 22 53.001 22h1c40 0 74.667 -10 104 -30s49.333 -42 60 -66zM178 383.999c0 13.333 -4.83203 24.5 -14.499 33.5
s-20.834 13.5 -33.501 13.5c-12 0 -22.667 -4.33301 -32 -13s-14 -20 -14 -34c0 -13.333 4.66699 -24.333 14 -33s20 -13 32 -13s23 4.33301 33 13s15 19.667 15 33zM295.001 362.999l-7 -10.001c-20 30 -48.667 49.333 -86 58c3.33301 -10 5 -19 5 -27
c0 -20 -7.66699 -37.5 -23 -52.5s-33.333 -22.5 -54 -22.5s-38.334 7.5 -53.001 22.5s-22 32.5 -22 52.5c0 20.667 7.33301 38.334 22 53.001s32.334 22 53.001 22h1c40 0 74.667 -10 104 -30s49.333 -42 60 -66z" />
    <glyph glyph-name="u109D" unicode="&#x109d;" horiz-adv-x="55" 
d="M-100 347h-39.001v279c0 17.333 -7.16699 33.833 -21.5 49.5s-32.166 23.5 -53.499 23.5c-27.333 0 -48.666 -12.333 -63.999 -37l-30 27c22 32.667 53.333 49 94 49c31.333 0 58.166 -11 80.499 -33s33.5 -48.333 33.5 -79v-279z" />
    <glyph glyph-name="u109E" unicode="&#x109e;" horiz-adv-x="283" 
d="M186 614c0 11.333 -4.33301 21.833 -13 31.5s-19.667 14.5 -33 14.5s-24.5 -4.83301 -33.5 -14.5s-13.5 -20.167 -13.5 -31.5c0 -12 4.5 -23 13.5 -33s20.167 -15 33.5 -15s24.333 5 33 15s13 21 13 33zM215 614c0 -21.333 -7.5 -39.5 -22.5 -54.5
s-32.5 -22.5 -52.5 -22.5s-37.5 7.5 -52.5 22.5s-22.5 33.167 -22.5 54.5c0 20.667 7.5 38.334 22.5 53.001s32.5 22 52.5 22s37.5 -7.33301 52.5 -22s22.5 -32.334 22.5 -53.001zM323 -450h-175v843h-128v51h176v-843h127v-51z" />
    <glyph glyph-name="u109F" unicode="&#x109f;" horiz-adv-x="766" 
d="M696 -328c0 -42 -11.335 -72.8311 -34.002 -92.498s-47.334 -29.5 -74.001 -29.5c-26 0 -50.333 9.83301 -73 29.5s-34 50.5 -34 92.5v530c0 60 -18.5 109.333 -55.5 148s-81.5 58 -133.5 58s-96 -19.333 -132 -58s-54 -87.667 -54 -147
c0 -69.333 25.667 -127.333 77 -174l-30 -43c-65.333 52.667 -98 125 -98 217c0 74 22.833 134.833 68.5 182.5s101.834 71.5 168.501 71.5s123.334 -23.833 170.001 -71.5s70 -108.834 70 -183.501v-530c0 -47.333 18.667 -71 56 -71c38 0 57 23.667 57 71v718
c0 26 -6 49.667 -18 71s-27.167 38.666 -45.5 51.999l-59 42.5l-59 43c-18.333 13.667 -33.5 31.5 -45.5 53.5s-18 46.667 -18 74c0 49.333 17.833 91.333 53.5 126s77.834 52 126.501 52c34.667 0 63.334 -8.83301 86.001 -26.5s37.667 -38.167 45 -61.5l-47 -20
c-5.33301 17.333 -16 31.166 -32 41.499s-33.333 15.5 -52 15.5c-34.667 0 -64.834 -12.333 -90.501 -37s-38.5 -54.667 -38.5 -90c0 -21.333 6 -41 18 -59s27.167 -33 45.5 -45s38 -25.667 59 -41s40.667 -30.666 59 -45.999s33.5 -35.5 45.5 -60.5s18 -53.167 18 -84.5
v-718z" />
    <glyph glyph-name="u1700" unicode="&#x1700;" horiz-adv-x="636" 
d="M561 139c0 -16 -7.66699 -24 -23 -24c-16 0 -24 8 -24 24s8 24 24 24c15.333 0 23 -8 23 -24zM510 61c0 -16 -8 -24 -24 -24s-24 8 -24 24s8 24 24 24s24 -8 24 -24zM432 10c0 -14.667 -8 -22 -24 -22c-15.333 0 -23 7.33301 -23 22c0 16 7.66699 24 23 24
c16 0 24 -8 24 -24zM340 -8c0 -14.667 -7.33301 -22 -22 -22c-16 0 -24 7.33301 -24 22c0 15.333 8 23 24 23c14.667 0 22 -7.66699 22 -23zM250 10c0 -14.667 -8 -22 -24 -22s-24 7.33301 -24 22c0 16 8 24 24 24s24 -8 24 -24zM172 61c0 -16 -8 -24 -24 -24s-24 8 -24 24
s8 24 24 24s24 -8 24 -24zM120 139c0 -16 -7.66699 -24 -23 -24c-16 0 -24 8 -24 24s8 24 24 24c15.333 0 23 -8 23 -24zM102 231c0 -16 -8 -24 -24 -24c-15.333 0 -23.333 8 -24 24c1.33301 16 9.33301 24 24 24c16 0 24 -8 24 -24zM120 322c0 -16 -7.66699 -24 -23 -24
c-16 0 -24 8 -24 24c0 15.333 8 23 24 23c15.333 0 23 -7.66699 23 -23zM172 399c0 -16 -8 -24 -24 -24s-24 8 -24 24s8 24 24 24s24 -8 24 -24zM250 451c0 -16 -8 -24 -24 -24s-24 8 -24 24s8 24 24 24s24 -8 24 -24zM340 469c0 -16 -7.33301 -24 -22 -24
c-16 0 -24 8 -24 24s8 24 24 24c14.667 0 22 -8 22 -24zM432 451c0 -16 -8 -24 -24 -24c-15.333 0 -23 8 -23 24s7.66699 24 23 24c16 0 24 -8 24 -24zM510 399c0 -16 -8 -24 -24 -24s-24 8 -24 24s8 24 24 24s24 -8 24 -24zM561 322c0 -16 -7.66699 -24 -23 -24
c-16 0 -24 8 -24 24c0 15.333 8 23 24 23c15.333 0 23 -7.66699 23 -23zM580 231c0 -16 -8 -24 -24 -24s-24 8 -24 24s8 24 24 24s24 -8 24 -24z" />
    <glyph glyph-name="u200B" unicode="&#x200b;" 
 />
    <glyph glyph-name="u200C" unicode="&#x200c;" 
 />
    <glyph glyph-name="u200D" unicode="&#x200d;" 
 />
    <glyph glyph-name="endash" unicode="&#x2013;" horiz-adv-x="465" 
d="M465 196h-465v51h465v-51z" />
    <glyph glyph-name="emdash" unicode="&#x2014;" horiz-adv-x="824" 
d="M824 196h-824v51h824v-51z" />
    <glyph glyph-name="quoteleft" unicode="&#x2018;" horiz-adv-x="231" 
d="M191 679c0 -23.333 -7.83301 -42.5 -23.5 -57.5s-33.167 -22.5 -52.5 -22.5c-20 0 -37.5 7.16699 -52.5 21.5s-22.5 33.833 -22.5 58.5c0 48 10.833 91.667 32.5 131s45.167 63.666 70.5 72.999l14 -9c-44 -30.667 -66 -76.667 -66 -138c0 -14.667 1 -25 3 -31
c5.33301 4.66699 16.333 10.334 33 17.001s29.667 10 39 10c16.667 0 25 -17.667 25 -53z" />
    <glyph glyph-name="quoteright" unicode="&#x2019;" horiz-adv-x="233" 
d="M191 803c0 -48 -10.833 -91.667 -32.5 -131s-45.167 -63.666 -70.5 -72.999l-14 9c44 30.667 66 76.667 66 138c0 14.667 -1 25 -3 31c-5.33301 -4.66699 -16.333 -10.334 -33 -17.001s-29.667 -10 -39 -10c-16.667 0 -25 17.667 -25 53c0 23.333 7.83301 42.5 23.5 57.5
s33.167 22.5 52.5 22.5c20 0 37.5 -7.16699 52.5 -21.5s22.5 -33.833 22.5 -58.5z" />
    <glyph glyph-name="quotedblleft" unicode="&#x201c;" horiz-adv-x="464" 
d="M424 679c0 -23.333 -7.83301 -42.5 -23.5 -57.5s-33.167 -22.5 -52.5 -22.5c-20 0 -37.5 7.16699 -52.5 21.5s-22.5 33.833 -22.5 58.5c0 48 10.833 91.667 32.5 131s45.167 63.666 70.5 72.999l14 -9c-44 -30.667 -66 -76.667 -66 -138c0 -14.667 1 -25 3 -31
c5.33301 4.66699 16.333 10.334 33 17.001s29.667 10 39 10c16.667 0 25 -17.667 25 -53zM191 679c0 -23.333 -7.83301 -42.5 -23.5 -57.5s-33.167 -22.5 -52.5 -22.5c-20 0 -37.5 7.16699 -52.5 21.5s-22.5 33.833 -22.5 58.5c0 48 10.833 91.667 32.5 131
s45.167 63.666 70.5 72.999l14 -9c-44 -30.667 -66 -76.667 -66 -138c0 -14.667 1 -25 3 -31c5.33301 4.66699 16.333 10.334 33 17.001s29.667 10 39 10c16.667 0 25 -17.667 25 -53z" />
    <glyph glyph-name="quotedblright" unicode="&#x201d;" horiz-adv-x="464" 
d="M191 803c0 -48 -10.833 -91.667 -32.5 -131s-45.167 -63.666 -70.5 -72.999l-14 9c44 30.667 66 76.667 66 138c0 14.667 -1 25 -3 31c-5.33301 -4.66699 -16.333 -10.334 -33 -17.001s-29.667 -10 -39 -10c-16.667 0 -25 17.667 -25 53c0 23.333 7.83301 42.5 23.5 57.5
s33.167 22.5 52.5 22.5c20 0 37.5 -7.16699 52.5 -21.5s22.5 -33.833 22.5 -58.5zM424 803c0 -48 -10.833 -91.667 -32.5 -131s-45.167 -63.666 -70.5 -72.999l-14 9c44 30.667 66 76.667 66 138c0 14.667 -1 25 -3 31c-5.33301 -4.66699 -16.333 -10.334 -33 -17.001
s-29.667 -10 -39 -10c-16.667 0 -25 17.667 -25 53c0 23.333 7.83301 42.5 23.5 57.5s33.167 22.5 52.5 22.5c20 0 37.5 -7.16699 52.5 -21.5s22.5 -33.833 22.5 -58.5z" />
    <glyph glyph-name="u2060" unicode="&#x2060;" 
 />
    <glyph glyph-name="notequal" unicode="&#x2260;" horiz-adv-x="576" 
d="M520 111h-301l-132 -149l-35 38l98 111h-95v51h140l106 120h-246v51h291l122 136l39 -36l-90 -100h103v-51h-150l-106 -120h256v-51z" />
    <glyph glyph-name="circledash" unicode="&#x25cc;" horiz-adv-x="636" 
d="M561 139c0 -16 -7.66699 -24 -23 -24c-16 0 -24 8 -24 24s8 24 24 24c15.333 0 23 -8 23 -24zM510 61c0 -16 -8 -24 -24 -24s-24 8 -24 24s8 24 24 24s24 -8 24 -24zM432 10c0 -14.667 -8 -22 -24 -22c-15.333 0 -23 7.33301 -23 22c0 16 7.66699 24 23 24
c16 0 24 -8 24 -24zM340 -8c0 -14.667 -7.33301 -22 -22 -22c-16 0 -24 7.33301 -24 22c0 15.333 8 23 24 23c14.667 0 22 -7.66699 22 -23zM250 10c0 -14.667 -8 -22 -24 -22s-24 7.33301 -24 22c0 16 8 24 24 24s24 -8 24 -24zM172 61c0 -16 -8 -24 -24 -24s-24 8 -24 24
s8 24 24 24s24 -8 24 -24zM120 139c0 -16 -7.66699 -24 -23 -24c-16 0 -24 8 -24 24s8 24 24 24c15.333 0 23 -8 23 -24zM102 231c0 -16 -8 -24 -24 -24c-15.333 0 -23.333 8 -24 24c1.33301 16 9.33301 24 24 24c16 0 24 -8 24 -24zM120 322c0 -16 -7.66699 -24 -23 -24
c-16 0 -24 8 -24 24c0 15.333 8 23 24 23c15.333 0 23 -7.66699 23 -23zM172 399c0 -16 -8 -24 -24 -24s-24 8 -24 24s8 24 24 24s24 -8 24 -24zM250 451c0 -16 -8 -24 -24 -24s-24 8 -24 24s8 24 24 24s24 -8 24 -24zM340 469c0 -16 -7.33301 -24 -22 -24
c-16 0 -24 8 -24 24s8 24 24 24c14.667 0 22 -8 22 -24zM432 451c0 -16 -8 -24 -24 -24c-15.333 0 -23 8 -23 24s7.66699 24 23 24c16 0 24 -8 24 -24zM510 399c0 -16 -8 -24 -24 -24s-24 8 -24 24s8 24 24 24s24 -8 24 -24zM561 322c0 -16 -7.66699 -24 -23 -24
c-16 0 -24 8 -24 24c0 15.333 8 23 24 23c15.333 0 23 -7.66699 23 -23zM580 231c0 -16 -8 -24 -24 -24s-24 8 -24 24s8 24 24 24s24 -8 24 -24z" />
    <glyph glyph-name="uA92E" unicode="&#xa92e;" horiz-adv-x="548" 
d="M492 176c-47.333 24.667 -86.5 41.668 -117.5 51.001s-64.5 14 -100.5 14s-70.5 -4.83301 -103.5 -14.5s-71.5 -26.834 -115.5 -51.501v39c77.333 51.333 150.333 77 219 77c71.333 0 144 -25.667 218 -77v-38z" />
    <glyph glyph-name="uA9E0" unicode="&#xa9e0;" horiz-adv-x="575" 
d="M186 309c0 10 -3.5 18.6689 -10.5 26.002s-15.5 11 -25.5 11s-18.5 -3.66699 -25.5 -11s-10.5 -16 -10.5 -26c0 -10.667 3.5 -19.334 10.5 -26.001s15.5 -10 25.5 -10s18.5 3.66699 25.5 11s10.5 15.666 10.5 24.999zM373 58.002c-14.667 27.333 -36.8311 50 -66.498 68
s-60.834 27 -93.501 27s-65.334 -8.66699 -98.001 -26c34 -60.667 90 -91 168 -91c28.667 0 58.667 7.33301 90 22zM520.003 222.002c0 -65.333 -23.1689 -121.166 -69.502 -167.499s-102.166 -69.5 -167.499 -69.5c-57.333 0 -107.5 15.667 -150.5 47
s-68.833 71.666 -77.5 120.999c56.667 34 108.334 51 155.001 51c44 0 85.167 -11.167 123.5 -33.5s66.166 -48.833 83.499 -79.5c34.667 38 52 81.667 52 131c0 50.667 -18.167 94.334 -54.5 131.001s-80.166 55 -131.499 55c-36 0 -65.667 -7.66699 -89 -23
c28.667 -16.667 43 -42 43 -76c0 -24.667 -8.5 -45.5 -25.5 -62.5s-37.5 -25.5 -61.5 -25.5s-44.667 8.5 -62 25.5s-26 37.833 -26 62.5c0 19.333 4.66699 35.333 14 48c24 32 54.333 57 91 75s75.334 27 116.001 27c65.333 0 121.166 -23.333 167.499 -70
s69.5 -102.334 69.5 -167.001z" />
    <glyph glyph-name="uA9E1" unicode="&#xa9e1;" horiz-adv-x="940" 
d="M885 222c0 -64.667 -23.333 -120.334 -70 -167.001s-102 -70 -166 -70c-35.333 0 -69.5 7.83301 -102.5 23.5s-60.167 36.834 -81.5 63.501c-47.333 -58 -108 -87 -182 -87c-46.667 0 -90.5 11.833 -131.5 35.5s-70.5 57.167 -88.5 100.5l43 26
c18.667 -34.667 44 -61.834 76 -81.501s65.667 -29.5 101 -29.5c56 0 101 19.167 135 57.5s51 81.166 51 128.499c0 48.667 -17.333 92 -52 130c-22.667 -33.333 -52.5 -60.333 -89.5 -81s-76.167 -31 -117.5 -31c-40 0 -91.667 17 -155 51
c1.33301 13.333 6.83301 28.833 16.5 46.5s23 36 40 55s40.667 34.833 71 47.5s63.833 19 100.5 19c65.333 0 121.166 -24 167.499 -72s69.5 -101 69.5 -159c0 -40 -8 -76.333 -24 -109c38.667 -55.333 89.667 -83 153 -83c50.667 0 94.167 18.333 130.5 55
s54.5 80.334 54.5 131.001c0 52 -17.167 96 -51.5 132s-78.833 54 -133.5 54c-18.667 0 -36 -3 -52 -9l-19 46c22.667 9.33301 46.334 14 71.001 14c68 0 124.333 -23.167 169 -69.5s67 -102.166 67 -167.499zM373 385c-30.667 15.333 -60.667 23 -90 23
c-78 0 -134 -30.667 -168 -92c34.667 -16.667 67.334 -25 98.001 -25c32.667 0 63.167 8.33301 91.5 25s51.166 39.667 68.499 69z" />
    <glyph glyph-name="uA9E2" unicode="&#xa9e2;" horiz-adv-x="938" 
d="M513 222c0 -40 -8.66211 -76.667 -25.9951 -110c46 -50.667 98.667 -76 158 -76c50 0 93.667 17.667 131 53s56 77 56 125c-16 -2 -31.333 -3 -46 -3c-64.667 0 -118.167 20.667 -160.5 62s-71.5 96 -87.5 164c32 14.667 66 22 102 22
c65.333 0 122.166 -22.333 170.499 -67s72.5 -101.334 72.5 -170.001c0 -66 -23.333 -122 -70 -168s-102.667 -69 -168 -69c-72 0 -134.333 27.667 -187 83c-46.667 -55.333 -107.334 -83 -182.001 -83c-48 0 -92.5 12.167 -133.5 36.5s-70.167 57.5 -87.5 99.5l45 26
c18 -34.667 42.833 -61.834 74.5 -81.501s65.5 -29.5 101.5 -29.5c52.667 0 96.834 18.833 132.501 56.5s53.5 80.834 53.5 129.501c0 52 -17.833 96 -53.5 132s-79.834 54 -132.501 54c-36 0 -69.833 -10 -101.5 -30s-56.5 -47 -74.5 -81l-45 25
c19.333 42.667 49.166 76.167 89.499 100.5s84.166 36.5 131.499 36.5c65.333 0 121.166 -23.167 167.499 -69.5s69.5 -102.166 69.5 -167.499zM825.005 267c-10 43.333 -31.832 77.666 -65.499 102.999s-71.834 38 -114.501 38c-14.667 0 -27.667 -1.33301 -39 -4
c14.667 -43.333 37.5 -77.666 68.5 -102.999s67.833 -38 110.5 -38c14 0 27.333 1.33301 40 4z" />
    <glyph glyph-name="uA9E3" unicode="&#xa9e3;" horiz-adv-x="989" 
d="M183 305c0 10 -3.5 18.6689 -10.5 26.002s-15.5 11 -25.5 11s-18.5 -3.66699 -25.5 -11s-10.5 -16 -10.5 -26c0 -10.667 3.5 -19.334 10.5 -26.001s15.5 -10 25.5 -10s18.5 3.66699 25.5 11s10.5 15.666 10.5 24.999zM534 150.002c14 -34 36.832 -61.5 68.499 -82.5
s66.167 -31.5 103.5 -31.5c78.667 0 133.334 28.667 164.001 86c-44.667 18.667 -156.667 28 -336 28zM454.999 150.002c-179.333 0 -291.333 -9.33301 -336 -28c32 -57.333 86.667 -86 164 -86c37.333 0 71.833 10.5 103.5 31.5s54.5 48.5 68.5 82.5zM468.999 222.002
c0 50.667 -18.168 94.3359 -54.501 131.003s-80.166 55 -131.499 55c-36.667 0 -68.667 -8.66699 -96 -26c31.333 -15.333 47 -41 47 -77c0 -24.667 -8.5 -45.5 -25.5 -62.5s-37.5 -25.5 -61.5 -25.5s-44.667 8.5 -62 25.5s-26 37.833 -26 62.5
c0 19.333 4.66699 35.333 14 48c22 32 52.333 57.667 91 77s78.334 29 119.001 29c45.333 0 87 -12 125 -36s67 -55.667 87 -95c20 39.333 48.833 71 86.5 95s79.167 36 124.5 36c48.667 0 93.5 -12.333 134.5 -37s69.833 -58 86.5 -100l-44 -25
c-18.667 34 -43.834 61 -75.501 81s-65.5 30 -101.5 30c-50.667 0 -94.334 -18.333 -131.001 -55s-55 -80.334 -55 -131.001c0 -9.33301 0.333008 -16.333 1 -21c136 0 230.667 -2.83301 284 -8.5s96.333 -18.834 129 -39.501c-0.666992 -13.333 -5.83398 -29 -15.501 -47
s-23.167 -36.333 -40.5 -55s-41.166 -34.334 -71.499 -47.001s-63.833 -19 -100.5 -19c-45.333 0 -86.833 11.833 -124.5 35.5s-66.5 55.167 -86.5 94.5c-20 -39.333 -48.833 -70.833 -86.5 -94.5s-79.5 -35.5 -125.5 -35.5c-57.333 0 -107.5 15.667 -150.5 47
s-68.833 71.666 -77.5 120.999c37.333 20.667 81.833 33.834 133.5 39.501s144.834 8.5 279.501 8.5c0.666992 4.66699 1 11.667 1 21z" />
    <glyph glyph-name="uA9E4" unicode="&#xa9e4;" horiz-adv-x="997" 
d="M855 770l-26.002 -43.999c-31.333 20 -70.666 30 -117.999 30c-48 0 -90.5 -17.333 -127.5 -52s-55.5 -78.334 -55.5 -131.001v-204c47.333 60 108.333 90 183 90c63.333 0 117.666 -23.333 162.999 -70s68 -102.334 68 -167.001c0 -66 -22.167 -122 -66.5 -168
s-99.166 -69 -164.499 -69c-47.333 0 -90.5 13 -129.5 39s-67.5 60.333 -85.5 103c-21.333 -42 -50.833 -76.167 -88.5 -102.5s-77.5 -39.5 -119.5 -39.5c-63.333 0 -118 23.167 -164 69.5s-69 102.166 -69 167.499c0 64.667 23 120.334 69 167.001s100.667 70 164 70
c24.667 0 48 -5 70 -15l-19 -47c-15.333 7.33301 -32.333 11 -51 11c-50.667 0 -93.667 -18.167 -129 -54.5s-53 -80.166 -53 -131.499s17.667 -95.166 53 -131.499s78.333 -54.5 129 -54.5c36.667 0 70.334 13.167 101.001 39.5s53 54 67 83s21 53.167 21 72.5v342
c0 65.333 23 120.666 69 165.999s101 68 165 68c54.667 0 102.667 -12.333 144 -37zM890.998 222.001c0 50.667 -17.833 94.334 -53.5 131.001s-77.834 55 -126.501 55c-51.333 0 -94.666 -18.833 -129.999 -56.5s-53 -79.5 -53 -125.5c0 -53.333 17.333 -98.333 52 -135
s78.334 -55 131.001 -55c49.333 0 91.666 18.167 126.999 54.5s53 80.166 53 131.499z" />
    <glyph glyph-name="uA9E5" unicode="&#xa9e5;" horiz-adv-x="55" 
d="M-2 764l-34.002 -24c-16 25.333 -37.667 38 -65 38c-20.667 0 -38.667 -7.5 -54 -22.5s-23 -33.167 -23 -54.5c0 -16.667 5.33301 -32.834 16 -48.501s23.334 -26.834 38.001 -33.501c1.33301 0 3.5 0.166992 6.5 0.5s5.16699 0.5 6.5 0.5c47.333 0 84.333 -21 111 -63
l-35 -20c-21.333 28 -46.666 42 -75.999 42c-30 0 -55.333 -14 -76 -42l-35 20c12 18.667 28.333 34.334 49 47.001c-31.333 24.667 -47 57 -47 97c0 30.667 11.833 57.834 35.5 81.501s51.5 35.5 83.5 35.5c44 0 77 -18 99 -54z" />
    <glyph glyph-name="uA9E6" unicode="&#xa9e6;" horiz-adv-x="240" 
d="M122 541h-46l158 273h46zM20 541h-45l158 273h46z" />
    <glyph glyph-name="uA9E7" unicode="&#xa9e7;" horiz-adv-x="998" 
d="M943 222c0 -64.667 -22.8301 -120.331 -68.4971 -166.998s-100.167 -70 -163.5 -70c-26.667 0 -50.334 5 -71.001 15l20 46c15.333 -6.66699 32.333 -10 51 -10c50 0 92.667 18.167 128 54.5s53 80.166 53 131.499s-17.667 95.166 -53 131.499s-78 54.5 -128 54.5
c-46.667 0 -89.834 -22.333 -129.501 -67s-59.5 -90.334 -59.5 -137.001v-603h83v-51h-134v643c0 60.667 -16.667 111.834 -50 153.501s-78.666 62.5 -135.999 62.5c-30 0 -57.333 -5.66699 -82 -17s-43.5 -24.833 -56.5 -40.5s-23 -30.167 -30 -43.5
s-10.5 -23.666 -10.5 -30.999c0 -19.333 7.33301 -36 22 -50s30.667 -24.667 48 -32s33.333 -19.333 48 -36s22 -37.667 22 -63c0 -32 -10.333 -57.833 -31 -77.5s-45 -29.5 -73 -29.5c-18.667 0 -37 5.5 -55 16.5s-28.667 23.5 -32 37.5l43 26
c9.33301 -19.333 24 -29 44 -29c14.667 0 27.167 4.83301 37.5 14.5s15.5 23.5 15.5 41.5c0 15.333 -7.33301 28.666 -22 39.999s-30.667 20.833 -48 28.5s-33.333 21.167 -48 40.5s-22 43.333 -22 72c0 44 21.833 85.5 65.5 124.5s98.5 58.5 164.5 58.5
c48 0 91.167 -13.167 129.5 -39.5s67.166 -62.166 86.499 -107.499c22 43.333 51.667 78.5 89 105.5s77.666 40.5 120.999 40.5c63.333 0 117.833 -23.333 163.5 -70s68.5 -102.334 68.5 -167.001z" />
    <glyph glyph-name="uA9E8" unicode="&#xa9e8;" horiz-adv-x="997" 
d="M855 770l-26.0029 -43.999c-31.333 20 -70.666 30 -117.999 30c-48 0 -90.5 -17.333 -127.5 -52s-55.5 -78.334 -55.5 -131.001v-204c47.333 60 108.333 90 183 90c63.333 0 117.666 -23.333 162.999 -70s68 -102.334 68 -167.001c0 -66 -22.167 -122 -66.5 -168
s-99.166 -69 -164.499 -69c-36 0 -70 8 -102 24s-59 37.667 -81 65v-524h-134v51h83v494c-23.333 -33.333 -51.666 -60 -84.999 -80s-68 -30 -104 -30c-63.333 0 -118 23.167 -164 69.5s-69 102.166 -69 167.499c0 64.667 23 120.334 69 167.001s100.667 70 164 70
c24.667 0 48 -5 70 -15l-19 -47c-15.333 7.33301 -32.333 11 -51 11c-50.667 0 -93.667 -18.167 -129 -54.5s-53 -80.166 -53 -131.499s17.667 -95.166 53 -131.499s78.333 -54.5 129 -54.5c36.667 0 70.334 13.167 101.001 39.5s53 54 67 83s21 53.167 21 72.5v342
c0 65.333 23 120.666 69 165.999s101 68 165 68c54.667 0 102.667 -12.333 144 -37zM890.997 222.001c0 50.667 -17.833 94.334 -53.5 131.001s-77.834 55 -126.501 55c-51.333 0 -94.666 -18.833 -129.999 -56.5s-53 -79.5 -53 -125.5c0 -53.333 17.333 -98.333 52 -135
s78.334 -55 131.001 -55c49.333 0 91.666 18.167 126.999 54.5s53 80.166 53 131.499z" />
    <glyph glyph-name="uA9E9" unicode="&#xa9e9;" horiz-adv-x="1001" 
d="M788 221c0 -20.667 -7.16699 -38.167 -21.5 -52.5s-31.833 -21.5 -52.5 -21.5s-38.167 7.16699 -52.5 21.5s-21.5 31.833 -21.5 52.5s7.16699 38.167 21.5 52.5s31.833 21.5 52.5 21.5s38.167 -7.16699 52.5 -21.5s21.5 -31.833 21.5 -52.5zM946 222
c0 -65.333 -22.835 -121.163 -68.502 -167.496s-100.167 -69.5 -163.5 -69.5c-26.667 0 -50.334 5 -71.001 15l20 46c15.333 -6.66699 32.333 -10 51 -10c50 0 92.667 18.167 128 54.5s53 80.166 53 131.499s-17.667 95.166 -53 131.499s-78 54.5 -128 54.5
c-48 0 -90.833 -22.833 -128.5 -68.5s-56.5 -94.834 -56.5 -147.501c-0.666992 -88 -33 -157 -97 -207l-30 43c50.667 46 76 104 76 174c0 59.333 -18 108.166 -54 146.499s-80 57.5 -132 57.5s-96 -19.167 -132 -57.5s-54 -87.166 -54 -146.499c0 -70 25.667 -128 77 -174
l-30 -43c-31.333 26 -55.5 55.667 -72.5 89s-25.5 76 -25.5 128c0 74.667 22.833 135.834 68.5 183.501s101.834 71.5 168.501 71.5c48 0 91.333 -12.833 130 -38.5s67.334 -60.834 86.001 -105.501c21.333 43.333 50.333 78.5 87 105.5s76.334 40.5 119.001 40.5
c63.333 0 117.833 -23.333 163.5 -70s68.5 -102.334 68.5 -167.001z" />
    <glyph glyph-name="uA9EA" unicode="&#xa9ea;" horiz-adv-x="959" 
d="M752 221c0 -20.667 -7.16699 -38.167 -21.5 -52.5s-31.833 -21.5 -52.5 -21.5s-38.167 7.16699 -52.5 21.5s-21.5 31.833 -21.5 52.5s7.16699 38.167 21.5 52.5s31.833 21.5 52.5 21.5s38.167 -7.16699 52.5 -21.5s21.5 -31.833 21.5 -52.5zM904 222
c0 -66 -21.665 -122.001 -64.998 -168.001s-96.666 -69 -159.999 -69c-24.667 0 -47.667 5 -69 15l19 46c14 -6.66699 30.667 -10 50 -10c48.667 0 89.834 18 123.501 54s50.5 80 50.5 132c0 50.667 -16.833 94.334 -50.5 131.001s-74.834 55 -123.501 55
c-48 0 -86.833 -17.5 -116.5 -52.5s-48.834 -79.5 -57.501 -133.5c-12 -69.333 -37.333 -126.166 -76 -170.499s-88.334 -66.5 -149.001 -66.5c-64 0 -117.5 23 -160.5 69s-64.5 102 -64.5 168c0 65.333 21.5 121.166 64.5 167.499s96.5 69.5 160.5 69.5
c25.333 0 48.333 -5 69 -15l-20 -47c-16 7.33301 -32.333 11 -49 11c-48.667 0 -89.834 -18.167 -123.501 -54.5s-50.5 -80.166 -50.5 -131.499c0 -52 16.667 -96 50 -132s74.666 -54 123.999 -54c47.333 0 86.166 17.667 116.499 53s49.5 79.666 57.5 132.999
c10 67.333 34.833 123.666 74.5 168.999s89.834 68 150.501 68c62.667 0 115.834 -23.167 159.501 -69.5s65.5 -102.166 65.5 -167.499z" />
    <glyph glyph-name="uA9EB" unicode="&#xa9eb;" horiz-adv-x="997" 
d="M783 220c0 -20.667 -7.16699 -38.167 -21.5 -52.5s-31.833 -21.5 -52.5 -21.5s-38.167 7.16699 -52.5 21.5s-21.5 31.833 -21.5 52.5s7.16699 38.167 21.5 52.5s31.833 21.5 52.5 21.5s38.167 -7.16699 52.5 -21.5s21.5 -31.833 21.5 -52.5zM891 222
c0 51.333 -17.832 95.168 -53.499 131.501s-78.834 54.5 -129.501 54.5c-51.333 0 -94.166 -18.667 -128.499 -56s-51.5 -82.333 -51.5 -135c0 -46.667 17.5 -88.5 52.5 -125.5s78.5 -55.5 130.5 -55.5c49.333 0 91.666 18.167 126.999 54.5s53 80.166 53 131.499z
M942.001 222.002c0 -66 -22.498 -122.001 -67.498 -168.001s-100.5 -69 -166.5 -69c-46.667 0 -88.334 13 -125.001 39s-63.5 55.667 -80.5 89s-25.5 65 -25.5 95c0 21.333 -6.83301 46.833 -20.5 76.5s-35.667 57.667 -66 84s-64.5 39.5 -102.5 39.5
c-50.667 0 -93.667 -18.167 -129 -54.5s-53 -80.166 -53 -131.499s17.667 -95.166 53 -131.499s78.333 -54.5 129 -54.5c14.667 0 31 3.33301 49 10l21 -46c-24.667 -10 -48 -15 -70 -15c-63.333 0 -118 23.167 -164 69.5s-69 102.166 -69 167.499
c0 64.667 23 120.334 69 167.001s100.667 70 164 70c41.333 0 80.833 -13.5 118.5 -40.5s67.5 -61.167 89.5 -102.5c18 42.667 46.5 77.167 85.5 103.5s82.167 39.5 129.5 39.5c63.333 0 117.666 -23.333 162.999 -70s68 -102.334 68 -167.001z" />
    <glyph glyph-name="uA9EC" unicode="&#xa9ec;" horiz-adv-x="989" 
d="M800 222c0 -20.667 -7.16699 -38.167 -21.5 -52.5s-31.833 -21.5 -52.5 -21.5s-38.167 7.16699 -52.5 21.5s-21.5 31.833 -21.5 52.5s7.16699 38.167 21.5 52.5s31.833 21.5 52.5 21.5s38.167 -7.16699 52.5 -21.5s21.5 -31.833 21.5 -52.5zM934 222
c0 -65.333 -20.6709 -121.165 -62.0039 -167.498s-93 -69.5 -155 -69.5c-35.333 0 -64.833 5.33301 -88.5 16s-40.334 23.834 -50.001 39.501s-17.667 32.667 -24 51s-10.5 35.333 -12.5 51s-6.83301 28.834 -14.5 39.501s-18.5 16 -32.5 16s-24.833 -5.33301 -32.5 -16
s-12.667 -23.834 -15 -39.501s-6.66602 -32.667 -12.999 -51s-14.166 -35.333 -23.499 -51s-25.833 -28.834 -49.5 -39.501s-53.167 -16 -88.5 -16c-63.333 0 -115.5 23 -156.5 69s-61.5 102 -61.5 168c0 67.333 18.333 123.666 55 168.999s86 68 148 68
c21.333 0 39.666 -5 54.999 -15l-21 -45c-9.33301 6 -20.666 9 -33.999 9c-48.667 0 -86.167 -17.5 -112.5 -52.5s-39.5 -79.5 -39.5 -133.5c0 -52 15.667 -96 47 -132s71.333 -54 120 -54c34.667 0 61.334 7.33301 80.001 22s30.834 32.334 36.501 53.001
s10.834 41.5 15.501 62.5s13.834 38.833 27.501 53.5s34.5 22 62.5 22c23.333 0 41.833 -5.33301 55.5 -16s22.667 -23.834 27 -39.501l14.5 -51c5.33301 -18.333 11 -35.333 17 -51s18.167 -28.834 36.5 -39.501s42.166 -16 71.499 -16c48.667 0 88.5 18 119.5 54
s46.5 80 46.5 132c0 53.333 -13.167 97.666 -39.5 132.999s-63.5 53 -111.5 53c-14.667 0 -26.334 -3 -35.001 -9l-21 45c14.667 10 33.334 15 56.001 15c61.333 0 110.333 -22.667 147 -68s55 -101.666 55 -168.999z" />
    <glyph glyph-name="uA9ED" unicode="&#xa9ed;" horiz-adv-x="997" 
d="M784 222c0 -21.333 -7.50098 -39.333 -22.501 -54s-32.5 -22 -52.5 -22c-20.667 0 -38.334 7.33301 -53.001 22s-22 32.667 -22 54s7.33301 39.166 22 53.499s32.334 21.5 53.001 21.5s38.334 -7.16699 53.001 -21.5s22 -32.166 22 -53.499zM363.999 222
c0 -21.333 -7.50098 -39.333 -22.501 -54s-32.5 -22 -52.5 -22c-20.667 0 -38.334 7.33301 -53.001 22s-22 32.667 -22 54s7.33301 39.166 22 53.499s32.334 21.5 53.001 21.5s38.334 -7.16699 53.001 -21.5s22 -32.166 22 -53.499zM468.998 217
c0 52.667 -17.167 97.665 -51.5 134.998s-77.166 56 -128.499 56c-50.667 0 -93.834 -18.167 -129.501 -54.5s-53.5 -80.166 -53.5 -131.499s17.5 -95.166 52.5 -131.499s77.5 -54.5 127.5 -54.5c52 0 95.5 18.333 130.5 55s52.5 78.667 52.5 126zM941.998 221.998
c0 -64.667 -22.8281 -120.331 -68.4951 -166.998s-100.167 -70 -163.5 -70c-26.667 0 -50.334 5 -71.001 15l20 46c14 -6.66699 31 -10 51 -10c50 0 92.667 18.167 128 54.5s53 80.166 53 131.499s-17.667 95.166 -53 131.499s-78.333 54.5 -129 54.5
c-29.333 0 -56.5 -7.66699 -81.5 -23s-45 -34 -60 -56s-26.667 -43.833 -35 -65.5s-12.5 -40.167 -12.5 -55.5c0 -30 -8.5 -61.667 -25.5 -95s-43.833 -63 -80.5 -89s-78.334 -39 -125.001 -39c-66 0 -121.5 23 -166.5 69s-67.5 102 -67.5 168
c0 64.667 22.5 120.334 67.5 167.001s99.5 70 163.5 70c47.333 0 90.166 -13.167 128.499 -39.5s67.166 -60.833 86.499 -103.5c22.667 41.333 52.667 75.5 90 102.5s76.666 40.5 117.999 40.5c63.333 0 118 -23.333 164 -70s69 -102.334 69 -167.001z" />
    </font>
</defs>
</svg>
