<?xml version="1.0" encoding="UTF-8" standalone="no"?>
<!-- Created with Inkscape (http://www.inkscape.org/) -->

<svg
   xmlns:dc="http://purl.org/dc/elements/1.1/"
   xmlns:cc="http://creativecommons.org/ns#"
   xmlns:rdf="http://www.w3.org/1999/02/22-rdf-syntax-ns#"
   xmlns:svg="http://www.w3.org/2000/svg"
   xmlns="http://www.w3.org/2000/svg"
   xmlns:sodipodi="http://sodipodi.sourceforge.net/DTD/sodipodi-0.dtd"
   xmlns:inkscape="http://www.inkscape.org/namespaces/inkscape"
   width="7.2042341mm"
   height="5.296041mm"
   viewBox="0 0 25.526814 18.7655"
   id="svg5594"
   version="1.1"
   inkscape:version="0.91 r13725"
   sodipodi:docname="cart_icon.svg">
  <defs
     id="defs5596">
    <clipPath
       clipPathUnits="userSpaceOnUse"
       id="clipPath1084">
      <path
         d="m 0,0 1190.551,0 0,841.89 L 0,841.89 0,0 Z"
         id="path1086"
         inkscape:connector-curvature="0" />
    </clipPath>
  </defs>
  <sodipodi:namedview
     id="base"
     pagecolor="#ffffff"
     bordercolor="#666666"
     borderopacity="1.0"
     inkscape:pageopacity="0.0"
     inkscape:pageshadow="2"
     inkscape:zoom="0.35"
     inkscape:cx="-385.09373"
     inkscape:cy="-90.617244"
     inkscape:document-units="px"
     inkscape:current-layer="layer1"
     showgrid="false"
     fit-margin-top="0"
     fit-margin-left="0"
     fit-margin-right="0"
     fit-margin-bottom="0"
     inkscape:window-width="1920"
     inkscape:window-height="1017"
     inkscape:window-x="-4"
     inkscape:window-y="-4"
     inkscape:window-maximized="1" />
  <metadata
     id="metadata5599">
    <rdf:RDF>
      <cc:Work
         rdf:about="">
        <dc:format>image/svg+xml</dc:format>
        <dc:type
           rdf:resource="http://purl.org/dc/dcmitype/StillImage" />
        <dc:title></dc:title>
      </cc:Work>
    </rdf:RDF>
  </metadata>
  <g
     inkscape:label="Layer 1"
     inkscape:groupmode="layer"
     id="layer1"
     transform="translate(-272.95088,-422.97946)">
    <g
       id="g1076"
       transform="matrix(1.25,0,0,-1.25,274.42406,425.40158)">
      <path
         d="m 0,0 15.498,0 -3.628,-8.752 -8.093,0 L 0,0 Z"
         style="fill:none;stroke:#160000;stroke-width:1.54999995;stroke-linecap:butt;stroke-linejoin:miter;stroke-miterlimit:4;stroke-dasharray:none;stroke-opacity:1"
         id="path1078"
         inkscape:connector-curvature="0" />
    </g>
    <g
       transform="matrix(1.25,0,0,-1.25,-86.711561,958.17671)"
       id="g1080">
      <g
         id="g1082"
         clip-path="url(#clipPath1084)">
        <g
           id="g1088"
           transform="translate(293.5223,414.4874)">
          <path
             d="m 0,0 c -0.128,0 -0.232,0.145 -0.232,0.323 0,0.178 0.104,0.323 0.232,0.323 0.128,0 0.232,-0.145 0.232,-0.323 C 0.232,0.145 0.128,0 0,0 Z"
             style="fill:none;stroke:#000000;stroke-width:2.68400002;stroke-linecap:butt;stroke-linejoin:miter;stroke-miterlimit:4;stroke-dasharray:none;stroke-opacity:1"
             id="path1090"
             inkscape:connector-curvature="0" />
        </g>
        <g
           id="g1092"
           transform="translate(299.9394,414.4874)">
          <path
             d="m 0,0 c -0.128,0 -0.232,0.145 -0.232,0.323 0,0.178 0.104,0.323 0.232,0.323 0.128,0 0.232,-0.145 0.232,-0.323 C 0.232,0.145 0.128,0 0,0 Z"
             style="fill:none;stroke:#000000;stroke-width:2.68400002;stroke-linecap:butt;stroke-linejoin:miter;stroke-miterlimit:4;stroke-dasharray:none;stroke-opacity:1"
             id="path1094"
             inkscape:connector-curvature="0" />
        </g>
      </g>
    </g>
    <g
       id="g1096"
       transform="matrix(1.25,0,0,-1.25,289.19019,436.39821)">
      <path
         d="m 0,0 3.878,9.96 3.552,0"
         style="fill:none;stroke:#000000;stroke-width:1.54999995;stroke-linecap:butt;stroke-linejoin:miter;stroke-miterlimit:4;stroke-dasharray:none;stroke-opacity:1"
         id="path1098"
         inkscape:connector-curvature="0" />
    </g>
  </g>
</svg>
