<?xml version="1.0" encoding="UTF-8" standalone="no"?>
<!-- Created with Inkscape (http://www.inkscape.org/) -->

<svg
   xmlns:dc="http://purl.org/dc/elements/1.1/"
   xmlns:cc="http://creativecommons.org/ns#"
   xmlns:rdf="http://www.w3.org/1999/02/22-rdf-syntax-ns#"
   xmlns:svg="http://www.w3.org/2000/svg"
   xmlns="http://www.w3.org/2000/svg"
   xmlns:sodipodi="http://sodipodi.sourceforge.net/DTD/sodipodi-0.dtd"
   xmlns:inkscape="http://www.inkscape.org/namespaces/inkscape"
   width="5.0779891mm"
   height="5.23875mm"
   viewBox="0 0 17.992875 18.5625"
   id="svg4620"
   version="1.1"
   inkscape:version="0.91 r13725"
   sodipodi:docname="min_icon.svg">
  <defs
     id="defs4622">
    <clipPath
       clipPathUnits="userSpaceOnUse"
       id="clipPath564">
      <path
         d="m 0,0 595.276,0 0,419.528 L 0,419.528 0,0 Z"
         id="path566"
         inkscape:connector-curvature="0" />
    </clipPath>
    <clipPath
       clipPathUnits="userSpaceOnUse"
       id="clipPath520">
      <path
         d="m 0,0 595.276,0 0,419.528 L 0,419.528 0,0 Z"
         id="path522"
         inkscape:connector-curvature="0" />
    </clipPath>
    <clipPath
       clipPathUnits="userSpaceOnUse"
       id="clipPath476">
      <path
         d="m 0,0 595.276,0 0,419.528 L 0,419.528 0,0 Z"
         id="path478"
         inkscape:connector-curvature="0" />
    </clipPath>
    <clipPath
       clipPathUnits="userSpaceOnUse"
       id="clipPath432">
      <path
         d="m 0,0 595.276,0 0,419.528 L 0,419.528 0,0 Z"
         id="path434"
         inkscape:connector-curvature="0" />
    </clipPath>
    <clipPath
       clipPathUnits="userSpaceOnUse"
       id="clipPath16">
      <path
         d="m 271.444,202.214 14.45,0 0,14.85 -14.45,0 0,-14.85 z"
         id="path18"
         inkscape:connector-curvature="0" />
    </clipPath>
  </defs>
  <sodipodi:namedview
     id="base"
     pagecolor="#ffffff"
     bordercolor="#666666"
     borderopacity="1.0"
     inkscape:pageopacity="0.0"
     inkscape:pageshadow="2"
     inkscape:zoom="0.35"
     inkscape:cx="-1286.0036"
     inkscape:cy="197.85268"
     inkscape:document-units="px"
     inkscape:current-layer="layer1"
     showgrid="false"
     fit-margin-top="0"
     fit-margin-left="0"
     fit-margin-right="0"
     fit-margin-bottom="0"
     inkscape:window-width="1920"
     inkscape:window-height="1017"
     inkscape:window-x="-4"
     inkscape:window-y="-4"
     inkscape:window-maximized="1" />
  <metadata
     id="metadata4625">
    <rdf:RDF>
      <cc:Work
         rdf:about="">
        <dc:format>image/svg+xml</dc:format>
        <dc:type
           rdf:resource="http://purl.org/dc/dcmitype/StillImage" />
        <dc:title></dc:title>
      </cc:Work>
    </rdf:RDF>
  </metadata>
  <g
     inkscape:label="Layer 1"
     inkscape:groupmode="layer"
     id="layer1"
     transform="translate(-1002.4321,-711.65238)">
    <g
       transform="matrix(1.25,0,0,-1.25,663.05751,982.98238)"
       id="g12">
      <g
         id="g14"
         clip-path="url(#clipPath16)">
        <g
           id="g20"
           transform="translate(272.5194,212.7301)">
          <path
             d="m 0,0 c 0.002,-0.054 -0.003,-0.103 -0.011,-0.151 0.007,0.018 0.013,0.026 0.017,0.021 C 0.005,-0.102 0.003,-0.064 0,0"
             style="fill:#231f20;fill-opacity:1;fill-rule:nonzero;stroke:none"
             id="path22"
             inkscape:connector-curvature="0" />
        </g>
        <g
           id="g24"
           transform="translate(279.6623,217.2018)">
          <path
             d="M 0,0 C -0.143,-0.13 -0.224,-0.114 -0.333,-0.086 L -0.222,-0.388 0,0 Z"
             style="fill:#231f20;fill-opacity:1;fill-rule:nonzero;stroke:none"
             id="path26"
             inkscape:connector-curvature="0" />
        </g>
        <g
           id="g28"
           transform="translate(286.7097,210.0631)">
          <path
             d="M 0,0 0.094,0.236 C 0.248,-0.049 0.195,-0.255 0.327,-0.033 0,0 0.294,0.884 -0.033,0.917 L 0.036,1.072 C 0.032,1.028 0.051,1.021 0.048,0.977 c 0.157,0.303 -0.236,0.225 -0.19,0.614 0.025,0.136 0.073,0.231 0.111,0.138 l -0.08,0.303 c 0.006,0.088 0.063,0.067 0.056,-0.021 l -0.026,0.462 0.01,-0.004 C -0.122,2.535 -0.202,2.684 -0.235,2.758 -0.188,2.875 -0.201,2.699 -0.16,2.729 L -0.239,2.985 C -0.154,3.089 -0.072,2.877 -0.084,2.7 0.242,2.939 -0.167,2.912 0.024,3.427 L 0.066,3.186 C 0.251,3.342 0.184,3.53 0.3,3.803 0.24,3.738 0.008,3.257 -0.073,3.534 c 0.025,0.079 0.036,0.181 -0.03,0.331 0.117,0.002 0.088,0.148 0.081,0.331 L 0.133,4.183 C 0.088,4.381 0.01,4.365 -0.06,4.482 c 0.015,0.22 0.135,0.266 0.235,0.317 0.025,0.354 -0.191,-0.243 -0.22,0.175 0.029,0.146 0.028,0.271 0.008,0.404 -0.026,0.137 -0.061,0.314 -0.104,0.535 0.053,0.327 0.094,-0.034 0.138,0.089 0,0.007 -0.123,0.253 -0.123,0.247 0.003,0.068 0.04,0.065 0.06,0.062 -0.048,0.211 -0.154,-0.048 -0.196,0.258 -0.074,-0.015 -0.036,0.135 0.015,0.362 -0.151,0.064 -0.436,0.149 -0.729,0.04 -0.09,0.044 0.091,0.095 0.085,0.155 C -1.572,6.999 -1.482,7.034 -1.817,6.864 L -2.103,6.965 C -1.893,6.849 -2.162,6.712 -2.397,6.6 -2.323,6.544 -2.259,6.495 -2.216,6.471 L -2.592,6.389 C -2.637,6.414 -2.6,6.467 -2.538,6.531 -2.563,6.518 -2.586,6.506 -2.607,6.494 c -0.135,0.057 -0.065,0.146 0.031,0.232 0.044,-0.03 0.09,-0.063 0.136,-0.095 0.093,0.094 0.18,0.198 0.161,0.288 -0.025,-0.018 -0.072,-0.033 -0.124,-0.042 0.025,0.026 0.04,0.048 0.029,0.064 C -2.387,6.957 -2.426,6.923 -2.488,6.883 L -2.573,7.055 -2.594,6.987 -3.086,7.095 C -3.438,6.922 -3.745,6.667 -4.303,6.596 c 0.138,0.126 0.03,0.206 0.037,0.355 0.153,-0.158 0.434,0.067 0.722,0.035 -0.151,0.017 -0.118,0.088 -0.079,0.113 L -4.139,6.955 c 0.012,0.122 -0.11,0.092 -0.245,0.142 0.102,-0.241 -0.385,-0.161 -0.595,-0.235 -0.013,0.081 0.038,0.164 0.294,0.145 -0.283,0.181 -0.365,-0.284 -0.643,-0.129 0.063,10e-4 0.096,-0.011 0.121,0.03 -0.146,-0.072 -0.504,-0.015 -0.419,0.056 l 0.062,0.002 c -0.416,0.028 -1.265,10e-4 -1.327,-0.204 -0.004,0.027 0.054,0.247 0.079,0.289 l -0.741,-0.69 c 0.065,0.176 -0.185,0.595 0.159,0.695 -0.099,0.025 -0.221,0.054 -0.43,-0.008 0.068,-0.025 0.168,-0.254 0.076,-0.27 -0.253,0.195 -0.176,0.104 -0.488,0.271 0.101,-0.037 -0.011,-0.313 -0.171,-0.305 0.025,0.042 -0.013,0.273 0.045,0.302 L -8.76,6.775 c 0.1,0.049 0.018,0.229 -0.071,0.306 0.041,-0.053 -0.344,0.005 -0.451,-0.022 l 0.169,-0.063 c -0.449,0.041 -0.444,-0.381 -0.889,-0.367 0.054,0.056 0.133,0.345 -0.094,0.379 -0.104,-0.139 -0.46,-0.667 -0.854,-0.775 l -0.076,0.08 -0.303,-0.09 c 0.189,0.208 0.718,0.648 1.006,0.819 -0.168,0.063 -0.046,0.093 -0.298,0.086 -0.089,0.075 0.137,0.113 0.211,0.117 l -0.586,0.048 c 0.026,-0.162 -0.448,-0.162 -0.426,-0.297 l 0.637,0.168 c 0.026,-0.162 -0.368,-0.46 -0.784,-0.432 -0.106,0.065 0.079,0.289 0.071,0.343 -0.054,-0.056 -0.395,-0.106 -0.433,-0.067 l 0.176,0.087 c -0.231,0.061 -0.377,-0.215 -0.655,-0.06 -0.096,0.01 -0.287,0.208 -0.303,0.112 0.156,-0.185 0.187,-0.757 0.083,-0.895 -0.034,0.012 -0.504,0.177 -0.614,0.268 -0.157,0.145 0.238,0.345 0.103,0.47 -0.005,-0.045 -0.093,-0.099 -0.129,-0.117 -0.101,0.038 0.041,0.137 -0.177,0.117 -0.037,-0.164 -0.446,0.014 -0.104,-0.139 -0.231,-0.046 -0.189,0.034 -0.517,0.027 0.093,-0.106 -0.211,-0.361 -0.339,-0.408 -0.012,0.042 -0.091,0.096 -0.132,0.121 -0.124,0.008 -0.234,0.015 -0.339,0.022 -0.028,-0.245 -0.068,-0.453 -0.069,-0.791 -0.04,-0.033 -0.088,-0.264 -0.159,-0.168 0.029,-0.062 0.085,-0.113 0.089,-0.241 -0.142,-0.244 -0.022,0.282 -0.193,0.096 0.095,-0.016 0.132,-0.327 0.191,-0.507 0.148,0.056 0.029,0.416 -0.031,0.596 0.203,0.001 0.416,-0.313 0.51,-0.74 0.051,-0.34 -0.131,-0.148 -0.102,-0.207 -0.036,-0.638 0.355,-0.544 0.208,-1.074 -0.129,-0.211 -0.258,-0.01 -0.351,-0.056 -0.049,0.277 0.082,0.425 0.077,0.613 l -0.061,-0.231 c -0.043,0.088 -0.076,0.272 -0.038,0.373 -0.117,-0.176 -0.023,-1.079 -0.13,-1.571 0.043,-0.088 0.088,-0.239 0.14,-0.167 l -0.018,0.156 c 0.105,0.143 0.145,-0.294 0.193,-0.097 0.074,-0.209 0.189,-0.443 0.13,-0.738 L -14.64,1.804 c 0.043,0.006 0.088,0.193 0.043,0.275 0.066,-0.123 -0.2,-0.451 -0.006,-0.586 l 0.102,0.207 c 0.075,-0.21 0.231,-0.47 0.185,-0.73 0.146,0.118 -0.017,0.06 0.154,0.245 -0.213,-0.161 0.009,0.667 -0.215,0.409 0.198,0.191 0.085,0.33 0.254,0.578 -0.049,-0.008 -0.094,-0.088 -0.07,0.131 -0.014,0.01 -0.032,0.033 -0.043,0.048 l 0.004,0.015 -0.006,-0.012 c -0.007,0.009 -0.009,0.01 -0.002,-0.005 -0.021,-0.052 -0.047,-0.094 -0.074,-0.111 -0.112,0.109 -0.108,0.457 -0.166,0.575 0.023,0.13 0.056,-0.055 0.108,0.016 l -0.087,0.176 c 0.109,0.018 0.18,0.346 0.243,0.039 l 0.005,0.276 c 0.061,0.162 0.085,0.385 0.039,0.523 0.024,0.13 -0.119,0.328 -0.035,0.215 l -0.067,0.432 0.027,0.004 c 0.007,0.213 -0.037,0.432 -0.06,0.659 -0.022,0.206 -0.021,0.54 0.077,0.546 -0.028,0.054 -0.061,0.139 -0.03,0.208 l 0.093,-0.065 c -0.005,0.013 -0.006,0.024 -0.005,0.034 0.072,-0.008 0.169,-0.082 0.148,-10e-4 0.041,-0.063 0.067,-0.098 0.085,-0.115 0.01,-0.009 0.017,-0.013 0.025,-0.015 0.052,10e-4 0.105,0.002 0.16,0.003 0.24,0.012 0.495,0.05 0.657,0.028 l 0.012,0.122 c 0.223,-0.007 0.437,0.027 0.714,0.077 l -0.017,0.108 c 0.239,0.089 0.614,-0.077 0.992,-0.066 -0.026,-0.041 -0.122,-0.031 -0.189,-0.006 0.451,-0.244 0.951,0.178 1.361,0 0.102,0.039 0.175,0.026 0.247,-0.001 -0.01,0 -0.018,-0.002 -0.025,-0.006 0.011,0 0.026,-10e-4 0.041,-10e-4 0.046,-0.019 0.097,-0.039 0.142,-0.058 -0.042,0.026 -0.083,0.048 -0.119,0.058 0.079,0.002 0.198,0.016 0.315,0.043 l 0.05,-0.116 c 0.01,0.001 0.015,0.002 0.027,0.003 0.115,-0.042 0.092,0.055 0.031,0.143 0.059,0.019 0.113,0.042 0.155,0.069 0.093,-0.187 0.306,0.063 0.433,-0.136 0.079,0.097 0.588,0.073 0.65,0.278 0.004,-0.027 0.039,-0.04 -0.024,-0.041 0.13,-0.023 0.26,-0.047 0.377,0.011 l 0.056,-0.147 0.284,0.198 c 0.173,-0.09 0.245,-0.142 0.073,-0.256 0.415,0.175 0.337,0.066 0.689,0.239 L -6.839,6.226 c 0.126,0.003 0.327,0.131 0.403,0.052 0.283,-0.181 1.395,-0.025 2.119,-0.194 -0.141,0.281 0.336,-0.125 0.365,0.092 0.042,-0.066 0.143,-0.104 0.026,-0.161 0.369,0.065 0.554,-0.106 0.81,0.078 0.042,-0.067 -0.08,-0.097 -0.042,-0.137 0.029,0.014 0.117,0.058 0.156,0.019 0.038,-0.04 -0.054,-0.056 -0.113,-0.086 0.377,0.012 0.416,0.217 0.443,0.408 0.192,-0.091 0.287,-0.078 0.425,0.049 0.066,-0.064 0.178,-0.129 -0.057,-0.152 0.125,-0.009 0.821,-0.092 0.802,0.062 0.025,-0.039 0.117,-0.011 0.146,0.007 0.195,-0.01 0.196,-0.024 0.399,-0.009 l -0.032,0.025 c 0.085,0.066 0.143,0.091 0.185,0.096 0.01,-0.063 -0.045,-0.19 -0.031,-0.291 L -0.854,6.077 C -0.988,5.626 -0.79,5.965 -0.943,5.476 l 0.115,0.029 c 0.249,-0.05 -0.146,-0.47 -0.051,-0.777 l 0.066,0.111 C -0.728,4.671 -1.151,4.369 -1.182,4.201 -1.204,4.164 -1.217,4.259 -1.233,4.31 -1.38,3.868 -1.082,4.253 -1.046,3.924 -1.128,3.863 -1.253,4.002 -1.269,3.78 -1.335,3.67 -1.004,3.138 -1.161,2.836 -1.097,2.902 -1.034,2.968 -0.987,2.816 -0.965,2.581 -1.225,2.182 -1.027,1.971 -1.044,1.941 -1.061,1.93 -1.076,1.928 -1.025,1.749 -0.991,1.346 -0.883,1.238 -1.282,1.073 -0.69,0.125 -1.058,0.129 l 0.02,-0.551 -0.038,0.014 c -0.024,-0.352 0.064,-0.476 0.153,-0.6 -0.025,-0.081 -0.06,-0.022 -0.079,-0.015 -0.074,-0.515 -0.059,-0.566 0.125,-0.997 l -0.12,-0.045 c 0.07,-0.117 -0.187,-0.744 -0.047,-1.248 -0.014,0.005 -0.038,0.015 -0.054,0.055 0.14,-0.567 -0.331,-1.359 0.103,-1.567 L -0.887,-5.2 c 0.034,0.485 0.189,-0.072 0.26,0.127 0.026,-0.19 -0.131,-0.492 -0.152,-0.258 l 0.021,0.036 c -0.226,0.087 -0.08,-0.602 -0.235,-0.589 0.003,-0.292 -0.006,-0.623 -0.022,-0.877 -0.016,-0.164 -0.038,-0.308 -0.057,-0.433 -0.207,0.023 -0.308,0.042 -0.528,0.045 0.004,0 0.098,-0.176 0.09,-0.176 l -0.3,0.01 c -0.081,0.041 -0.109,0.138 0.113,0.131 -0.117,0.1 -0.372,-0.084 -0.379,-0.122 -0.435,0.071 0.17,0.205 0.036,0.209 l -0.18,-0.013 0.04,-0.02 c -0.147,-0.072 -0.16,-0.149 -0.427,-0.14 -0.169,0.035 -0.087,0.109 -0.153,0.116 0,0.012 -0.022,0.018 -0.102,0.005 l -0.393,0.015 0.157,-0.14 c -0.174,-0.068 -0.369,0.008 -0.188,-0.15 -0.266,0.243 -1.465,0.087 -1.628,0.163 -0.243,-0.101 -0.484,-0.1 -0.782,-0.087 0.074,-0.029 0.118,-0.186 -0.139,-0.167 0.094,0.323 -0.47,0.14 -0.679,0.373 0.186,-0.155 -0.73,-0.039 -0.439,-0.257 -0.214,0.026 -0.013,0.12 -0.176,0.197 -0.51,-0.126 -1.125,0.081 -1.756,0.039 -0.01,-0.042 0.096,-0.107 -0.039,-0.17 l -0.334,0.211 c -0.124,-0.02 -0.114,-0.245 -0.342,-0.097 0.032,-0.035 0.08,-0.089 -0.003,-0.103 -1.237,0.206 -2.527,-0.169 -3.782,0.219 0.17,-0.083 0.057,-0.091 -0.073,-0.093 0.084,-0.02 -0.002,-0.105 0.014,-0.162 l -0.525,0.159 c -0.096,-0.159 -0.564,-0.011 -0.618,-0.163 l 0.166,0.027 c -0.221,-0.18 0.31,-0.399 0.277,-0.631 0.248,0.205 0.654,-0.302 1.061,-0.01 0.089,-0.046 -0.077,-0.074 -0.029,-0.128 0.103,0.099 0.228,0.12 0.458,0.076 l -0.026,-0.025 c 0.648,0.024 0.926,-0.073 1.654,-0.138 l -0.054,0.114 c 0.157,-0.015 0.19,-0.051 0.263,-0.08 0.18,0.174 -0.44,0.01 -0.276,0.201 0.208,-0.232 1.103,-0.003 1.244,-0.267 0.24,-0.002 -0.071,0.132 0.169,0.13 l 0.064,-0.071 0.061,0.092 c 0.158,-0.015 0.238,-0.105 0.244,-0.165 -0.039,0.007 -0.109,-0.017 -0.15,-0.023 0.204,-0.084 0.577,0.029 0.647,0.002 l -0.231,0.044 c 0.657,0.067 1.458,-0.027 2.093,0.118 L -7,-8.042 c 0.485,0.099 0.388,-0.059 0.92,-0.013 l -0.019,-0.013 c 0.107,0.054 0.249,0.081 0.394,0.075 -0.135,-0.063 0.253,-0.123 0.076,-0.193 0.526,0.107 0.261,0.084 0.608,0.285 l 0.08,-0.09 c 0.118,0.081 0.127,0.124 0.394,0.147 -0.219,-0.077 0.169,-0.136 -0.075,-0.238 0.558,-0.195 0.828,0.198 1.083,-0.088 0.257,0.247 -0.482,0.137 -0.338,0.19 -0.121,0.081 0.211,0.185 0.386,0.16 0.178,-0.006 0.303,-0.316 0.751,-0.312 -0.045,0.002 -0.047,-0.017 -0.092,-0.016 0.167,-0.063 0.328,0.085 0.534,-0.017 0.116,0.149 0.267,-0.008 0.3,0.182 l -0.411,-0.044 c 0.233,0.05 0.452,0.273 0.836,0.165 -0.03,-0.039 -0.144,-0.09 -0.223,-0.118 0.123,-0.056 0.191,0.037 0.357,-0.02 -0.083,-0.191 -0.513,-0.041 -0.773,-0.187 0.12,-0.081 0.471,0.138 0.346,-0.069 0.09,0.132 0.201,0.123 0.326,0.108 0.179,-0.016 0.428,-0.04 0.607,0.06 l 0.019,-0.114 c 0.071,0.018 0.193,0.072 0.326,0.068 0.008,0 -0.159,-0.147 -0.166,-0.147 0.217,0.081 0.495,0.011 0.8,-0.03 0.022,0.116 0.036,0.25 0.012,0.41 10e-4,-0.269 -0.012,-0.373 -0.034,-0.389 -0.146,0.047 -0.025,0.131 -0.294,0.188 0.034,0.006 0.064,0.012 0.09,0.017 -0.098,0.798 0.314,0.249 0.26,1.381 0.017,-0.127 -0.068,-0.568 -0.121,-0.306 0.012,0.091 0.029,0.245 0.05,0.313 0.022,0.069 0.047,0.131 0.077,0.171 -0.023,0.452 -0.117,-0.069 -0.187,0.123 0.139,0.154 -0.057,0.222 -0.102,0.419 l 0.117,0.002 c 0.074,0.515 -0.243,0.136 -0.152,0.599 l 0.161,-0.195 -0.042,0.241 0.132,-0.05 c -0.098,0.263 -0.072,0.345 -0.035,0.602 -0.082,-0.06 -0.211,0.034 -0.215,0.261 0.069,0.156 0.111,-0.087 0.094,0.236 0.072,-0.072 0.164,-0.153 0.057,-0.293 0.038,-0.014 0.073,-0.071 0.11,-0.086 0.08,0.167 0.018,0.42 0.017,0.537 -0.004,-0.045 -0.01,-0.099 -0.027,-0.126 l -0.161,0.468 c 0.044,0.074 0.079,0.015 0.113,-0.043 -0.013,0.095 -0.066,0.161 -0.076,0.3 0.095,-0.036 0.192,-0.027 0.237,-0.225 L 0.022,-3.31 c 0.041,0.03 0.112,0.229 0.147,0.171 0.056,0.247 -0.183,0.607 -0.109,0.935 -0.019,0.016 -0.037,0.05 -0.05,0.12 0.022,0.309 0.138,0.581 0.007,0.946 L 0.188,-0.93 C 0.149,-0.644 -0.026,-1.211 -0.09,-0.734 -0.145,-0.397 0.055,-0.608 0.101,-0.49 0.016,-0.322 -0.158,-0.031 -0.02,0.279 0.012,0.176 -0.012,0.096 0,0 m -0.076,3.527 c 0.025,-0.068 0.1,-0.204 0.032,-0.254 -0.134,0.078 -0.07,0.138 -0.032,0.254 m -2.841,3.296 c 0.051,0.038 0.13,0.019 0.218,-0.025 C -2.763,6.789 -2.836,6.793 -2.917,6.823 M -14.279,3.562 -14.285,3.57 c 0.045,0.152 0.028,0.098 0.006,-0.008 M -14.33,3.246 c 0.017,-0.032 0.033,-0.03 0.049,-0.017 -0.03,0.023 -0.031,0.094 -0.023,0.175 -0.031,-0.023 -0.051,-0.064 -0.026,-0.158 m 11.534,-10.443 0.062,-0.031 c -0.139,-0.033 -0.1,-0.003 -0.062,0.031"
             style="fill:#231f20;fill-opacity:1;fill-rule:nonzero;stroke:none"
             id="path30"
             inkscape:connector-curvature="0" />
        </g>
        <g
           id="g32"
           transform="translate(284.4012,217.0449)">
          <path
             d="M 0,0 C 0.019,-0.02 0.024,-0.041 0.029,-0.063 0.056,-0.044 0.056,-0.021 0,0"
             style="fill:#231f20;fill-opacity:1;fill-rule:nonzero;stroke:none"
             id="path34"
             inkscape:connector-curvature="0" />
        </g>
        <g
           id="g36"
           transform="translate(273.4433,217.1126)">
          <path
             d="M 0,0 C 0.065,-0.017 0.101,-0.038 0.126,-0.06 0.129,-0.032 0.1,-0.007 0,0"
             style="fill:#231f20;fill-opacity:1;fill-rule:nonzero;stroke:none"
             id="path38"
             inkscape:connector-curvature="0" />
        </g>
      </g>
    </g>
    <text
       y="726.44678"
       x="1008.2359"
       style="font-variant:normal;font-weight:normal;font-stretch:normal;font-size:17.48075104px;font-family:Raleway;-inkscape-font-specification:Raleway-Regular;writing-mode:lr-tb;fill:#231f20;fill-opacity:1;fill-rule:nonzero;stroke:none"
       id="text424">
      <tspan
         x="1008.2359"
         y="726.44678"
         id="tspan426">-</tspan>
    </text>
    <g
       transform="matrix(1.25,0,0,-1.25,663.05751,982.98238)"
       id="g428">
      <g
         id="g430"
         clip-path="url(#clipPath432)">
        <g
           id="g436"
           transform="translate(272.6,205.8451)">
          <path
             d="m 0,0 c -0.067,-0.043 -0.058,0.149 -0.021,-0.162 0.008,0.013 0.011,0.02 0.017,0.03 C -0.005,-0.105 -0.005,-0.066 0,0"
             style="fill:#231f20;fill-opacity:1;fill-rule:nonzero;stroke:none"
             id="path438"
             inkscape:connector-curvature="0" />
        </g>
        <g
           id="g440"
           transform="translate(272.5959,205.7131)">
          <path
             d="M 0,0 C 0.005,-0.137 0.056,0.089 0,0"
             style="fill:#231f20;fill-opacity:1;fill-rule:nonzero;stroke:none"
             id="path442"
             inkscape:connector-curvature="0" />
        </g>
        <g
           id="g444"
           transform="translate(272.5576,206.3439)">
          <path
             d="M 0,0 0.06,-0.18 C 0.099,-0.143 0.108,0.018 0.137,-0.042 0.104,0.143 0.065,0.105 0,0"
             style="fill:#231f20;fill-opacity:1;fill-rule:nonzero;stroke:none"
             id="path446"
             inkscape:connector-curvature="0" />
        </g>
        <g
           id="g448"
           transform="translate(272.4323,206.5149)">
          <path
             d="M 0,0 0.025,-0.094 C 0.042,-0.077 0.047,-0.052 0,0"
             style="fill:#231f20;fill-opacity:1;fill-rule:nonzero;stroke:none"
             id="path450"
             inkscape:connector-curvature="0" />
        </g>
        <g
           id="g452"
           transform="translate(272.5108,206.2236)">
          <path
             d="M 0,0 -0.054,0.198 C -0.081,0.172 -0.137,0.169 -0.034,0.107 -0.085,0.123 -0.036,0.084 0,0"
             style="fill:#231f20;fill-opacity:1;fill-rule:nonzero;stroke:none"
             id="path454"
             inkscape:connector-curvature="0" />
        </g>
        <g
           id="g456"
           transform="translate(272.4846,206.1115)">
          <path
             d="M 0,0 C -0.037,-0.101 -0.061,-0.232 -0.12,-0.051 -0.097,-0.395 0.024,-0.344 0,0"
             style="fill:#231f20;fill-opacity:1;fill-rule:nonzero;stroke:none"
             id="path458"
             inkscape:connector-curvature="0" />
        </g>
        <g
           id="g460"
           transform="translate(272.6469,207.4654)">
          <path
             d="m 0,0 c -0.037,0.012 -0.097,-0.061 -0.144,-0.074 l 0.041,-0.133 C -0.078,-0.139 -0.054,-0.009 0,0"
             style="fill:#231f20;fill-opacity:1;fill-rule:nonzero;stroke:none"
             id="path462"
             inkscape:connector-curvature="0" />
        </g>
        <g
           id="g464"
           transform="translate(272.5024,207.3915)">
          <path
             d="M 0,0 -0.063,0.199 C -0.07,0.022 -0.04,-0.011 0,0"
             style="fill:#231f20;fill-opacity:1;fill-rule:nonzero;stroke:none"
             id="path466"
             inkscape:connector-curvature="0" />
        </g>
      </g>
    </g>
    <g
       id="g468"
       transform="matrix(1.25,0,0,-1.25,1003.8718,722.70013)">
      <path
         d="M 0,0 0.085,-0.113 -0.043,0.088 0,0 Z"
         style="fill:#231f20;fill-opacity:1;fill-rule:nonzero;stroke:none"
         id="path470"
         inkscape:connector-curvature="0" />
    </g>
    <g
       transform="matrix(1.25,0,0,-1.25,663.05751,982.98238)"
       id="g472">
      <g
         id="g474"
         clip-path="url(#clipPath476)">
        <g
           id="g480"
           transform="translate(272.6365,208.7296)">
          <path
             d="M 0,0 C 0.07,-0.083 0.119,0.115 0.162,0.027 0.149,0.164 0.089,0.281 0.035,0.386 0.065,0.274 0.057,0.154 0,0"
             style="fill:#231f20;fill-opacity:1;fill-rule:nonzero;stroke:none"
             id="path482"
             inkscape:connector-curvature="0" />
        </g>
        <g
           id="g484"
           transform="translate(272.5925,209.292)">
          <path
             d="M 0,0 C 0.017,-0.056 0.047,-0.114 0.079,-0.177 0.063,-0.117 0.039,-0.059 0,0"
             style="fill:#231f20;fill-opacity:1;fill-rule:nonzero;stroke:none"
             id="path486"
             inkscape:connector-curvature="0" />
        </g>
        <g
           id="g488"
           transform="translate(272.4576,207.9294)">
          <path
             d="M 0,0 C 0.022,0.016 0.08,0.046 0.105,0.157 L 0.002,0.079 C 0.001,0.055 0,0.027 0,0"
             style="fill:#231f20;fill-opacity:1;fill-rule:nonzero;stroke:none"
             id="path490"
             inkscape:connector-curvature="0" />
        </g>
        <g
           id="g492"
           transform="translate(272.4559,208.0049)">
          <path
             d="M 0,0 0.003,0.003 C 0.006,0.088 0.008,0.147 0.009,0.172 0.008,0.15 0.005,0.099 0,0"
             style="fill:#231f20;fill-opacity:1;fill-rule:nonzero;stroke:none"
             id="path494"
             inkscape:connector-curvature="0" />
        </g>
        <g
           id="g496"
           transform="translate(272.4572,207.9095)">
          <path
             d="M 0,0 0,0.02 C -0.01,0.012 -0.013,0.008 0,0"
             style="fill:#231f20;fill-opacity:1;fill-rule:nonzero;stroke:none"
             id="path498"
             inkscape:connector-curvature="0" />
        </g>
        <g
           id="g500"
           transform="translate(272.3285,207.8124)">
          <path
             d="m 0,0 -0.024,-0.211 c 0.028,0.004 0.067,0.042 0.096,-0.016 L 0,0 Z"
             style="fill:#231f20;fill-opacity:1;fill-rule:nonzero;stroke:none"
             id="path502"
             inkscape:connector-curvature="0" />
        </g>
        <g
           id="g504"
           transform="translate(272.4962,208.9296)">
          <path
             d="M 0,0 C -0.045,0.091 -0.049,0.191 -0.056,0.304 -0.076,0.183 -0.087,0.058 -0.087,-0.061 -0.054,-0.077 0.003,-0.129 0,0"
             style="fill:#231f20;fill-opacity:1;fill-rule:nonzero;stroke:none"
             id="path506"
             inkscape:connector-curvature="0" />
        </g>
        <g
           id="g508"
           transform="translate(272.4676,208.4805)">
          <path
             d="M 0,0 -0.006,0.02 C -0.015,0.008 -0.017,-0.002 0,0"
             style="fill:#231f20;fill-opacity:1;fill-rule:nonzero;stroke:none"
             id="path510"
             inkscape:connector-curvature="0" />
        </g>
      </g>
    </g>
    <g
       id="g512"
       transform="matrix(1.25,0,0,-1.25,1003.586,720.07438)">
      <path
         d="M 0,0 0.017,-0.004 0.018,0.018 0,0 Z"
         style="fill:#231f20;fill-opacity:1;fill-rule:nonzero;stroke:none"
         id="path514"
         inkscape:connector-curvature="0" />
    </g>
    <g
       transform="matrix(1.25,0,0,-1.25,663.05751,982.98238)"
       id="g516">
      <g
         id="g518"
         clip-path="url(#clipPath520)">
        <g
           id="g524"
           transform="translate(272.3904,208.8491)">
          <path
             d="M 0,0 C -0.02,-0.091 0.005,-0.145 0.037,-0.198 0.027,-0.129 0.02,-0.057 0.019,0.02 0.005,0.027 -0.005,0.029 0,0"
             style="fill:#231f20;fill-opacity:1;fill-rule:nonzero;stroke:none"
             id="path526"
             inkscape:connector-curvature="0" />
        </g>
        <g
           id="g528"
           transform="translate(272.5443,209.6016)">
          <path
             d="M 0,0 C -0.022,-0.047 -0.04,-0.101 -0.056,-0.157 -0.024,-0.111 0.027,-0.017 0,0"
             style="fill:#231f20;fill-opacity:1;fill-rule:nonzero;stroke:none"
             id="path530"
             inkscape:connector-curvature="0" />
        </g>
        <g
           id="g532"
           transform="translate(272.49,208.5312)">
          <path
             d="M 0,0 0.005,-0.013 C 0.027,0.017 0.016,0.012 0,0"
             style="fill:#231f20;fill-opacity:1;fill-rule:nonzero;stroke:none"
             id="path534"
             inkscape:connector-curvature="0" />
        </g>
        <g
           id="g536"
           transform="translate(272.49,208.5312)">
          <path
             d="M 0,0 C -0.015,0.047 -0.04,0.084 -0.063,0.12 -0.055,0.066 -0.044,0.014 -0.028,-0.031 -0.021,-0.019 -0.01,-0.007 0,0"
             style="fill:#231f20;fill-opacity:1;fill-rule:nonzero;stroke:none"
             id="path538"
             inkscape:connector-curvature="0" />
        </g>
        <g
           id="g540"
           transform="translate(271.7803,210.6811)">
          <path
             d="m 0,0 c 0.095,-0.016 0.183,-0.255 0.081,-0.462 0.072,-0.202 0.385,-0.07 0.561,0.108 -0.041,0.006 -0.08,0.006 -0.137,0.215 C 0.454,-0.212 0.384,-0.603 0.297,-0.427 0.248,-0.15 0.331,-0.2 0.381,-0.065 0.263,-0.18 0.208,0.287 0.034,0.227 L 0.095,-0.016 C 0.068,-0.021 0.025,0.067 0,0"
             style="fill:#231f20;fill-opacity:1;fill-rule:nonzero;stroke:none"
             id="path542"
             inkscape:connector-curvature="0" />
        </g>
        <g
           id="g544"
           transform="translate(272.4123,209.9286)">
          <path
             d="M 0,0 0.012,-0.086 C 0.029,0.012 0.067,0.082 0.142,0.211 0.095,0.355 0.059,0.384 0.028,0.394 L 0.015,-0.029 0,0 Z"
             style="fill:#231f20;fill-opacity:1;fill-rule:nonzero;stroke:none"
             id="path546"
             inkscape:connector-curvature="0" />
        </g>
        <g
           id="g548"
           transform="translate(272.4248,209.4567)">
          <path
             d="m 0,0 c -0.104,0.067 -0.148,0.274 -0.26,0.147 0.007,-0.252 0.087,-0.176 0.131,-0.327 -0.025,0.407 0.058,-0.117 0.117,0.177 0.018,-0.08 0.023,-0.152 0.027,-0.22 0.013,0.073 0.029,0.144 0.048,0.211 L 0.056,-0.022 0.057,-0.024 0.055,-0.023 C 0.042,-0.041 0.034,-0.046 0.042,-0.027 0.041,-0.025 0.04,-0.02 0.04,-0.018 0.025,-0.016 0.013,-0.008 0,0 0.022,0.118 0.027,0.019 0.04,-0.018 L 0.055,-0.023 0.056,-0.022 0,0.386 C -0.015,0.3 -0.012,0.192 0,0"
             style="fill:#231f20;fill-opacity:1;fill-rule:nonzero;stroke:none"
             id="path550"
             inkscape:connector-curvature="0" />
        </g>
      </g>
    </g>
    <g
       id="g552"
       transform="matrix(1.25,0,0,-1.25,1003.6738,720.0035)">
      <path
         d="M 0,0 0.11,-0.045 -0.045,0.151 0,0 Z"
         style="fill:#231f20;fill-opacity:1;fill-rule:nonzero;stroke:none"
         id="path554"
         inkscape:connector-curvature="0" />
    </g>
    <g
       id="g556"
       transform="matrix(1.25,0,0,-1.25,1003.6569,719.45113)">
      <path
         d="M 0,0 0.095,-0.017 0.038,0.1 0,0 Z"
         style="fill:#231f20;fill-opacity:1;fill-rule:nonzero;stroke:none"
         id="path558"
         inkscape:connector-curvature="0" />
    </g>
    <g
       transform="matrix(1.25,0,0,-1.25,663.05751,982.98238)"
       id="g560">
      <g
         id="g562"
         clip-path="url(#clipPath564)">
        <g
           id="g568"
           transform="translate(285.5699,212.0769)">
          <path
             d="M 0,0 C 0.019,-0.061 0.04,-0.087 0.064,-0.086 0.046,-0.022 0.026,0.013 0,0"
             style="fill:#231f20;fill-opacity:1;fill-rule:nonzero;stroke:none"
             id="path570"
             inkscape:connector-curvature="0" />
        </g>
        <g
           id="g572"
           transform="translate(272.5253,212.5998)">
          <path
             d="M 0,0 C 0.007,-0.093 0.012,-0.015 0,0"
             style="fill:#231f20;fill-opacity:1;fill-rule:nonzero;stroke:none"
             id="path574"
             inkscape:connector-curvature="0" />
        </g>
        <g
           id="g576"
           transform="translate(272.4775,212.4591)">
          <path
             d="M 0,0 C 0.013,0.035 0.024,0.076 0.031,0.12 0.023,0.1 0.013,0.064 0,0"
             style="fill:#231f20;fill-opacity:1;fill-rule:nonzero;stroke:none"
             id="path578"
             inkscape:connector-curvature="0" />
        </g>
        <g
           id="g580"
           transform="translate(272.5269,212.4778)">
          <path
             d="M 0,0 C -0.004,-0.033 -0.007,-0.058 -0.01,-0.082 0.007,-0.093 0.018,-0.083 0,0"
             style="fill:#231f20;fill-opacity:1;fill-rule:nonzero;stroke:none"
             id="path582"
             inkscape:connector-curvature="0" />
        </g>
        <g
           id="g584"
           transform="translate(272.5776,211.6311)">
          <path
             d="M 0,0 -0.03,0.203 C -0.025,0.105 -0.05,0.07 -0.069,0.02 -0.041,0.025 -0.002,0.063 0,0"
             style="fill:#231f20;fill-opacity:1;fill-rule:nonzero;stroke:none"
             id="path586"
             inkscape:connector-curvature="0" />
        </g>
        <g
           id="g588"
           transform="translate(272.4447,212.9074)">
          <path
             d="M 0,0 C -0.025,-0.067 0.125,-0.042 0.086,-0.081 0.21,-0.156 -0.065,0.369 0,0"
             style="fill:#231f20;fill-opacity:1;fill-rule:nonzero;stroke:none"
             id="path590"
             inkscape:connector-curvature="0" />
        </g>
      </g>
    </g>
  </g>
</svg>
