<?xml version="1.0" encoding="UTF-8" standalone="no"?>
<!-- Created with Inkscape (http://www.inkscape.org/) -->

<svg
   xmlns:dc="http://purl.org/dc/elements/1.1/"
   xmlns:cc="http://creativecommons.org/ns#"
   xmlns:rdf="http://www.w3.org/1999/02/22-rdf-syntax-ns#"
   xmlns:svg="http://www.w3.org/2000/svg"
   xmlns="http://www.w3.org/2000/svg"
   xmlns:sodipodi="http://sodipodi.sourceforge.net/DTD/sodipodi-0.dtd"
   xmlns:inkscape="http://www.inkscape.org/namespaces/inkscape"
   id="svg2"
   version="1.1"
   inkscape:version="0.91 r13725"
   xml:space="preserve"
   width="253.4859"
   height="254.43225"
   viewBox="0 0 253.48589 254.43225"
   sodipodi:docname="wishlist_icon_active.svg"><metadata
     id="metadata8"><rdf:RDF><cc:Work
         rdf:about=""><dc:format>image/svg+xml</dc:format><dc:type
           rdf:resource="http://purl.org/dc/dcmitype/StillImage" /><dc:title></dc:title></cc:Work></rdf:RDF></metadata><defs
     id="defs6"><clipPath
       clipPathUnits="userSpaceOnUse"
       id="clipPath16"><path
         d="m 319.344,229.001 202.787,0 0,203.546 -202.787,0 0,-203.546 z"
         id="path18"
         inkscape:connector-curvature="0" /></clipPath><clipPath
       clipPathUnits="userSpaceOnUse"
       id="clipPath32"><path
         d="m 319.344,229.001 202.787,0 0,203.546 -202.787,0 0,-203.546 z"
         id="path34"
         inkscape:connector-curvature="0" /></clipPath><clipPath
       clipPathUnits="userSpaceOnUse"
       id="clipPath88"><path
         d="m 319.344,229.001 202.787,0 0,203.546 -202.787,0 0,-203.546 z"
         id="path90"
         inkscape:connector-curvature="0" /></clipPath><clipPath
       clipPathUnits="userSpaceOnUse"
       id="clipPath128"><path
         d="m 319.344,229.001 202.787,0 0,203.546 -202.787,0 0,-203.546 z"
         id="path130"
         inkscape:connector-curvature="0" /></clipPath><clipPath
       clipPathUnits="userSpaceOnUse"
       id="clipPath148"><path
         d="m 319.344,229.001 202.787,0 0,203.546 -202.787,0 0,-203.546 z"
         id="path150"
         inkscape:connector-curvature="0" /></clipPath><clipPath
       clipPathUnits="userSpaceOnUse"
       id="clipPath204"><path
         d="m 0,595.28 841.89,0 L 841.89,0 0,0 0,595.28 Z"
         id="path206"
         inkscape:connector-curvature="0" /></clipPath><clipPath
       clipPathUnits="userSpaceOnUse"
       id="clipPath360"><path
         d="m 319.344,229.001 202.787,0 0,203.546 -202.787,0 0,-203.546 z"
         id="path362"
         inkscape:connector-curvature="0" /></clipPath><clipPath
       clipPathUnits="userSpaceOnUse"
       id="clipPath376"><path
         d="m 0,595.28 841.89,0 L 841.89,0 0,0 0,595.28 Z"
         id="path378"
         inkscape:connector-curvature="0" /></clipPath><clipPath
       clipPathUnits="userSpaceOnUse"
       id="clipPath388"><path
         d="m 319.344,229.001 202.787,0 0,203.546 -202.787,0 0,-203.546 z"
         id="path390"
         inkscape:connector-curvature="0" /></clipPath><clipPath
       clipPathUnits="userSpaceOnUse"
       id="clipPath404"><path
         d="m 0,595.28 841.89,0 L 841.89,0 0,0 0,595.28 Z"
         id="path406"
         inkscape:connector-curvature="0" /></clipPath><clipPath
       clipPathUnits="userSpaceOnUse"
       id="clipPath416"><path
         d="m 319.344,229.001 202.787,0 0,203.546 -202.787,0 0,-203.546 z"
         id="path418"
         inkscape:connector-curvature="0" /></clipPath><clipPath
       clipPathUnits="userSpaceOnUse"
       id="clipPath428"><path
         d="m 0,595.28 841.89,0 L 841.89,0 0,0 0,595.28 Z"
         id="path430"
         inkscape:connector-curvature="0" /></clipPath></defs><sodipodi:namedview
     pagecolor="#ffffff"
     bordercolor="#666666"
     borderopacity="1"
     objecttolerance="10"
     gridtolerance="10"
     guidetolerance="10"
     inkscape:pageopacity="0"
     inkscape:pageshadow="2"
     inkscape:window-width="1920"
     inkscape:window-height="1017"
     id="namedview4"
     showgrid="false"
     fit-margin-top="0"
     fit-margin-left="0"
     fit-margin-right="0"
     fit-margin-bottom="0"
     inkscape:zoom="0.31716168"
     inkscape:cx="127.0028"
     inkscape:cy="85.798642"
     inkscape:window-x="-4"
     inkscape:window-y="-4"
     inkscape:window-maximized="1"
     inkscape:current-layer="g10" /><g
     id="g10"
     inkscape:groupmode="layer"
     inkscape:label="Wensenlijst symbool aangeklikt"
     transform="matrix(1.25,0,0,-1.25,-399.17848,540.68362)"><g
       id="g12"><g
         id="g14"
         clip-path="url(#clipPath16)"><g
           id="g20"
           transform="translate(431.7148,388.7773)"><path
             d="M 0,0 C 0.742,-0.623 1.025,0.374 1.246,0.43 -0.204,1.178 -0.102,-0.238 0,0"
             style="fill:#292929;fill-opacity:1;fill-rule:nonzero;stroke:none"
             id="path22"
             inkscape:connector-curvature="0" /></g></g></g><g
       id="g24"
       transform="translate(417.8097,395.2899)"><path
         d="M 0,0 0.442,0.204 -1.971,0.566 0,0 Z"
         style="fill:#292929;fill-opacity:1;fill-rule:nonzero;stroke:none"
         id="path26"
         inkscape:connector-curvature="0" /></g><g
       id="g28"><g
         id="g30"
         clip-path="url(#clipPath32)"><g
           id="g36"
           transform="translate(405.769,402.7554)"><path
             d="m 0,0 c 0.289,-2.119 4.537,-2.413 6.366,-4.259 l 0.153,-0.544 1.682,0.544 C 5.477,-2.809 1.614,-1.518 0,0"
             style="fill:#292929;fill-opacity:1;fill-rule:nonzero;stroke:none"
             id="path38"
             inkscape:connector-curvature="0" /></g><g
           id="g40"
           transform="translate(401.0454,409.6992)"><path
             d="M 0,0 C 0.079,-0.805 -1.705,0.34 1.438,-1.065 1.325,-0.918 1.297,-0.861 1.24,-0.771 0.974,-0.612 0.606,-0.408 0,0"
             style="fill:#292929;fill-opacity:1;fill-rule:nonzero;stroke:none"
             id="path42"
             inkscape:connector-curvature="0" /></g><g
           id="g44"
           transform="translate(402.2856,408.9404)"><path
             d="M 0,0 C 1.336,-0.703 -0.578,0.963 0,0"
             style="fill:#292929;fill-opacity:1;fill-rule:nonzero;stroke:none"
             id="path46"
             inkscape:connector-curvature="0" /></g><g
           id="g48"
           transform="translate(396.0552,412.0439)"><path
             d="M 0,0 2.017,-0.464 C 1.841,0.079 0.334,1.031 1.042,0.94 -0.895,1.654 -0.708,1.121 0,0"
             style="fill:#292929;fill-opacity:1;fill-rule:nonzero;stroke:none"
             id="path50"
             inkscape:connector-curvature="0" /></g><g
           id="g52"
           transform="translate(393.8184,411.8853)"><path
             d="M 0,0 1.02,-0.272 C 0.94,-0.045 0.73,0.125 0,0"
             style="fill:#292929;fill-opacity:1;fill-rule:nonzero;stroke:none"
             id="path54"
             inkscape:connector-curvature="0" /></g><g
           id="g56"
           transform="translate(396.9897,411.002)"><path
             d="M 0,0 -2.158,0.6 C -2.027,0.238 -2.271,-0.25 -1.184,0.294 -1.585,-0.057 -0.974,0.147 0,0"
             style="fill:#292929;fill-opacity:1;fill-rule:nonzero;stroke:none"
             id="path58"
             inkscape:connector-curvature="0" /></g><g
           id="g60"
           transform="translate(397.9414,410.1748)"><path
             d="M 0,0 C 0.787,-0.861 1.926,-1.756 -0.096,-1.28 3.308,-2.957 3.41,-1.654 0,0"
             style="fill:#292929;fill-opacity:1;fill-rule:nonzero;stroke:none"
             id="path62"
             inkscape:connector-curvature="0" /></g><g
           id="g64"
           transform="translate(404.2681,401.6338)"><path
             d="M 0,0 1.008,-1.167 2.39,-1.337 C 1.693,-1.257 0.187,0.51 0,0"
             style="fill:#292929;fill-opacity:1;fill-rule:nonzero;stroke:none"
             id="path66"
             inkscape:connector-curvature="0" /></g><g
           id="g68"
           transform="translate(385.498,418.6367)"><path
             d="M 0,0 C -0.266,-0.249 0.176,-1.145 0.096,-1.62 L 1.591,-1.937 C 1.037,-1.359 -0.136,-0.51 0,0"
             style="fill:#292929;fill-opacity:1;fill-rule:nonzero;stroke:none"
             id="path70"
             inkscape:connector-curvature="0" /></g><g
           id="g72"
           transform="translate(385.5942,417.0283)"><path
             d="M 0,0 -2.237,0.43 C -0.51,-0.51 -0.068,-0.408 0,0"
             style="fill:#292929;fill-opacity:1;fill-rule:nonzero;stroke:none"
             id="path74"
             inkscape:connector-curvature="0" /></g></g></g><g
       id="g76"
       transform="translate(392.6178,410.4234)"><path
         d="M 0,0 3.76,-0.599 -0.612,0.329 0,0 Z"
         style="fill:#292929;fill-opacity:1;fill-rule:nonzero;stroke:none"
         id="path78"
         inkscape:connector-curvature="0" /></g><g
       id="g80"
       transform="translate(376.8156,422.4195)"><path
         d="M 0,0 1.076,-0.034 2.571,0.182 0,0 Z"
         style="fill:#292929;fill-opacity:1;fill-rule:nonzero;stroke:none"
         id="path82"
         inkscape:connector-curvature="0" /></g><g
       id="g84"><g
         id="g86"
         clip-path="url(#clipPath88)"><g
           id="g92"
           transform="translate(372.6694,424.5835)"><path
             d="M 0,0 C 1.133,0.25 -0.73,1.575 0.346,1.552 -1.116,2.073 -2.588,2.028 -3.885,1.994 -2.611,1.79 -1.371,1.223 0,0"
             style="fill:#292929;fill-opacity:1;fill-rule:nonzero;stroke:none"
             id="path94"
             inkscape:connector-curvature="0" /></g><g
           id="g96"
           transform="translate(366.6318,426.6226)"><path
             d="M 0,0 C 0.663,-0.08 1.371,-0.068 2.146,-0.034 1.461,0.068 0.765,0.125 0,0"
             style="fill:#292929;fill-opacity:1;fill-rule:nonzero;stroke:none"
             id="path98"
             inkscape:connector-curvature="0" /></g><g
           id="g100"
           transform="translate(380.0664,419.2822)"><path
             d="M 0,0 C -0.057,0.261 -0.119,0.917 -1.138,1.665 L -0.776,0.396 C -0.543,0.261 -0.266,0.136 0,0"
             style="fill:#292929;fill-opacity:1;fill-rule:nonzero;stroke:none"
             id="path102"
             inkscape:connector-curvature="0" /></g><g
           id="g104"
           transform="translate(379.3018,419.6333)"><path
             d="M 0,0 -0.011,0.045 C -0.844,0.464 -1.427,0.77 -1.682,0.895 -1.473,0.782 -0.963,0.51 0,0"
             style="fill:#292929;fill-opacity:1;fill-rule:nonzero;stroke:none"
             id="path106"
             inkscape:connector-curvature="0" /></g><g
           id="g108"
           transform="translate(380.2593,419.1802)"><path
             d="M 0,0 C -0.068,0.034 -0.125,0.057 -0.198,0.102 -0.159,-0.022 -0.125,-0.079 0,0"
             style="fill:#292929;fill-opacity:1;fill-rule:nonzero;stroke:none"
             id="path110"
             inkscape:connector-curvature="0" /></g><g
           id="g112"
           transform="translate(388.0073,413.9355)"><path
             d="M 0,0 C -1.399,0.091 -4.044,0.793 -2.147,-1.144 -1.008,-0.963 -2.107,0.136 0,0"
             style="fill:#292929;fill-opacity:1;fill-rule:nonzero;stroke:none"
             id="path114"
             inkscape:connector-curvature="0" /></g><g
           id="g116"
           transform="translate(380.6836,417.5947)"><path
             d="m 0,0 1.982,-1.246 c 0.074,0.26 -0.124,0.793 0.573,0.759 L 0,0 Z"
             style="fill:#292929;fill-opacity:1;fill-rule:nonzero;stroke:none"
             id="path118"
             inkscape:connector-curvature="0" /></g></g></g><g
       id="g120"
       transform="translate(379.5174,417.798)"><path
         d="M 0,0 1.172,-0.203 0.418,0.25 0,0 Z"
         style="fill:#292929;fill-opacity:1;fill-rule:nonzero;stroke:none"
         id="path122"
         inkscape:connector-curvature="0" /></g><g
       id="g124"><g
         id="g126"
         clip-path="url(#clipPath128)"><g
           id="g132"
           transform="translate(370.0698,424.2212)"><path
             d="M 0,0 C -1.116,-0.011 -2.169,0.374 -3.364,0.792 -2.181,0.09 -0.929,-0.521 0.3,-1.031 0.589,-0.827 1.354,-0.533 0,0"
             style="fill:#292929;fill-opacity:1;fill-rule:nonzero;stroke:none"
             id="path134"
             inkscape:connector-curvature="0" /></g><g
           id="g136"
           transform="translate(374.561,421.9556)"><path
             d="M 0,0 C -0.068,0.011 -0.164,0.034 -0.232,0.045 -0.136,-0.09 -0.045,-0.159 0,0"
             style="fill:#292929;fill-opacity:1;fill-rule:nonzero;stroke:none"
             id="path138"
             inkscape:connector-curvature="0" /></g></g></g><g
       id="g140"
       transform="translate(354.8907,428.8203)"><path
         d="M 0,0 0.091,0.17 -0.164,0.238 0,0 Z"
         style="fill:#292929;fill-opacity:1;fill-rule:nonzero;stroke:none"
         id="path142"
         inkscape:connector-curvature="0" /></g><g
       id="g144"><g
         id="g146"
         clip-path="url(#clipPath148)"><g
           id="g152"
           transform="translate(370.5005,422.9185)"><path
             d="M 0,0 C 0.85,-0.578 1.5,-0.589 2.158,-0.543 1.416,-0.34 0.663,-0.068 -0.136,0.272 -0.267,0.159 -0.312,0.08 0,0"
             style="fill:#292929;fill-opacity:1;fill-rule:nonzero;stroke:none"
             id="path154"
             inkscape:connector-curvature="0" /></g><g
           id="g156"
           transform="translate(363.1714,427.4268)"><path
             d="M 0,0 C 0.442,-0.385 0.94,-0.771 1.484,-1.155 1.099,-0.668 0.266,0.182 0,0"
             style="fill:#292929;fill-opacity:1;fill-rule:nonzero;stroke:none"
             id="path158"
             inkscape:connector-curvature="0" /></g><g
           id="g160"
           transform="translate(374.1362,422.3975)"><path
             d="M 0,0 0.153,-0.022 C -0.057,0.317 -0.068,0.192 0,0"
             style="fill:#292929;fill-opacity:1;fill-rule:nonzero;stroke:none"
             id="path162"
             inkscape:connector-curvature="0" /></g><g
           id="g164"
           transform="translate(374.1362,422.3975)"><path
             d="m 0,0 c -0.532,0.079 -1.019,0.011 -1.484,-0.022 0.601,-0.17 1.173,-0.295 1.682,-0.374 C 0.119,-0.283 0.045,-0.125 0,0"
             style="fill:#292929;fill-opacity:1;fill-rule:nonzero;stroke:none"
             id="path166"
             inkscape:connector-curvature="0" /></g><g
           id="g168"
           transform="translate(349.561,423.7227)"><path
             d="m 0,0 c 0.346,0.906 3.121,1.121 4.996,-0.453 2.288,0 1.869,3.376 0.339,5.562 C 5.16,4.735 5.046,4.373 2.605,4.452 3.313,3.761 7.352,1.948 5.216,1.677 2.119,1.982 2.889,2.673 1.507,3.466 2.481,2.073 -2.696,2.662 -2.322,0.804 c 0,0 0.674,0.057 1.348,0.046 0.668,0.011 1.342,0.022 1.342,0.022 C 0.357,0.601 -0.663,0.385 0,0"
             style="fill:#292929;fill-opacity:1;fill-rule:nonzero;stroke:none"
             id="path170"
             inkscape:connector-curvature="0" /></g><g
           id="g172"
           transform="translate(359.2349,427.4268)"><path
             d="m 0,0 0.963,-0.204 c -0.997,0.533 -1.659,1.088 -2.877,2.231 -1.705,0.069 -2.147,-0.215 -2.345,-0.475 0,0 1.184,-0.34 2.322,-0.737 C -0.793,0.419 0.357,0.022 0.357,0.022 L 0,0 Z"
             style="fill:#292929;fill-opacity:1;fill-rule:nonzero;stroke:none"
             id="path174"
             inkscape:connector-curvature="0" /></g><g
           id="g176"
           transform="translate(364.3042,425.7617)"><path
             d="M 0,0 C -1.054,-0.657 -3.364,-0.306 -2.413,-1.801 0.232,-2.707 -0.289,-1.699 1.45,-1.88 -2.9,-0.51 2.877,-1.824 -0.011,-0.113 0.895,-0.283 1.671,-0.51 2.401,-0.759 1.682,-0.34 0.985,0.079 0.345,0.521 0.374,0.487 0.396,0.453 0.419,0.431 L 0.442,0.419 0.43,0.408 C 0.578,0.215 0.617,0.125 0.43,0.271 0.408,0.261 0.362,0.271 0.323,0.294 0.255,0.158 0.13,0.079 0,0 -1.172,0.668 -0.102,0.328 0.323,0.294 0.362,0.328 0.408,0.362 0.43,0.408 L 0.419,0.431 c 0,0 -1.127,0.26 -2.254,0.532 C -2.968,1.212 -4.118,1.461 -4.118,1.461 -3.234,0.997 -2.039,0.668 0,0"
             style="fill:#292929;fill-opacity:1;fill-rule:nonzero;stroke:none"
             id="path178"
             inkscape:connector-curvature="0" /></g><g
           id="g180"
           transform="translate(382.7739,411.9419)"><path
             d="M 0,0 C -0.085,0.147 -0.051,0.215 -0.023,0.283 -0.34,0.294 -0.464,0.272 0,0"
             style="fill:#292929;fill-opacity:1;fill-rule:nonzero;stroke:none"
             id="path182"
             inkscape:connector-curvature="0" /></g><g
           id="g184"
           transform="translate(381.4199,413.3013)"><path
             d="m 0,0 c 0.346,-0.023 0.776,0.227 1.66,-0.329 0.673,-0.702 -0.221,-0.43 -0.329,-0.758 0.686,-0.046 2.3,-0.374 0.759,0.974 L 1.75,-0.09 C 0.3,1.02 -1.206,3.183 -0.861,3.171 -0.787,2.118 -0.663,1.326 0,0"
             style="fill:#292929;fill-opacity:1;fill-rule:nonzero;stroke:none"
             id="path186"
             inkscape:connector-curvature="0" /></g><g
           id="g188"
           transform="translate(372.8848,419.543)"><path
             d="M 0,0 -3.619,1.03 -2.226,-0.521 -2.107,0 C -0.255,-1.031 -0.402,-0.261 0,0"
             style="fill:#292929;fill-opacity:1;fill-rule:nonzero;stroke:none"
             id="path190"
             inkscape:connector-curvature="0" /></g></g></g><g
       id="g192"
       transform="translate(352.6254,429.6807)"><path
         d="M 0,0 1.813,-0.022 2.588,0.872 0,0 Z"
         style="fill:#292929;fill-opacity:1;fill-rule:nonzero;stroke:none"
         id="path194"
         inkscape:connector-curvature="0" /></g><g
       id="g196"
       transform="translate(348.2019,431.2782)"><path
         d="M 0,0 1.132,-0.566 1.507,0.306 0,0 Z"
         style="fill:#292929;fill-opacity:1;fill-rule:nonzero;stroke:none"
         id="path198"
         inkscape:connector-curvature="0" /></g><g
       id="g200"><g
         id="g202"
         clip-path="url(#clipPath204)"><g
           id="g208"
           transform="translate(443.1328,262.9385)"><path
             d="M 0,0 0.431,1.02 C 0.193,0.566 0.068,0.249 0,0"
             style="fill:#292929;fill-opacity:1;fill-rule:nonzero;stroke:none"
             id="path210"
             inkscape:connector-curvature="0" /></g><g
           id="g212"
           transform="translate(438.4209,256.7314)"><path
             d="M 0,0 0.237,-0.42 C 0.261,0.022 0.204,0.249 0,0"
             style="fill:#292929;fill-opacity:1;fill-rule:nonzero;stroke:none"
             id="path214"
             inkscape:connector-curvature="0" /></g><g
           id="g216"
           transform="translate(355.2251,329.8623)"><path
             d="m 0,0 c 0.096,-1.812 -0.125,-4.033 0.663,-3.319 l 0.606,0.951 C 0.532,-1.518 0.187,-0.725 0,0"
             style="fill:#292929;fill-opacity:1;fill-rule:nonzero;stroke:none"
             id="path218"
             inkscape:connector-curvature="0" /></g><g
           id="g220"
           transform="translate(405.0098,266.2119)"><path
             d="M 0,0 C 0,0.17 -0.011,0.374 -0.011,0.556 -0.521,0.657 -0.985,0.771 -1.416,0.861 -0.985,0.601 -0.51,0.307 0,0"
             style="fill:#292929;fill-opacity:1;fill-rule:nonzero;stroke:none"
             id="path222"
             inkscape:connector-curvature="0" /></g><g
           id="g224"
           transform="translate(409.0708,267.7412)"><path
             d="M 0,0 0.663,-2.062 C 0.578,-1.552 0.374,-0.883 0,0"
             style="fill:#292929;fill-opacity:1;fill-rule:nonzero;stroke:none"
             id="path226"
             inkscape:connector-curvature="0" /></g><g
           id="g228"
           transform="translate(466.9434,298.1221)"><path
             d="M 0,0 -0.158,1.62 C -1.258,0 -0.34,0.419 0,0"
             style="fill:#292929;fill-opacity:1;fill-rule:nonzero;stroke:none"
             id="path230"
             inkscape:connector-curvature="0" /></g><g
           id="g232"
           transform="translate(324.1025,392.1187)"><path
             d="M 0,0 C 0.09,-1.461 0.312,-2.594 0.589,-3.557 0.566,-1.733 0.951,-0.17 0,0"
             style="fill:#292929;fill-opacity:1;fill-rule:nonzero;stroke:none"
             id="path234"
             inkscape:connector-curvature="0" /></g><g
           id="g236"
           transform="translate(449.9414,254.0352)"><path
             d="M 0,0 C 0.26,0.634 0.26,0.997 0.057,1.11 -0.216,0.464 -0.295,0.034 0,0"
             style="fill:#292929;fill-opacity:1;fill-rule:nonzero;stroke:none"
             id="path238"
             inkscape:connector-curvature="0" /></g><g
           id="g240"
           transform="translate(326.1245,384.7329)"><path
             d="M 0,0 C 0,0.261 -0.034,0.51 -0.045,0.771 -0.601,1.666 -1.076,2.605 -1.439,3.84 -1.439,2.481 -1.184,1.02 0,0"
             style="fill:#292929;fill-opacity:1;fill-rule:nonzero;stroke:none"
             id="path242"
             inkscape:connector-curvature="0" /></g><g
           id="g244"
           transform="translate(482.3496,399.8437)"><path
             d="M 0,0 C -0.113,0.023 -0.238,0.012 -0.34,0.034 -0.34,-0.113 -0.204,-0.079 0,0"
             style="fill:#292929;fill-opacity:1;fill-rule:nonzero;stroke:none"
             id="path246"
             inkscape:connector-curvature="0" /></g><g
           id="g248"
           transform="translate(436.9258,393.625)"><path
             d="M 0,0 C 0.385,0.261 1.042,0.578 1.665,0.884 1.325,0.805 0.804,0.555 0,0"
             style="fill:#292929;fill-opacity:1;fill-rule:nonzero;stroke:none"
             id="path250"
             inkscape:connector-curvature="0" /></g><g
           id="g252"
           transform="translate(325.4902,426.7695)"><path
             d="M 0,0 C 1.184,1.133 0.113,0.261 0,0"
             style="fill:#292929;fill-opacity:1;fill-rule:nonzero;stroke:none"
             id="path254"
             inkscape:connector-curvature="0" /></g><g
           id="g256"
           transform="translate(333.3003,426.8945)"><path
             d="M 0,0 C -0.198,-0.192 -0.323,-0.385 -0.266,-0.623 -0.266,-0.352 -0.164,-0.159 0,0"
             style="fill:#292929;fill-opacity:1;fill-rule:nonzero;stroke:none"
             id="path258"
             inkscape:connector-curvature="0" /></g><g
           id="g260"
           transform="translate(335.9229,377.71)"><path
             d="M 0,0 C 0.011,-0.022 0.022,-0.045 0.034,-0.079 0.09,0.283 0.079,0.215 0,0"
             style="fill:#292929;fill-opacity:1;fill-rule:nonzero;stroke:none"
             id="path262"
             inkscape:connector-curvature="0" /></g><g
           id="g264"
           transform="translate(327.6255,427.9819)"><path
             d="M 0,0 C -0.533,-0.272 -1.133,-0.646 -1.75,-1.076 -1.45,-0.917 -0.918,-0.578 0,0"
             style="fill:#292929;fill-opacity:1;fill-rule:nonzero;stroke:none"
             id="path266"
             inkscape:connector-curvature="0" /></g><g
           id="g268"
           transform="translate(327.0928,428.1631)"><path
             d="M 0,0 C 0.453,0.351 0.844,0.487 1.207,0.68 1.297,0.906 1.054,0.985 0,0"
             style="fill:#292929;fill-opacity:1;fill-rule:nonzero;stroke:none"
             id="path270"
             inkscape:connector-curvature="0" /></g><g
           id="g272"
           transform="translate(324.0288,425.0596)"><path
             d="M 0,0 C 0.543,0.747 1.144,1.37 1.841,1.835 1.563,1.687 1.421,1.631 1.461,1.71 1.087,1.404 0.657,0.895 0,0"
             style="fill:#292929;fill-opacity:1;fill-rule:nonzero;stroke:none"
             id="path274"
             inkscape:connector-curvature="0" /></g><g
           id="g276"
           transform="translate(506.1143,357.5244)"><path
             d="M 0,0 C 0.068,0.057 0.113,0.113 0.182,0.158 0.227,1.246 0.091,0.815 0,0"
             style="fill:#292929;fill-opacity:1;fill-rule:nonzero;stroke:none"
             id="path278"
             inkscape:connector-curvature="0" /></g><g
           id="g280"
           transform="translate(378.2539,313.1992)"><path
             d="m 0,0 c -0.034,0.034 -0.068,0.045 -0.102,0.068 0.012,-0.046 0.034,-0.102 0.045,-0.147 L 0,0 Z"
             style="fill:#292929;fill-opacity:1;fill-rule:nonzero;stroke:none"
             id="path282"
             inkscape:connector-curvature="0" /></g><g
           id="g284"
           transform="translate(380.8765,310.5937)"><path
             d="M 0,0 C -1.903,0.589 -2.271,1.404 -2.679,2.537 L -4.463,-0.079 0,0 Z"
             style="fill:#292929;fill-opacity:1;fill-rule:nonzero;stroke:none"
             id="path286"
             inkscape:connector-curvature="0" /></g><g
           id="g288"
           transform="translate(453.8945,278.1631)"><path
             d="M 0,0 -2.221,-1.529 C -1.654,1.835 0.068,3.33 -2.367,2.141 -0.012,0 -7.861,-6.061 -5.528,-8.19 l -1.54,-0.952 c 0.305,0.363 0.203,0.533 0.52,0.895 -3.171,-1.722 0.407,-3.308 -2.47,-6.423 -1.064,-1.03 -2.039,-1.586 -1.744,-0.555 l -1.314,-3.091 c -0.634,-0.726 -0.928,-0.205 -0.294,0.508 l -2.81,-4.123 -0.045,0.079 c -0.022,-0.872 -0.384,-2.627 -0.588,-3.443 -1.133,-0.748 0.113,0.702 -0.409,0.691 l -1.042,-2.662 c -1.341,-0.408 -0.599,1.903 0.635,3.353 -2.033,-0.079 -2.221,-0.657 -2.498,-1.631 -0.142,-0.487 -0.301,-1.076 -0.73,-1.745 -0.374,-0.611 -1.315,-1.688 -1.904,-1.698 0,0 0.091,0.305 0.21,0.6 0.3,0.577 0.612,1.166 0.612,1.166 -0.6,-0.056 -1.133,-0.271 -1.552,-0.465 -0.255,0 -0.453,-0.044 -0.629,-0.101 -0.334,-0.124 -0.646,-0.34 -1.144,-0.068 0.181,-0.238 0.799,-0.6 1.53,-0.838 0.718,-0.284 1.505,-0.487 1.273,-1.45 -0.464,-0.204 -0.82,-0.476 -1.064,-1.846 -0.543,1.133 -0.872,0.26 -1.461,-0.623 l -0.397,1.96 c -0.368,-1.213 -0.21,-2.233 -0.521,-3.75 -0.408,-0.409 -0.652,-0.17 -0.765,0.396 -0.097,0.827 -0.097,1.711 -0.085,2.504 -0.146,0.419 -0.192,-0.317 -0.17,-1.235 0.012,-0.917 0.125,-2.062 -0.441,-1.53 -0.629,1.813 -1.043,1.36 -2.968,2.458 -0.896,2.108 0.974,0.239 0.844,1.133 l -2.136,0.873 c -0.254,0.407 0.131,0.498 0.329,0.543 -1.359,1.066 -1.292,-0.769 -3.155,1.1 -1.756,-0.397 -1.183,5.754 -4.593,7.271 -0.119,0.896 0.974,0.216 1.297,0.76 -3.586,2.865 -2.945,2.56 -6.417,4.553 l -0.997,3.082 c 0.408,-2.504 -2.351,-0.906 -4.718,0.543 0.023,-0.974 0.034,-1.813 0.113,-2.322 l -3.002,2.855 c -0.096,0.555 0.567,0.51 1.462,0.328 -0.255,0.148 -0.51,0.306 -0.719,0.397 -0.397,1.517 0.741,1.392 2.027,1.031 0.034,-0.578 0.074,-1.156 0.096,-1.734 1.32,-0.294 2.691,-0.487 3.28,0.205 -0.289,0.113 -0.708,0.441 -1.099,0.849 0.357,-0.08 0.623,-0.092 0.679,0.102 0.052,0.203 -0.458,0.362 -1.155,0.679 l 0.822,1.722 -0.675,-0.204 -2.214,4.95 c -3.585,2.118 -7.471,3.444 -11.492,8.009 1.852,-0.532 1.818,0.872 3.058,1.643 -0.323,-2.244 3.2,-3.478 4.736,-6.219 -0.799,1.427 -0.035,1.529 0.401,1.325 l -4.321,3.783 c 1.042,0.567 0.046,1.473 -0.385,2.946 -1.286,-2.22 -3.665,2.537 -5.522,4.009 0.583,0.567 1.529,0.567 2.945,-1.823 -0.278,3.512 -4.486,1.699 -4.939,5.029 0.396,-0.554 0.498,-0.928 0.974,-0.918 -1.461,0.907 -3.177,4.43 -2.101,4.056 l 0.396,-0.544 c -2.322,3.84 -7.589,11.351 -9.617,10.807 0.187,0.181 2.322,0.838 2.81,0.838 l -10.003,3.025 c 1.813,0.339 3.75,4.825 6.582,2.242 -0.374,1.02 -0.862,2.277 -2.577,3.84 0.187,-0.736 -1.094,-2.865 -1.762,-2.118 0.113,3.33 -0.175,2.152 -0.64,5.845 0.278,-1.099 -2.633,-1.529 -3.506,-0.034 0.487,-0.011 2.158,1.54 2.73,1.167 l -4.514,2.209 c 0.974,-0.646 1.982,1.031 2.113,2.254 -0.21,-0.657 -1.937,3.149 -2.764,3.976 l 0.453,-1.858 c -2.249,4.305 -5.681,2.119 -8.071,6.31 0.764,-0.216 3.596,0.51 2.611,2.764 -1.733,0.26 -8.133,0.894 -11.197,4.1 l 0.255,1.099 -2.425,2.401 c 2.809,-0.77 9.34,-3.568 12.381,-5.335 -0.408,1.858 0.499,0.884 -0.928,3.172 0.147,1.2 1.67,-0.714 2.135,-1.371 l -2.787,5.652 c -1.218,-1.03 -3.794,3.354 -4.803,2.493 l 4.86,-5.075 c -1.195,-1.031 -5.879,1.144 -7.85,5.2 -0.023,1.291 2.843,0.634 3.245,0.985 -0.753,0.227 -2.967,3.172 -2.843,3.715 l 1.66,-1.235 c -0.669,2.448 -3.829,2.504 -3.92,5.857 -0.396,0.952 0.334,3.647 -0.566,3.376 -0.793,-2.322 -5.511,-5.256 -7.238,-4.894 -0.057,0.397 -1.105,5.63 -0.816,7.114 0.487,2.164 4.146,-0.747 4.559,1.11 -0.413,-0.147 -1.308,0.453 -1.631,0.714 -0.164,1.133 1.376,0.215 0.147,2.209 -1.597,-0.363 -2.027,4.315 -1.705,0.385 -1.438,1.846 -0.821,2.311 -2.027,4.723 -0.561,-1.223 -4.203,0.692 -5.619,2.617 0.419,0.045 0.686,0.736 0.816,1.065 -0.895,2.22 -1.428,3.965 -1.949,5.675 -0.475,1.733 -0.939,3.421 -1.738,5.46 0.193,0.509 -0.04,2.673 0.889,2.05 -0.465,0.487 -1.173,0.861 -1.648,2.13 0.442,2.888 1.183,-2.764 2.101,-0.351 -0.951,-0.148 -2.356,2.843 -3.398,4.519 -0.601,-0.487 -0.357,-1.574 0.187,-2.741 0.577,-1.167 1.472,-2.379 2.062,-3.194 -1.841,-0.669 -4.996,1.801 -7.177,6.196 -1.405,3.591 0.844,1.914 0.414,2.48 -0.708,3.467 -1.631,4.883 -2.634,6.174 -0.447,0.657 -0.81,1.326 -1.031,2.22 -0.243,0.896 -0.289,2.051 0.153,3.704 1.32,2.492 2.492,-0.034 3.421,0.499 0.187,-1.541 -0.045,-2.696 -0.164,-3.761 -0.159,-1.053 -0.453,-2.05 -0.232,-3.058 0,0 0.023,0.634 0.13,1.303 0.091,0.645 0.198,1.302 0.198,1.302 0.442,-0.952 1.042,-2.877 0.878,-4.01 0.397,1.031 -0.079,3.919 0.051,7.227 0.011,1.643 0.255,3.41 0.753,4.973 0.499,1.574 1.32,2.934 2.271,3.738 0.108,0.453 0.278,1.11 0.431,1.552 0.164,0.43 0.176,0.759 -0.3,0.679 -0.074,0.069 -1.014,-1.427 -1.014,-1.427 -0.9,-0.34 -0.691,0.51 -0.391,1.337 0.266,0.849 0.776,1.472 -0.328,0.77 0.685,1.19 1.569,2.583 2.928,3.603 1.319,1.075 3.07,1.812 4.973,1.868 0,0 0.243,-0.317 0.475,-0.634 0.221,-0.328 0.453,-0.634 0.453,-0.634 -0.113,0.351 -2.503,0.464 -3.364,-0.43 0.629,0.633 2.158,0.43 3.529,0.384 1.388,-0.214 2.69,-0.214 3.454,0.669 0.012,0 -0.588,0.294 -1.229,0.464 -0.662,0.181 -1.313,0.385 -1.313,0.385 2.509,1.054 5.896,2.356 8.96,1.462 -1.235,1.62 -0.686,-0.034 -2.843,1.835 0.9,-1.155 -1.116,-0.839 -3.133,-0.872 -0.974,0.045 -1.97,-0.023 -2.497,-0.227 -0.51,-0.17 -0.51,-0.453 0.373,-0.918 -1.297,0.862 -2.458,0.975 -3.772,0.827 -1.296,-0.045 -2.724,-0.396 -4.927,-0.408 0.153,-0.17 0.567,-0.26 0.532,-0.43 -0.034,-0.136 -0.521,-0.419 -2.169,-1.246 -0.068,-0.215 -0.3,-0.555 -0.441,-0.77 -0.103,-0.046 -0.137,-0.057 -0.233,-0.102 0.074,0.034 0.13,0.045 0.198,0.068 -0.09,-0.136 -0.09,-0.159 0.085,0.022 0.833,0.272 1.552,0.385 1.915,0.295 -0.244,-0.453 -0.697,-0.952 -1.258,-1.461 -0.509,-0.59 -1.087,-1.258 -1.682,-1.915 -1.042,-1.393 -1.971,-2.877 -2.027,-3.749 -1.042,-1.541 -0.114,0.951 -1.031,0.283 0,0 -0.108,-0.679 -0.198,-1.337 -0.131,-0.657 -0.012,-1.302 -0.046,-1.302 -1.048,0.249 -3.12,-4.339 -2.401,0.226 0,0 -0.351,-0.997 -0.606,-1.993 -0.159,-0.963 -0.323,-1.926 -0.323,-1.926 -0.51,-1.133 -0.742,-2.402 -0.85,-3.659 -0.136,-1.291 0,-2.435 0.306,-3.285 -0.153,-1.722 1.597,-3.931 0.578,-2.662 0,0 0.374,-1.269 0.742,-2.537 0.351,-1.269 0.827,-2.447 0.827,-2.447 l -0.261,-0.102 c 0.929,-5.029 4.35,-9.209 4.492,-14.998 0.849,-1.393 1.716,-2.843 2.492,-5.414 l -0.623,-0.839 c 1.11,-1.744 1.636,-6.049 2.911,-6.422 -0.64,-1.507 0.3,-3.841 1.575,-6.186 1.302,-2.322 2.899,-4.677 3.528,-6.366 l 1.116,0.431 c 1.087,-2.209 2.503,-4.123 4.361,-6.581 l 0.821,0.68 c 1.994,-1.892 2.622,-6.219 4.746,-9.788 -0.487,0.035 -0.906,1.008 -1.07,1.779 0.419,-5.471 6.694,-8.145 7.539,-12.812 0.906,-0.759 1.206,-1.529 1.393,-2.322 -0.057,0.091 -0.125,0.159 -0.199,0.204 0.051,-0.102 0.142,-0.238 0.233,-0.396 0.096,-0.51 0.186,-1.054 0.328,-1.609 -0.023,0.532 -0.085,1.02 -0.198,1.405 0.465,-0.725 1.252,-1.768 2.135,-2.719 l -0.674,-1.053 c 0.057,-0.08 0.113,-0.147 0.187,-0.238 0.289,-1.292 0.974,-0.578 1.342,0.43 0.488,-0.442 0.997,-0.816 1.473,-1.065 -1.008,-1.812 2.288,-2.503 1.382,-4.701 1.263,-0.226 4.004,-5.052 6.066,-4.53 -0.198,-0.17 -0.091,-0.556 -0.487,0.01 0.583,-1.313 1.161,-2.616 2.322,-3.386 l -0.872,-1.281 3.296,-1.551 c 0.289,-2.05 0.289,-2.991 -1.648,-2.017 3.862,-2.865 2.537,-2.707 6.043,-4.973 l -0.872,-0.362 c 0.793,-1.121 3.03,-2.266 2.855,-3.364 0.209,-3.546 8.246,-12.699 11.378,-20.073 1.371,2.787 1.082,-3.704 2.996,-2.752 -0.266,-0.749 0.057,-1.858 -1.127,-1.133 2.809,-2.922 2.6,-5.551 5.658,-6.763 -0.266,-0.759 -1.263,0.147 -1.342,-0.407 0.3,-0.182 1.195,-0.725 1.127,-1.28 -0.085,-0.555 -0.793,0.159 -1.382,0.52 2.458,-3.284 4.316,-2.469 6.009,-1.631 0.488,-2.209 1.184,-2.978 3.048,-3.488 -0.08,-0.941 0.096,-2.3 -1.552,-0.352 0.742,-1.234 4.35,-7.634 5.647,-6.876 -0.035,-0.589 1.081,-1.687 1.449,-1.891 1.801,-2.662 1.858,-2.957 3.818,-5.449 l -0.312,0.861 c 2.192,0.046 1.841,-1.892 3.523,-3.818 l -0.192,-0.044 c 1.189,-2.731 1.693,-3.15 2.163,-3.569 0.21,-0.18 0.504,-0.464 0.918,-1.11 0.419,-0.668 0.951,-1.665 1.903,-3.579 l 0.408,1.347 c 0.917,0.793 1.473,-0.577 2.435,-2.809 0.906,-2.153 2.389,-5.414 3.721,-6.446 l -0.843,2.244 c 0.31,-0.124 0.65,-0.691 1.03,-1.586 0.64,0.216 1.438,-0.068 2.356,-0.114 0.895,-0.056 1.892,0.114 2.572,0.816 0.419,0.204 -0.488,-1.19 -0.974,-2.084 2.441,2.005 2.531,2.73 2.299,3.398 -0.209,0.702 -0.589,1.518 0.832,3.648 0.941,-0.057 0.074,-3.217 2.425,-0.386 0.747,0.442 2.094,3.263 3.5,5.959 l 0.544,1.031 0.34,0.736 c 0.238,0.475 0.498,0.94 0.769,1.371 0.545,0.872 1.201,1.596 2.006,2.016 -0.93,-0.204 -1.847,-0.408 -1.213,1.201 1.359,2.152 5.981,4.1 5.822,7.09 0.34,0.17 0.522,0.17 0.659,0.08 0.747,1.87 3.103,5.584 2.945,7.148 4.224,-0.872 5.596,10.863 8.472,8.745 l 3.331,4.973 0.214,-0.34 c 2.403,2.978 2.47,4.588 2.549,6.184 0.703,0.589 0.612,-0.135 0.725,-0.305 3.806,4.168 4.011,4.712 5.188,9.594 l 1.224,-0.26 c 0.182,1.416 6.094,5.664 7.975,11.021 0.089,-0.124 0.214,-0.34 0.089,-0.781 2.289,5.868 10.807,10.716 8.407,14.895 l 1.267,4.033 c -3.057,-4.316 -1.154,1.62 -2.899,0.148 0.884,1.88 3.897,3.885 2.764,1.597 l -0.408,-0.216 c 1.428,-1.959 4.055,5.211 5.256,4.328 5.199,9.005 11.169,17.376 15.451,26.325 l -2.027,-0.306 1.529,3.07 c 0.747,0.645 1.733,0.544 0.634,-1.654 1.45,0.759 0.974,4.101 0.634,4.304 2.526,4.169 1.088,-2.526 1.699,-1.177 l 0.691,1.914 -0.374,-0.351 c -0.022,1.801 -0.577,2.175 0.567,4.916 0.997,1.643 1.325,0.532 1.653,1.2 0.113,-0.045 0.25,0.17 0.453,1.054 0,0 0.453,0.997 0.817,2.05 0.384,1.054 0.781,2.096 0.781,2.096 L 63.865,89.93 c -0.011,2.061 1.37,3.896 -0.725,2.446 0.815,0.51 1.575,1.745 2.209,3.353 0.69,1.575 1.212,3.557 1.62,5.551 0.453,1.971 0.645,3.988 0.838,5.607 0.113,1.654 0.25,2.878 0.43,3.364 -1.008,2.957 -1.087,5.777 -2.152,9.437 0.057,-0.499 -0.34,-0.975 -0.736,-0.952 -0.374,0.023 -0.917,0.51 -1.394,1.937 1.654,0.091 1.473,1.608 0.498,3.523 -0.453,0.951 -1.211,1.903 -1.811,2.888 -0.68,0.884 -1.246,1.847 -1.519,2.741 0.612,-1.404 -1.494,0.17 -3.613,0.997 -1.053,0.442 -2.072,0.737 -2.662,0.669 -0.567,-0.023 -0.691,-0.34 -0.023,-1.11 -2.424,1.064 0.249,1.166 -1.54,2.503 -3.33,0.295 -6.615,0.736 -10.15,1.008 -3.512,0.26 -7.182,0.26 -10.715,-0.543 -0.035,-0.431 1.246,-0.839 -0.149,-1.711 0,0 -1.03,0.329 -2.049,0.669 -1.02,0.328 -2.039,0.622 -2.039,0.622 -1.36,-0.521 -0.771,-2.56 -3.557,-1.812 0.431,-0.238 1.076,-0.623 0.204,-0.974 -6.933,-0.691 -13.503,-3.342 -19.926,-6.004 -6.445,-2.673 -12.811,-5.392 -19.88,-6.638 2.039,0.079 0.941,-0.521 -0.339,-1.155 0.917,0.215 0.419,-0.929 0.827,-1.36 l -5.867,-1.098 c -0.256,-1.847 -5.478,-2.889 -5.325,-4.497 l 1.495,1.087 c -1.336,-2.662 4.781,-1.915 5.449,-4.101 1.517,2.979 7.555,0.454 10.308,4.826 1.065,-0.012 -0.453,-0.997 0.238,-1.246 0.6,1.325 1.733,2.062 4.157,2.662 l -0.158,-0.329 c 6.275,2.98 9.378,3.24 16.832,5.29 l -0.907,0.85 c 1.61,0.43 2.063,0.193 2.868,0.193 1.256,2.231 -4.418,-1.45 -3.411,0.86 2.809,-1.302 11.169,3.716 13.299,1.53 2.424,0.657 -1.043,1.064 1.382,1.687 l 0.815,-0.51 0.409,1.02 c 1.631,0.261 2.627,-0.441 2.82,-0.985 -0.396,-0.023 -1.054,-0.408 -1.45,-0.544 2.209,-0.317 5.698,1.484 6.468,1.302 0,0 -0.6,0.035 -1.201,0.023 -0.588,0 -1.2,-0.023 -1.2,-0.023 3.239,0.952 6.932,1.405 10.432,1.496 3.512,0.102 6.752,-0.181 9.504,-0.442 l -0.227,0.623 c 2.221,-0.261 2.877,-0.917 3.455,-1.552 0.328,-0.295 0.555,-0.691 0.93,-1.121 0.441,-0.385 0.85,-0.986 1.597,-1.733 l -0.181,0.057 c 0.418,-0.227 0.838,-0.556 1.246,-0.975 0.385,-0.441 0.611,-1.042 0.86,-1.62 -0.544,0.42 -0.566,-0.17 -0.725,-0.736 -0.181,-0.578 -0.373,-1.053 -0.871,-0.464 1.076,-1.881 1.189,-2.594 1.619,-2.9 0.363,-0.363 0.838,-0.453 1.835,-2.153 l -0.861,-0.804 c 0.77,-1.167 1.167,-1.314 1.156,-4.066 -0.476,2.288 -1.495,-1.552 -2.198,0.996 -0.624,-1.314 -0.952,-2.491 -1.053,-3.545 -0.17,-1.065 -0.182,-2.039 -0.17,-2.911 0.022,-1.756 -0.204,-3.172 -1.858,-4.044 1.586,-3.24 2.651,4.452 2.719,2.889 1.076,1.042 1.166,-2.583 0.407,-4.328 -0.26,-0.906 -1.292,-1.439 -2.356,-2.299 -1.088,-0.861 -2.231,-2.017 -3.081,-4.214 0.181,0.43 0.022,0.532 0.204,0.951 -1.224,-1.393 -0.431,-3.523 -2.221,-5.131 0.862,-1.688 -1.177,-2.549 0.386,-3.625 l 1.314,4.191 c -0.543,-2.435 0.6,-5.494 -2.141,-8.79 -0.215,0.453 -0.136,1.756 -0.034,2.628 -0.997,-0.861 -0.634,-2.232 -1.677,-3.127 -1.54,1.111 1.926,4.985 1.598,7.975 -1.19,-0.838 -0.737,-5.097 -2.051,-3.069 1.496,-2.787 -2.197,-4.101 -1.902,-7.817 l -0.907,0.68 C 47.213,73.471 47.213,72.292 46.76,71.466 l -0.522,2.152 c -0.067,-2.877 -3.205,-3.976 -3.804,-6.479 2.434,4.632 1.744,0.419 3.5,2.005 -1.78,-6.423 -4.26,-1.971 -7.33,-8.53 0.339,0.929 2.402,2.888 2.084,1.303 -0.883,-1.1 -2.152,-2.481 -3.069,-2.935 -2.164,-4.293 1.348,0.08 0.94,-2.039 -1.971,-0.758 -0.703,-2.321 -1.405,-4.372 l -0.985,0.555 c -3.433,-4.361 1.28,-2.469 -2.028,-6.287 l -0.248,2.606 -0.998,-2.424 -0.815,1.132 c -0.669,-2.888 -1.338,-3.522 -3.094,-5.664 1.009,0.114 1.553,-1.404 0.284,-3.488 -1.472,-1.054 -0.408,1.359 -2.141,-1.666 -0.17,1.043 -0.464,2.243 1.234,2.957 -0.237,0.329 -0.203,1.042 -0.418,1.359 -1.597,-1.11 -2.572,-3.693 -3.24,-4.768 0.307,0.385 0.668,0.838 0.951,0.996 l -1.392,-5.074 c -0.793,-0.431 -0.725,0.271 -0.668,0.985 -0.453,-0.917 -0.386,-1.812 -1.145,-3.115 -0.566,0.838 -1.383,1.268 -0.6,3.285 L 20.072,29.406 C 19.551,29.361 17.795,27.968 17.863,28.67 15.961,26.756 15.745,22.259 13.14,19.755 13.186,19.495 13.117,19.109 12.8,18.407 10.783,15.791 8.189,14.012 6.955,10.081 L 4.315,9.209 C 2.854,6.468 7.748,10.489 5.312,5.924 3.646,2.662 3.387,5.641 2.266,4.859 1.902,2.911 1.427,-0.623 -1.609,-2.549 -1.201,-1.473 -0.51,-0.906 0,0 m -21.427,-30.132 c 0.052,0.249 0.063,0.669 0.119,0.963 0.068,0.295 0.176,0.453 0.663,0.556 0.555,-1.406 -0.085,-1.224 -0.782,-1.519 m -28.936,24.015 c 0.623,-0.227 0.963,-1.031 1.167,-2.062 -0.476,0.521 -0.901,1.19 -1.167,2.062 m -82.867,140.213 c 0.011,-0.034 0.022,-0.057 0.045,-0.091 -0.487,-1.982 -0.289,-1.268 -0.045,0.091 m 0.94,4.157 c -0.085,0.465 -0.243,0.465 -0.43,0.317 0.232,-0.362 0.102,-1.314 -0.142,-2.401 0.351,0.272 0.617,0.782 0.572,2.084 M 63.412,86.497 62.891,85.965 c 0.249,1.563 0.373,1.054 0.521,0.532"
             style="fill:#314b47;fill-opacity:1;fill-rule:nonzero;stroke:none"
             id="path290"
             inkscape:connector-curvature="0" /></g><g
           id="g292"
           transform="translate(408.5894,267.583)"><path
             d="M 0,0 C -0.034,-0.283 -0.175,-0.453 -0.312,-0.611 0,-0.748 0.187,-0.611 0,0"
             style="fill:#292929;fill-opacity:1;fill-rule:nonzero;stroke:none"
             id="path294"
             inkscape:connector-curvature="0" /></g><g
           id="g296"
           transform="translate(466.9668,297.8276)"><path
             d="M 0,0 0.078,0.08 C 0.057,0.17 0.021,0.249 -0.023,0.306 L 0,0 Z"
             style="fill:#292929;fill-opacity:1;fill-rule:nonzero;stroke:none"
             id="path298"
             inkscape:connector-curvature="0" /></g><g
           id="g300"
           transform="translate(345.8516,367.4585)"><path
             d="M 0,0 C 0.175,-0.691 0.164,-1.133 0.096,-1.461 0.351,-1.371 0.419,-0.986 0,0"
             style="fill:#292929;fill-opacity:1;fill-rule:nonzero;stroke:none"
             id="path302"
             inkscape:connector-curvature="0" /></g><g
           id="g304"
           transform="translate(339.2588,432.5469)"><path
             d="M 0,0 -2.809,-0.544 C -1.45,-0.362 -0.94,-0.566 -0.255,-0.68 -0.329,-0.431 -0.895,-0.091 0,0"
             style="fill:#292929;fill-opacity:1;fill-rule:nonzero;stroke:none"
             id="path306"
             inkscape:connector-curvature="0" /></g><g
           id="g308"
           transform="translate(358.1533,422.1143)"><path
             d="M 0,0 C 0.345,0.022 0.651,-0.204 0.997,-0.17 L 1.076,0.351 C -0.232,0.771 -1.263,0.657 0,0"
             style="fill:#292929;fill-opacity:1;fill-rule:nonzero;stroke:none"
             id="path310"
             inkscape:connector-curvature="0" /></g><g
           id="g312"
           transform="translate(341.6602,428.7974)"><path
             d="m 0,0 c 0.176,-0.917 1.637,-0.702 3.296,-0.691 -0.096,0 -0.187,0 -0.289,0.023 C 3.642,0.589 1.812,0.385 0,0"
             style="fill:#292929;fill-opacity:1;fill-rule:nonzero;stroke:none"
             id="path314"
             inkscape:connector-curvature="0" /></g><g
           id="g316"
           transform="translate(345.3418,428.0952)"><path
             d="M 0,0 C 0.499,-0.023 1.008,-0.08 1.484,-0.204 1.761,0.294 0.906,0 0,0"
             style="fill:#292929;fill-opacity:1;fill-rule:nonzero;stroke:none"
             id="path318"
             inkscape:connector-curvature="0" /></g><g
           id="g320"
           transform="translate(323.0093,422.2158)"><path
             d="M 0,0 C 0.719,0.816 -0.748,1.235 -0.074,1.575 -0.261,2.447 -0.952,0.589 -1.07,-0.713 -1.207,-2.016 -1.025,-2.718 0,0"
             style="fill:#292929;fill-opacity:1;fill-rule:nonzero;stroke:none"
             id="path322"
             inkscape:connector-curvature="0" /></g><g
           id="g324"
           transform="translate(342.8154,425.6143)"><path
             d="M 0,0 -0.487,1.212 -1.404,0.283 C -1.404,0.283 0,0.034 0,0"
             style="fill:#292929;fill-opacity:1;fill-rule:nonzero;stroke:none"
             id="path326"
             inkscape:connector-curvature="0" /></g><g
           id="g328"
           transform="translate(330.6387,423.938)"><path
             d="M 0,0 C 0,0 0.611,0.249 1.217,0.521 1.518,0.634 1.818,0.759 2.05,0.861 2.282,0.917 2.446,0.952 2.446,0.952 2.333,1.11 2.6,1.325 2.945,1.552 2.565,1.427 2.169,1.292 1.795,1.167 1.438,0.997 1.099,0.815 0.81,0.679 0.232,0.362 -0.13,0.125 0,0"
             style="fill:#292929;fill-opacity:1;fill-rule:nonzero;stroke:none"
             id="path330"
             inkscape:connector-curvature="0" /></g><g
           id="g332"
           transform="translate(333.5835,425.4897)"><path
             d="M 0,0 C 0.793,0.306 1.546,0.521 1.96,0.793 1.745,0.736 1.394,0.657 1.037,0.533 0.674,0.374 0.294,0.193 0,0"
             style="fill:#292929;fill-opacity:1;fill-rule:nonzero;stroke:none"
             id="path334"
             inkscape:connector-curvature="0" /></g><g
           id="g336"
           transform="translate(339.4741,425.3198)"><path
             d="m 0,0 -0.731,0.17 c 0,0.011 -1.739,-0.034 -1.727,-0.08 0,0 0.611,-0.01 1.229,-0.033 C -0.618,0.023 0,0 0,0"
             style="fill:#292929;fill-opacity:1;fill-rule:nonzero;stroke:none"
             id="path338"
             inkscape:connector-curvature="0" /></g><g
           id="g340"
           transform="translate(326.9287,398.2471)"><path
             d="M 0,0 1.093,-2.504 C 1.558,-2.651 1.58,-1.869 1.15,-0.963 0.697,-0.419 0.255,0.51 0,0"
             style="fill:#292929;fill-opacity:1;fill-rule:nonzero;stroke:none"
             id="path342"
             inkscape:connector-curvature="0" /></g><g
           id="g344"
           transform="translate(328.4751,406.7427)"><path
             d="M 0,0 C -0.13,-0.713 -0.385,-0.793 -0.697,-1.246 L 0.753,-1.11 0,0 Z"
             style="fill:#292929;fill-opacity:1;fill-rule:nonzero;stroke:none"
             id="path346"
             inkscape:connector-curvature="0" /></g><g
           id="g348"
           transform="translate(330.2871,399.4365)"><path
             d="M 0,0 C 0.442,-0.159 2.181,-3.285 1.15,-0.182 0.674,-0.046 -0.209,2.39 0,0"
             style="fill:#292929;fill-opacity:1;fill-rule:nonzero;stroke:none"
             id="path350"
             inkscape:connector-curvature="0" /></g><g
           id="g352"
           transform="translate(341.8188,361.3643)"><path
             d="M 0,0 2.401,0.601 2.067,1.201 0,0 Z"
             style="fill:#292929;fill-opacity:1;fill-rule:nonzero;stroke:none"
             id="path354"
             inkscape:connector-curvature="0" /></g></g></g><g
       id="g356"><g
         id="g358"
         clip-path="url(#clipPath360)"><g
           id="g364"
           transform="translate(366.8413,334.1328)"><path
             d="M 0,0 C -1.149,2.99 -1.648,-0.125 -2.515,2.673 -3.375,3.013 -1.795,0.385 -2.611,0.77 -1.116,-0.544 -0.883,-1.563 0,0"
             style="fill:#292929;fill-opacity:1;fill-rule:nonzero;stroke:none"
             id="path366"
             inkscape:connector-curvature="0" /></g><g
           id="g368"
           transform="translate(364.2305,334.9141)"><path
             d="M 0,0 C -0.244,0.204 -0.499,0.431 -0.81,0.635 -0.408,0.238 -0.164,0.079 0,0"
             style="fill:#292929;fill-opacity:1;fill-rule:nonzero;stroke:none"
             id="path370"
             inkscape:connector-curvature="0" /></g></g></g><g
       id="g372"><g
         id="g374"
         clip-path="url(#clipPath376)"><g
           id="g380"
           transform="translate(427.4443,390.8838)"><path
             d="M 0,0 1.569,-0.091 2.09,0.51 0,0 Z"
             style="fill:#292929;fill-opacity:1;fill-rule:nonzero;stroke:none"
             id="path382"
             inkscape:connector-curvature="0" /></g></g></g><g
       id="g384"><g
         id="g386"
         clip-path="url(#clipPath388)"><g
           id="g392"
           transform="translate(426.793,387.9844)"><path
             d="M 0,0 -1.15,1.099 -1.62,-0.714 C -1.218,-0.408 -0.477,0.136 0,0"
             style="fill:#292929;fill-opacity:1;fill-rule:nonzero;stroke:none"
             id="path394"
             inkscape:connector-curvature="0" /></g><g
           id="g396"
           transform="translate(429.4609,249.1416)"><path
             d="M 0,0 0.107,-0.465 C 0.3,-0.861 0.419,-0.759 0.65,-0.544 0.64,-0.578 -0.023,-0.022 0,0"
             style="fill:#292929;fill-opacity:1;fill-rule:nonzero;stroke:none"
             id="path398"
             inkscape:connector-curvature="0" /></g></g></g><g
       id="g400"><g
         id="g402"
         clip-path="url(#clipPath404)"><g
           id="g408"
           transform="translate(443.1562,265.5215)"><path
             d="M 0,0 1.631,-0.091 0.305,0.374 0,0 Z"
             style="fill:#292929;fill-opacity:1;fill-rule:nonzero;stroke:none"
             id="path410"
             inkscape:connector-curvature="0" /></g></g></g><g
       id="g412"><g
         id="g414"
         clip-path="url(#clipPath416)"><g
           id="g420"
           transform="translate(455.6162,285.6162)"><path
             d="M 0,0 C -0.589,-0.736 -0.975,-1.812 -1.586,-2.549 -0.589,-0.736 1.528,-0.77 0,0"
             style="fill:#292929;fill-opacity:1;fill-rule:nonzero;stroke:none"
             id="path422"
             inkscape:connector-curvature="0" /></g></g></g><g
       id="g424"><g
         id="g426"
         clip-path="url(#clipPath428)"><g
           id="g432"
           transform="translate(429.5342,234.9473)"><path
             d="m 0,0 83.784,122.701 c 0,0 25.515,70.903 -32.508,47.739 C 0.811,150.293 1.732,151.591 1.732,151.591 c 0,0 -137.124,98.692 -102.695,-6.449 0,0 64.164,-100.975 100.963,-145.142"
             style="fill:#314b47;fill-opacity:1;fill-rule:nonzero;stroke:none"
             id="path434"
             inkscape:connector-curvature="0" /></g></g></g></g></svg>