<?xml version="1.0" encoding="UTF-8" standalone="no"?>
<!-- Created with Inkscape (http://www.inkscape.org/) -->

<svg
   xmlns:dc="http://purl.org/dc/elements/1.1/"
   xmlns:cc="http://creativecommons.org/ns#"
   xmlns:rdf="http://www.w3.org/1999/02/22-rdf-syntax-ns#"
   xmlns:svg="http://www.w3.org/2000/svg"
   xmlns="http://www.w3.org/2000/svg"
   xmlns:sodipodi="http://sodipodi.sourceforge.net/DTD/sodipodi-0.dtd"
   xmlns:inkscape="http://www.inkscape.org/namespaces/inkscape"
   width="47.06369mm"
   height="12.599537mm"
   viewBox="0 0 166.7611 44.644028"
   id="svg3592"
   version="1.1"
   inkscape:version="0.91 r13725"
   sodipodi:docname="logo_simple.svg">
  <defs
     id="defs3594" />
  <sodipodi:namedview
     id="base"
     pagecolor="#ffffff"
     bordercolor="#666666"
     borderopacity="1.0"
     inkscape:pageopacity="0.0"
     inkscape:pageshadow="2"
     inkscape:zoom="3.959798"
     inkscape:cx="-4.0052755"
     inkscape:cy="30.544662"
     inkscape:document-units="px"
     inkscape:current-layer="Group"
     showgrid="false"
     fit-margin-top="0"
     fit-margin-left="-0.5"
     fit-margin-right="-5"
     fit-margin-bottom="0"
     inkscape:window-width="1920"
     inkscape:window-height="1017"
     inkscape:window-x="-4"
     inkscape:window-y="-4"
     inkscape:window-maximized="1" />
  <metadata
     id="metadata3597">
    <rdf:RDF>
      <cc:Work
         rdf:about="">
        <dc:format>image/svg+xml</dc:format>
        <dc:type
           rdf:resource="http://purl.org/dc/dcmitype/StillImage" />
        <dc:title></dc:title>
      </cc:Work>
    </rdf:RDF>
  </metadata>
  <g
     inkscape:label="Layer 1"
     inkscape:groupmode="layer"
     id="layer1"
     transform="translate(-29.532831,-250.04019)">
    <g
       transform="matrix(0.28061831,0,0,0.28061831,-104.20884,158.00122)"
       style="isolation:isolate"
       id="Group">
      <rect
         x="470.28299"
         y="334.94199"
         width="650.40399"
         height="109.783"
         id="rect12"
         style="fill:none" />
      <path
         d="m 494.782,331.152 0,0 q 0.226,-1.355 5.926,-2.371 l 0,0 0,0 q 5.701,-1.016 9.143,-0.733 l 0,0 0,0 q 3.443,0.282 5.024,0.677 l 0,0 0,0 q 1.58,0.395 2.539,0.734 l 0,0 0,0 q 0.96,0.338 2.879,1.072 l 0,0 0,0 q 1.919,0.734 2.822,1.072 l 0,0 0,0 q 5.757,2.258 11.739,8.635 l 0,0 0,0 q 5.983,6.378 7.676,13.377 l 0,0 0,0 q 0.677,2.483 0.959,6.321 l 0,0 0,0 q 0.283,3.838 -0.508,5.362 l 0,0 0,0 q -0.79,1.524 0.226,1.862 l 0,0 0,0 q -0.226,0.452 -0.959,2.935 l 0,0 0,0 q -0.734,2.483 -1.073,3.386 l 0,0 0,0 q -0.677,7.112 -6.321,16.707 l 0,0 0,0 q -0.677,0.112 -0.79,0.451 l 0,0 0,0 q 0,0.564 -1.242,2.145 l 0,0 0,0 q -0.338,0.226 -1.411,1.637 l 0,0 0,0 q -1.072,1.41 -1.524,1.749 l 0,0 0,0 q -0.112,0.79 -0.677,1.298 l 0,0 0,0 q -0.564,0.508 -1.016,0.508 l 0,0 0,0 q 0,0.339 -0.338,0.452 l 0,0 0,0 q -2.032,2.935 -7.394,7.224 l 0,0 0,0 q -5.362,4.289 -9.538,6.095 l 0,0 0,0 q -0.565,0.452 -4.741,2.371 l 0,0 0,0 q -0.903,0.79 -4.572,2.201 l 0,0 0,0 q -3.668,1.411 -7.224,2.032 l 0,0 0,0 q -3.556,0.621 -7.958,-0.621 l 0,0 0,0 q -1.693,-0.339 -2.483,-1.242 l 0,0 0,0 q -0.791,-0.903 -0.96,-1.072 l 0,0 0,0 q -0.169,-0.169 -0.677,-0.903 l 0,0 0,0 q -0.508,-0.734 -0.847,-1.072 l 0,0 0,0 q -2.935,-4.177 -1.806,-5.87 l 0,0 0,0 q 1.016,-1.693 3.838,1.919 l 0,0 0,0 q 3.161,3.273 9.821,2.37 l 0,0 0,0 q 7.901,-1.467 11.626,-4.289 l 0,0 13.207,-8.805 0,0 q 0.226,-0.564 2.37,-1.354 l 0,0 0,0 q 0.565,-0.452 3.5,-3.443 l 0,0 0,0 q 2.935,-2.991 3.386,-3.33 l 0,0 0,0 q 0.113,-0.564 0.395,-1.524 l 0,0 0,0 q 0.282,-0.959 0.282,-1.411 l 0,0 0,0 q 1.355,-1.467 4.064,-7.055 l 0,0 0,0 q 2.709,-5.587 3.725,-9.651 l 0,0 0,0 q 2.145,-10.949 -0.169,-17.666 l 0,0 0,0 q -2.314,-6.716 -8.297,-11.908 l 0,0 0,0 q -2.37,-1.919 -7.845,-4.233 l 0,0 0,0 q -5.475,-2.314 -6.095,-2.089 l 0,0 0,0 q -0.621,0.226 -1.581,2.371 l 0,0 0,0 q -0.959,2.145 -2.483,6.265 l 0,0 0,0 q -1.524,4.12 -2.935,7.901 l 0,0 0,0 q -1.411,3.782 -3.499,9.595 l 0,0 0,0 q -2.088,5.813 -3.217,8.861 l 0,0 0,0 q -0.452,1.806 -1.355,4.402 l 0,0 0,0 q -2.032,5.983 -2.032,6.547 l 0,0 0,0 q -2.031,3.048 -3.612,15.578 l 0,0 0,0 q -1.129,4.515 -1.298,5.249 l 0,0 0,0 q -0.169,0.733 -0.339,1.128 l 0,0 0,0 q -0.169,0.395 -0.282,0.734 l 0,0 0,0 q -0.225,0.564 -0.451,0.564 l 0,0 -0.452,0.452 0,0 q 0,1.355 -2.032,0.564 l 0,0 0,0 q -2.031,-0.79 -2.822,-1.58 l 0,0 0,0 q -0.79,-2.596 0.452,-6.773 l 0,0 0,0 q 2.032,-8.466 4.684,-16.254 l 0,0 0,0 q 2.653,-7.789 4.967,-15.803 l 0,0 0,0 q 2.314,-8.015 4.12,-11.401 l 0,0 0,0 q 3.725,-10.611 4.628,-12.756 l 0,0 0.79,-3.725 -1.241,-0.564 0,0 q -2.032,0.677 -3.048,0 l 0,0 0,0 q -1.129,0.339 -3.104,-0.959 l 0,0 0,0 q -1.976,-1.299 -2.201,-2.427 l 0,0 -0.339,-1.919 z m 71.791,48.425 0,0 0,0 q 1.919,-0.79 3.895,-2.822 l 0,0 0,0 q 1.975,-2.032 1.975,-3.556 l 0,0 0,0 q 0,-1.524 -1.58,-2.483 l 0,0 0,0 q -1.581,-0.96 -3.725,-0.395 l 0,0 0,0 q -2.145,0.564 -4.403,2.596 l 0,0 0,0 q -2.257,2.032 -3.725,4.007 l 0,0 0,0 q -1.467,1.976 -1.128,2.314 l 0,0 0,0 q 0.451,0.903 3.612,1.016 l 0,0 0,0 q 3.16,0.113 5.079,-0.677 z m -0.169,18.23 0,0 0,0 q 0.282,-0.169 0.339,-0.169 l 0,0 0,0 q 0.056,0 0.225,-0.113 l 0,0 0,0 q 0.17,-0.113 0.17,-0.226 l 0,0 0,0 q 0.79,-0.677 1.975,-1.863 l 0,0 0,0 q 1.185,-1.185 1.75,-1.185 l 0,0 0,0 q 0.564,0 1.185,0.565 l 0,0 0,0 q 0.621,0.564 0.846,0.677 l 0,0 0,0 q 1.807,0 -0.508,2.935 l 0,0 0,0 q -2.314,2.935 -5.7,5.079 l 0,0 0,0 q -3.612,3.161 -8.522,2.314 l 0,0 0,0 q -4.911,-0.846 -7.845,-4.91 l 0,0 0,0 q -3.5,-4.402 -2.597,-14.11 l 0,0 0,0 q 0.452,-6.321 5.419,-12.925 l 0,0 0,0 q 4.966,-6.603 10.497,-8.748 l 0,0 0,0 q 1.581,-1.016 2.935,-1.072 l 0,0 0,0 q 1.355,-0.056 4.572,0.395 l 0,0 0,0 q 3.217,0.452 5.023,2.709 l 0,0 0,0 q 2.822,2.822 2.822,6.547 l 0,0 0,0 q -0.452,2.709 -3.499,6.209 l 0,0 0,0 q -3.048,3.499 -7.337,5.643 l 0,0 0,0 q -6.322,1.919 -10.272,-0.79 l 0,0 0,0 q -2.032,-0.79 -2.766,0.339 l 0,0 0,0 q -0.734,1.129 -1.298,5.644 l 0,0 0,0 q -0.903,7.789 3.725,8.579 l 0,0 0,0 q 0.451,0.113 1.354,0.282 l 0,0 0,0 q 0.903,0.169 1.186,0.226 l 0,0 0,0 q 0.282,0.056 0.959,0.113 l 0,0 0,0 q 0.677,0.056 1.129,-0.057 l 0,0 0,0 q 0.903,-0.226 1.75,-0.734 l 0,0 0,0 q 0.846,-0.508 1.298,-0.733 l 0,0 0,0 q 0.903,-0.452 1.185,-0.621 z m 94.762,-7.845 0,0 -2.935,10.046 0,0 q -2.596,11.965 -2.596,12.304 l 0,0 0,0 q -0.564,0.564 -3.499,-0.677 l 0,0 0,0 q -2.258,-1.242 -2.597,-2.653 l 0,0 0,0 q -0.338,-1.411 0.395,-2.935 l 0,0 0,0 q 0.734,-1.524 3.669,-12.586 l 0,0 0,0 q 1.355,-3.838 3.161,-10.723 l 0,0 0,0 q 1.806,-6.886 2.032,-7.112 l 0,0 0,-1.129 0,0 q 0,-0.564 -9.2,-0.508 l 0,0 0,0 q -9.2,0.057 -15.408,0.847 l 0,0 -8.24,0 0,0 q -0.565,1.242 -3.443,10.441 l 0,0 0,0 q -2.879,9.2 -4.459,16.932 l 0,0 0,0 q -1.58,7.732 -3.838,14.618 l 0,0 0,0 q -1.129,-0.564 -2.37,-0.564 l 0,0 0,0 q -1.693,-0.452 -2.54,-1.976 l 0,0 0,0 q -0.847,-1.524 -0.395,-3.33 l 0,0 0,0 q 0.903,-0.903 0.903,-4.289 l 0,0 0,0 q 0.564,-1.129 1.298,-4.797 l 0,0 0,0 q 0.734,-3.669 4.007,-15.408 l 0,0 0,0 q 3.274,-11.74 4.064,-12.53 l 0,0 0,-1.242 0,0 q 0,-1.693 1.242,-3.499 l 0,0 0,0 q 1.128,-3.386 1.128,-4.628 l 0,0 0,0 q 0,0 6.547,-15.916 l 0,0 0,-0.564 0,0 q 0.226,-0.226 2.822,-6.039 l 0,0 0,0 q 2.597,-5.814 3.5,-7.733 l 0,0 0,0 q 0.903,-1.919 1.354,-2.765 l 0,0 0,0 q 0.452,-0.847 0.79,-1.411 l 0,0 0,0 q 0.339,-0.565 0.339,-0.903 l 0,0 0,0 q 0.903,-1.242 2.653,-0.621 l 0,0 0,0 q 1.749,0.621 2.652,2.427 l 0,0 1.129,1.806 -4.064,8.127 0,0 q -4.176,7.337 -4.176,8.805 l 0,0 0,0 q -2.596,6.547 -3.556,9.595 l 0,0 0,0 q -0.959,3.047 -1.862,5.079 l 0,0 0,0 q -1.806,4.064 -1.806,4.402 l 0,0 0,0 q 0,-0.338 6.208,-0.451 l 0,0 0,0 q 19.641,-0.113 21.786,-0.452 l 0,0 5.869,-0.564 8.805,-26.978 0,0 q 1.693,-4.854 2.709,-6.265 l 0,0 0,0 q 1.016,-1.411 2.032,-1.411 l 0,0 0,0 q 1.016,0 2.088,0.508 l 0,0 0,0 q 1.072,0.508 1.411,1.298 l 0,0 0,0 q 2.596,2.371 -0.564,6.999 l 0,0 0,0 q -1.806,3.16 -3.217,7.337 l 0,0 0,0 q -1.411,4.176 -1.863,5.079 l 0,0 0,0 q 0,2.371 -0.79,3.161 l 0,0 0,0 q -0.79,0.79 -1.919,3.556 l 0,0 0,0 q -1.129,2.765 -1.129,4.176 l 0,0 0,0 q 0,1.411 -1.129,2.54 l 0,0 0,0 q -5.079,17.609 -6.998,22.576 z m 39.395,-8.805 0,0 0,0 q 0.677,-1.806 0.621,-4.91 l 0,0 0,0 q -0.057,-3.104 -0.96,-3.556 l 0,0 0,0 q -3.16,-1.806 -7.45,1.693 l 0,0 0,0 q -5.644,4.854 -11.175,17.158 l 0,0 0,0 q -2.37,5.644 0.339,7.902 l 0,0 0,0 q 3.386,2.822 11.175,-5.644 l 0,0 0,0 q 4.854,-5.531 7.45,-12.643 z m -21.786,-0.79 0,0 0,0 q 7.563,-12.53 17.609,-14.9 l 0,0 0,0 q 2.371,-0.677 3.443,-0.564 l 0,0 0,0 q 1.072,0.112 2.653,1.806 l 0,0 0,0 q 2.596,1.128 3.781,2.709 l 0,0 0,0 q 1.185,1.58 1.524,4.628 l 0,0 0,0 q 0.903,8.804 -5.87,18.512 l 0,0 0,0 q -2.596,3.725 -4.853,5.7 l 0,0 0,0 q -2.258,1.976 -5.983,4.233 l 0,0 0,0 q -4.402,2.935 -8.805,3.274 l 0,0 0,0 q -1.919,0 -4.402,-2.145 l 0,0 0,0 q -4.289,-4.402 -3.612,-8.353 l 0,0 0.226,-2.596 0,0 q -0.565,-0.565 -0.282,-0.903 l 0,0 0,0 q 0.282,-0.339 0.395,-0.452 l 0,0 0,0 q 0.677,0 0.451,-1.072 l 0,0 0,0 q -0.226,-1.072 0.903,-4.177 l 0,0 0,0 q 1.129,-3.104 2.822,-5.7 z m 44.7,-11.401 0,0 1.242,-3.838 0,0 q 0.564,-0.451 2.088,-4.91 l 0,0 0,0 q 1.524,-4.459 2.879,-7.393 l 0,0 0,0 q 4.063,-9.031 5.644,-13.433 l 0,0 0,0 q 0.677,-1.016 1.467,-2.371 l 0,0 0,0 q 1.58,-2.934 2.145,-3.16 l 0,0 0,0 q 0.903,-0.226 2.314,0.338 l 0,0 0,0 q 1.411,0.565 2.144,1.694 l 0,0 0,0 q 0.734,1.128 0.396,2.144 l 0,0 0,0 q -0.339,1.016 -4.459,9.708 l 0,0 0,0 q -4.12,8.692 -6.265,14.223 l 0,0 0,0 q -2.145,5.531 -3.838,10.498 l 0,0 0,0 q -1.693,4.966 -2.257,6.434 l 0,0 -0.565,2.483 2.822,-2.709 0,0 q 1.355,-1.016 4.29,-3.612 l 0,0 0,0 q 2.934,-2.596 3.668,-3.048 l 0,0 0,0 q 0.734,-0.452 3.33,-1.58 l 0,0 0,0 q 4.402,-1.919 8.579,-1.919 l 0,0 0,0 q 4.176,0 6.998,4.741 l 0,0 0,0 q 2.709,5.079 -0.79,10.949 l 0,0 0,0 q -1.693,1.242 -1.806,2.596 l 0,0 0,0 q -0.113,1.355 -5.757,7.563 l 0,0 0,0 q -2.935,3.048 -7.732,6.096 l 0,0 0,0 q -4.797,3.047 -6.603,3.668 l 0,0 0,0 q -1.806,0.621 -2.935,0.847 l 0,0 0,0 q -2.822,0.338 -3.612,0.564 l 0,0 0,0 q -2.258,-0.226 -2.766,-0.564 l 0,0 0,0 q -0.508,-0.339 -1.185,-1.806 l 0,0 0,0 q -1.355,-1.468 -1.129,-2.597 l 0,0 0,0 q 1.355,0 1.58,-0.451 l 0,0 0,0 q 0,-0.677 2.145,-0.452 l 0,0 0,0 q 2.145,0.226 7.902,-3.16 l 0,0 0,0 q 5.757,-3.387 11.513,-8.692 l 0,0 0,0 q 4.177,-5.418 5.249,-7.901 l 0,0 0,0 q 1.073,-2.484 0.282,-4.177 l 0,0 0,0 q -0.225,-1.129 -3.33,-0.79 l 0,0 0,0 q -3.104,0.338 -6.264,2.483 l 0,0 0,0 q -12.191,7.563 -16.368,16.932 l 0,0 -0.564,1.129 0,0 q 0,0.451 -1.298,1.129 l 0,0 0,0 q -1.298,0.677 -2.201,0.677 l 0,0 0,0 q -1.807,-0.79 -2.145,-2.483 l 0,0 0,0 q -1.58,-1.129 -1.58,-1.976 l 0,0 0,0 q 0,-0.846 1.58,-6.49 l 0,0 0,0 q 0.903,-4.29 2.314,-8.918 l 0,0 0,0 q 1.411,-4.628 1.975,-5.079 l 0,0 0,0 q 0.903,-1.581 0.903,-3.387 z m 49.103,0 0,0 1.241,-3.838 0,0 q 0.565,-0.451 2.089,-4.91 l 0,0 0,0 q 1.524,-4.459 2.878,-7.393 l 0,0 0,0 q 4.064,-9.031 5.644,-13.433 l 0,0 0,0 q 0.677,-1.016 1.467,-2.371 l 0,0 0,0 q 1.581,-2.934 2.145,-3.16 l 0,0 0,0 q 0.903,-0.226 2.314,0.338 l 0,0 0,0 q 1.411,0.565 2.145,1.694 l 0,0 0,0 q 0.734,1.128 0.395,2.144 l 0,0 0,0 q -0.339,1.016 -4.459,9.708 l 0,0 0,0 q -4.12,8.692 -6.265,14.223 l 0,0 0,0 q -2.144,5.531 -3.837,10.498 l 0,0 0,0 q -1.694,4.966 -2.258,6.434 l 0,0 -0.564,2.483 2.822,-2.709 0,0 q 1.354,-1.016 4.289,-3.612 l 0,0 0,0 q 2.935,-2.596 3.669,-3.048 l 0,0 0,0 q 0.733,-0.452 3.33,-1.58 l 0,0 0,0 q 4.402,-1.919 8.578,-1.919 l 0,0 0,0 q 4.177,0 6.999,4.741 l 0,0 0,0 q 2.709,5.079 -0.79,10.949 l 0,0 0,0 q -1.694,1.242 -1.806,2.596 l 0,0 0,0 q -0.113,1.355 -5.757,7.563 l 0,0 0,0 q -2.935,3.048 -7.732,6.096 l 0,0 0,0 q -4.798,3.047 -6.604,3.668 l 0,0 0,0 q -1.806,0.621 -2.935,0.847 l 0,0 0,0 q -2.822,0.338 -3.612,0.564 l 0,0 0,0 q -2.257,-0.226 -2.765,-0.564 l 0,0 0,0 q -0.508,-0.339 -1.186,-1.806 l 0,0 0,0 q -1.354,-1.468 -1.128,-2.597 l 0,0 0,0 q 1.354,0 1.58,-0.451 l 0,0 0,0 q 0,-0.677 2.145,-0.452 l 0,0 0,0 q 2.144,0.226 7.901,-3.16 l 0,0 0,0 q 5.757,-3.387 11.514,-8.692 l 0,0 0,0 q 4.176,-5.418 5.249,-7.901 l 0,0 0,0 q 1.072,-2.484 0.282,-4.177 l 0,0 0,0 q -0.226,-1.129 -3.33,-0.79 l 0,0 0,0 q -3.104,0.338 -6.265,2.483 l 0,0 0,0 q -12.191,7.563 -16.367,16.932 l 0,0 -0.565,1.129 0,0 q 0,0.451 -1.298,1.129 l 0,0 0,0 q -1.298,0.677 -2.201,0.677 l 0,0 0,0 q -1.806,-0.79 -2.145,-2.483 l 0,0 0,0 q -1.58,-1.129 -1.58,-1.976 l 0,0 0,0 q 0,-0.846 1.58,-6.49 l 0,0 0,0 q 0.903,-4.29 2.314,-8.918 l 0,0 0,0 q 1.411,-4.628 1.976,-5.079 l 0,0 0,0 q 0.903,-1.581 0.903,-3.387 z m 69.872,-3.047 0,0 q 1.016,-0.791 1.411,-0.791 l 0,0 0,0 q 0.395,0 1.637,0.678 l 0,0 0,0 q 2.032,2.257 1.806,4.176 l 0,0 0,0 q -0.226,1.919 -2.709,6.66 l 0,0 0,0 q -2.032,5.983 -3.612,7.789 l 0,0 0,0 q -3.725,8.579 -6.717,14.561 l 0,0 0,0 q -2.991,5.983 -4.346,9.482 l 0,0 0,0 q -7.224,11.514 -10.159,15.013 l 0,0 0,0 q -6.208,5.531 -9.933,6.603 l 0,0 0,0 q -3.725,1.073 -8.579,-0.62 l 0,0 0,0 q -4.854,-1.694 -5.418,-4.516 l 0,0 0,0 q -0.226,-1.128 0.959,-2.144 l 0,0 0,0 q 1.186,-1.016 1.976,0 l 0,0 0,0 q 9.03,6.095 17.835,-5.983 l 0,0 0,0 q 5.756,-9.482 8.24,-14.11 l 0,0 0,0 q -2.258,-0.677 -4.29,-3.951 l 0,0 0,0 q -2.031,-3.273 -1.693,-4.741 l 0,0 0,-1.241 0,0 q -1.241,0 -1.862,-5.926 l 0,0 0,0 q -0.621,-5.927 -0.339,-9.031 l 0,0 0,0 q 0.282,-3.104 0.734,-10.554 l 0,0 0,0 q -0.113,-2.483 1.241,-3.386 l 0,0 0,0 q 4.064,-1.694 4.741,4.176 l 0,0 0,0 q 0.339,3.048 0,8.579 l 0,0 0,0 q -1.128,17.609 3.951,21.334 l 0,0 0,0 q 2.258,-5.305 3.217,-7.168 l 0,0 0,0 q 0.96,-1.862 1.073,-2.483 l 0,0 0,0 q 0.112,-0.621 0.564,-1.467 l 0,0 0,0 q 0.451,-0.847 2.258,-4.459 l 0,0 0,0 q 2.934,-8.466 3.612,-9.651 l 0,0 0,0 q 0.677,-1.186 1.072,-2.032 l 0,0 0,0 q 0.395,-0.847 0.621,-1.298 l 0,0 0,0 q 0.226,-0.452 0.564,-1.073 l 0,0 0,0 q 0.339,-0.62 0.565,-0.959 l 0,0 0,0 q 0.225,-0.339 0.564,-0.677 l 0,0 0,0 q 0.452,-0.565 1.016,-0.79 l 0,0 z m 14.392,6.659 0,0 0,0 q 1.185,-3.047 1.185,-4.628 l 0,0 0,0 q 0,-1.58 1.298,-2.483 l 0,0 0,0 q 1.299,-0.903 2.54,-0.677 l 0,0 0,0 q 3.161,0.677 3.274,4.063 l 0,0 0,0 q 0.113,1.806 -0.903,4.403 l 0,0 0,0 q -4.967,12.191 -4.967,13.319 l 0,0 0,0 q 0.113,0.452 2.032,-1.185 l 0,0 0,0 q 1.919,-1.637 4.007,-3.556 l 0,0 0,0 q 2.088,-1.918 6.773,-4.853 l 0,0 0,0 q 4.684,-2.935 7.168,-3.725 l 0,0 0,0 q 0.677,0 1.128,0.113 l 0,0 0,0 q 0.452,0.112 0.734,0.169 l 0,0 0,0 q 0.282,0.056 0.79,0.451 l 0,0 0,0 q 0.508,0.395 0.734,0.508 l 0,0 0,0 q 0.903,1.016 2.088,2.201 l 0,0 0,0 q 1.185,1.186 0.508,4.121 l 0,0 -2.257,7.111 0,0 q 8.466,-7.224 11.288,-8.692 l 0,0 0,0 q 5.531,-2.822 8.24,1.242 l 0,0 0,0 q 1.354,1.354 1.411,2.483 l 0,0 0,0 q 0.056,1.129 0.056,1.468 l 0,0 0,3.838 0,0 q 0.677,8.804 1.072,9.312 l 0,0 0,0 q 0.396,0.508 2.935,0.903 l 0,0 0,0 q 2.54,0.395 2.766,1.637 l 0,0 0,0 q 0.226,1.242 -1.468,2.37 l 0,0 0,0 q -3.047,1.806 -7.45,0.17 l 0,0 0,0 q -4.402,-1.637 -4.289,-10.329 l 0,0 0,0 q 0.226,-3.386 0.169,-5.305 l 0,0 0,0 q -0.056,-1.919 -0.846,-1.919 l 0,0 0,0 q -1.468,0 -6.321,3.838 l 0,0 0,0 q -5.983,4.854 -10.611,10.159 l 0,0 0,0 q -0.565,0.79 -0.903,1.072 l 0,0 0,0 q -0.339,0.283 -0.903,0.791 l 0,0 0,0 q -0.565,0.507 -0.903,0.62 l 0,0 0,0 q -0.339,0.113 -0.903,0.226 l 0,0 0,0 q -0.79,0.226 -3.274,-1.806 l 0,0 0,0 q -1.016,-0.903 -0.564,-2.596 l 0,0 2.596,-7.45 0,0 q 3.612,-8.692 2.822,-8.692 l 0,0 0,0 q -1.016,0.113 -2.822,1.072 l 0,0 0,0 q -1.806,0.96 -2.258,1.863 l 0,0 0,0 q -0.338,0 -1.58,1.242 l 0,0 0,0 q -1.241,1.241 -2.032,1.693 l 0,0 0,0 q -0.564,0.903 -3.725,4.007 l 0,0 0,0 q -3.16,3.104 -4.233,4.064 l 0,0 0,0 q -1.072,0.959 -2.596,2.878 l 0,0 0,0 q -1.524,1.919 -2.483,3.217 l 0,0 0,0 q -0.96,1.298 -1.185,1.298 l 0,0 0,0 q -3.5,0 -4.403,-3.386 l 0,0 0,0 q -0.79,-1.693 -0.113,-4.854 l 0,0 0,0 q 0.678,-3.161 1.242,-5.418 l 0,0 0,0 q 0.564,-2.258 0.847,-3.669 l 0,0 0,0 q 0.282,-1.411 0.508,-2.427 l 0,0 0,0 q 0.225,-1.016 0.338,-1.411 l 0,0 0,0 q 0.113,-0.395 0.508,-1.523 l 0,0 0,0 q 0.395,-1.129 1.073,-2.71 l 0,0 0,0 q 0.677,-1.58 1.862,-4.628 z m 83.474,8.579 0,0 0,0 q 0.678,-1.806 0.621,-4.91 l 0,0 0,0 q -0.056,-3.104 -0.959,-3.556 l 0,0 0,0 q -3.161,-1.806 -7.45,1.693 l 0,0 0,0 q -5.644,4.854 -11.175,17.158 l 0,0 0,0 q -2.371,5.644 0.338,7.902 l 0,0 0,0 q 3.387,2.822 11.175,-5.644 l 0,0 0,0 q 4.854,-5.531 7.45,-12.643 z m -21.785,-0.79 0,0 0,0 q 7.562,-12.53 17.609,-14.9 l 0,0 0,0 q 2.37,-0.677 3.443,-0.564 l 0,0 0,0 q 1.072,0.112 2.652,1.806 l 0,0 0,0 q 2.596,1.128 3.782,2.709 l 0,0 0,0 q 1.185,1.58 1.524,4.628 l 0,0 0,0 q 0.903,8.804 -5.87,18.512 l 0,0 0,0 q -2.596,3.725 -4.854,5.7 l 0,0 0,0 q -2.258,1.976 -5.983,4.233 l 0,0 0,0 q -4.402,2.935 -8.804,3.274 l 0,0 0,0 q -1.919,0 -4.402,-2.145 l 0,0 0,0 q -4.29,-4.402 -3.613,-8.353 l 0,0 0.226,-2.596 0,0 q -0.564,-0.565 -0.282,-0.903 l 0,0 0,0 q 0.282,-0.339 0.395,-0.452 l 0,0 0,0 q 0.677,0 0.452,-1.072 l 0,0 0,0 q -0.226,-1.072 0.903,-4.177 l 0,0 0,0 q 1.128,-3.104 2.822,-5.7 z m 43.119,-10.723 0,0 1.129,-4.29 0,0 q 1.806,-3.499 6.321,-15.747 l 0,0 0,0 q 4.516,-12.247 4.516,-13.827 l 0,0 0,0 q 0,-1.581 1.806,-1.581 l 0,0 0,0 q 0.564,-0.564 1.806,-0.564 l 0,0 1.806,1.806 0,0 q 1.241,1.129 1.241,3.048 l 0,0 0,0 q 0,1.919 -0.112,2.54 l 0,0 0,0 q -0.113,0.62 -0.226,1.128 l 0,0 0,0 q -0.113,0.508 -0.565,1.524 l 0,0 0,0 q -0.451,1.016 -0.79,1.806 l 0,0 0,0 q -0.338,0.791 -1.354,2.879 l 0,0 0,0 q -1.016,2.088 -1.637,3.555 l 0,0 0,0 q -0.621,1.468 -1.411,3.105 l 0,0 0,0 q -0.79,1.636 -1.242,2.596 l 0,0 0,0 q -0.451,0.959 -0.451,1.185 l 0,0 0,0 q 0,0.226 -0.17,0.734 l 0,0 0,0 q -0.169,0.508 -0.507,1.354 l 0,0 0,0 q -0.339,0.847 -0.903,2.089 l 0,0 0,0 q -4.516,9.933 -4.516,11.005 l 0,0 0,0 q 0,1.073 -0.564,1.637 l 0,0 0,0 q -0.564,0 -0.564,0.903 l 0,0 0,0.339 0,0 q 0,1.129 -1.807,5.982 l 0,0 0,0 q -4.853,16.368 -4.853,19.472 l 0,0 0,0 q 0,3.104 -0.17,3.894 l 0,0 0,0 q -0.169,0.791 -0.959,1.242 l 0,0 0,0 q -3.274,0.903 -4.459,-2.709 l 0,0 0,0 q -1.185,-3.612 0.169,-9.933 l 0,0 0,0 q 1.242,-3.274 1.242,-4.741 l 0,0 0,0 q 0.339,-2.145 2.314,-7.733 l 0,0 0,0 q 1.976,-5.587 2.54,-6.716 l 0,0 0,0 q 1.129,0 1.129,-2.483 l 0,0 0,0 q 0,-2.484 1.241,-3.499 z m 31.268,9.933 0,0 0,0 q 1.919,-0.79 3.894,-2.822 l 0,0 0,0 q 1.976,-2.032 1.976,-3.556 l 0,0 0,0 q 0,-1.524 -1.581,-2.483 l 0,0 0,0 q -1.58,-0.96 -3.725,-0.395 l 0,0 0,0 q -2.144,0.564 -4.402,2.596 l 0,0 0,0 q -2.258,2.032 -3.725,4.007 l 0,0 0,0 q -1.467,1.976 -1.129,2.314 l 0,0 0,0 q 0.452,0.903 3.612,1.016 l 0,0 0,0 q 3.161,0.113 5.08,-0.677 z m -0.169,18.23 0,0 0,0 q 0.282,-0.169 0.338,-0.169 l 0,0 0,0 q 0.057,0 0.226,-0.113 l 0,0 0,0 q 0.169,-0.113 0.169,-0.226 l 0,0 0,0 q 0.791,-0.677 1.976,-1.863 l 0,0 0,0 q 1.185,-1.185 1.749,-1.185 l 0,0 0,0 q 0.565,0 1.186,0.565 l 0,0 0,0 q 0.62,0.564 0.846,0.677 l 0,0 0,0 q 1.806,0 -0.508,2.935 l 0,0 0,0 q -2.314,2.935 -5.7,5.079 l 0,0 0,0 q -3.612,3.161 -8.523,2.314 l 0,0 0,0 q -4.91,-0.846 -7.845,-4.91 l 0,0 0,0 q -3.499,-4.402 -2.596,-14.11 l 0,0 0,0 q 0.452,-6.321 5.418,-12.925 l 0,0 0,0 q 4.967,-6.603 10.498,-8.748 l 0,0 0,0 q 1.58,-1.016 2.935,-1.072 l 0,0 0,0 q 1.355,-0.056 4.572,0.395 l 0,0 0,0 q 3.217,0.452 5.023,2.709 l 0,0 0,0 q 2.822,2.822 2.822,6.547 l 0,0 0,0 q -0.452,2.709 -3.5,6.209 l 0,0 0,0 q -3.047,3.499 -7.337,5.643 l 0,0 0,0 q -6.321,1.919 -10.272,-0.79 l 0,0 0,0 q -2.032,-0.79 -2.765,0.339 l 0,0 0,0 q -0.734,1.129 -1.298,5.644 l 0,0 0,0 q -0.903,7.789 3.725,8.579 l 0,0 0,0 q 0.451,0.113 1.354,0.282 l 0,0 0,0 q 0.903,0.169 1.185,0.226 l 0,0 0,0 q 0.283,0.056 0.96,0.113 l 0,0 0,0 q 0.677,0.056 1.129,-0.057 l 0,0 0,0 q 0.903,-0.226 1.749,-0.734 l 0,0 0,0 q 0.847,-0.508 1.298,-0.733 l 0,0 0,0 q 0.903,-0.452 1.186,-0.621 z m 46.224,-22.52 0,0 0,0 q 2.709,-1.241 3.725,-1.241 l 0,0 0,0 q 1.016,0 3.33,2.032 l 0,0 0,0 q 2.314,2.031 2.765,3.386 l 0,0 0,0 q 0,1.242 0.395,2.653 l 0,0 0,0 q 0.395,1.411 0.282,5.474 l 0,0 0,0 q -0.112,4.064 -0.903,4.515 l 0,0 0,0 q 0,0.565 0.565,0.565 l 0,0 0,0.564 0,0 q -1.242,0 -0.17,2.089 l 0,0 0,0 q 1.073,2.088 2.089,3.104 l 0,0 0,0 q 1.016,1.016 0.79,2.201 l 0,0 0,0 q -0.226,1.185 -2.032,1.637 l 0,0 0,0 q -4.402,0 -6.208,-4.177 l 0,0 0,0 q -0.678,-2.37 -0.903,-5.475 l 0,0 0,0 q -0.226,-3.104 0.169,-3.781 l 0,0 0,0 q 0.395,-0.677 0.339,-3.669 l 0,0 0,0 q -0.057,-2.991 -1.016,-3.386 l 0,0 0,0 q -0.96,-0.395 -2.766,0.734 l 0,0 0,0 q -13.32,8.353 -18.851,13.094 l 0,0 0,0 q -1.467,1.58 -3.499,4.966 l 0,0 0,0 q -0.339,0.565 -0.903,0.565 l 0,0 0,0 q -1.129,0.564 -3.273,-1.242 l 0,0 0,0 q -2.484,-2.709 -2.597,-3.048 l 0,0 0,0 q 0,-0.903 0.734,-4.176 l 0,0 0,0 q 0.734,-3.274 1.185,-4.177 l 0,0 0,0 q 0.452,0 1.129,-1.467 l 0,0 0,0 q 0.677,-1.468 1.129,-2.145 l 0,0 0,0 q 0.339,-1.693 2.935,-7.788 l 0,0 0,0 q 2.596,-4.403 3.047,-9.031 l 0,0 0,0 q -0.112,-0.451 0.226,-0.846 l 0,0 0,0 q 0.339,-0.395 0.79,-0.395 l 0,0 0,0 q 2.032,-1.919 4.233,1.015 l 0,0 0,0 q 2.202,2.935 1.806,5.814 l 0,0 0,0 q -0.395,2.878 -3.668,8.183 l 0,0 0,0 q -1.58,3.838 -1.58,4.29 l 0,0 0,0 q 4.515,-3.048 6.321,-4.29 l 0,0 0,0 q 0.903,-1.015 4.854,-3.612 l 0,0 0,0 q 3.95,-2.596 5.531,-2.935 z"
         id="path14"
         inkscape:connector-curvature="0"
         style="fill:#000000;fill-rule:evenodd" />
      <rect
         x="477.276"
         y="466.79999"
         width="650.40399"
         height="20.278"
         id="rect16"
         style="fill:none" />
      <path
         d="m 484.127,475.552 3.259,-9.17 1.785,0 -5.141,14.262 -1.639,0 -5.112,-14.262 1.756,0 3.278,9.229 0,0 q 0.566,1.59 0.897,3.092 l 0,0 0,0 q 0.352,-1.58 0.917,-3.151 l 0,0 z m 19.384,-2.058 0,0 0,0 q 0,3.424 -1.732,5.385 l 0,0 0,0 q -1.731,1.961 -4.814,1.961 l 0,0 0,0 q -3.151,0 -4.863,-1.927 l 0,0 0,0 q -1.712,-1.927 -1.712,-5.439 l 0,0 0,0 q 0,-3.482 1.717,-5.399 l 0,0 0,0 q 1.717,-1.917 4.878,-1.917 l 0,0 0,0 q 3.073,0 4.799,1.951 l 0,0 0,0 q 1.727,1.951 1.727,5.385 z m -11.365,0 0,0 0,0 q 0,2.897 1.234,4.395 l 0,0 0,0 q 1.234,1.497 3.585,1.497 l 0,0 0,0 q 2.371,0 3.58,-1.492 l 0,0 0,0 q 1.21,-1.493 1.21,-4.4 l 0,0 0,0 q 0,-2.878 -1.205,-4.366 l 0,0 0,0 q -1.205,-1.487 -3.565,-1.487 l 0,0 0,0 q -2.371,0 -3.605,1.497 l 0,0 0,0 q -1.234,1.498 -1.234,4.356 z m 26.924,0 0,0 0,0 q 0,3.424 -1.731,5.385 l 0,0 0,0 q -1.732,1.961 -4.814,1.961 l 0,0 0,0 q -3.151,0 -4.863,-1.927 l 0,0 0,0 q -1.712,-1.927 -1.712,-5.439 l 0,0 0,0 q 0,-3.482 1.717,-5.399 l 0,0 0,0 q 1.717,-1.917 4.877,-1.917 l 0,0 0,0 q 3.073,0 4.8,1.951 l 0,0 0,0 q 1.726,1.951 1.726,5.385 z m -11.364,0 0,0 0,0 q 0,2.897 1.234,4.395 l 0,0 0,0 q 1.234,1.497 3.585,1.497 l 0,0 0,0 q 2.37,0 3.58,-1.492 l 0,0 0,0 q 1.21,-1.493 1.21,-4.4 l 0,0 0,0 q 0,-2.878 -1.205,-4.366 l 0,0 0,0 q -1.205,-1.487 -3.566,-1.487 l 0,0 0,0 q -2.37,0 -3.604,1.497 l 0,0 0,0 q -1.234,1.498 -1.234,4.356 z m 19.178,1.219 -2.975,0 0,5.931 -1.658,0 0,-14.262 3.912,0 0,0 q 2.624,0 3.877,1.005 l 0,0 0,0 q 1.254,1.005 1.254,3.024 l 0,0 0,0 q 0,2.829 -2.868,3.824 l 0,0 3.873,6.409 -1.961,0 -3.454,-5.931 z m -2.975,-6.877 0,5.453 2.273,0 0,0 q 1.756,0 2.575,-0.697 l 0,0 0,0 q 0.82,-0.698 0.82,-2.093 l 0,0 0,0 q 0,-1.414 -0.834,-2.039 l 0,0 0,0 q -0.834,-0.624 -2.678,-0.624 l 0,0 -2.156,0 z m 26.563,12.808 -1.716,0 -1.776,-4.536 -5.716,0 -1.756,4.536 -1.678,0 5.638,-14.32 1.395,0 5.609,14.32 z m -8.623,-6.028 4.614,0 -1.658,-4.419 0,0 q -0.322,-0.839 -0.664,-2.059 l 0,0 0,0 q -0.214,0.937 -0.614,2.059 l 0,0 -1.678,4.419 z m 18.535,6.028 -7.951,0 0,-14.262 1.659,0 0,12.76 6.292,0 0,1.502 z m 16.72,-14.262 1.658,0 0,9.229 0,0 q 0,2.439 -1.473,3.834 l 0,0 0,0 q -1.473,1.395 -4.048,1.395 l 0,0 0,0 q -2.575,0 -3.985,-1.405 l 0,0 0,0 q -1.41,-1.405 -1.41,-3.863 l 0,0 0,-9.19 1.659,0 0,9.307 0,0 q 0,1.785 0.975,2.741 l 0,0 0,0 q 0.976,0.956 2.868,0.956 l 0,0 0,0 q 1.805,0 2.781,-0.961 l 0,0 0,0 q 0.975,-0.961 0.975,-2.756 l 0,0 0,-9.287 z m 21.696,0 -3.815,14.262 -1.639,0 -2.877,-9.55 0,0 q -0.205,-0.634 -0.459,-1.6 l 0,0 0,0 q -0.253,-0.965 -0.263,-1.161 l 0,0 0,0 q -0.215,1.288 -0.683,2.82 l 0,0 -2.79,9.491 -1.639,0 -3.795,-14.262 1.756,0 2.254,8.809 0,0 q 0.468,1.854 0.683,3.356 l 0,0 0,0 q 0.263,-1.785 0.78,-3.492 l 0,0 2.556,-8.673 1.756,0 2.682,8.751 0,0 q 0.469,1.512 0.791,3.414 l 0,0 0,0 q 0.185,-1.385 0.702,-3.375 l 0,0 2.244,-8.79 1.756,0 z m 13.53,1.278 0,0 0,0 q -2.351,0 -3.712,1.566 l 0,0 0,0 q -1.361,1.566 -1.361,4.287 l 0,0 0,0 q 0,2.8 1.312,4.327 l 0,0 0,0 q 1.313,1.527 3.742,1.527 l 0,0 0,0 q 1.492,0 3.404,-0.537 l 0,0 0,1.454 0,0 q -1.483,0.556 -3.658,0.556 l 0,0 0,0 q -3.151,0 -4.863,-1.912 l 0,0 0,0 q -1.712,-1.912 -1.712,-5.434 l 0,0 0,0 q 0,-2.205 0.824,-3.863 l 0,0 0,0 q 0.825,-1.658 2.38,-2.556 l 0,0 0,0 q 1.556,-0.897 3.664,-0.897 l 0,0 0,0 q 2.243,0 3.921,0.819 l 0,0 -0.702,1.424 0,0 q -1.62,-0.761 -3.239,-0.761 z m 11.131,7.053 -2.976,0 0,5.931 -1.658,0 0,-14.262 3.912,0 0,0 q 2.624,0 3.878,1.005 l 0,0 0,0 q 1.253,1.005 1.253,3.024 l 0,0 0,0 q 0,2.829 -2.868,3.824 l 0,0 3.873,6.409 -1.961,0 -3.453,-5.931 z m -2.976,-6.877 0,5.453 2.273,0 0,0 q 1.756,0 2.576,-0.697 l 0,0 0,0 q 0.819,-0.698 0.819,-2.093 l 0,0 0,0 q 0,-1.414 -0.834,-2.039 l 0,0 0,0 q -0.834,-0.624 -2.678,-0.624 l 0,0 -2.156,0 z m 18.643,11.326 0,1.482 -7.951,0 0,-14.262 7.951,0 0,1.473 -6.293,0 0,4.595 5.912,0 0,1.463 -5.912,0 0,5.249 6.293,0 z m 13.842,1.482 -1.717,0 -1.775,-4.536 -5.717,0 -1.756,4.536 -1.678,0 5.639,-14.32 1.395,0 5.609,14.32 z m -8.623,-6.028 4.614,0 -1.659,-4.419 0,0 q -0.322,-0.839 -0.663,-2.059 l 0,0 0,0 q -0.215,0.937 -0.615,2.059 l 0,0 -1.677,4.419 z m 14.974,-6.761 0,12.789 -1.659,0 0,-12.789 -4.516,0 0,-1.473 10.691,0 0,1.473 -4.516,0 z m 8.321,12.789 -1.658,0 0,-14.262 1.658,0 0,14.262 z m 11.862,-1.482 0,1.482 -7.95,0 0,-14.262 7.95,0 0,1.473 -6.292,0 0,4.595 5.912,0 0,1.463 -5.912,0 0,5.249 6.292,0 z m 8.048,-3.61 3.259,-9.17 1.785,0 -5.141,14.262 -1.639,0 -5.112,-14.262 1.756,0 3.278,9.229 0,0 q 0.566,1.59 0.897,3.092 l 0,0 0,0 q 0.351,-1.58 0.917,-3.151 l 0,0 z m 14.955,3.61 0,1.482 -7.95,0 0,-14.262 7.95,0 0,1.473 -6.292,0 0,4.595 5.912,0 0,1.463 -5.912,0 0,5.249 6.292,0 z m 13.238,-3.61 3.258,-9.17 1.785,0 -5.141,14.262 -1.639,0 -5.111,-14.262 1.756,0 3.277,9.229 0,0 q 0.566,1.59 0.898,3.092 l 0,0 0,0 q 0.351,-1.58 0.917,-3.151 l 0,0 z m 17.686,5.092 -1.717,0 -1.775,-4.536 -5.717,0 -1.756,4.536 -1.678,0 5.639,-14.32 1.395,0 5.609,14.32 z m -8.624,-6.028 4.615,0 -1.659,-4.419 0,0 q -0.322,-0.839 -0.663,-2.059 l 0,0 0,0 q -0.215,0.937 -0.615,2.059 l 0,0 -1.678,4.419 z m 21.267,6.028 -1.717,0 -1.776,-4.536 -5.716,0 -1.756,4.536 -1.678,0 5.638,-14.32 1.395,0 5.61,14.32 z m -8.624,-6.028 4.614,0 -1.658,-4.419 0,0 q -0.322,-0.839 -0.663,-2.059 l 0,0 0,0 q -0.215,0.937 -0.615,2.059 l 0,0 -1.678,4.419 z m 15.218,0.097 -2.975,0 0,5.931 -1.659,0 0,-14.262 3.912,0 0,0 q 2.624,0 3.878,1.005 l 0,0 0,0 q 1.253,1.005 1.253,3.024 l 0,0 0,0 q 0,2.829 -2.868,3.824 l 0,0 3.873,6.409 -1.961,0 -3.453,-5.931 z m -2.975,-6.877 0,5.453 2.273,0 0,0 q 1.756,0 2.575,-0.697 l 0,0 0,0 q 0.82,-0.698 0.82,-2.093 l 0,0 0,0 q 0,-1.414 -0.834,-2.039 l 0,0 0,0 q -0.835,-0.624 -2.678,-0.624 l 0,0 -2.156,0 z m 22.076,5.541 0,0 0,0 q 0,3.531 -1.917,5.399 l 0,0 0,0 q -1.917,1.868 -5.517,1.868 l 0,0 -3.95,0 0,-14.262 4.37,0 0,0 q 3.326,0 5.17,1.844 l 0,0 0,0 q 1.844,1.844 1.844,5.151 z m -1.756,0.058 0,0 0,0 q 0,-2.79 -1.4,-4.204 l 0,0 0,0 q -1.4,-1.415 -4.161,-1.415 l 0,0 -2.409,0 0,11.394 2.019,0 0,0 q 2.966,0 4.458,-1.458 l 0,0 0,0 q 1.493,-1.458 1.493,-4.317 z m 6.594,7.209 -1.658,0 0,-14.262 1.658,0 0,14.262 z m 10.185,-5.989 0,-1.483 4.848,0 0,6.936 0,0 q -1.131,0.361 -2.302,0.546 l 0,0 0,0 q -1.171,0.186 -2.712,0.186 l 0,0 0,0 q -3.239,0 -5.043,-1.927 l 0,0 0,0 q -1.805,-1.927 -1.805,-5.4 l 0,0 0,0 q 0,-2.224 0.892,-3.897 l 0,0 0,0 q 0.893,-1.673 2.571,-2.556 l 0,0 0,0 q 1.678,-0.882 3.931,-0.882 l 0,0 0,0 q 2.283,0 4.254,0.838 l 0,0 -0.644,1.464 0,0 q -1.932,-0.82 -3.717,-0.82 l 0,0 0,0 q -2.605,0 -4.068,1.551 l 0,0 0,0 q -1.463,1.551 -1.463,4.302 l 0,0 0,0 q 0,2.888 1.409,4.381 l 0,0 0,0 q 1.41,1.492 4.141,1.492 l 0,0 0,0 q 1.483,0 2.898,-0.341 l 0,0 0,-4.39 -3.19,0 z m 19.1,-8.273 0,14.262 -1.658,0 0,-6.711 -7.511,0 0,6.711 -1.659,0 0,-14.262 1.659,0 0,6.068 7.511,0 0,-6.068 1.658,0 z m 11.863,12.78 0,1.482 -7.951,0 0,-14.262 7.951,0 0,1.473 -6.292,0 0,4.595 5.911,0 0,1.463 -5.911,0 0,5.249 6.292,0 z m 14.545,-5.785 0,0 0,0 q 0,3.531 -1.917,5.399 l 0,0 0,0 q -1.917,1.868 -5.517,1.868 l 0,0 -3.951,0 0,-14.262 4.371,0 0,0 q 3.326,0 5.17,1.844 l 0,0 0,0 q 1.844,1.844 1.844,5.151 z m -1.756,0.058 0,0 0,0 q 0,-2.79 -1.4,-4.204 l 0,0 0,0 q -1.4,-1.415 -4.161,-1.415 l 0,0 -2.409,0 0,11.394 2.019,0 0,0 q 2.966,0 4.458,-1.458 l 0,0 0,0 q 1.493,-1.458 1.493,-4.317 z m 12.886,5.727 0,1.482 -7.95,0 0,-14.262 7.95,0 0,1.473 -6.292,0 0,4.595 5.912,0 0,1.463 -5.912,0 0,5.249 6.292,0 z m 14.301,-12.78 0,14.262 -1.892,0 -7.794,-11.969 -0.078,0 0,0 q 0.156,2.107 0.156,3.863 l 0,0 0,8.106 -1.532,0 0,-14.262 1.873,0 7.775,11.921 0.078,0 0,0 q -0.02,-0.263 -0.088,-1.692 l 0,0 0,0 q -0.068,-1.429 -0.049,-2.044 l 0,0 0,-8.185 1.551,0 z"
         id="path18"
         inkscape:connector-curvature="0"
         style="fill:#000000;fill-rule:evenodd" />
    </g>
  </g>
</svg>
