<?xml version="1.0" encoding="UTF-8" standalone="no"?>
<!-- Created with Inkscape (http://www.inkscape.org/) -->

<svg
   xmlns:dc="http://purl.org/dc/elements/1.1/"
   xmlns:cc="http://creativecommons.org/ns#"
   xmlns:rdf="http://www.w3.org/1999/02/22-rdf-syntax-ns#"
   xmlns:svg="http://www.w3.org/2000/svg"
   xmlns="http://www.w3.org/2000/svg"
   xmlns:sodipodi="http://sodipodi.sourceforge.net/DTD/sodipodi-0.dtd"
   xmlns:inkscape="http://www.inkscape.org/namespaces/inkscape"
   width="44.997044mm"
   height="45.250439mm"
   viewBox="0 0 159.43834 160.3362"
   id="svg3801"
   version="1.1"
   inkscape:version="0.91 r13725"
   sodipodi:docname="round_button.svg">
  <defs
     id="defs3803">
    <clipPath
       clipPathUnits="userSpaceOnUse"
       id="clipPath378">
      <path
         d="m 0,0 1190.551,0 0,841.89 L 0,841.89 0,0 Z"
         id="path380"
         inkscape:connector-curvature="0" />
    </clipPath>
    <clipPath
       clipPathUnits="userSpaceOnUse"
       id="clipPath426">
      <path
         d="m 0,0 1190.551,0 0,841.89 L 0,841.89 0,0 Z"
         id="path428"
         inkscape:connector-curvature="0" />
    </clipPath>
    <clipPath
       clipPathUnits="userSpaceOnUse"
       id="clipPath362">
      <path
         d="m 0,0 1190.551,0 0,841.89 L 0,841.89 0,0 Z"
         id="path364"
         inkscape:connector-curvature="0" />
    </clipPath>
    <clipPath
       clipPathUnits="userSpaceOnUse"
       id="clipPath314">
      <path
         d="m 0,0 1190.551,0 0,841.89 L 0,841.89 0,0 Z"
         id="path316"
         inkscape:connector-curvature="0" />
    </clipPath>
    <clipPath
       clipPathUnits="userSpaceOnUse"
       id="clipPath298">
      <path
         d="m 0,0 1190.551,0 0,841.89 L 0,841.89 0,0 Z"
         id="path300"
         inkscape:connector-curvature="0" />
    </clipPath>
    <clipPath
       clipPathUnits="userSpaceOnUse"
       id="clipPath250">
      <path
         d="m 0,0 1190.551,0 0,841.89 L 0,841.89 0,0 Z"
         id="path252"
         inkscape:connector-curvature="0" />
    </clipPath>
    <clipPath
       clipPathUnits="userSpaceOnUse"
       id="clipPath18">
      <path
         d="m 0,0 1190.551,0 0,841.89 L 0,841.89 0,0 Z"
         id="path20"
         inkscape:connector-curvature="0" />
    </clipPath>
  </defs>
  <sodipodi:namedview
     id="base"
     pagecolor="#ffffff"
     bordercolor="#666666"
     borderopacity="1.0"
     inkscape:pageopacity="0.0"
     inkscape:pageshadow="2"
     inkscape:zoom="0.35"
     inkscape:cx="-338.4188"
     inkscape:cy="731.5636"
     inkscape:document-units="px"
     inkscape:current-layer="layer1"
     showgrid="false"
     fit-margin-top="0"
     fit-margin-left="0"
     fit-margin-right="0"
     fit-margin-bottom="0"
     inkscape:window-width="1920"
     inkscape:window-height="1017"
     inkscape:window-x="-4"
     inkscape:window-y="-4"
     inkscape:window-maximized="1" />
  <metadata
     id="metadata3806">
    <rdf:RDF>
      <cc:Work
         rdf:about="">
        <dc:format>image/svg+xml</dc:format>
        <dc:type
           rdf:resource="http://purl.org/dc/dcmitype/StillImage" />
        <dc:title></dc:title>
      </cc:Work>
    </rdf:RDF>
  </metadata>
  <g
     inkscape:label="Layer 1"
     inkscape:groupmode="layer"
     id="layer1"
     transform="translate(-54.847375,-1103.5897)">
    <g
       transform="matrix(1.25,0,0,-1.25,-832.25416,2104.3483)"
       id="g14">
      <g
         id="g16"
         clip-path="url(#clipPath18)">
        <g
           id="g22"
           transform="translate(773.7423,677.3079)">
          <path
             d="m 0,0 c 32.28,0 58.449,26.168 58.449,58.449 0,32.28 -26.169,58.449 -58.449,58.449 -32.28,0 -58.449,-26.169 -58.449,-58.449 C -58.449,26.168 -32.28,0 0,0"
             style="fill:#231f20;fill-opacity:1;fill-rule:nonzero;stroke:none"
             id="path24"
             inkscape:connector-curvature="0" />
        </g>
        <g
           id="g26"
           transform="translate(773.7423,538.1005)" />
      </g>
    </g>
    <g
       transform="matrix(1.25,0,0,-1.25,-832.25416,2104.3483)"
       id="g246">
      <g
         id="g248"
         clip-path="url(#clipPath250)">
        <g
           id="g254"
           transform="translate(817.0549,734.7009)">
          <path
             d="M 0,0 C -0.028,1.179 -0.237,-0.631 -0.079,0.771 0.019,0.612 0.09,0.383 0,0"
             style="fill:#231f20;fill-opacity:1;fill-rule:nonzero;stroke:none"
             id="path256"
             inkscape:connector-curvature="0" />
        </g>
        <g
           id="g258"
           transform="translate(816.7671,739.3745)">
          <path
             d="m 0,0 c -0.437,1.865 -0.765,4.011 -1.142,6.208 -0.444,2.178 -0.939,4.417 -1.838,6.288 -0.181,0.448 0.38,-0.001 -0.052,1.007 -0.953,1.787 -1.967,4.137 -3.193,6.523 -1.217,2.388 -2.601,4.822 -3.92,6.901 l 0.265,-0.173 c -0.532,0.774 -1.467,1.49 -2.087,2.255 0.046,0.05 0.281,-0.177 0.201,0.056 -0.323,0.052 -1.232,1.302 -1.641,1.495 -0.21,0.337 -0.066,0.418 -0.351,0.847 l -0.559,0.25 c -1.468,0.744 -2.706,2.693 -4.551,3.837 0.114,-0.022 0.307,-0.121 0.207,0.025 -2.858,1.925 -6.407,4.327 -9.898,5.901 0.171,0.004 0.365,0.073 0.205,0.258 -0.27,-0.115 -1.371,0.315 -2.321,0.69 -0.314,0.443 -1.708,0.452 -2.766,1.024 l 0.115,0.015 c -0.92,0.056 -1.194,0.57 -1.972,0.505 l -0.472,0.368 c -0.473,-0.223 -1.179,0.528 -1.934,0.559 l 0.004,-0.077 c -0.682,0.114 -0.993,0.348 -1.63,0.438 l -0.049,0.055 c -1.476,0.266 -2.304,0.577 -2.317,0.307 -0.478,0.309 1.449,-0.156 0.698,0.304 -2.459,0.348 -4.959,0.562 -7.466,0.685 -2.509,0.085 -5.024,0.021 -7.499,-0.207 -0.571,0.046 -0.933,0.029 -1.072,0.119 -0.487,-0.117 -1.857,-0.28 -2.275,-0.521 0.163,0.035 -0.34,0.083 -0.602,0.05 -0.914,-0.063 -0.92,-0.453 -1.91,-0.564 0.369,0.161 0.482,0.278 0.332,0.349 -0.782,-0.414 -1.903,-0.592 -2.843,-0.958 0.138,0.088 0.364,0.18 0.305,0.254 -0.988,-0.539 -1.948,-0.479 -2.808,-0.954 l 0.292,0.267 c -1.532,-0.314 -0.327,-0.463 -1.631,-0.783 0.287,0.15 0.159,0.173 0.193,0.253 -1.077,-0.695 -2.977,-1.358 -4.059,-1.985 0.058,0.051 0.023,0.081 0.023,0.081 -0.615,-0.283 -1.235,-0.59 -1.866,-0.913 -0.634,-0.315 -1.274,-0.659 -1.881,-1.096 -0.505,-0.208 -0.039,0.427 -1.258,-0.342 0.2,-0.23 -1.984,-1.422 -1.079,-1.267 -0.533,-0.297 -1.211,-0.7 -1.818,-1.119 -0.613,-0.409 -1.18,-0.797 -1.458,-1.102 0.359,0.438 -0.708,-0.058 0.077,0.594 l -0.725,-0.324 c 0.01,0.174 0.655,0.458 0.362,0.437 -0.396,-0.336 -1.51,-1.343 -1.883,-1.611 -0.586,-0.784 -1.033,-1.59 -2.091,-2.687 0.435,0.586 -0.54,-0.028 -0.223,0.35 0,0 -0.28,-0.479 -0.561,-0.957 -0.272,-0.483 -0.521,-0.979 -0.521,-0.979 -0.337,-0.376 -0.258,0.095 -0.703,-0.493 0.088,-0.03 -0.094,-0.296 -0.198,-0.503 -0.164,-0.108 -1.315,-1.634 -1.704,-1.597 -0.242,-0.089 0.491,0.67 0.037,0.316 -0.62,-0.709 -0.532,-0.833 -1.117,-1.566 l -0.044,0.012 c -0.435,-0.451 -0.998,-1.534 -0.461,-1.095 0.265,0.339 -0.255,-0.013 0.209,0.434 -0.134,-0.445 -0.698,-1.371 -1.241,-2.126 0.142,0.287 0.051,0.304 0.052,0.46 -0.273,-0.576 -0.546,-1.168 -0.849,-1.76 -0.307,-0.589 -0.637,-1.182 -0.928,-1.818 0.118,-0.095 0.024,0.589 0.195,0.727 -1.097,-1.443 -1.551,-3.355 -2.449,-4.568 0.076,0.235 0.246,0.03 0.202,0.033 -0.372,-0.775 -0.553,-0.651 -0.712,-1.196 -0.136,0 -0.265,-0.655 -0.428,-1.21 -0.024,-0.312 -0.113,-0.117 0.059,0.357 -0.091,-0.398 -0.412,-1.354 -0.76,-2.434 -0.331,-1.087 -0.738,-2.283 -1.058,-3.158 0.098,0.008 -0.028,-1.172 -0.121,-1.584 l -0.154,0.21 c -0.202,-0.35 -0.304,-1.395 -0.485,-1.427 0.014,-0.47 0.162,0.395 0.294,1.225 0.134,0.831 0.319,1.61 0.23,0.993 -0.268,-0.261 -0.112,-1.742 -0.312,-1.419 -0.184,-0.841 -0.171,-1.688 -0.478,-2.461 0.073,0.228 -0.145,0.738 -0.254,0.051 -0.181,-1.211 0.032,-0.36 -0.078,-1.346 0,0 -0.007,-0.156 -0.014,-0.311 10e-4,-0.157 10e-4,-0.314 10e-4,-0.314 0.185,-0.069 -0.163,-1.076 0.107,-0.656 -0.174,-0.129 -0.131,-1.762 -0.422,-1.606 L -100.76,1.3 c -0.029,-0.53 0.196,-0.888 0.273,-1.309 -0.028,-0.066 -0.089,-0.201 -0.128,-0.172 0.381,-0.11 -0.144,-1.252 0.159,-1.891 -0.08,-0.547 -0.103,-1.248 -0.131,-1.875 0,-0.627 -0.016,-1.182 -0.129,-1.446 0.122,-0.847 0.317,-1.608 0.313,-2.576 -0.05,0.189 -0.081,0.452 -0.168,0.5 -0.066,-0.615 0.046,-0.757 0.15,-1.305 -0.087,0.117 -0.081,-1.229 -0.13,-1.924 0.22,-0.825 0.388,-0.506 0.524,-0.571 -0.243,-0.822 0.62,-2.302 0.512,-3.303 -0.126,0.271 -0.445,1.167 -0.394,0.459 -0.185,-0.837 0.602,-1.467 0.747,-2.71 l 0.221,0.374 c -0.036,-0.583 0.673,-1.705 0.331,-1.672 0.206,-0.372 0.342,-1.429 0.589,-1.203 0.343,-2.046 1.897,-4.554 1.929,-5.92 0.156,-0.25 0.453,-0.92 0.524,-0.718 -0.074,0.505 -0.415,0.555 -0.383,0.771 0.117,-0.235 0.217,-0.251 0.265,-0.258 0.225,-0.594 0.435,-1.05 -0.068,-0.628 0.489,-1.348 1.098,-1.077 1.896,-2.677 -0.15,0.007 -0.124,-0.135 0.156,-0.581 0,0 0.171,-0.187 0.343,-0.375 0.18,-0.181 0.361,-0.362 0.361,-0.362 0.581,-1 0.112,-0.709 -0.054,-0.848 0.366,-0.507 0.769,-1.157 1.076,-1.289 l 0.218,-0.772 c -0.161,0.563 0.403,-0.344 0.615,-0.551 l -0.213,0.208 c -0.008,-0.149 0.456,-0.704 0.712,-0.968 0.047,0.145 -0.357,0.759 -0.549,1.115 0.258,-0.205 0.528,-0.62 0.882,-0.876 -0.254,-0.019 0.506,-0.887 0.794,-1.289 0.311,-0.477 0.556,-0.366 0.653,-0.501 -0.075,-0.08 0.59,-0.709 0.185,-0.475 -0.153,0.124 -0.208,0.402 -0.49,0.582 0.181,-0.334 0.009,-0.426 0.623,-0.922 0.46,-0.373 0.214,0.387 0.837,-0.535 -0.229,0.184 -0.327,0.168 -0.53,0.288 0,0 0.15,-0.214 0.299,-0.429 0.146,-0.218 0.311,-0.418 0.311,-0.418 l 0.172,0.098 c 0.061,-0.134 -0.018,-0.076 0.007,-0.14 0.361,-0.085 1.138,-1.103 1.461,-1.113 0.385,-0.35 0.699,-0.853 1.044,-1.214 l -0.081,0.054 c 0.356,-0.512 1.011,-1.002 1.49,-1.231 l -0.048,-0.013 c 0.241,-0.228 0.852,-0.725 1.243,-0.904 0.568,-0.63 -0.232,-0.738 0.653,-1.127 0.68,-0.528 1.269,-0.549 1.072,-0.239 0.578,-0.502 1.276,-0.934 1.942,-1.38 0.684,-0.42 1.351,-0.834 1.869,-1.347 0.226,-0.051 0.131,0.059 0.547,-0.127 1.891,-1.23 4.255,-2.049 5.739,-3.105 -0.627,0.195 -0.117,-0.158 -0.147,-0.265 0.557,-0.07 0.531,-0.415 0.823,-0.219 0.017,0.184 0.095,0.231 -0.459,0.542 0.634,-0.217 1.429,-0.493 2.139,-0.786 0.713,-0.282 1.364,-0.522 1.688,-0.725 -0.327,0.197 -0.037,0.154 0.256,0.11 -0.181,-0.234 0.745,-0.597 1.497,-0.691 l 0.149,0.134 0.419,-0.299 c 0.293,-0.024 0.396,0.247 1.068,-0.097 0.021,-0.072 0.047,-0.146 0.168,-0.223 0.793,-0.027 1.886,-0.086 2.684,-0.353 l 0.63,-0.363 c 0.358,-0.036 0.974,0.004 0.367,0.185 1.378,-0.413 2.301,-0.485 2.725,-0.773 2.513,0.226 6.048,0.127 8.898,0.294 l -0.076,-0.132 c 0.774,-0.06 0.381,0.25 0.921,0.204 -0.239,-0.139 0.606,-0.217 0.015,-0.41 1.115,-0.061 1.394,0.352 2.093,0.495 0.087,0.178 -0.556,-0.178 -0.444,0.049 0.112,0.074 1.521,0.063 1.653,0.332 0.286,-0.056 0.105,-0.274 -0.029,-0.391 l 0.644,0.23 c 0.428,-0.072 -0.01,-0.284 -0.449,-0.503 -0.441,-0.196 -0.883,-0.401 -0.423,-0.525 l 0.618,0.124 c 0.639,-0.179 -1.613,-0.518 -0.026,-0.397 0.664,0.245 1.176,0.706 0.558,0.708 1.383,0.325 0.544,0.685 2.026,0.966 0.217,-0.024 -0.076,-0.104 -0.383,-0.187 -0.31,-0.072 -0.634,-0.153 -0.471,-0.23 0.748,-0.09 1.378,0.418 2.012,0.48 -0.707,-0.067 -0.184,0.315 0.245,0.46 0.775,0.058 -0.429,-0.342 0.636,-0.123 0.139,0.189 1.067,0.567 0.214,0.428 0.289,0.423 1.107,0.22 1.6,0.624 0.41,-0.123 -0.924,-0.817 0.261,-0.601 -0.239,0.142 1.312,0.74 0.612,0.857 0.459,0.088 0.563,-0.062 0.282,-0.301 0.68,0.088 1.4,0.897 1.754,0.561 l 0.134,0.298 c 0.22,0.007 0.518,0.064 0.881,0.075 0.275,0.107 0.687,0.352 1.04,0.528 0.348,0.187 0.634,0.314 0.679,0.144 0.159,0.11 1.39,0.65 0.818,0.652 -0.817,-0.21 -0.803,-0.554 -1.353,-0.449 0.639,0.001 1.079,0.525 1.478,0.801 l 0.127,-0.089 c 0.242,0.155 0.84,0.431 0.933,0.642 -0.16,-0.168 -0.019,-0.198 0.199,-0.122 l 0.175,0.317 c 0.983,0.619 0.409,-0.196 1.384,0.382 0,0 -0.168,-0.14 -0.343,-0.27 -0.174,-0.133 -0.347,-0.266 -0.347,-0.266 0.148,0.122 0.595,0.109 1.033,0.446 0.094,0.267 0.328,0.657 0.412,0.871 0.51,0.386 0.353,-0.037 0.798,0.437 l -0.598,-0.6 c -0.082,-0.11 0.642,0.001 1.37,0.457 0.429,0.351 0.995,1.031 0.218,0.653 0.358,0.232 0.923,0.461 0.71,0.165 0.782,0.576 -0.214,0.098 0.424,0.643 0.354,0.082 1.314,0.564 1.949,0.792 l -0.537,-0.76 0.48,0.338 c -0.477,-0.643 0.425,0.07 0.227,-0.39 0.354,0.201 0.705,0.552 0.964,0.854 -1.173,-0.392 0.687,1.265 0.18,1.351 1.18,1.053 1.365,-0.085 2.247,1.45 -0.271,-0.104 0.128,0.625 -0.555,-0.112 0.767,0.625 0.272,0.702 1.213,1.39 -0.519,-0.712 0.936,0.358 0.184,-0.672 -0.019,0.146 -0.575,-0.406 -0.703,-0.552 0.401,0.166 0.202,-0.356 0.952,0.343 0.427,0.458 1.043,1.055 0.815,1.111 -0.171,0.138 -0.672,-0.672 -0.536,-0.237 0.846,0.899 1.219,0.822 1.295,1.464 -0.513,-0.589 -0.815,-0.561 -0.911,-0.444 0,0 0.148,0.17 0.285,0.351 0.138,0.179 0.277,0.358 0.277,0.358 l -0.017,-0.228 c 1.071,0.972 0.103,0.49 1.093,1.472 l 0.642,0.303 c -0.017,-0.435 -1.464,-1.42 -0.999,-1.516 0.648,0.649 0.705,1.005 1.341,1.593 -0.1,-0.168 -0.265,-0.373 -0.362,-0.54 0.223,0.236 0.84,0.138 1.463,1.332 0.333,0.602 0.002,0.23 -0.101,0.337 0.862,1.191 1.042,1.603 1.561,2.389 0.124,-0.331 0.99,1.343 0.629,0.319 -0.216,-0.142 -0.603,-0.665 -0.997,-1.189 -0.392,-0.526 -0.742,-1.092 -0.794,-1.385 0.3,0.102 0.112,-0.119 -0.142,-0.424 -0.268,-0.294 -0.607,-0.667 -0.579,-0.902 0.789,0.89 1.01,0.636 1.303,0.647 0.218,0.253 0.344,0.566 0.439,0.744 -0.079,0.241 -0.344,-0.102 -0.529,0.014 0.885,0.995 1.529,2.116 1.778,2.828 0.341,0.3 0.436,0.069 0.146,-0.373 0.864,1.328 1.788,2.741 2.578,4.022 -0.78,-0.671 0.76,1.492 0.179,1.056 -0.459,-0.662 -1.018,-1.129 -0.933,-0.674 0.267,0.419 0.123,-0.088 0.292,0.056 0.156,0.635 0.751,0.714 0.768,1.41 -0.553,-1.325 0.243,-0.446 0.362,-0.807 0.341,1.001 0.149,-0.129 0.621,0.793 0.367,0.988 0.762,2.212 1.188,3.285 0.39,0.622 0.725,1.482 1.026,2.33 0.258,0.864 0.478,1.717 0.681,2.332 0.317,0.612 0.482,0.081 0.736,0.78 0.231,0.838 -0.494,-0.529 -0.007,0.669 l 0.024,-0.135 c 0.065,0.382 0.791,2.238 0.44,2.706 l 0.233,-0.459 c 0.083,0.228 0.06,0.462 0.07,0.663 0.107,-0.014 0.266,0.24 0.247,-0.158 0.423,0.728 0.277,1.657 0.432,2.506 l -0.29,-0.515 c 0.132,1.476 0.402,2.437 0.512,3.864 l 0.187,-0.061 -0.05,0.86 c 0.169,-0.223 0.349,0.551 0.227,1.012 0,0 0.075,-0.563 0.15,-1.127 0.076,-0.566 0.138,-1.136 0.138,-1.136 -0.183,-0.605 -0.154,0.697 -0.385,0.329 -0.195,-0.311 -0.319,-1.63 -0.161,-1.87 0.085,0.503 0.047,0.534 0.028,0.933 0.286,0.136 0.177,-0.631 0.304,-1.038 0.024,0.267 0.153,0.637 0.076,0.705 0.052,-0.538 0.04,-1.078 -0.115,-1.947 0.003,0.604 -0.219,-0.293 -0.254,-0.058 0.218,-0.106 0.143,-0.951 -0.117,-2.012 -0.457,-0.695 -0.252,-2.044 -0.689,-3.244 -0.078,0.554 -0.104,1.233 -0.034,2 -0.3,-0.736 -0.171,-0.86 -0.51,-1.586 0.067,-0.412 0.254,-0.746 0.073,-1.774 l -0.182,-0.002 c -0.194,-0.92 0.037,-0.997 -0.388,-2.118 -0.362,-0.961 -0.803,-1.905 -1.162,-2.814 -0.414,-0.887 -0.803,-1.718 -1.133,-2.426 l -0.184,0.024 c -0.029,-0.467 -0.329,-1.129 -0.67,-1.812 -0.34,-0.683 -0.777,-1.355 -0.991,-1.909 -0.552,-0.833 -1.142,-1.739 -1.628,-2.571 -0.525,-0.806 -1.015,-1.493 -1.43,-1.821 -1.986,-2.895 -3.968,-5.303 -6.712,-7.72 l 0.275,0.607 c -0.345,-0.588 -0.402,-0.188 -0.858,-0.633 0.69,0.33 -0.494,-0.777 -0.739,-1.193 -1.361,-0.907 -2.895,-2.323 -3.991,-3.293 l -0.145,0.112 c -1.026,-1.095 -2.671,-1.787 -4.282,-2.62 -0.213,-0.047 -0.585,-0.048 -1.054,-0.311 -0.75,-0.695 -1.205,-0.941 -2.461,-1.684 -0.955,-0.465 -2.594,-1.013 -3.632,-1.299 -3.626,-1.727 -7.695,-2.437 -11.787,-3.143 l -0.32,0.167 c -3.98,-0.907 -8.982,-0.355 -12.405,-0.096 l 0.375,0.307 c -1.053,0.219 -2.437,0.266 -2.209,-0.022 -0.525,0.149 -1.198,0.222 -1.819,0.319 -0.615,0.121 -1.179,0.254 -1.481,0.472 -1.064,0.301 -1.353,0.169 -2.256,0.372 -1.056,0.353 -1.767,0.625 -2.472,0.869 -0.708,0.23 -1.403,0.451 -2.385,0.817 l 0.475,-0.211 c 0.242,-0.012 0.313,0.121 -0.162,0.332 -0.377,0.101 -1.04,0.374 -1.525,0.566 -0.481,0.199 -0.805,0.283 -0.535,-0.069 -1.96,1.076 -4.79,2.127 -6.482,3.549 0.095,-0.198 -0.379,0.08 -0.615,0.14 -0.415,0.265 -0.829,0.544 -1.234,0.83 -0.392,0.302 -0.782,0.603 -1.161,0.896 -0.773,0.568 -1.469,1.15 -2.148,1.557 -0.211,0.238 0.512,-0.155 -0.108,0.348 -0.398,0.259 -0.103,-0.11 -0.6,0.202 -2.61,1.873 -4.62,4.515 -6.51,6.682 -1.73,1.898 -3.33,4.002 -4.692,6.222 -1.355,2.224 -2.539,4.52 -3.529,6.781 l 0.101,-0.018 c -0.481,0.692 -0.741,1.638 -1.028,2.518 -0.254,0.895 -0.486,1.745 -0.932,2.296 -0.053,0.393 -0.379,1.446 -0.148,1.21 -0.283,0.602 -0.51,1.498 -0.67,2.48 -0.09,0.489 -0.184,0.994 -0.301,1.49 -0.103,0.498 -0.21,0.989 -0.367,1.444 0.023,-0.173 0.057,-0.269 0.129,-0.461 -0.08,0.961 -0.263,1.842 -0.379,2.75 -0.143,0.904 -0.276,1.826 -0.252,2.841 0.053,-0.201 0.107,-0.57 0.195,-0.622 0.108,0.784 -0.509,1.818 -0.106,2.267 -0.015,0.445 -0.212,0.31 -0.193,0.035 -0.009,4.411 0.045,9.161 1.003,13.697 1.002,3.16 0.66,0.046 1.054,2.627 0.133,0.182 -0.108,0.19 -0.017,0.201 0.157,1.006 0.864,1.368 0.893,2.087 -0.329,-0.194 0.016,0.482 -0.12,0.551 0.386,0.933 0.706,1.456 0.958,1.948 0.259,0.488 0.422,0.956 0.662,1.714 l 0.072,-0.16 c 0.405,1.851 1.53,3.702 1.95,5.272 5.015,9.019 12.351,16.345 21.34,21.066 8.916,4.523 18.949,6.692 29.066,5.508 2.328,-0.613 2.492,-0.598 5.08,-0.93 -0.113,-0.036 -0.277,-0.02 -0.115,-0.102 0.189,0.278 1.797,-0.354 2.099,-0.15 3.638,-0.917 6.946,-1.984 10.448,-3.625 -0.57,0.225 -0.943,0.141 -0.277,-0.141 0,0 0.192,-0.037 0.384,-0.074 0.191,-0.038 0.378,-0.088 0.378,-0.088 l 0.075,-0.126 c 0.459,-0.188 1.006,-0.311 0.59,0.004 4.413,-2.07 8.376,-4.953 11.849,-8.253 1.728,-1.665 3.33,-3.442 4.832,-5.289 1.464,-1.876 2.871,-3.791 4.124,-5.806 1.092,-1.971 2.703,-4.74 3.704,-6.983 1.26,-3.413 2.111,-6.758 2.715,-10.142 0.599,-3.386 0.953,-6.816 1.09,-10.473 0,0 -0.188,0.24 -0.408,0.848 C 0.425,-2.446 0.221,-1.472 0,0"
             style="fill:#231f20;fill-opacity:1;fill-rule:nonzero;stroke:none"
             id="path260"
             inkscape:connector-curvature="0" />
        </g>
        <g
           id="g262"
           transform="translate(817.0474,733.2802)">
          <path
             d="M 0,0 C -0.136,-0.247 -0.274,-1.062 -0.418,-0.399 -0.284,-0.326 -0.125,0.092 0,0"
             style="fill:#231f20;fill-opacity:1;fill-rule:nonzero;stroke:none"
             id="path264"
             inkscape:connector-curvature="0" />
        </g>
        <g
           id="g266"
           transform="translate(810.1702,712.7857)">
          <path
             d="m 0,0 c 0.024,-0.043 -0.19,-0.245 -0.242,-0.295 0.111,0.24 0.117,0.514 0.279,0.667 C -0.075,0.13 0.002,0.136 0,0"
             style="fill:#231f20;fill-opacity:1;fill-rule:nonzero;stroke:none"
             id="path268"
             inkscape:connector-curvature="0" />
        </g>
        <g
           id="g270"
           transform="translate(807.3389,708.1041)">
          <path
             d="M 0,0 C -0.061,0.14 0.486,1.175 0.842,1.762 L 0,0 Z"
             style="fill:#231f20;fill-opacity:1;fill-rule:nonzero;stroke:none"
             id="path272"
             inkscape:connector-curvature="0" />
        </g>
        <g
           id="g274"
           transform="translate(803.9167,704.3295)">
          <path
             d="M 0,0 C -0.359,-0.268 -0.32,-0.144 0.042,0.316 0.12,0.307 0.028,0.134 0,0"
             style="fill:#231f20;fill-opacity:1;fill-rule:nonzero;stroke:none"
             id="path276"
             inkscape:connector-curvature="0" />
        </g>
        <g
           id="g278"
           transform="translate(803.9083,703.8712)">
          <path
             d="M 0,0 C -0.274,-0.321 -0.468,-0.431 -0.657,-0.539 -0.564,-0.596 -0.071,0.241 0,0"
             style="fill:#231f20;fill-opacity:1;fill-rule:nonzero;stroke:none"
             id="path280"
             inkscape:connector-curvature="0" />
        </g>
        <g
           id="g282"
           transform="translate(795.7581,696.5469)">
          <path
             d="M 0,0 C -0.198,-0.173 -0.586,-0.606 -0.874,-0.628 -0.582,-0.56 0.046,0.273 0,0"
             style="fill:#231f20;fill-opacity:1;fill-rule:nonzero;stroke:none"
             id="path284"
             inkscape:connector-curvature="0" />
        </g>
        <g
           id="g286"
           transform="translate(791.6793,693.4984)">
          <path
             d="m 0,0 c -0.144,-0.08 -0.209,-0.103 -0.358,-0.226 -0.293,-0.099 -0.06,0.13 0.148,0.279 L 0,0 Z"
             style="fill:#231f20;fill-opacity:1;fill-rule:nonzero;stroke:none"
             id="path288"
             inkscape:connector-curvature="0" />
        </g>
      </g>
    </g>
    <g
       id="g290"
       transform="matrix(1.25,0,0,-1.25,64.711724,1200.2073)">
      <path
         d="M 0,0 0.139,-0.05 -0.046,0.477 0,0 Z"
         style="fill:#231f20;fill-opacity:1;fill-rule:nonzero;stroke:none"
         id="path292"
         inkscape:connector-curvature="0" />
    </g>
    <g
       transform="matrix(1.25,0,0,-1.25,-832.25416,2104.3483)"
       id="g294">
      <g
         id="g296"
         clip-path="url(#clipPath298)">
        <g
           id="g302"
           transform="translate(724.5113,763.1171)">
          <path
             d="M 0,0 C 0.239,0.509 0.317,0.253 0.382,0.319 0.106,-0.099 0.353,0.564 0,0"
             style="fill:#231f20;fill-opacity:1;fill-rule:nonzero;stroke:none"
             id="path304"
             inkscape:connector-curvature="0" />
        </g>
      </g>
    </g>
    <g
       id="g306"
       transform="matrix(1.25,0,0,-1.25,92.734344,1130.9736)">
      <path
         d="M 0,0 0.147,0.088 -0.082,0.25 0,0 Z"
         style="fill:#231f20;fill-opacity:1;fill-rule:nonzero;stroke:none"
         id="path308"
         inkscape:connector-curvature="0" />
    </g>
    <g
       transform="matrix(1.25,0,0,-1.25,-832.25416,2104.3483)"
       id="g310">
      <g
         id="g312"
         clip-path="url(#clipPath314)">
        <g
           id="g318"
           transform="translate(836.2794,735.1756)">
          <path
             d="M 0,0 C -0.034,1.448 -0.292,-0.776 -0.097,0.947 0.023,0.751 0.111,0.47 0,0"
             style="fill:#231f20;fill-opacity:1;fill-rule:nonzero;stroke:none"
             id="path320"
             inkscape:connector-curvature="0" />
        </g>
        <g
           id="g322"
           transform="translate(835.9259,740.9164)">
          <path
             d="m 0,0 c -0.537,2.291 -0.94,4.927 -1.403,7.626 -0.545,2.675 -1.153,5.425 -2.258,7.724 -0.222,0.55 0.468,-0.002 -0.064,1.236 -1.17,2.195 -2.416,5.082 -3.921,8.014 -1.496,2.932 -3.196,5.923 -4.816,8.476 l 0.326,-0.213 c -0.654,0.952 -1.802,1.831 -2.564,2.771 0.057,0.061 0.345,-0.218 0.247,0.068 -0.397,0.064 -1.513,1.599 -2.015,1.837 -0.259,0.414 -0.081,0.513 -0.432,1.04 l -0.686,0.307 c -1.804,0.914 -3.324,3.308 -5.591,4.713 0.141,-0.027 0.378,-0.148 0.255,0.031 -3.511,2.365 -7.871,5.315 -12.158,7.248 0.21,0.006 0.447,0.091 0.251,0.318 -0.331,-0.142 -1.684,0.387 -2.851,0.846 -0.386,0.545 -2.098,0.556 -3.397,1.259 l 0.14,0.019 c -1.129,0.068 -1.466,0.699 -2.422,0.62 l -0.579,0.452 c -0.582,-0.275 -1.448,0.648 -2.376,0.686 l 0.005,-0.095 c -0.837,0.141 -1.22,0.428 -2.002,0.539 l -0.061,0.067 c -1.813,0.327 -2.829,0.709 -2.846,0.377 -0.586,0.379 1.78,-0.192 0.857,0.373 -3.019,0.428 -6.091,0.69 -9.17,0.842 -3.082,0.104 -6.172,0.026 -9.211,-0.254 -0.702,0.057 -1.147,0.036 -1.317,0.145 -0.598,-0.143 -2.282,-0.342 -2.795,-0.639 0.201,0.043 -0.417,0.102 -0.739,0.061 -1.123,-0.077 -1.13,-0.556 -2.346,-0.693 0.454,0.198 0.592,0.342 0.407,0.429 -0.96,-0.509 -2.337,-0.726 -3.491,-1.176 0.168,0.107 0.446,0.221 0.374,0.311 -1.214,-0.662 -2.393,-0.588 -3.45,-1.172 l 0.359,0.329 c -1.882,-0.386 -0.401,-0.569 -2.003,-0.962 0.353,0.185 0.196,0.212 0.237,0.31 -1.323,-0.852 -3.657,-1.668 -4.985,-2.438 0.071,0.062 0.027,0.1 0.027,0.1 -0.755,-0.347 -1.517,-0.725 -2.291,-1.121 -0.78,-0.387 -1.566,-0.81 -2.312,-1.347 -0.62,-0.256 -0.047,0.524 -1.544,-0.42 0.245,-0.283 -2.438,-1.747 -1.326,-1.557 -0.655,-0.365 -1.487,-0.859 -2.233,-1.373 -0.753,-0.503 -1.45,-0.98 -1.791,-1.354 0.441,0.537 -0.87,-0.072 0.095,0.729 l -0.891,-0.398 c 0.012,0.215 0.804,0.563 0.444,0.537 -0.486,-0.412 -1.854,-1.649 -2.312,-1.979 -0.72,-0.963 -1.27,-1.953 -2.569,-3.301 0.534,0.72 -0.664,-0.034 -0.274,0.431 0,0 -0.344,-0.589 -0.688,-1.177 -0.335,-0.592 -0.641,-1.201 -0.641,-1.201 -0.414,-0.462 -0.317,0.117 -0.864,-0.606 0.109,-0.037 -0.115,-0.364 -0.242,-0.619 -0.203,-0.132 -1.615,-2.006 -2.094,-1.96 -0.297,-0.11 0.603,0.822 0.045,0.387 -0.761,-0.87 -0.653,-1.023 -1.372,-1.924 l -0.054,0.015 c -0.534,-0.554 -1.225,-1.883 -0.565,-1.344 0.324,0.415 -0.313,-0.016 0.256,0.533 -0.164,-0.547 -0.857,-1.684 -1.524,-2.612 0.174,0.353 0.062,0.373 0.064,0.565 -0.336,-0.708 -0.671,-1.435 -1.043,-2.161 -0.377,-0.725 -0.783,-1.453 -1.14,-2.234 0.145,-0.117 0.029,0.723 0.24,0.893 -1.348,-1.772 -1.906,-4.121 -3.009,-5.61 0.094,0.287 0.303,0.036 0.248,0.039 -0.456,-0.951 -0.68,-0.8 -0.874,-1.468 -0.167,-0.001 -0.326,-0.805 -0.526,-1.487 -0.029,-0.383 -0.139,-0.144 0.072,0.439 -0.112,-0.49 -0.506,-1.663 -0.933,-2.99 -0.406,-1.336 -0.907,-2.804 -1.3,-3.879 0.12,0.01 -0.035,-1.44 -0.149,-1.945 l -0.189,0.257 c -0.248,-0.43 -0.373,-1.713 -0.595,-1.753 0.017,-0.577 0.198,0.485 0.36,1.505 0.165,1.021 0.392,1.978 0.284,1.22 -0.33,-0.322 -0.138,-2.14 -0.384,-1.743 -0.226,-1.033 -0.21,-2.074 -0.587,-3.024 0.09,0.28 -0.178,0.907 -0.312,0.063 -0.222,-1.487 0.039,-0.442 -0.096,-1.653 0,0 -0.009,-0.191 -0.017,-0.383 10e-4,-0.192 10e-4,-0.385 10e-4,-0.385 0.227,-0.084 -0.2,-1.322 0.132,-0.806 -0.214,-0.159 -0.161,-2.164 -0.519,-1.972 l -0.285,0.238 c -0.037,-0.651 0.239,-1.091 0.335,-1.608 -0.036,-0.082 -0.11,-0.247 -0.158,-0.211 0.468,-0.135 -0.176,-1.538 0.195,-2.323 -0.097,-0.673 -0.126,-1.533 -0.16,-2.303 0,-0.77 -0.02,-1.452 -0.159,-1.777 0.15,-1.04 0.389,-1.974 0.385,-3.164 -0.062,0.233 -0.1,0.555 -0.207,0.614 -0.081,-0.755 0.057,-0.93 0.184,-1.602 -0.106,0.144 -0.099,-1.51 -0.159,-2.364 0.27,-1.014 0.477,-0.621 0.643,-0.702 -0.298,-1.009 0.762,-2.826 0.629,-4.056 -0.155,0.332 -0.546,1.432 -0.484,0.563 -0.226,-1.027 0.739,-1.801 0.918,-3.329 l 0.271,0.46 c -0.044,-0.716 0.828,-2.094 0.407,-2.054 0.253,-0.457 0.42,-1.755 0.724,-1.478 0.42,-2.512 2.329,-5.594 2.369,-7.271 0.191,-0.308 0.556,-1.131 0.643,-0.882 -0.09,0.62 -0.509,0.681 -0.469,0.946 0.143,-0.288 0.265,-0.308 0.325,-0.316 0.276,-0.73 0.534,-1.29 -0.084,-0.772 0.601,-1.655 1.349,-1.322 2.329,-3.288 -0.184,0.009 -0.152,-0.166 0.192,-0.714 0,0 0.209,-0.23 0.421,-0.46 0.221,-0.222 0.443,-0.445 0.443,-0.445 0.715,-1.228 0.138,-0.871 -0.066,-1.042 0.45,-0.622 0.945,-1.421 1.322,-1.583 l 0.267,-0.948 c -0.197,0.692 0.496,-0.422 0.756,-0.677 l -0.261,0.255 c -0.011,-0.183 0.559,-0.865 0.873,-1.188 0.058,0.177 -0.437,0.932 -0.674,1.369 0.318,-0.252 0.649,-0.761 1.084,-1.076 -0.311,-0.024 0.621,-1.09 0.975,-1.583 0.383,-0.587 0.684,-0.451 0.803,-0.615 -0.092,-0.1 0.725,-0.871 0.227,-0.584 -0.188,0.152 -0.255,0.494 -0.603,0.714 0.224,-0.41 0.012,-0.522 0.766,-1.132 0.565,-0.458 0.263,0.476 1.028,-0.658 -0.281,0.227 -0.401,0.207 -0.651,0.354 0,0 0.184,-0.263 0.367,-0.526 0.18,-0.268 0.383,-0.514 0.383,-0.514 l 0.211,0.12 c 0.074,-0.164 -0.022,-0.092 0.009,-0.172 0.443,-0.104 1.397,-1.355 1.794,-1.366 0.473,-0.431 0.859,-1.048 1.282,-1.492 l -0.099,0.066 c 0.437,-0.629 1.242,-1.23 1.83,-1.512 l -0.059,-0.016 c 0.296,-0.28 1.047,-0.89 1.527,-1.11 0.698,-0.774 -0.285,-0.907 0.802,-1.384 0.836,-0.648 1.559,-0.675 1.317,-0.294 0.71,-0.617 1.568,-1.147 2.386,-1.695 0.839,-0.516 1.658,-1.025 2.295,-1.654 0.277,-0.064 0.162,0.072 0.673,-0.157 2.322,-1.511 5.226,-2.516 7.048,-3.814 -0.769,0.239 -0.144,-0.194 -0.18,-0.325 0.685,-0.086 0.653,-0.51 1.012,-0.269 0.02,0.225 0.115,0.284 -0.565,0.666 0.779,-0.267 1.756,-0.606 2.628,-0.966 0.875,-0.346 1.675,-0.641 2.073,-0.89 -0.401,0.241 -0.046,0.189 0.314,0.134 -0.222,-0.286 0.915,-0.732 1.839,-0.848 l 0.183,0.164 0.515,-0.367 c 0.36,-0.029 0.486,0.304 1.312,-0.119 0.026,-0.088 0.058,-0.18 0.206,-0.274 0.974,-0.033 2.317,-0.106 3.297,-0.434 l 0.774,-0.445 c 0.44,-0.045 1.197,0.004 0.451,0.226 1.692,-0.506 2.826,-0.595 3.348,-0.948 3.087,0.277 7.428,0.156 10.929,0.361 l -0.093,-0.163 c 0.951,-0.073 0.468,0.308 1.131,0.25 -0.294,-0.17 0.744,-0.265 0.018,-0.502 1.37,-0.075 1.713,0.431 2.572,0.607 0.107,0.219 -0.683,-0.218 -0.546,0.06 0.138,0.091 1.869,0.077 2.031,0.408 0.351,-0.068 0.128,-0.336 -0.036,-0.48 l 0.791,0.283 c 0.525,-0.089 -0.012,-0.349 -0.551,-0.618 -0.542,-0.241 -1.085,-0.493 -0.52,-0.645 l 0.759,0.153 c 0.785,-0.221 -1.982,-0.637 -0.031,-0.488 0.814,0.3 1.443,0.866 0.684,0.869 1.699,0.4 0.668,0.842 2.489,1.187 0.266,-0.03 -0.093,-0.128 -0.47,-0.23 -0.381,-0.088 -0.779,-0.188 -0.578,-0.282 0.918,-0.111 1.691,0.513 2.47,0.589 -0.868,-0.082 -0.225,0.387 0.301,0.566 0.952,0.07 -0.526,-0.421 0.782,-0.152 0.17,0.232 1.31,0.696 0.263,0.525 0.354,0.521 1.359,0.271 1.965,0.768 0.503,-0.152 -1.135,-1.004 0.32,-0.739 -0.293,0.175 1.612,0.909 0.752,1.053 0.564,0.108 0.692,-0.076 0.346,-0.37 0.836,0.108 1.72,1.102 2.155,0.689 l 0.165,0.366 c 0.27,0.008 0.636,0.079 1.081,0.092 0.339,0.132 0.845,0.433 1.279,0.649 0.427,0.229 0.778,0.385 0.833,0.176 0.196,0.136 1.708,0.799 1.005,0.802 -1.004,-0.258 -0.986,-0.681 -1.662,-0.552 0.785,0.002 1.325,0.645 1.815,0.984 l 0.156,-0.109 c 0.298,0.19 1.032,0.529 1.147,0.788 -0.196,-0.206 -0.024,-0.243 0.244,-0.149 l 0.215,0.388 c 1.207,0.762 0.503,-0.24 1.7,0.47 0,0 -0.206,-0.172 -0.42,-0.332 -0.214,-0.163 -0.427,-0.326 -0.427,-0.326 0.182,0.15 0.731,0.134 1.268,0.548 0.116,0.328 0.404,0.806 0.507,1.07 0.626,0.473 0.433,-0.046 0.981,0.536 l -0.736,-0.737 c -0.1,-0.134 0.789,0.001 1.683,0.561 0.527,0.432 1.223,1.267 0.269,0.802 0.439,0.286 1.133,0.567 0.871,0.204 0.961,0.707 -0.262,0.12 0.521,0.789 0.435,0.101 1.614,0.693 2.394,0.973 l -0.66,-0.934 0.59,0.415 c -0.586,-0.789 0.522,0.087 0.279,-0.478 0.435,0.247 0.866,0.678 1.184,1.048 -1.441,-0.481 0.843,1.555 0.221,1.66 1.45,1.293 1.677,-0.104 2.761,1.781 -0.333,-0.127 0.157,0.768 -0.683,-0.137 0.943,0.767 0.334,0.862 1.49,1.707 -0.636,-0.874 1.151,0.44 0.227,-0.825 -0.024,0.178 -0.706,-0.499 -0.865,-0.679 0.494,0.204 0.25,-0.437 1.17,0.422 0.525,0.563 1.281,1.296 1.001,1.365 -0.21,0.17 -0.825,-0.826 -0.658,-0.292 1.04,1.104 1.498,1.01 1.591,1.799 -0.63,-0.724 -1.001,-0.689 -1.119,-0.545 0,0 0.182,0.208 0.349,0.431 0.17,0.219 0.341,0.439 0.341,0.439 l -0.021,-0.28 c 1.315,1.195 0.127,0.602 1.343,1.808 l 0.788,0.373 c -0.02,-0.534 -1.798,-1.745 -1.227,-1.863 0.796,0.798 0.866,1.235 1.647,1.957 -0.123,-0.206 -0.325,-0.458 -0.445,-0.664 0.274,0.291 1.033,0.17 1.798,1.637 0.409,0.74 0.003,0.282 -0.124,0.414 1.059,1.463 1.28,1.969 1.917,2.935 0.153,-0.407 1.216,1.649 0.773,0.391 -0.265,-0.174 -0.741,-0.816 -1.225,-1.46 -0.481,-0.646 -0.911,-1.341 -0.975,-1.702 0.369,0.126 0.137,-0.145 -0.175,-0.52 -0.329,-0.362 -0.746,-0.819 -0.71,-1.109 0.969,1.094 1.24,0.782 1.599,0.795 0.268,0.311 0.423,0.696 0.54,0.914 -0.097,0.296 -0.423,-0.125 -0.65,0.017 1.088,1.223 1.879,2.599 2.184,3.474 0.42,0.369 0.536,0.085 0.18,-0.457 1.061,1.63 2.196,3.367 3.166,4.939 -0.957,-0.824 0.934,1.833 0.221,1.298 -0.565,-0.814 -1.252,-1.387 -1.146,-0.828 0.328,0.514 0.151,-0.108 0.358,0.068 0.192,0.78 0.922,0.878 0.944,1.733 -0.68,-1.628 0.297,-0.548 0.443,-0.991 0.42,1.23 0.183,-0.159 0.764,0.973 0.45,1.214 0.935,2.718 1.459,4.036 0.479,0.763 0.891,1.82 1.26,2.861 0.318,1.062 0.588,2.11 0.837,2.865 0.389,0.751 0.591,0.099 0.904,0.958 0.283,1.029 -0.606,-0.65 -0.009,0.822 l 0.03,-0.166 c 0.08,0.469 0.971,2.75 0.54,3.325 L -2.1,-18.69 c 0.102,0.279 0.073,0.567 0.085,0.814 0.132,-0.017 0.327,0.295 0.303,-0.194 0.521,0.894 0.341,2.036 0.532,3.078 l -0.357,-0.632 c 0.162,1.813 0.493,2.993 0.629,4.746 l 0.229,-0.075 -0.061,1.057 c 0.208,-0.275 0.429,0.676 0.28,1.242 0,0 0.092,-0.692 0.184,-1.384 0.093,-0.695 0.169,-1.396 0.169,-1.396 -0.225,-0.743 -0.189,0.857 -0.473,0.405 -0.239,-0.382 -0.391,-2.003 -0.198,-2.298 0.105,0.618 0.058,0.657 0.034,1.147 0.352,0.167 0.219,-0.776 0.375,-1.276 0.029,0.329 0.187,0.783 0.093,0.866 0.063,-0.66 0.048,-1.324 -0.142,-2.391 0.004,0.742 -0.269,-0.36 -0.312,-0.071 0.268,-0.13 0.176,-1.169 -0.144,-2.471 -0.56,-0.855 -0.309,-2.511 -0.846,-3.986 -0.096,0.681 -0.127,1.515 -0.041,2.457 -0.369,-0.904 -0.211,-1.056 -0.627,-1.948 0.082,-0.505 0.311,-0.917 0.09,-2.179 l -0.224,-0.003 c -0.238,-1.129 0.045,-1.225 -0.477,-2.601 -0.445,-1.18 -0.985,-2.34 -1.427,-3.457 -0.509,-1.089 -0.986,-2.11 -1.392,-2.979 l -0.225,0.029 c -0.037,-0.574 -0.405,-1.387 -0.824,-2.226 -0.417,-0.839 -0.954,-1.665 -1.217,-2.345 -0.678,-1.023 -1.403,-2.136 -2,-3.158 -0.645,-0.99 -1.246,-1.834 -1.756,-2.237 -2.44,-3.557 -4.875,-6.514 -8.245,-9.483 l 0.338,0.746 c -0.424,-0.722 -0.494,-0.231 -1.054,-0.777 0.848,0.404 -0.606,-0.955 -0.907,-1.467 -1.672,-1.114 -3.557,-2.852 -4.903,-4.044 l -0.178,0.137 c -1.26,-1.345 -3.281,-2.194 -5.259,-3.218 -0.262,-0.058 -0.719,-0.059 -1.296,-0.382 -0.921,-0.854 -1.48,-1.155 -3.023,-2.068 -1.173,-0.571 -3.186,-1.244 -4.461,-1.596 -4.454,-2.122 -9.452,-2.993 -14.479,-3.86 l -0.393,0.204 c -4.888,-1.113 -11.033,-0.436 -15.237,-0.118 l 0.46,0.377 c -1.293,0.27 -2.993,0.327 -2.714,-0.027 -0.644,0.184 -1.471,0.273 -2.233,0.393 -0.756,0.148 -1.449,0.311 -1.819,0.579 -1.308,0.37 -1.663,0.207 -2.772,0.458 -1.297,0.433 -2.171,0.767 -3.036,1.066 -0.871,0.284 -1.724,0.555 -2.93,1.004 l 0.584,-0.259 c 0.296,-0.015 0.384,0.149 -0.2,0.407 -0.463,0.124 -1.277,0.461 -1.873,0.696 -0.591,0.244 -0.988,0.347 -0.656,-0.085 -2.409,1.322 -5.885,2.613 -7.963,4.359 0.117,-0.242 -0.466,0.1 -0.756,0.173 -0.51,0.326 -1.018,0.668 -1.515,1.019 -0.482,0.371 -0.961,0.741 -1.427,1.1 -0.95,0.698 -1.804,1.413 -2.638,1.914 -0.259,0.292 0.628,-0.191 -0.133,0.427 -0.489,0.318 -0.127,-0.136 -0.737,0.248 -3.206,2.3 -5.675,5.546 -7.996,8.208 -2.126,2.332 -4.091,4.916 -5.764,7.643 -1.665,2.732 -3.119,5.551 -4.335,8.33 l 0.124,-0.023 c -0.59,0.85 -0.91,2.012 -1.262,3.093 -0.313,1.099 -0.597,2.144 -1.145,2.821 -0.065,0.482 -0.466,1.776 -0.182,1.486 -0.348,0.739 -0.627,1.839 -0.822,3.046 -0.111,0.601 -0.227,1.221 -0.37,1.83 -0.127,0.612 -0.258,1.215 -0.451,1.774 0.028,-0.212 0.07,-0.33 0.158,-0.566 -0.098,1.18 -0.323,2.262 -0.466,3.378 -0.175,1.11 -0.339,2.242 -0.309,3.49 0.064,-0.248 0.131,-0.701 0.239,-0.765 0.133,0.963 -0.624,2.233 -0.13,2.785 -0.019,0.547 -0.261,0.381 -0.237,0.043 -0.011,5.419 0.056,11.253 1.233,16.824 1.23,3.883 0.809,0.057 1.293,3.227 0.164,0.225 -0.132,0.234 -0.02,0.248 0.193,1.235 1.061,1.68 1.097,2.563 -0.404,-0.238 0.02,0.593 -0.148,0.678 0.475,1.145 0.868,1.788 1.177,2.391 0.318,0.601 0.519,1.175 0.814,2.106 l 0.088,-0.197 c 0.497,2.274 1.88,4.548 2.396,6.476 6.16,11.079 15.17,20.077 26.212,25.877 10.952,5.556 23.276,8.22 35.703,6.765 2.86,-0.752 3.061,-0.734 6.241,-1.141 -0.14,-0.045 -0.34,-0.025 -0.142,-0.126 0.232,0.342 2.207,-0.435 2.579,-0.184 4.468,-1.127 8.532,-2.437 12.834,-4.453 -0.701,0.277 -1.159,0.173 -0.341,-0.173 0,0 0.235,-0.045 0.471,-0.091 0.236,-0.046 0.466,-0.108 0.466,-0.108 l 0.092,-0.155 c 0.563,-0.231 1.235,-0.382 0.724,0.005 5.42,-2.543 10.289,-6.084 14.555,-10.138 2.123,-2.044 4.09,-4.228 5.936,-6.496 1.798,-2.305 3.526,-4.657 5.065,-7.133 1.342,-2.42 3.32,-5.821 4.55,-8.577 1.548,-4.191 2.593,-8.301 3.335,-12.457 0.735,-4.16 1.17,-8.373 1.339,-12.865 0,0 -0.232,0.295 -0.502,1.042 C 0.522,-3.005 0.272,-1.808 0,0"
             style="fill:#231f20;fill-opacity:1;fill-rule:nonzero;stroke:none"
             id="path324"
             inkscape:connector-curvature="0" />
        </g>
        <g
           id="g326"
           transform="translate(836.2703,733.4305)">
          <path
             d="M 0,0 C -0.168,-0.304 -0.337,-1.304 -0.514,-0.49 -0.349,-0.4 -0.153,0.113 0,0"
             style="fill:#231f20;fill-opacity:1;fill-rule:nonzero;stroke:none"
             id="path328"
             inkscape:connector-curvature="0" />
        </g>
        <g
           id="g330"
           transform="translate(827.8225,708.2559)">
          <path
             d="m 0,0 c 0.03,-0.053 -0.234,-0.301 -0.298,-0.362 0.138,0.295 0.145,0.631 0.343,0.82 C -0.092,0.16 0.003,0.167 0,0"
             style="fill:#231f20;fill-opacity:1;fill-rule:nonzero;stroke:none"
             id="path332"
             inkscape:connector-curvature="0" />
        </g>
        <g
           id="g334"
           transform="translate(824.3446,702.5052)">
          <path
             d="M 0,0 C -0.075,0.172 0.597,1.443 1.034,2.164 L 0,0 Z"
             style="fill:#231f20;fill-opacity:1;fill-rule:nonzero;stroke:none"
             id="path336"
             inkscape:connector-curvature="0" />
        </g>
        <g
           id="g338"
           transform="translate(820.141,697.8687)">
          <path
             d="M 0,0 C -0.442,-0.329 -0.393,-0.176 0.052,0.388 0.148,0.377 0.034,0.164 0,0"
             style="fill:#231f20;fill-opacity:1;fill-rule:nonzero;stroke:none"
             id="path340"
             inkscape:connector-curvature="0" />
        </g>
        <g
           id="g342"
           transform="translate(820.1306,697.3057)">
          <path
             d="M 0,0 C -0.337,-0.394 -0.575,-0.529 -0.807,-0.662 -0.693,-0.732 -0.087,0.296 0,0"
             style="fill:#231f20;fill-opacity:1;fill-rule:nonzero;stroke:none"
             id="path344"
             inkscape:connector-curvature="0" />
        </g>
        <g
           id="g346"
           transform="translate(810.1194,688.3089)">
          <path
             d="M 0,0 C -0.243,-0.213 -0.72,-0.745 -1.073,-0.772 -0.715,-0.688 0.056,0.335 0,0"
             style="fill:#231f20;fill-opacity:1;fill-rule:nonzero;stroke:none"
             id="path348"
             inkscape:connector-curvature="0" />
        </g>
        <g
           id="g350"
           transform="translate(805.1091,684.5643)">
          <path
             d="m 0,0 c -0.177,-0.099 -0.256,-0.127 -0.439,-0.278 -0.36,-0.121 -0.074,0.161 0.181,0.343 L 0,0 Z"
             style="fill:#231f20;fill-opacity:1;fill-rule:nonzero;stroke:none"
             id="path352"
             inkscape:connector-curvature="0" />
        </g>
      </g>
    </g>
    <g
       id="g354"
       transform="matrix(1.25,0,0,-1.25,60.345594,1202.8656)">
      <path
         d="M 0,0 0.171,-0.06 -0.056,0.587 0,0 Z"
         style="fill:#231f20;fill-opacity:1;fill-rule:nonzero;stroke:none"
         id="path356"
         inkscape:connector-curvature="0" />
    </g>
    <g
       transform="matrix(1.25,0,0,-1.25,-832.25416,2104.3483)"
       id="g358">
      <g
         id="g360"
         clip-path="url(#clipPath362)">
        <g
           id="g366"
           transform="translate(722.603,770.0806)">
          <path
             d="M 0,0 C 0.294,0.626 0.39,0.31 0.47,0.392 0.13,-0.121 0.433,0.692 0,0"
             style="fill:#231f20;fill-opacity:1;fill-rule:nonzero;stroke:none"
             id="path368"
             inkscape:connector-curvature="0" />
        </g>
      </g>
    </g>
    <g
       id="g370"
       transform="matrix(1.25,0,0,-1.25,94.767224,1117.8213)">
      <path
         d="M 0,0 0.18,0.109 -0.1,0.307 0,0 Z"
         style="fill:#231f20;fill-opacity:1;fill-rule:nonzero;stroke:none"
         id="path372"
         inkscape:connector-curvature="0" />
    </g>
  </g>
</svg>
