<?xml version="1.0" encoding="UTF-8" standalone="no"?>
<!-- Created with Inkscape (http://www.inkscape.org/) -->

<svg
   xmlns:dc="http://purl.org/dc/elements/1.1/"
   xmlns:cc="http://creativecommons.org/ns#"
   xmlns:rdf="http://www.w3.org/1999/02/22-rdf-syntax-ns#"
   xmlns:svg="http://www.w3.org/2000/svg"
   xmlns="http://www.w3.org/2000/svg"
   xmlns:sodipodi="http://sodipodi.sourceforge.net/DTD/sodipodi-0.dtd"
   xmlns:inkscape="http://www.inkscape.org/namespaces/inkscape"
   width="44.997044mm"
   height="45.250439mm"
   viewBox="0 0 159.43834 160.3362"
   id="svg3801"
   version="1.1"
   inkscape:version="0.91 r13725"
   sodipodi:docname="round_button_active.svg">
  <defs
     id="defs3803">
    <clipPath
       clipPathUnits="userSpaceOnUse"
       id="clipPath378">
      <path
         d="m 0,0 1190.551,0 0,841.89 L 0,841.89 0,0 Z"
         id="path380"
         inkscape:connector-curvature="0" />
    </clipPath>
  </defs>
  <sodipodi:namedview
     id="base"
     pagecolor="#ffffff"
     bordercolor="#666666"
     borderopacity="1.0"
     inkscape:pageopacity="0.0"
     inkscape:pageshadow="2"
     inkscape:zoom="0.35"
     inkscape:cx="-338.4188"
     inkscape:cy="731.5636"
     inkscape:document-units="px"
     inkscape:current-layer="layer1"
     showgrid="false"
     fit-margin-top="0"
     fit-margin-left="0"
     fit-margin-right="0"
     fit-margin-bottom="0"
     inkscape:window-width="1920"
     inkscape:window-height="1017"
     inkscape:window-x="-4"
     inkscape:window-y="-4"
     inkscape:window-maximized="1" />
  <metadata
     id="metadata3806">
    <rdf:RDF>
      <cc:Work
         rdf:about="">
        <dc:format>image/svg+xml</dc:format>
        <dc:type
           rdf:resource="http://purl.org/dc/dcmitype/StillImage" />
        <dc:title></dc:title>
      </cc:Work>
    </rdf:RDF>
  </metadata>
  <g
     inkscape:label="Layer 1"
     inkscape:groupmode="layer"
     id="layer1"
     transform="translate(-0.28083499,-549.337)">
    <path
       d="m 80.35716,703.46073 c 40.35001,0 73.06126,-32.71 73.06126,-73.06125 0,-40.35 -32.71125,-73.06125 -73.06126,-73.06125 -40.35,0 -73.06125,32.71125 -73.06125,73.06125 0,40.35125 32.71125,73.06125 73.06125,73.06125"
       style="fill:#163e3a;fill-opacity:1;fill-rule:nonzero;stroke:none"
       id="path28"
       inkscape:connector-curvature="0" />
    <g
       transform="matrix(1.25,0,0,-1.25,-886.8207,1376.0864)"
       id="g374">
      <g
         id="g376"
         clip-path="url(#clipPath378)">
        <g
           id="g382"
           transform="translate(836.2794,595.9683)">
          <path
             d="M 0,0 C -0.034,1.448 -0.292,-0.776 -0.097,0.947 0.023,0.751 0.111,0.47 0,0"
             style="fill:#231f20;fill-opacity:1;fill-rule:nonzero;stroke:none"
             id="path384"
             inkscape:connector-curvature="0" />
        </g>
        <g
           id="g386"
           transform="translate(835.9259,601.709)">
          <path
             d="m 0,0 c -0.537,2.291 -0.94,4.927 -1.403,7.626 -0.545,2.675 -1.153,5.425 -2.258,7.724 -0.222,0.55 0.468,-0.002 -0.064,1.236 -1.17,2.195 -2.416,5.083 -3.921,8.014 -1.496,2.932 -3.196,5.923 -4.816,8.476 l 0.326,-0.213 c -0.654,0.952 -1.802,1.831 -2.564,2.771 0.057,0.061 0.345,-0.218 0.247,0.068 -0.397,0.065 -1.513,1.599 -2.015,1.837 -0.259,0.414 -0.081,0.513 -0.432,1.04 l -0.686,0.307 c -1.804,0.914 -3.324,3.308 -5.591,4.713 0.141,-0.027 0.378,-0.148 0.255,0.031 -3.511,2.365 -7.871,5.315 -12.158,7.248 0.21,0.006 0.447,0.091 0.251,0.318 -0.331,-0.142 -1.684,0.387 -2.851,0.846 -0.386,0.546 -2.098,0.556 -3.397,1.259 l 0.14,0.019 c -1.129,0.068 -1.466,0.699 -2.422,0.62 l -0.579,0.452 c -0.582,-0.275 -1.448,0.648 -2.376,0.686 l 0.005,-0.095 c -0.837,0.141 -1.22,0.428 -2.002,0.539 l -0.061,0.067 c -1.813,0.327 -2.829,0.709 -2.846,0.377 -0.586,0.379 1.78,-0.192 0.857,0.373 -3.019,0.428 -6.091,0.691 -9.17,0.842 -3.082,0.104 -6.172,0.026 -9.211,-0.254 -0.702,0.057 -1.147,0.036 -1.317,0.145 -0.598,-0.143 -2.282,-0.342 -2.795,-0.639 0.201,0.043 -0.417,0.102 -0.739,0.061 -1.123,-0.077 -1.13,-0.556 -2.346,-0.692 0.454,0.197 0.592,0.341 0.407,0.428 -0.96,-0.509 -2.337,-0.726 -3.491,-1.176 0.168,0.107 0.446,0.221 0.374,0.311 -1.214,-0.662 -2.393,-0.588 -3.45,-1.172 l 0.359,0.329 c -1.882,-0.386 -0.401,-0.568 -2.003,-0.962 0.353,0.185 0.196,0.212 0.237,0.31 -1.323,-0.852 -3.657,-1.668 -4.985,-2.438 0.071,0.063 0.027,0.1 0.027,0.1 -0.755,-0.347 -1.517,-0.725 -2.291,-1.121 -0.78,-0.387 -1.566,-0.81 -2.312,-1.347 -0.62,-0.256 -0.047,0.524 -1.544,-0.42 0.245,-0.283 -2.438,-1.747 -1.326,-1.556 -0.655,-0.366 -1.487,-0.86 -2.233,-1.374 -0.753,-0.503 -1.45,-0.98 -1.791,-1.354 0.441,0.537 -0.87,-0.072 0.095,0.729 l -0.891,-0.398 c 0.012,0.215 0.804,0.563 0.444,0.537 -0.486,-0.412 -1.854,-1.649 -2.312,-1.979 -0.72,-0.963 -1.27,-1.953 -2.569,-3.301 0.534,0.72 -0.664,-0.034 -0.274,0.431 0,0 -0.344,-0.589 -0.688,-1.176 -0.335,-0.593 -0.641,-1.202 -0.641,-1.202 -0.414,-0.462 -0.317,0.117 -0.864,-0.606 0.109,-0.037 -0.115,-0.364 -0.242,-0.619 -0.203,-0.132 -1.615,-2.006 -2.094,-1.96 -0.297,-0.11 0.603,0.822 0.045,0.387 -0.761,-0.87 -0.653,-1.023 -1.372,-1.923 l -0.054,0.014 c -0.534,-0.554 -1.225,-1.883 -0.565,-1.344 0.324,0.415 -0.313,-0.016 0.256,0.533 -0.164,-0.547 -0.857,-1.684 -1.524,-2.612 0.174,0.353 0.062,0.373 0.064,0.565 -0.336,-0.708 -0.671,-1.435 -1.043,-2.161 -0.377,-0.725 -0.783,-1.453 -1.14,-2.234 0.145,-0.117 0.029,0.723 0.24,0.893 -1.348,-1.772 -1.906,-4.121 -3.009,-5.61 0.094,0.287 0.303,0.036 0.248,0.039 -0.456,-0.951 -0.68,-0.8 -0.874,-1.468 -0.167,-0.001 -0.326,-0.805 -0.526,-1.487 -0.029,-0.383 -0.139,-0.144 0.072,0.439 -0.112,-0.49 -0.506,-1.663 -0.933,-2.99 -0.406,-1.336 -0.907,-2.804 -1.3,-3.879 0.12,0.01 -0.035,-1.44 -0.149,-1.945 l -0.189,0.257 c -0.248,-0.43 -0.373,-1.713 -0.595,-1.753 0.017,-0.577 0.198,0.485 0.36,1.505 0.165,1.021 0.392,1.978 0.284,1.22 -0.33,-0.321 -0.138,-2.14 -0.384,-1.743 -0.226,-1.033 -0.21,-2.074 -0.587,-3.024 0.09,0.28 -0.178,0.907 -0.312,0.063 -0.222,-1.487 0.039,-0.442 -0.096,-1.653 0,0 -0.009,-0.191 -0.017,-0.383 10e-4,-0.192 10e-4,-0.385 10e-4,-0.385 0.227,-0.084 -0.2,-1.322 0.132,-0.806 -0.214,-0.159 -0.161,-2.164 -0.519,-1.972 l -0.285,0.238 c -0.037,-0.651 0.239,-1.091 0.335,-1.608 -0.036,-0.082 -0.11,-0.247 -0.158,-0.211 0.468,-0.135 -0.176,-1.538 0.195,-2.323 -0.097,-0.673 -0.126,-1.533 -0.16,-2.303 0,-0.77 -0.02,-1.452 -0.159,-1.776 0.15,-1.041 0.389,-1.975 0.385,-3.165 -0.062,0.233 -0.1,0.555 -0.207,0.614 -0.081,-0.755 0.057,-0.93 0.184,-1.602 -0.106,0.144 -0.099,-1.51 -0.159,-2.363 0.27,-1.015 0.477,-0.622 0.643,-0.703 -0.298,-1.009 0.762,-2.826 0.629,-4.056 -0.155,0.332 -0.546,1.432 -0.484,0.563 -0.226,-1.027 0.739,-1.801 0.918,-3.329 l 0.271,0.46 c -0.044,-0.716 0.828,-2.094 0.407,-2.054 0.253,-0.457 0.42,-1.755 0.724,-1.478 0.42,-2.512 2.329,-5.594 2.369,-7.271 0.191,-0.308 0.556,-1.131 0.643,-0.882 -0.09,0.62 -0.509,0.681 -0.469,0.946 0.143,-0.288 0.265,-0.308 0.325,-0.316 0.276,-0.73 0.534,-1.29 -0.084,-0.772 0.601,-1.655 1.349,-1.322 2.329,-3.288 -0.184,0.009 -0.152,-0.166 0.192,-0.714 0,0 0.209,-0.23 0.421,-0.46 0.221,-0.222 0.443,-0.445 0.443,-0.445 0.715,-1.228 0.138,-0.871 -0.066,-1.042 0.45,-0.622 0.945,-1.421 1.322,-1.583 l 0.267,-0.948 c -0.197,0.692 0.496,-0.422 0.756,-0.677 l -0.261,0.255 c -0.011,-0.183 0.559,-0.865 0.873,-1.188 0.058,0.177 -0.437,0.932 -0.674,1.369 0.318,-0.252 0.649,-0.761 1.084,-1.076 -0.311,-0.024 0.621,-1.09 0.975,-1.583 0.383,-0.587 0.684,-0.45 0.803,-0.615 -0.092,-0.1 0.725,-0.871 0.227,-0.584 -0.188,0.152 -0.255,0.494 -0.603,0.714 0.224,-0.41 0.012,-0.522 0.766,-1.132 0.565,-0.458 0.263,0.476 1.028,-0.658 -0.281,0.227 -0.401,0.207 -0.651,0.354 0,0 0.184,-0.263 0.367,-0.526 0.18,-0.268 0.383,-0.514 0.383,-0.514 l 0.211,0.12 c 0.074,-0.164 -0.022,-0.092 0.009,-0.171 0.443,-0.105 1.397,-1.356 1.794,-1.367 0.473,-0.431 0.859,-1.048 1.282,-1.492 l -0.099,0.066 c 0.437,-0.629 1.242,-1.23 1.83,-1.512 l -0.059,-0.016 c 0.296,-0.28 1.047,-0.89 1.527,-1.11 0.698,-0.774 -0.285,-0.907 0.802,-1.384 0.836,-0.648 1.559,-0.675 1.317,-0.294 0.71,-0.617 1.568,-1.147 2.386,-1.695 0.839,-0.516 1.658,-1.025 2.295,-1.654 0.277,-0.064 0.162,0.072 0.673,-0.157 2.322,-1.511 5.226,-2.516 7.048,-3.814 -0.769,0.239 -0.144,-0.194 -0.18,-0.325 0.685,-0.086 0.653,-0.51 1.012,-0.269 0.02,0.225 0.115,0.284 -0.565,0.666 0.779,-0.267 1.756,-0.606 2.628,-0.966 0.875,-0.346 1.675,-0.641 2.073,-0.89 -0.401,0.241 -0.046,0.189 0.314,0.135 -0.222,-0.287 0.915,-0.733 1.839,-0.848 l 0.183,0.163 0.515,-0.367 c 0.36,-0.029 0.486,0.304 1.312,-0.119 0.026,-0.088 0.058,-0.179 0.206,-0.274 0.974,-0.033 2.317,-0.106 3.297,-0.434 l 0.774,-0.445 c 0.44,-0.045 1.197,0.004 0.451,0.226 1.692,-0.506 2.826,-0.595 3.348,-0.948 3.087,0.277 7.428,0.156 10.929,0.361 l -0.093,-0.163 c 0.951,-0.073 0.468,0.308 1.131,0.25 -0.294,-0.17 0.744,-0.265 0.018,-0.502 1.37,-0.075 1.713,0.432 2.572,0.607 0.107,0.219 -0.683,-0.218 -0.546,0.06 0.138,0.091 1.869,0.077 2.031,0.408 0.351,-0.068 0.128,-0.336 -0.036,-0.48 l 0.791,0.283 c 0.525,-0.089 -0.012,-0.349 -0.551,-0.618 -0.542,-0.241 -1.085,-0.493 -0.52,-0.645 l 0.759,0.153 c 0.785,-0.221 -1.982,-0.637 -0.031,-0.488 0.814,0.3 1.443,0.866 0.684,0.869 1.699,0.4 0.668,0.842 2.489,1.187 0.266,-0.03 -0.093,-0.128 -0.47,-0.23 -0.381,-0.088 -0.779,-0.188 -0.578,-0.282 0.918,-0.111 1.691,0.513 2.47,0.589 -0.868,-0.082 -0.225,0.387 0.301,0.566 0.952,0.07 -0.526,-0.421 0.782,-0.152 0.17,0.232 1.31,0.696 0.263,0.525 0.354,0.521 1.359,0.271 1.965,0.768 0.503,-0.152 -1.135,-1.004 0.32,-0.739 -0.293,0.175 1.612,0.909 0.752,1.053 0.564,0.108 0.692,-0.076 0.346,-0.37 0.836,0.108 1.72,1.102 2.155,0.689 l 0.165,0.366 c 0.27,0.008 0.636,0.079 1.081,0.092 0.339,0.132 0.845,0.433 1.279,0.649 0.427,0.229 0.778,0.385 0.833,0.176 0.196,0.136 1.708,0.799 1.005,0.802 -1.004,-0.258 -0.986,-0.681 -1.662,-0.552 0.785,0.002 1.325,0.645 1.815,0.984 l 0.156,-0.109 c 0.298,0.19 1.032,0.529 1.147,0.788 -0.196,-0.206 -0.024,-0.242 0.244,-0.149 l 0.215,0.388 c 1.207,0.762 0.503,-0.24 1.7,0.47 0,0 -0.206,-0.172 -0.42,-0.332 -0.214,-0.163 -0.427,-0.326 -0.427,-0.326 0.182,0.15 0.731,0.134 1.268,0.548 0.116,0.328 0.404,0.806 0.507,1.07 0.626,0.473 0.433,-0.046 0.981,0.536 l -0.736,-0.737 c -0.1,-0.134 0.789,0.002 1.683,0.561 0.527,0.432 1.223,1.267 0.269,0.802 0.439,0.286 1.133,0.567 0.871,0.204 0.961,0.707 -0.262,0.12 0.521,0.789 0.435,0.101 1.614,0.693 2.394,0.973 l -0.66,-0.934 0.59,0.415 c -0.586,-0.789 0.522,0.087 0.279,-0.478 0.435,0.247 0.866,0.678 1.184,1.048 -1.441,-0.481 0.843,1.555 0.221,1.66 1.45,1.293 1.677,-0.104 2.761,1.781 -0.333,-0.127 0.157,0.768 -0.683,-0.137 0.943,0.767 0.334,0.862 1.49,1.707 -0.636,-0.874 1.151,0.44 0.227,-0.825 -0.024,0.178 -0.706,-0.499 -0.865,-0.679 0.494,0.204 0.25,-0.437 1.17,0.422 0.525,0.563 1.281,1.296 1.001,1.365 -0.21,0.17 -0.825,-0.826 -0.658,-0.292 1.04,1.104 1.498,1.01 1.591,1.799 -0.63,-0.724 -1.001,-0.689 -1.119,-0.545 0,0 0.182,0.208 0.349,0.431 0.17,0.219 0.341,0.439 0.341,0.439 l -0.021,-0.28 c 1.315,1.195 0.127,0.602 1.343,1.808 l 0.788,0.373 c -0.02,-0.534 -1.798,-1.745 -1.227,-1.863 0.796,0.798 0.866,1.235 1.647,1.957 -0.123,-0.206 -0.325,-0.458 -0.445,-0.663 0.274,0.29 1.033,0.169 1.798,1.636 0.409,0.74 0.003,0.282 -0.124,0.414 1.059,1.463 1.28,1.969 1.917,2.935 0.153,-0.407 1.216,1.649 0.773,0.391 -0.265,-0.174 -0.741,-0.816 -1.225,-1.46 -0.481,-0.646 -0.911,-1.341 -0.975,-1.702 0.369,0.126 0.137,-0.145 -0.175,-0.52 -0.329,-0.362 -0.746,-0.819 -0.71,-1.109 0.969,1.094 1.24,0.782 1.599,0.795 0.268,0.311 0.423,0.696 0.54,0.914 -0.097,0.296 -0.423,-0.125 -0.65,0.017 1.088,1.223 1.879,2.6 2.184,3.474 0.42,0.369 0.536,0.085 0.18,-0.457 1.061,1.63 2.196,3.367 3.166,4.939 -0.957,-0.824 0.934,1.833 0.221,1.298 -0.565,-0.814 -1.252,-1.387 -1.146,-0.828 0.328,0.514 0.151,-0.108 0.358,0.068 0.192,0.78 0.922,0.878 0.944,1.733 -0.68,-1.628 0.297,-0.548 0.443,-0.991 0.42,1.23 0.183,-0.159 0.764,0.973 0.45,1.214 0.935,2.718 1.459,4.036 0.479,0.763 0.891,1.82 1.26,2.861 0.318,1.062 0.588,2.11 0.837,2.865 0.389,0.751 0.591,0.099 0.904,0.958 0.283,1.029 -0.606,-0.65 -0.009,0.822 l 0.03,-0.166 c 0.08,0.469 0.971,2.75 0.54,3.325 L -2.1,-18.69 c 0.102,0.279 0.073,0.567 0.085,0.814 0.132,-0.017 0.327,0.295 0.303,-0.194 0.521,0.894 0.341,2.036 0.532,3.078 l -0.357,-0.632 c 0.162,1.813 0.493,2.993 0.629,4.746 l 0.229,-0.075 -0.061,1.057 c 0.208,-0.275 0.429,0.676 0.28,1.242 0,0 0.092,-0.692 0.184,-1.384 0.093,-0.695 0.169,-1.396 0.169,-1.396 -0.225,-0.743 -0.189,0.857 -0.473,0.405 -0.239,-0.382 -0.391,-2.003 -0.198,-2.298 0.105,0.618 0.058,0.657 0.034,1.147 0.352,0.167 0.219,-0.776 0.375,-1.276 0.029,0.329 0.187,0.784 0.093,0.866 0.063,-0.66 0.048,-1.324 -0.142,-2.391 0.004,0.742 -0.269,-0.36 -0.312,-0.071 0.268,-0.13 0.176,-1.169 -0.144,-2.471 -0.56,-0.855 -0.309,-2.511 -0.846,-3.986 -0.096,0.681 -0.127,1.515 -0.041,2.457 -0.369,-0.904 -0.211,-1.056 -0.627,-1.948 0.082,-0.505 0.311,-0.917 0.09,-2.179 l -0.224,-0.003 c -0.238,-1.129 0.045,-1.225 -0.477,-2.601 -0.445,-1.18 -0.985,-2.34 -1.427,-3.457 -0.509,-1.089 -0.986,-2.11 -1.392,-2.979 l -0.225,0.029 c -0.037,-0.574 -0.405,-1.387 -0.824,-2.226 -0.417,-0.839 -0.954,-1.665 -1.217,-2.345 -0.678,-1.023 -1.403,-2.136 -2,-3.158 -0.645,-0.99 -1.246,-1.833 -1.756,-2.237 -2.44,-3.557 -4.875,-6.514 -8.245,-9.483 l 0.338,0.746 c -0.424,-0.722 -0.494,-0.231 -1.054,-0.777 0.848,0.404 -0.606,-0.955 -0.907,-1.467 -1.672,-1.114 -3.557,-2.852 -4.903,-4.044 l -0.178,0.137 c -1.26,-1.345 -3.281,-2.194 -5.259,-3.218 -0.262,-0.058 -0.719,-0.059 -1.296,-0.382 -0.921,-0.854 -1.48,-1.155 -3.023,-2.068 -1.173,-0.571 -3.186,-1.244 -4.461,-1.595 -4.454,-2.123 -9.452,-2.994 -14.479,-3.861 l -0.393,0.204 c -4.888,-1.113 -11.033,-0.436 -15.237,-0.118 l 0.46,0.377 c -1.293,0.27 -2.993,0.327 -2.714,-0.026 -0.644,0.183 -1.471,0.273 -2.233,0.392 -0.756,0.148 -1.449,0.311 -1.819,0.579 -1.308,0.37 -1.663,0.207 -2.772,0.458 -1.297,0.433 -2.171,0.767 -3.036,1.066 -0.871,0.284 -1.724,0.555 -2.93,1.004 l 0.584,-0.259 c 0.296,-0.015 0.384,0.149 -0.2,0.407 -0.463,0.124 -1.277,0.461 -1.873,0.696 -0.591,0.244 -0.988,0.347 -0.656,-0.085 -2.409,1.322 -5.885,2.613 -7.963,4.359 0.117,-0.242 -0.466,0.1 -0.756,0.173 -0.51,0.326 -1.018,0.668 -1.515,1.019 -0.482,0.371 -0.961,0.741 -1.427,1.1 -0.95,0.698 -1.804,1.413 -2.638,1.914 -0.259,0.292 0.628,-0.191 -0.133,0.427 -0.489,0.318 -0.127,-0.136 -0.737,0.248 -3.206,2.3 -5.675,5.546 -7.996,8.208 -2.126,2.332 -4.091,4.916 -5.764,7.643 -1.665,2.732 -3.119,5.551 -4.335,8.33 l 0.124,-0.023 c -0.59,0.85 -0.91,2.012 -1.262,3.093 -0.313,1.099 -0.597,2.144 -1.145,2.821 -0.065,0.482 -0.466,1.776 -0.182,1.486 -0.348,0.739 -0.627,1.839 -0.822,3.046 -0.111,0.601 -0.227,1.221 -0.37,1.83 -0.127,0.612 -0.258,1.215 -0.451,1.774 0.028,-0.212 0.07,-0.33 0.158,-0.566 -0.098,1.18 -0.323,2.262 -0.466,3.378 -0.175,1.11 -0.339,2.242 -0.309,3.49 0.064,-0.248 0.131,-0.701 0.239,-0.765 0.133,0.963 -0.624,2.233 -0.13,2.785 -0.019,0.547 -0.261,0.381 -0.237,0.043 -0.011,5.419 0.056,11.253 1.233,16.824 1.23,3.883 0.809,0.057 1.293,3.227 0.164,0.225 -0.132,0.234 -0.02,0.248 0.193,1.235 1.061,1.68 1.097,2.563 -0.404,-0.238 0.02,0.593 -0.148,0.678 0.475,1.145 0.868,1.788 1.177,2.391 0.318,0.601 0.519,1.175 0.814,2.106 l 0.088,-0.197 c 0.497,2.274 1.88,4.548 2.396,6.476 6.16,11.08 15.17,20.077 26.212,25.877 10.952,5.556 23.276,8.22 35.703,6.765 2.86,-0.752 3.061,-0.734 6.241,-1.141 -0.14,-0.045 -0.34,-0.025 -0.142,-0.126 0.232,0.342 2.207,-0.435 2.579,-0.184 4.468,-1.127 8.532,-2.437 12.834,-4.453 -0.701,0.277 -1.159,0.173 -0.341,-0.173 0,0 0.235,-0.045 0.471,-0.091 0.236,-0.046 0.466,-0.108 0.466,-0.108 l 0.092,-0.155 c 0.563,-0.231 1.235,-0.382 0.724,0.005 5.42,-2.543 10.289,-6.084 14.555,-10.138 2.123,-2.044 4.09,-4.228 5.936,-6.496 1.798,-2.305 3.526,-4.657 5.065,-7.133 1.342,-2.42 3.32,-5.821 4.55,-8.577 1.548,-4.191 2.593,-8.301 3.335,-12.457 0.735,-4.16 1.17,-8.373 1.339,-12.865 0,0 -0.232,0.295 -0.502,1.042 C 0.522,-3.005 0.272,-1.808 0,0"
             style="fill:#163e3a;fill-opacity:1;fill-rule:nonzero;stroke:none"
             id="path388"
             inkscape:connector-curvature="0" />
        </g>
        <g
           id="g390"
           transform="translate(836.2703,594.2231)">
          <path
             d="M 0,0 C -0.168,-0.304 -0.337,-1.304 -0.514,-0.49 -0.349,-0.4 -0.153,0.113 0,0"
             style="fill:#231f20;fill-opacity:1;fill-rule:nonzero;stroke:none"
             id="path392"
             inkscape:connector-curvature="0" />
        </g>
        <g
           id="g394"
           transform="translate(827.8225,569.0486)">
          <path
             d="m 0,0 c 0.03,-0.053 -0.234,-0.301 -0.298,-0.362 0.138,0.295 0.145,0.631 0.343,0.82 C -0.092,0.16 0.003,0.167 0,0"
             style="fill:#231f20;fill-opacity:1;fill-rule:nonzero;stroke:none"
             id="path396"
             inkscape:connector-curvature="0" />
        </g>
        <g
           id="g398"
           transform="translate(824.3446,563.2979)">
          <path
             d="M 0,0 C -0.075,0.172 0.597,1.443 1.034,2.164 L 0,0 Z"
             style="fill:#231f20;fill-opacity:1;fill-rule:nonzero;stroke:none"
             id="path400"
             inkscape:connector-curvature="0" />
        </g>
        <g
           id="g402"
           transform="translate(820.141,558.6614)">
          <path
             d="M 0,0 C -0.442,-0.329 -0.393,-0.176 0.052,0.388 0.148,0.377 0.034,0.164 0,0"
             style="fill:#231f20;fill-opacity:1;fill-rule:nonzero;stroke:none"
             id="path404"
             inkscape:connector-curvature="0" />
        </g>
        <g
           id="g406"
           transform="translate(820.1306,558.0984)">
          <path
             d="M 0,0 C -0.337,-0.394 -0.575,-0.529 -0.807,-0.662 -0.693,-0.732 -0.087,0.296 0,0"
             style="fill:#231f20;fill-opacity:1;fill-rule:nonzero;stroke:none"
             id="path408"
             inkscape:connector-curvature="0" />
        </g>
        <g
           id="g410"
           transform="translate(810.1194,549.1016)">
          <path
             d="M 0,0 C -0.243,-0.213 -0.72,-0.745 -1.073,-0.772 -0.715,-0.688 0.056,0.335 0,0"
             style="fill:#231f20;fill-opacity:1;fill-rule:nonzero;stroke:none"
             id="path412"
             inkscape:connector-curvature="0" />
        </g>
        <g
           id="g414"
           transform="translate(805.1091,545.3569)">
          <path
             d="m 0,0 c -0.177,-0.099 -0.256,-0.127 -0.439,-0.278 -0.36,-0.121 -0.074,0.161 0.181,0.343 L 0,0 Z"
             style="fill:#231f20;fill-opacity:1;fill-rule:nonzero;stroke:none"
             id="path416"
             inkscape:connector-curvature="0" />
        </g>
      </g>
    </g>
  </g>
</svg>
