<?xml version="1.0" encoding="UTF-8" standalone="no"?>
<!-- Created with Inkscape (http://www.inkscape.org/) -->

<svg
   xmlns:dc="http://purl.org/dc/elements/1.1/"
   xmlns:cc="http://creativecommons.org/ns#"
   xmlns:rdf="http://www.w3.org/1999/02/22-rdf-syntax-ns#"
   xmlns:svg="http://www.w3.org/2000/svg"
   xmlns="http://www.w3.org/2000/svg"
   xmlns:sodipodi="http://sodipodi.sourceforge.net/DTD/sodipodi-0.dtd"
   xmlns:inkscape="http://www.inkscape.org/namespaces/inkscape"
   width="337.84985mm"
   height="2.1802373mm"
   viewBox="0 0 1197.1058 7.7252502"
   id="svg7156"
   version="1.1"
   inkscape:version="0.91 r13725"
   sodipodi:docname="border-1.svg">
  <defs
     id="defs7158">
    <clipPath
       clipPathUnits="userSpaceOnUse"
       id="clipPath602">
      <path
         d="m 0,0 595.276,0 0,841.89 L 0,841.89 0,0 Z"
         id="path604"
         inkscape:connector-curvature="0" />
    </clipPath>
    <clipPath
       clipPathUnits="userSpaceOnUse"
       id="clipPath582">
      <path
         d="m 0,0 595.276,0 0,841.89 L 0,841.89 0,0 Z"
         id="path584"
         inkscape:connector-curvature="0" />
    </clipPath>
    <clipPath
       clipPathUnits="userSpaceOnUse"
       id="clipPath558">
      <path
         d="m 0,0 595.276,0 0,841.89 L 0,841.89 0,0 Z"
         id="path560"
         inkscape:connector-curvature="0" />
    </clipPath>
    <clipPath
       clipPathUnits="userSpaceOnUse"
       id="clipPath538">
      <path
         d="m 0,0 595.276,0 0,841.89 L 0,841.89 0,0 Z"
         id="path540"
         inkscape:connector-curvature="0" />
    </clipPath>
    <clipPath
       clipPathUnits="userSpaceOnUse"
       id="clipPath410">
      <path
         d="m 0,0 595.276,0 0,841.89 L 0,841.89 0,0 Z"
         id="path412"
         inkscape:connector-curvature="0" />
    </clipPath>
    <clipPath
       clipPathUnits="userSpaceOnUse"
       id="clipPath342">
      <path
         d="m 0,0 595.276,0 0,841.89 L 0,841.89 0,0 Z"
         id="path344"
         inkscape:connector-curvature="0" />
    </clipPath>
    <clipPath
       clipPathUnits="userSpaceOnUse"
       id="clipPath302">
      <path
         d="m 0,0 595.276,0 0,841.89 L 0,841.89 0,0 Z"
         id="path304"
         inkscape:connector-curvature="0" />
    </clipPath>
    <clipPath
       clipPathUnits="userSpaceOnUse"
       id="clipPath246">
      <path
         d="m 0,0 595.276,0 0,841.89 L 0,841.89 0,0 Z"
         id="path248"
         inkscape:connector-curvature="0" />
    </clipPath>
    <clipPath
       clipPathUnits="userSpaceOnUse"
       id="clipPath230">
      <path
         d="m 0,0 595.276,0 0,841.89 L 0,841.89 0,0 Z"
         id="path232"
         inkscape:connector-curvature="0" />
    </clipPath>
    <clipPath
       clipPathUnits="userSpaceOnUse"
       id="clipPath230-8">
      <path
         d="m 0,0 595.276,0 0,841.89 L 0,841.89 0,0 Z"
         id="path232-0"
         inkscape:connector-curvature="0" />
    </clipPath>
    <clipPath
       clipPathUnits="userSpaceOnUse"
       id="clipPath246-9">
      <path
         d="m 0,0 595.276,0 0,841.89 L 0,841.89 0,0 Z"
         id="path248-6"
         inkscape:connector-curvature="0" />
    </clipPath>
    <clipPath
       clipPathUnits="userSpaceOnUse"
       id="clipPath302-2">
      <path
         d="m 0,0 595.276,0 0,841.89 L 0,841.89 0,0 Z"
         id="path304-4"
         inkscape:connector-curvature="0" />
    </clipPath>
    <clipPath
       clipPathUnits="userSpaceOnUse"
       id="clipPath342-5">
      <path
         d="m 0,0 595.276,0 0,841.89 L 0,841.89 0,0 Z"
         id="path344-2"
         inkscape:connector-curvature="0" />
    </clipPath>
    <clipPath
       clipPathUnits="userSpaceOnUse"
       id="clipPath410-3">
      <path
         d="m 0,0 595.276,0 0,841.89 L 0,841.89 0,0 Z"
         id="path412-8"
         inkscape:connector-curvature="0" />
    </clipPath>
    <clipPath
       clipPathUnits="userSpaceOnUse"
       id="clipPath538-4">
      <path
         d="m 0,0 595.276,0 0,841.89 L 0,841.89 0,0 Z"
         id="path540-7"
         inkscape:connector-curvature="0" />
    </clipPath>
    <clipPath
       clipPathUnits="userSpaceOnUse"
       id="clipPath558-4">
      <path
         d="m 0,0 595.276,0 0,841.89 L 0,841.89 0,0 Z"
         id="path560-1"
         inkscape:connector-curvature="0" />
    </clipPath>
    <clipPath
       clipPathUnits="userSpaceOnUse"
       id="clipPath582-9">
      <path
         d="m 0,0 595.276,0 0,841.89 L 0,841.89 0,0 Z"
         id="path584-8"
         inkscape:connector-curvature="0" />
    </clipPath>
    <clipPath
       clipPathUnits="userSpaceOnUse"
       id="clipPath602-3">
      <path
         d="m 0,0 595.276,0 0,841.89 L 0,841.89 0,0 Z"
         id="path604-6"
         inkscape:connector-curvature="0" />
    </clipPath>
    <clipPath
       clipPathUnits="userSpaceOnUse"
       id="clipPath230-8-8">
      <path
         d="m 0,0 595.276,0 0,841.89 L 0,841.89 0,0 Z"
         id="path232-0-4"
         inkscape:connector-curvature="0" />
    </clipPath>
    <clipPath
       clipPathUnits="userSpaceOnUse"
       id="clipPath246-9-1">
      <path
         d="m 0,0 595.276,0 0,841.89 L 0,841.89 0,0 Z"
         id="path248-6-8"
         inkscape:connector-curvature="0" />
    </clipPath>
    <clipPath
       clipPathUnits="userSpaceOnUse"
       id="clipPath302-2-0">
      <path
         d="m 0,0 595.276,0 0,841.89 L 0,841.89 0,0 Z"
         id="path304-4-3"
         inkscape:connector-curvature="0" />
    </clipPath>
    <clipPath
       clipPathUnits="userSpaceOnUse"
       id="clipPath342-5-4">
      <path
         d="m 0,0 595.276,0 0,841.89 L 0,841.89 0,0 Z"
         id="path344-2-4"
         inkscape:connector-curvature="0" />
    </clipPath>
    <clipPath
       clipPathUnits="userSpaceOnUse"
       id="clipPath410-3-9">
      <path
         d="m 0,0 595.276,0 0,841.89 L 0,841.89 0,0 Z"
         id="path412-8-8"
         inkscape:connector-curvature="0" />
    </clipPath>
    <clipPath
       clipPathUnits="userSpaceOnUse"
       id="clipPath538-4-0">
      <path
         d="m 0,0 595.276,0 0,841.89 L 0,841.89 0,0 Z"
         id="path540-7-8"
         inkscape:connector-curvature="0" />
    </clipPath>
    <clipPath
       clipPathUnits="userSpaceOnUse"
       id="clipPath558-4-3">
      <path
         d="m 0,0 595.276,0 0,841.89 L 0,841.89 0,0 Z"
         id="path560-1-6"
         inkscape:connector-curvature="0" />
    </clipPath>
    <clipPath
       clipPathUnits="userSpaceOnUse"
       id="clipPath582-9-8">
      <path
         d="m 0,0 595.276,0 0,841.89 L 0,841.89 0,0 Z"
         id="path584-8-3"
         inkscape:connector-curvature="0" />
    </clipPath>
    <clipPath
       clipPathUnits="userSpaceOnUse"
       id="clipPath602-3-2">
      <path
         d="m 0,0 595.276,0 0,841.89 L 0,841.89 0,0 Z"
         id="path604-6-6"
         inkscape:connector-curvature="0" />
    </clipPath>
  </defs>
  <sodipodi:namedview
     id="base"
     pagecolor="#ffffff"
     bordercolor="#666666"
     borderopacity="1.0"
     inkscape:pageopacity="0.0"
     inkscape:pageshadow="2"
     inkscape:zoom="1.28"
     inkscape:cx="702.33135"
     inkscape:cy="-139.56249"
     inkscape:document-units="px"
     inkscape:current-layer="layer1"
     showgrid="false"
     inkscape:window-width="1920"
     inkscape:window-height="1017"
     inkscape:window-x="-4"
     inkscape:window-y="-4"
     inkscape:window-maximized="1"
     fit-margin-top="0"
     fit-margin-left="0"
     fit-margin-right="0"
     fit-margin-bottom="0" />
  <metadata
     id="metadata7161">
    <rdf:RDF>
      <cc:Work
         rdf:about="">
        <dc:format>image/svg+xml</dc:format>
        <dc:type
           rdf:resource="http://purl.org/dc/dcmitype/StillImage" />
        <dc:title></dc:title>
      </cc:Work>
    </rdf:RDF>
  </metadata>
  <g
     inkscape:label="Layer 1"
     inkscape:groupmode="layer"
     id="layer1"
     transform="translate(270.35849,-68.785765)">
    <g
       transform="matrix(1.25,0,0,-1.25,9.0023217,117.36239)"
       id="g226">
      <g
         id="g228"
         clip-path="url(#clipPath230-8-8)">
        <g
           id="g234"
           transform="translate(565.7656,38.0942)">
          <path
             d="M 0,0 C 0.817,-0.031 0.524,0.329 0.646,0.394 -0.72,0.314 0.035,-0.093 0,0"
             style="fill:#231f20;fill-opacity:1;fill-rule:nonzero;stroke:none"
             id="path236"
             inkscape:connector-curvature="0" />
        </g>
      </g>
    </g>
    <g
       id="g238"
       transform="matrix(1.25,0,0,-1.25,697.17944,71.03379)">
      <path
         d="M 0,0 1.749,0.213 1.986,0.36 0,0 Z"
         style="fill:#231f20;fill-opacity:1;fill-rule:nonzero;stroke:none"
         id="path240"
         inkscape:connector-curvature="0" />
    </g>
    <g
       transform="matrix(1.25,0,0,-1.25,9.0023217,117.36239)"
       id="g242">
      <g
         id="g244"
         clip-path="url(#clipPath246-9-1)">
        <g
           id="g250"
           transform="translate(539.6884,37.2827)">
          <path
             d="m 0,0 c 1.191,-0.614 4.566,0.099 6.811,-0.119 l 0.371,-0.14 1.012,0.494 C 5.465,0.157 1.921,-0.171 0,0"
             style="fill:#231f20;fill-opacity:1;fill-rule:nonzero;stroke:none"
             id="path252"
             inkscape:connector-curvature="0" />
        </g>
        <g
           id="g254"
           transform="translate(532.9692,38.6113)">
          <path
             d="M 0,0 C 0.414,-0.239 -1.454,-0.205 1.567,-0.075 1.415,-0.049 1.371,-0.034 1.283,-0.015 1.011,-0.018 0.637,-0.017 0,0"
             style="fill:#231f20;fill-opacity:1;fill-rule:nonzero;stroke:none"
             id="path256"
             inkscape:connector-curvature="0" />
        </g>
        <g
           id="g258"
           transform="translate(534.2519,38.5967)">
          <path
             d="M 0,0 C 1.327,0.017 -0.869,0.201 0,0"
             style="fill:#231f20;fill-opacity:1;fill-rule:nonzero;stroke:none"
             id="path260"
             inkscape:connector-curvature="0" />
        </g>
        <g
           id="g262"
           transform="translate(528.123,38.46)">
          <path
             d="M 0,0 1.748,0.213 C 1.383,0.355 -0.173,0.386 0.405,0.489 -1.388,0.372 -1.019,0.232 0,0"
             style="fill:#231f20;fill-opacity:1;fill-rule:nonzero;stroke:none"
             id="path264"
             inkscape:connector-curvature="0" />
        </g>
        <g
           id="g266"
           transform="translate(526.4658,38.0117)">
          <path
             d="M 0,0 0.906,0.09 C 0.747,0.149 0.508,0.17 0,0"
             style="fill:#231f20;fill-opacity:1;fill-rule:nonzero;stroke:none"
             id="path268"
             inkscape:connector-curvature="0" />
        </g>
        <g
           id="g270"
           transform="translate(529.2929,38.2925)">
          <path
             d="m 0,0 -1.921,-0.191 c 0.253,-0.099 0.279,-0.297 0.882,0.069 C -1.196,-0.303 -0.816,-0.128 0,0"
             style="fill:#231f20;fill-opacity:1;fill-rule:nonzero;stroke:none"
             id="path272"
             inkscape:connector-curvature="0" />
        </g>
        <g
           id="g274"
           transform="translate(530.3802,38.1992)">
          <path
             d="M 0,0 C 0.981,-0.134 2.248,-0.218 0.493,-0.43 3.837,-0.346 3.344,0.086 0,0"
             style="fill:#231f20;fill-opacity:1;fill-rule:nonzero;stroke:none"
             id="path276"
             inkscape:connector-curvature="0" />
        </g>
        <g
           id="g278"
           transform="translate(539.0449,36.6479)">
          <path
             d="M 0,0 1.311,-0.18 2.445,0.026 C 1.878,-0.076 -0.082,0.192 0,0"
             style="fill:#231f20;fill-opacity:1;fill-rule:nonzero;stroke:none"
             id="path280"
             inkscape:connector-curvature="0" />
        </g>
        <g
           id="g282"
           transform="translate(517.2334,38.7778)">
          <path
             d="m 0,0 c -0.109,-0.13 0.588,-0.348 0.718,-0.515 l 1.291,0.15 C 1.346,-0.276 0.088,-0.193 0,0"
             style="fill:#231f20;fill-opacity:1;fill-rule:nonzero;stroke:none"
             id="path284"
             inkscape:connector-curvature="0" />
        </g>
        <g
           id="g286"
           transform="translate(517.9516,38.2627)">
          <path
             d="M 0,0 -1.932,-0.224 C -0.207,-0.251 0.109,-0.144 0,0"
             style="fill:#231f20;fill-opacity:1;fill-rule:nonzero;stroke:none"
             id="path288"
             inkscape:connector-curvature="0" />
        </g>
      </g>
    </g>
    <g
       id="g290"
       transform="matrix(1.25,0,0,-1.25,665.93032,70.70859)">
      <path
         d="M 0,0 0.611,0.007 3.785,0.478 0,0 Z"
         style="fill:#231f20;fill-opacity:1;fill-rule:nonzero;stroke:none"
         id="path292"
         inkscape:connector-curvature="0" />
    </g>
    <g
       id="g294"
       transform="matrix(1.25,0,0,-1.25,645.25169,69.06279)">
      <path
         d="M 0,0 0.855,0.155 1.95,0.457 0,0 Z"
         style="fill:#231f20;fill-opacity:1;fill-rule:nonzero;stroke:none"
         id="path296"
         inkscape:connector-curvature="0" />
    </g>
    <g
       transform="matrix(1.25,0,0,-1.25,9.0023217,117.36239)"
       id="g298">
      <g
         id="g300"
         clip-path="url(#clipPath302-2-0)">
        <g
           id="g306"
           transform="translate(504.9609,38.7412)">
          <path
             d="M 0,0 C 0.81,0.251 -1.111,0.424 -0.254,0.578 -1.584,0.534 -2.719,0.318 -3.741,0.125 -2.655,0.233 -1.498,0.205 0,0"
             style="fill:#231f20;fill-opacity:1;fill-rule:nonzero;stroke:none"
             id="path308"
             inkscape:connector-curvature="0" />
        </g>
        <g
           id="g310"
           transform="translate(499.5034,38.5845)">
          <path
             d="M 0,0 C 0.543,0.06 1.104,0.167 1.716,0.282 1.139,0.224 0.572,0.141 0,0"
             style="fill:#231f20;fill-opacity:1;fill-rule:nonzero;stroke:none"
             id="path312"
             inkscape:connector-curvature="0" />
        </g>
        <g
           id="g314"
           transform="translate(512.7285,38.103)">
          <path
             d="M 0,0 C -0.149,0.079 -0.436,0.286 -1.52,0.373 L -0.761,0.005 C -0.529,0.004 -0.266,0.002 0,0"
             style="fill:#231f20;fill-opacity:1;fill-rule:nonzero;stroke:none"
             id="path316"
             inkscape:connector-curvature="0" />
        </g>
        <g
           id="g318"
           transform="translate(511.9946,38.0967)">
          <path
             d="M 0,0 -0.027,0.012 C -0.852,0.022 -1.423,0.029 -1.668,0.032 -1.458,0.028 -0.956,0.018 0,0"
             style="fill:#231f20;fill-opacity:1;fill-rule:nonzero;stroke:none"
             id="path320"
             inkscape:connector-curvature="0" />
        </g>
        <g
           id="g322"
           transform="translate(512.9209,38.1011)">
          <path
             d="M 0,0 C -0.071,0.001 -0.123,0.001 -0.192,0.002 -0.119,-0.034 -0.075,-0.046 0,0"
             style="fill:#231f20;fill-opacity:1;fill-rule:nonzero;stroke:none"
             id="path324"
             inkscape:connector-curvature="0" />
        </g>
        <g
           id="g326"
           transform="translate(521.0893,37.6626)">
          <path
             d="M 0,0 C -1.135,-0.206 -3.501,-0.426 -1.211,-0.739 -0.397,-0.488 -1.708,-0.309 0,0"
             style="fill:#231f20;fill-opacity:1;fill-rule:nonzero;stroke:none"
             id="path328"
             inkscape:connector-curvature="0" />
        </g>
        <g
           id="g330"
           transform="translate(513.8637,37.6416)">
          <path
             d="M 0,0 2.052,-0.084 C 2.012,0.013 1.642,0.155 2.204,0.257 L 0,0 Z"
             style="fill:#231f20;fill-opacity:1;fill-rule:nonzero;stroke:none"
             id="path332"
             inkscape:connector-curvature="0" />
        </g>
      </g>
    </g>
    <g
       id="g334"
       transform="matrix(1.25,0,0,-1.25,650.07682,70.45659)">
      <path
         d="M 0,0 1.004,0.117 0.243,0.148 0,0 Z"
         style="fill:#231f20;fill-opacity:1;fill-rule:nonzero;stroke:none"
         id="path336"
         inkscape:connector-curvature="0" />
    </g>
    <g
       transform="matrix(1.25,0,0,-1.25,9.0023217,117.36239)"
       id="g338">
      <g
         id="g340"
         clip-path="url(#clipPath342-5-4)">
        <g
           id="g346"
           transform="translate(503.0185,38.2402)">
          <path
             d="M 0,0 C -0.886,-0.16 -1.856,-0.173 -2.952,-0.199 -1.778,-0.272 -0.564,-0.31 0.589,-0.309 0.751,-0.194 1.258,0.013 0,0"
             style="fill:#231f20;fill-opacity:1;fill-rule:nonzero;stroke:none"
             id="path348"
             inkscape:connector-curvature="0" />
        </g>
        <g
           id="g350"
           transform="translate(507.3803,38.1382)">
          <path
             d="M 0,0 C -0.061,-0.006 -0.139,-0.015 -0.197,-0.021 -0.076,-0.052 0.022,-0.062 0,0"
             style="fill:#231f20;fill-opacity:1;fill-rule:nonzero;stroke:none"
             id="path352"
             inkscape:connector-curvature="0" />
        </g>
        <g
           id="g354"
           transform="translate(489.2841,38.0439)">
          <path
             d="m 0,0 c 0.059,-0.023 0.113,-0.044 0.173,-0.067 0.014,0.022 0.023,0.042 0.04,0.064 L 0,0 Z"
             style="fill:#231f20;fill-opacity:1;fill-rule:nonzero;stroke:none"
             id="path356"
             inkscape:connector-curvature="0" />
        </g>
        <g
           id="g358"
           transform="translate(503.8046,37.8623)">
          <path
             d="M 0,0 C 0.882,-0.071 1.409,0.019 1.912,0.132 1.252,0.095 0.553,0.071 -0.197,0.068 -0.271,0.016 -0.284,-0.019 0,0"
             style="fill:#231f20;fill-opacity:1;fill-rule:nonzero;stroke:none"
             id="path360"
             inkscape:connector-curvature="0" />
        </g>
        <g
           id="g362"
           transform="translate(496.4951,38.4126)">
          <path
             d="M 0,0 C 0.46,-0.077 0.98,-0.142 1.528,-0.202 1.079,-0.086 0.162,0.096 0,0"
             style="fill:#231f20;fill-opacity:1;fill-rule:nonzero;stroke:none"
             id="path364"
             inkscape:connector-curvature="0" />
        </g>
        <g
           id="g366"
           transform="translate(506.8862,38.2192)">
          <path
             d="M 0,0 C 0.044,0.005 0.085,0.01 0.132,0.016 -0.157,0.095 -0.121,0.056 0,0"
             style="fill:#231f20;fill-opacity:1;fill-rule:nonzero;stroke:none"
             id="path368"
             inkscape:connector-curvature="0" />
        </g>
        <g
           id="g370"
           transform="translate(506.8862,38.2192)">
          <path
             d="m 0,0 c -0.455,-0.054 -0.811,-0.144 -1.17,-0.225 0.537,0.029 1.035,0.069 1.467,0.123 C 0.188,-0.076 0.079,-0.036 0,0"
             style="fill:#231f20;fill-opacity:1;fill-rule:nonzero;stroke:none"
             id="path372"
             inkscape:connector-curvature="0" />
        </g>
        <g
           id="g374"
           transform="translate(486.0171,35.6841)">
          <path
             d="M 0,0 C 0.156,0.34 2.475,0.655 4.478,0.29 6.449,0.545 5.16,1.666 3.44,2.293 3.379,2.144 3.379,2.007 1.351,1.805 2.061,1.62 5.85,1.37 4.14,1.062 1.454,0.887 1.938,1.183 0.633,1.363 1.743,0.939 -2.785,0.745 -2.2,0.121 L 0.156,0.34 C 0.2,0.244 -0.654,0.088 0,0"
             style="fill:#231f20;fill-opacity:1;fill-rule:nonzero;stroke:none"
             id="path376"
             inkscape:connector-curvature="0" />
        </g>
        <g
           id="g378"
           transform="translate(493.3213,37.9419)">
          <path
             d="M 0,0 0.834,0.043 C -0.117,0.102 -0.798,0.238 -2.052,0.505 -3.44,0.338 -3.728,0.212 -3.824,0.099 L 0.285,0.051 0,0 Z"
             style="fill:#231f20;fill-opacity:1;fill-rule:nonzero;stroke:none"
             id="path380"
             inkscape:connector-curvature="0" />
        </g>
        <g
           id="g382"
           transform="translate(497.9018,37.9858)">
          <path
             d="m 0,0 c -0.651,-0.371 -2.655,-0.529 -1.428,-0.93 2.449,0.026 1.716,0.31 3.179,0.471 -3.952,-0.092 1.135,0.206 -1.72,0.417 C 0.808,0.021 1.506,0.04 2.165,0.055 1.454,0.1 0.768,0.156 0.122,0.225 0.157,0.215 0.182,0.209 0.212,0.202 L 0.23,0.203 0.227,0.197 C 0.397,0.151 0.453,0.123 0.261,0.149 0.248,0.145 0.2,0.143 0.179,0.142 0.152,0.09 0.079,0.045 0,0.002 -1.145,0.079 -0.18,0.098 0.179,0.142 0.192,0.16 0.223,0.177 0.227,0.197 L 0.212,0.202 -3.747,-0.001 C -2.909,-0.053 -1.86,-0.042 0,0"
             style="fill:#231f20;fill-opacity:1;fill-rule:nonzero;stroke:none"
             id="path384"
             inkscape:connector-curvature="0" />
        </g>
        <g
           id="g386"
           transform="translate(517.7666,36.126)">
          <path
             d="M 0,0 C -0.123,0.033 -0.117,0.059 -0.127,0.086 -0.382,0.04 -0.48,0.01 0,0"
             style="fill:#231f20;fill-opacity:1;fill-rule:nonzero;stroke:none"
             id="path388"
             inkscape:connector-curvature="0" />
        </g>
        <g
           id="g390"
           transform="translate(516.1381,36.3501)">
          <path
             d="M 0,0 C 0.288,0.051 0.528,0.2 1.463,0.162 2.275,0.05 1.459,-0.016 1.502,-0.138 2.065,-0.04 3.475,0.128 1.707,0.309 L 1.427,0.258 C -0.167,0.385 -2.214,0.848 -1.936,0.898 -1.471,0.565 -1.06,0.327 0,0"
             style="fill:#231f20;fill-opacity:1;fill-rule:nonzero;stroke:none"
             id="path392"
             inkscape:connector-curvature="0" />
        </g>
        <g
           id="g394"
           transform="translate(506.9062,37.0732)">
          <path
             d="m 0,0 -3.296,-0.182 1.678,-0.32 -0.085,0.192 C 0.172,-0.386 -0.233,-0.148 0,0"
             style="fill:#231f20;fill-opacity:1;fill-rule:nonzero;stroke:none"
             id="path396"
             inkscape:connector-curvature="0" />
        </g>
      </g>
    </g>
    <g
       id="g398"
       transform="matrix(1.25,0,0,-1.25,618.30232,69.77829)">
      <path
         d="M 0,0 1.467,0.161 1.904,0.553 0,0 Z"
         style="fill:#231f20;fill-opacity:1;fill-rule:nonzero;stroke:none"
         id="path400"
         inkscape:connector-curvature="0" />
    </g>
    <g
       id="g402"
       transform="matrix(1.25,0,0,-1.25,613.56607,69.46659)">
      <path
         d="M 0,0 0.973,-0.136 1.13,0.205 0,0 Z"
         style="fill:#231f20;fill-opacity:1;fill-rule:nonzero;stroke:none"
         id="path404"
         inkscape:connector-curvature="0" />
    </g>
    <g
       transform="matrix(2.5,0,0,-1.25,-310.18974,117.36239)"
       id="g406">
      <g
         id="g408"
         clip-path="url(#clipPath410-3-9)">
        <g
           id="g414"
           transform="translate(242.893,33.9565)">
          <path
             d="M 0,0 -0.969,-0.096 C -0.51,-0.066 -0.216,-0.034 0,0"
             style="fill:#231f20;fill-opacity:1;fill-rule:nonzero;stroke:none"
             id="path416"
             inkscape:connector-curvature="0" />
        </g>
        <g
           id="g418"
           transform="translate(249.9052,33.9336)">
          <path
             d="M 0,0 0.172,0.168 C -0.153,0.075 -0.286,0.007 0,0"
             style="fill:#231f20;fill-opacity:1;fill-rule:nonzero;stroke:none"
             id="path420"
             inkscape:connector-curvature="0" />
        </g>
        <g
           id="g422"
           transform="translate(379.4179,38.1431)">
          <path
             d="M 0,0 C -1.411,0.318 -2.987,0.811 -2.817,0.428 L -2.384,0.055 C -1.398,0.121 -0.642,0.08 0,0"
             style="fill:#231f20;fill-opacity:1;fill-rule:nonzero;stroke:none"
             id="path424"
             inkscape:connector-curvature="0" />
        </g>
        <g
           id="g426"
           transform="translate(307.3662,35.9141)">
          <path
             d="M 0,0 C 0.134,-0.037 0.274,-0.075 0.413,-0.113 0.755,0.015 1.077,0.135 1.366,0.244 0.955,0.17 0.489,0.087 0,0"
             style="fill:#231f20;fill-opacity:1;fill-rule:nonzero;stroke:none"
             id="path428"
             inkscape:connector-curvature="0" />
        </g>
        <g
           id="g430"
           transform="translate(306.3711,34.3696)">
          <path
             d="M 0,0 -1.86,0.241 C -1.442,0.157 -0.844,0.076 0,0"
             style="fill:#231f20;fill-opacity:1;fill-rule:nonzero;stroke:none"
             id="path432"
             inkscape:connector-curvature="0" />
        </g>
        <g
           id="g434"
           transform="translate(204.5947,33.561)">
          <path
             d="M 0,0 -1.13,-0.38 C 0.638,-0.378 -0.14,-0.186 0,0"
             style="fill:#231f20;fill-opacity:1;fill-rule:nonzero;stroke:none"
             id="path436"
             inkscape:connector-curvature="0" />
        </g>
        <g
           id="g438"
           transform="translate(440.7504,38.0439)">
          <path
             d="M 0,0 C -1.218,0.145 -2.186,0.207 -3.038,0.225 -1.571,0.011 -0.388,-0.311 0,0"
             style="fill:#231f20;fill-opacity:1;fill-rule:nonzero;stroke:none"
             id="path440"
             inkscape:connector-curvature="0" />
        </g>
        <g
           id="g442"
           transform="translate(245.6523,37.9175)">
          <path
             d="M 0,0 C -0.593,-0.067 -0.846,-0.144 -0.829,-0.227 -0.218,-0.163 0.127,-0.092 0,0"
             style="fill:#231f20;fill-opacity:1;fill-rule:nonzero;stroke:none"
             id="path444"
             inkscape:connector-curvature="0" />
        </g>
        <g
           id="g446"
           transform="translate(434.1963,38.2676)">
          <path
             d="M 0,0 C 0.216,-0.029 0.425,-0.058 0.643,-0.088 1.534,-0.025 2.429,0.025 3.516,0.001 2.433,0.161 1.192,0.259 0,0"
             style="fill:#231f20;fill-opacity:1;fill-rule:nonzero;stroke:none"
             id="path448"
             inkscape:connector-curvature="0" />
        </g>
        <g
           id="g450"
           transform="translate(65.6997,33.8701)">
          <path
             d="M 0,0 C -0.101,0.017 -0.222,0.025 -0.314,0.044 -0.345,-0.006 -0.205,-0.008 0,0"
             style="fill:#231f20;fill-opacity:1;fill-rule:nonzero;stroke:none"
             id="path452"
             inkscape:connector-curvature="0" />
        </g>
        <g
           id="g454"
           transform="translate(25.2353,37.6367)">
          <path
             d="M 0,0 C 0.399,0.023 1.048,0.023 1.661,0.029 1.363,0.054 0.862,0.052 0,0"
             style="fill:#231f20;fill-opacity:1;fill-rule:nonzero;stroke:none"
             id="path456"
             inkscape:connector-curvature="0" />
        </g>
        <g
           id="g458"
           transform="translate(467.3877,38.3437)">
          <path
             d="M 0,0 C 0.909,0.025 0.143,0.042 0,0"
             style="fill:#231f20;fill-opacity:1;fill-rule:nonzero;stroke:none"
             id="path460"
             inkscape:connector-curvature="0" />
        </g>
        <g
           id="g462"
           transform="translate(471.8056,36.8677)">
          <path
             d="M 0,0 C -0.193,-0.042 -0.34,-0.095 -0.362,-0.182 -0.288,-0.091 -0.161,-0.034 0,0"
             style="fill:#231f20;fill-opacity:1;fill-rule:nonzero;stroke:none"
             id="path464"
             inkscape:connector-curvature="0" />
        </g>
        <g
           id="g466"
           transform="translate(425.1469,35.9448)">
          <path
             d="M 0,0 C -0.027,0 -0.048,0 -0.079,0.001 0.192,-0.072 0.145,-0.058 0,0"
             style="fill:#231f20;fill-opacity:1;fill-rule:nonzero;stroke:none"
             id="path468"
             inkscape:connector-curvature="0" />
        </g>
        <g
           id="g470"
           transform="translate(468.7544,38.1743)">
          <path
             d="M 0,0 C -0.341,0.045 -0.734,0.084 -1.162,0.111 -0.974,0.082 -0.621,0.045 0,0"
             style="fill:#231f20;fill-opacity:1;fill-rule:nonzero;stroke:none"
             id="path472"
             inkscape:connector-curvature="0" />
        </g>
        <g
           id="g474"
           transform="translate(468.5708,38.3506)">
          <path
             d="M 0,0 C 0.313,-0.014 0.559,-0.025 0.794,-0.036 0.909,0.026 0.807,0.065 0,0"
             style="fill:#231f20;fill-opacity:1;fill-rule:nonzero;stroke:none"
             id="path476"
             inkscape:connector-curvature="0" />
        </g>
        <g
           id="g478"
           transform="translate(466.1215,38.3242)">
          <path
             d="M 0,0 C 0.52,0.005 1.005,-0.012 1.471,-0.039 1.293,-0.014 1.218,0.007 1.266,0.019 1,0.016 0.624,0.01 0,0"
             style="fill:#231f20;fill-opacity:1;fill-rule:nonzero;stroke:none"
             id="path480"
             inkscape:connector-curvature="0" />
        </g>
        <g
           id="g482"
           transform="translate(140.1206,34.8691)">
          <path
             d="M 0,0 C -0.06,0.011 -0.128,0.023 -0.195,0.035 -1.111,-0.12 -0.709,-0.095 0,0"
             style="fill:#231f20;fill-opacity:1;fill-rule:nonzero;stroke:none"
             id="path484"
             inkscape:connector-curvature="0" />
        </g>
        <g
           id="g486"
           transform="translate(355.7719,34.2666)">
          <path
             d="M 0,0 C 0.042,0.007 0.065,0.012 0.104,0.018 0.061,0.023 0.008,0.028 -0.031,0.031 L 0,0 Z"
             style="fill:#231f20;fill-opacity:1;fill-rule:nonzero;stroke:none"
             id="path488"
             inkscape:connector-curvature="0" />
        </g>
        <g
           id="g490"
           transform="translate(352.5088,33.9888)">
          <path
             d="M 0,0 C 1.39,0.464 2.18,0.407 3.232,0.309 L 2.153,1.385 0,0 Z"
             style="fill:#231f20;fill-opacity:1;fill-rule:nonzero;stroke:none"
             id="path492"
             inkscape:connector-curvature="0" />
        </g>
        <g
           id="g494"
           transform="translate(226.1025,33.8491)">
          <path
             d="M 0,0 2.292,-0.335 C -0.475,-0.887 -2.476,-0.697 -0.324,-1.168 0,0 8.583,-1.049 8.901,0.119 l 1.512,-0.246 C 9.979,-0.116 9.91,-0.185 9.482,-0.173 12.42,-0.732 11.665,0.672 15.45,0.505 16.77,0.416 17.69,0.246 16.79,0.107 l 2.94,0.289 C 20.585,0.373 20.376,0.171 19.524,0.193 l 4.484,0.094 -0.033,-0.035 c 0.639,0.184 2.089,0.467 2.797,0.587 C 27.911,0.672 26.2,0.716 26.492,0.57 l 2.482,0.283 C 29.985,0.55 27.928,0.256 26.213,0.3 c 2.319,-1.167 2.06,0.294 7.063,-0.387 l -2.343,-0.149 c 1.51,-0.663 3.34,-0.422 5.99,-0.836 -0.629,0.216 -5.306,1.042 -2.612,1.333 0.76,-0.089 1.761,-0.131 3.214,0.105 0.014,-0.416 1.432,-0.314 3.208,-0.29 l -0.121,-0.551 c 1.92,0.159 1.768,0.439 2.898,0.687 2.14,-0.054 2.584,-0.481 3.088,-0.839 3.426,-0.088 -2.367,0.683 1.689,0.787 2.85,-0.211 4.851,0.014 8.261,0.343 1.995,-0.189 -0.349,-0.336 0.366,-0.494 l 1.768,0.439 c 0.433,-0.01 0.294,-0.145 0.223,-0.213 1.49,0.17 0.122,0.55 2.465,0.7 0.631,0.605 4.808,-0.887 7.708,-0.198 0.714,-0.156 -0.346,-0.337 -0.127,-0.551 3.977,0.452 3.409,0.329 6.675,0.937 l 2.782,-0.362 c -2.044,0.414 0.568,0.903 2.856,1.304 -0.725,0.2 -1.345,0.374 -1.761,0.457 l 3.651,0.296 c 0.441,-0.09 0.074,-0.279 -0.525,-0.509 0.248,0.049 0.484,0.095 0.669,0.132 C 84.604,2.237 83.927,1.919 82.992,1.612 82.549,1.727 82.107,1.84 81.677,1.952 80.774,1.618 79.931,1.247 80.119,0.925 80.356,0.988 80.814,1.043 81.315,1.074 81.08,0.983 80.929,0.902 81.039,0.847 81.162,0.789 81.543,0.911 82.14,1.051 l 0.83,-0.613 0.201,0.244 4.777,-0.385 c 3.418,0.618 6.39,1.527 11.815,1.78 C 98.417,1.628 99.474,1.343 99.4,0.81 97.92,1.374 95.199,0.57 92.388,0.685 93.854,0.625 93.532,0.371 93.159,0.282 l 5.014,0.514 c -0.113,-0.436 1.064,-0.327 2.374,-0.507 -0.99,0.861 3.738,0.573 5.778,0.837 0.126,-0.289 -0.363,-0.584 -2.852,-0.514 2.746,-0.649 3.549,1.011 6.244,0.46 -0.608,-0.007 -0.936,0.038 -1.175,-0.109 1.418,0.257 4.89,0.054 4.073,-0.199 l -0.607,-0.006 c 4.035,-0.102 12.282,-0.006 12.885,0.725 0.04,-0.093 -0.529,-0.881 -0.773,-1.029 l 7.199,2.462 c -0.634,-0.628 1.8,-2.126 -1.546,-2.48 0.961,-0.09 2.149,-0.194 4.175,0.027 -0.656,0.09 -1.634,0.909 -0.738,0.967 2.458,-0.7 1.707,-0.375 4.736,-0.971 -0.982,0.135 0.11,1.12 1.661,1.089 -0.242,-0.148 0.13,-0.973 -0.438,-1.076 l 3.864,0.967 c -0.965,-0.173 -0.17,-0.819 0.695,-1.093 -0.402,0.19 3.34,-0.018 4.37,0.078 l -1.638,0.225 c 4.362,-0.146 4.309,1.36 8.637,1.309 -0.524,-0.199 -1.294,-1.23 0.907,-1.351 1.009,0.496 4.466,2.383 8.295,2.765 l 0.735,-0.284 2.938,0.323 c -1.83,-0.746 -6.964,-2.314 -9.767,-2.925 1.632,-0.224 0.455,-0.334 2.899,-0.308 0.864,-0.265 -1.332,-0.403 -2.051,-0.419 l 5.692,-0.171 c -0.254,0.579 4.353,0.58 4.135,1.062 l -6.182,-0.6 c -0.251,0.578 3.575,1.642 7.608,1.54 1.026,-0.23 -0.767,-1.029 -0.683,-1.222 0.523,0.199 3.827,0.38 4.198,0.239 l -1.711,-0.31 c 2.245,-0.217 3.664,0.767 6.362,0.215 0.931,-0.037 2.781,-0.744 2.942,-0.403 -1.519,0.66 -1.816,2.702 -0.803,3.198 0.326,-0.045 4.889,-0.631 5.953,-0.957 1.533,-0.518 -2.303,-1.234 -0.997,-1.678 0.056,0.158 0.904,0.353 1.257,0.416 0.978,-0.135 -0.406,-0.49 1.719,-0.418 0.355,0.586 4.323,-0.05 1.005,0.495 2.079,0.168 2.209,-0.12 4.65,-0.095 -0.777,0.379 2.192,1.29 4.275,1.457 -0.123,-0.149 0.345,-0.343 0.571,-0.431 4.261,-0.054 6.549,-0.32 10.522,-0.325 0.367,-0.142 2.284,-0.314 1.467,-0.566 0.571,0.104 1.097,0.302 2.322,0.316 2.372,-0.506 -2.732,-0.078 -0.924,-0.688 0.154,0.341 3.17,0.471 4.915,0.684 -0.537,0.526 -4.033,0.101 -5.781,-0.112 -0.008,0.725 3.035,1.486 7.188,1.822 3.3,0.18 1.431,-0.469 2.004,-0.366 6.2,-0.127 5.282,1.267 10.43,0.744 2.042,-0.462 0.092,-0.92 0.545,-1.254 -2.689,-0.175 -4.128,0.293 -5.951,0.275 l 2.244,-0.219 c -0.855,-0.154 -2.65,-0.27 -3.628,-0.136 1.712,-0.416 10.474,-0.08 15.257,-0.464 0.85,0.155 2.317,0.316 1.623,0.502 l -1.513,-0.065 c -1.391,0.373 2.848,0.516 0.932,0.69 2.031,0.262 4.306,0.675 7.164,0.463 l 0.538,-0.527 c -0.062,0.154 -1.869,0.315 -2.672,0.153 1.191,0.234 4.382,-0.713 5.688,-0.023 l -2.004,0.366 c 2.038,0.265 4.558,0.825 7.091,0.658 -1.152,0.521 -0.584,-0.059 -2.384,0.55 1.561,-0.758 -6.479,0.032 -3.973,-0.764 -1.847,0.707 -3.196,0.299 -5.611,0.903 0.075,-0.174 0.856,-0.333 -1.271,-0.248 -0.095,-0.05 -0.322,-0.115 -0.466,-0.153 -0.065,0.006 -0.088,0.008 -0.144,0.013 0.042,-0.007 0.075,-0.013 0.117,-0.02 -0.092,-0.026 -0.1,-0.032 0.044,-0.007 0.506,-0.076 0.917,-0.168 1.083,-0.265 -1.055,-0.399 -4.437,-0.387 -5.58,-0.594 -1.261,0.083 0.528,0.2 -0.161,0.386 l -1.708,-0.309 c -0.169,0.386 -3.352,0.641 -0.38,0.868 l -2.675,0.017 c -1.575,0.217 -3.742,0.303 -5.078,0.141 -1.262,0.083 -3.187,-0.429 -2.087,-0.126 l -4.196,-0.24 -0.039,0.097 c -4.14,0.049 -8.522,-0.639 -13.255,0.058 -1.393,-0.098 -2.834,-0.217 -5.165,-0.107 l -0.455,0.334 c -1.789,-0.117 -5.373,0.334 -6.142,-0.014 -1.931,0.9 -8.685,0.196 -11.831,0.356 l -0.119,-0.437 c -2.167,0.025 -4.244,-0.099 -6.933,-0.274 l 0.166,-0.385 c -2.318,-0.317 -5.96,0.274 -9.627,0.234 0.249,0.148 1.179,0.109 1.837,0.02 -4.381,0.872 -9.242,-0.634 -13.216,0.001 -0.989,-0.14 -1.706,-0.092 -2.4,0.004 0.091,0.001 0.174,0.008 0.245,0.02 -0.102,10e-4 -0.252,0.003 -0.407,0.005 -0.437,0.066 -0.889,0.133 -1.375,0.206 0.414,-0.094 0.812,-0.171 1.157,-0.207 -0.764,-0.008 -1.922,-0.056 -3.057,-0.152 l -0.483,0.414 c -0.092,-0.004 -0.167,-0.008 -0.263,-0.012 -1.114,0.153 -0.895,-0.196 -0.301,-0.508 -0.572,-0.068 -1.095,-0.15 -1.502,-0.25 -0.904,0.669 -2.977,-0.225 -4.213,0.488 -0.764,-0.348 -5.706,-0.261 -6.311,-0.993 -0.039,0.095 -0.373,0.141 0.24,0.147 -1.266,0.083 -2.53,0.166 -3.665,-0.04 l -0.538,0.526 -2.763,-0.708 c -1.679,0.321 -2.374,0.508 -0.707,0.913 -4.026,-0.623 -3.266,-0.235 -6.689,-0.852 l 0.166,0.34 C 123.163,3.387 121.207,2.931 120.469,3.212 117.732,3.86 106.927,3.302 99.901,3.904 101.264,2.901 96.635,4.353 96.357,3.576 95.948,3.813 94.969,3.947 96.106,4.153 92.521,3.92 90.72,4.529 88.244,3.873 87.833,4.112 89.012,4.222 88.647,4.362 88.358,4.311 87.507,4.156 87.134,4.298 86.769,4.438 87.659,4.497 88.227,4.6 84.564,4.56 84.193,3.829 83.927,3.143 82.071,3.468 81.145,3.422 79.805,2.972 c -0.647,0.224 -1.724,0.46 0.551,0.54 -1.28,0.033 -7.821,0.329 -7.951,-0.221 -0.402,0.14 -1.79,0.041 -2.127,-0.023 -2.873,0.033 -3.126,0.083 -5.946,0.03 L 65.114,3.209 C 64,2.545 62.769,3.061 60.494,2.981 L 60.56,3.049 C 55.345,3.527 58.308,2.82 53.164,3.366 L 53.443,2.953 C 52.964,2.065 48.885,3.477 45.899,3.137 L 46.977,2.901 C 45.346,2.598 42.419,4.108 40.782,4.22 40.424,4.297 41.345,4.343 41.844,4.4 37.556,4.924 41.288,3.86 38.093,3.734 37.504,4.026 38.853,4.476 36.702,4.53 35.63,4.766 30.465,3.583 27.531,4.143 28.177,3.918 28.819,3.693 27.335,3.525 25.06,3.444 21.186,4.374 19.132,3.666 18.842,3.727 18.733,3.786 18.721,3.842 16.982,3.659 13.07,3.538 12.023,3.154 10.417,4.58 1.214,2.461 1.252,3.775 l -5.348,-0.07 0.14,0.134 c -3.419,0.087 -4.627,-0.228 -5.829,-0.544 -0.79,0.09 -0.214,0.213 -0.148,0.282 -4.995,0.265 -5.492,0.209 -9.68,-0.446 l -0.436,0.427 c -1.135,-0.248 -7.221,0.668 -12.12,0.17 0.047,0.049 0.149,0.132 0.538,0.192 -5.512,-0.501 -13.196,1.183 -15.216,-0.37 l -3.637,-0.383 c 4.706,-0.121 -0.701,-0.673 1.235,-0.932 -1.851,-0.091 -4.785,0.469 -2.511,0.549 l 0.356,-0.078 c 0.836,0.81 -5.847,0.287 -5.721,0.838 -9.26,-0.04 -18.286,0.408 -26.96,0.443 l 1,-0.63 -3.026,0.037 c -0.794,0.146 -1.066,0.492 1.092,0.466 -1.135,0.356 -3.62,-0.299 -3.681,-0.436 -4.226,0.255 1.651,0.734 0.354,0.749 l -1.76,-0.047 0.398,-0.073 c -1.428,-0.258 -1.554,-0.53 -4.148,-0.499 -1.642,0.126 -0.842,0.388 -1.489,0.413 0.004,0.044 -0.214,0.065 -0.991,0.017 l -3.812,0.054 1.524,-0.496 c -1.689,-0.245 -3.584,0.025 -1.825,-0.538 -2.582,0.869 -14.22,0.312 -15.805,0.581 -2.366,-0.362 -4.702,-0.355 -7.596,-0.312 0.72,-0.103 1.15,-0.662 -1.345,-0.593 0.912,1.152 -4.571,0.5 -6.588,1.329 1.803,-0.55 -7.095,-0.136 -4.266,-0.916 -2.083,0.093 -0.127,0.431 -1.707,0.702 -4.956,-0.446 -10.923,0.29 -17.049,0.14 -0.096,-0.151 0.929,-0.383 -0.384,-0.608 l -3.235,0.756 c -1.21,-0.074 -1.114,-0.873 -3.325,-0.348 0.313,-0.127 0.779,-0.318 -0.033,-0.367 -12.002,0.737 -24.525,-0.604 -36.714,0.781 1.651,-0.293 0.551,-0.322 -0.71,-0.333 0.82,-0.07 -0.019,-0.374 0.142,-0.579 l -5.103,0.57 c -0.929,-0.569 -5.47,-0.038 -6.003,-0.583 l 1.616,0.098 c -2.149,-0.642 3.007,-1.428 2.693,-2.252 2.406,0.731 6.345,-1.081 10.293,-0.036 0.871,-0.168 -0.744,-0.265 -0.278,-0.456 1.001,0.353 2.21,0.427 4.45,0.268 l -0.254,-0.088 c 6.292,0.087 8.99,-0.261 16.058,-0.493 l -0.524,0.407 c 1.519,-0.054 1.839,-0.182 2.551,-0.284 1.742,0.618 -4.266,0.035 -2.679,0.716 2.015,-0.829 10.712,-0.013 12.074,-0.955 2.337,-0.005 -0.685,0.472 1.65,0.467 l 0.62,-0.256 0.59,0.329 c 1.532,-0.054 2.305,-0.373 2.362,-0.589 -0.371,0.025 -1.056,-0.06 -1.455,-0.079 1.987,-0.3 5.602,0.102 6.284,0.005 l -2.245,0.157 c 6.377,0.238 14.163,-0.097 20.324,0.422 l -0.467,0.192 c 4.704,0.356 3.767,-0.211 8.933,-0.047 l -0.188,-0.045 c 1.034,0.191 2.414,0.288 3.828,0.266 -1.304,-0.225 2.454,-0.437 0.744,-0.687 5.102,0.383 2.523,0.3 5.893,1.015 l 0.777,-0.319 c 1.148,0.289 1.244,0.441 3.824,0.523 -2.116,-0.274 1.646,-0.486 -0.724,-0.848 5.414,-0.697 8.039,0.705 10.522,-0.316 2.486,0.884 -4.685,0.491 -3.292,0.68 -1.166,0.289 2.051,0.66 3.751,0.571 1.729,-0.02 2.94,-1.13 7.29,-1.112 -0.433,0.003 -0.462,-0.063 -0.894,-0.06 1.628,-0.225 3.19,0.306 5.187,-0.06 1.119,0.534 2.593,-0.031 2.916,0.65 l -3.991,-0.157 c 2.262,0.177 4.384,0.974 8.11,0.588 -0.29,-0.137 -1.399,-0.318 -2.161,-0.419 1.09,-0.201 2.099,0.133 3.229,-0.073 -0.323,-0.682 -4.851,-0.149 -7.274,-0.668 1.17,-0.288 4.585,0.494 3.367,-0.244 1.751,0.938 4.286,-0.118 7.232,0.598 l -0.195,-0.408 c 0.467,0.064 1.433,0.256 2.291,0.246 l -1.554,-0.529 c 2.385,0.451 4.598,-0.395 6.886,-0.15 -4.79,-0.012 -1.075,0.492 -3.101,0.79 5.909,0.547 3.398,-1.067 10.012,-0.872 -0.895,-0.057 -3.361,0.246 -1.961,0.435 1.259,-0.084 2.922,-0.241 3.695,-0.455 4.382,0.084 -0.673,0.419 1.192,0.67 1.493,-0.497 2.152,0.203 4.073,0.362 l 0.014,-0.415 c 4.993,-0.266 1.324,0.865 5.82,0.544 l -1.901,-0.576 2.344,0.148 -0.483,-0.472 c 2.55,0.35 3.344,0.26 5.842,0.128 -0.581,0.292 0.327,0.753 2.539,0.766 1.507,-0.247 -0.846,-0.395 2.289,-0.335 -0.707,-0.26 -1.482,-0.586 -2.847,-0.203 -0.14,-0.136 -0.698,-0.261 -0.842,-0.394 1.625,-0.284 4.083,-0.065 5.218,-0.061 -0.437,0.015 -0.96,0.037 -1.227,0.097 l 4.545,0.574 c 0.715,-0.155 0.147,-0.28 -0.415,-0.403 0.921,0.045 1.558,0.235 2.911,0.271 -0.35,-0.337 -0.266,-0.685 -2.182,-0.844 l 4.33,0.374 c 0.289,-0.147 2.223,-0.402 1.66,-0.527 2.401,-0.198 5.89,0.654 9.073,0.393 0.165,0.065 0.497,0.128 1.173,0.176 2.992,-0.076 5.642,-0.49 9.187,-0.027 l 2.012,-0.605 c 2.777,0.137 -2.723,0.761 1.9,0.989 3.274,0.194 1.222,-0.515 2.371,-0.683 1.628,0.304 4.458,0.924 7.465,0.432 C 1.71,-0.044 0.93,0.045 0,0 M 34.246,0.268 C 33.582,0.181 32.26,-0.087 31.774,0.157 c 0.756,0.476 1.341,0.248 2.472,0.111 m 52.059,1 C 85.813,1.13 85.049,1.198 84.188,1.355 84.813,1.39 85.521,1.374 86.305,1.268 m 145.022,2.889 c -0.028,-0.008 -0.047,-0.013 -0.071,-0.02 -1.48,0.161 -0.955,0.098 0.071,0.02 m 3.073,-0.18 c 0.31,0.058 0.289,0.115 0.158,0.173 -0.215,-0.105 -0.905,-0.112 -1.691,-0.082 0.218,-0.109 0.615,-0.184 1.533,-0.091 M -95.686,3.813 -95.087,3.705 c -1.352,-0.12 -0.973,-0.012 -0.599,0.108"
             style="fill:#231f20;fill-opacity:1;fill-rule:nonzero;stroke:none"
             id="path496"
             inkscape:connector-curvature="0" />
        </g>
        <g
           id="g498"
           transform="translate(306.5053,34.5488)">
          <path
             d="M 0,0 C -0.188,0.07 -0.24,0.147 -0.284,0.226 -0.545,0.156 -0.55,0.075 0,0"
             style="fill:#231f20;fill-opacity:1;fill-rule:nonzero;stroke:none"
             id="path500"
             inkscape:connector-curvature="0" />
        </g>
        <g
           id="g502"
           transform="translate(204.8042,33.6309)">
          <path
             d="M 0,0 -0.104,0.005 C -0.161,-0.02 -0.192,-0.046 -0.21,-0.07 L 0,0 Z"
             style="fill:#231f20;fill-opacity:1;fill-rule:nonzero;stroke:none"
             id="path504"
             inkscape:connector-curvature="0" />
        </g>
        <g
           id="g506"
           transform="translate(412.8901,34.3066)">
          <path
             d="M 0,0 C -0.633,0.06 -0.986,0.136 -1.221,0.215 -1.255,0.113 -0.967,0.027 0,0"
             style="fill:#231f20;fill-opacity:1;fill-rule:nonzero;stroke:none"
             id="path508"
             inkscape:connector-curvature="0" />
        </g>
        <g
           id="g510"
           transform="translate(476.7915,38.5312)">
          <path
             d="m 0,0 -1.969,-0.108 c 0.952,0.021 1.292,-0.07 1.773,-0.136 C -0.24,-0.146 -0.616,-0.007 0,0"
             style="fill:#231f20;fill-opacity:1;fill-rule:nonzero;stroke:none"
             id="path512"
             inkscape:connector-curvature="0" />
        </g>
        <g
           id="g514"
           transform="translate(493.8808,35.9629)">
          <path
             d="M 0,0 C 0.288,0.051 0.61,0.005 0.894,0.057 L 0.815,0.25 C -0.411,0.237 -1.267,0.082 0,0"
             style="fill:#231f20;fill-opacity:1;fill-rule:nonzero;stroke:none"
             id="path516"
             inkscape:connector-curvature="0" />
        </g>
        <g
           id="g518"
           transform="translate(478.6142,37.1523)">
          <path
             d="m 0,0 c 0.156,-0.349 1.391,-0.23 2.77,-0.166 l -0.244,0 C 2.933,0.323 1.463,0.161 0,0"
             style="fill:#231f20;fill-opacity:1;fill-rule:nonzero;stroke:none"
             id="path520"
             inkscape:connector-curvature="0" />
        </g>
        <g
           id="g522"
           transform="translate(481.7041,36.998)">
          <path
             d="M 0,0 C 0.425,0.017 0.859,0.026 1.275,0.009 1.436,0.205 0.758,0.05 0,0"
             style="fill:#231f20;fill-opacity:1;fill-rule:nonzero;stroke:none"
             id="path524"
             inkscape:connector-curvature="0" />
        </g>
        <g
           id="g526"
           transform="translate(464.4018,38.0576)">
          <path
             d="M 0,0 C 0.654,-0.09 0.41,0.446 0.781,0.304 1.511,0.748 -3.581,-0.233 0,0"
             style="fill:#231f20;fill-opacity:1;fill-rule:nonzero;stroke:none"
             id="path528"
             inkscape:connector-curvature="0" />
        </g>
      </g>
    </g>
    <g
       id="g530"
       transform="matrix(1.25,0,0,-1.25,607.08157,72.25549)">
      <path
         d="M 0,0 1.267,-0.084 0.773,0.347 0,0 Z"
         style="fill:#231f20;fill-opacity:1;fill-rule:nonzero;stroke:none"
         id="path532"
         inkscape:connector-curvature="0" />
    </g>
    <g
       transform="matrix(1.25,0,0,-1.25,9.0023217,117.36239)"
       id="g534">
      <g
         id="g536"
         clip-path="url(#clipPath538-4-0)">
        <g
           id="g542"
           transform="translate(468.8413,36.3184)">
          <path
             d="M 0,0 2.204,-0.12 C 2.17,-0.047 2.45,-0.004 2.794,0.028 1.436,0.042 -0.052,0.127 0,0"
             style="fill:#231f20;fill-opacity:1;fill-rule:nonzero;stroke:none"
             id="path544"
             inkscape:connector-curvature="0" />
        </g>
        <g
           id="g546"
           transform="translate(471.6352,36.3462)">
          <path
             d="M 0,0 C 0.707,-0.009 1.38,0.001 1.773,0.071 1.391,0.067 0.567,0.052 0,0"
             style="fill:#231f20;fill-opacity:1;fill-rule:nonzero;stroke:none"
             id="path548"
             inkscape:connector-curvature="0" />
        </g>
      </g>
    </g>
    <g
       id="g550"
       transform="matrix(1.25,0,0,-1.25,604.90019,72.52209)">
      <path
         d="M 0,0 -0.652,0.09 -2.208,0.121 0,0 Z"
         style="fill:#231f20;fill-opacity:1;fill-rule:nonzero;stroke:none"
         id="path552"
         inkscape:connector-curvature="0" />
    </g>
    <g
       transform="matrix(1.25,0,0,-1.25,9.0023217,117.36239)"
       id="g554">
      <g
         id="g556"
         clip-path="url(#clipPath558-4-3)">
        <g
           id="g562"
           transform="translate(445.1513,36.4014)">
          <path
             d="M 0,0 -2.405,-0.123 C -2.65,-0.271 -1.995,-0.361 -1.099,-0.302 -0.524,-0.2 0.369,-0.143 0,0"
             style="fill:#231f20;fill-opacity:1;fill-rule:nonzero;stroke:none"
             id="path564"
             inkscape:connector-curvature="0" />
        </g>
        <g
           id="g566"
           transform="translate(452.4248,35.2212)">
          <path
             d="M 0,0 C -0.65,0.09 -0.694,0.186 -1.061,0.328 L -1.134,-0.207 0,0 Z"
             style="fill:#231f20;fill-opacity:1;fill-rule:nonzero;stroke:none"
             id="path568"
             inkscape:connector-curvature="0" />
        </g>
        <g
           id="g570"
           transform="translate(445.4111,35.0962)">
          <path
             d="M 0,0 C -0.24,-0.148 -3.491,-0.425 -0.442,-0.392 -0.199,-0.245 2.21,-0.122 0,0"
             style="fill:#231f20;fill-opacity:1;fill-rule:nonzero;stroke:none"
             id="path572"
             inkscape:connector-curvature="0" />
        </g>
      </g>
    </g>
    <g
       id="g574"
       transform="matrix(1.25,0,0,-1.25,520.4667,72.64699)">
      <path
         d="M 0,0 0.612,0.007 0.523,0.883 0,0 Z"
         style="fill:#231f20;fill-opacity:1;fill-rule:nonzero;stroke:none"
         id="path576"
         inkscape:connector-curvature="0" />
    </g>
    <g
       transform="matrix(1.25,0,0,-1.25,9.0023217,117.36239)"
       id="g578">
      <g
         id="g580"
         clip-path="url(#clipPath582-9-8)">
        <g
           id="g586"
           transform="translate(377.2299,33.6763)">
          <path
             d="M 0,0 C 2.85,-0.21 0.677,0.54 3.253,0.278 3.921,0.485 1.147,0.492 1.833,0.671 0.113,0.453 -0.79,0.576 0,0"
             style="fill:#231f20;fill-opacity:1;fill-rule:nonzero;stroke:none"
             id="path588"
             inkscape:connector-curvature="0" />
        </g>
        <g
           id="g590"
           transform="translate(379.0634,34.3476)">
          <path
             d="M 0,0 C 0.276,0.034 0.567,0.076 0.878,0.133 0.38,0.078 0.145,0.036 0,0"
             style="fill:#231f20;fill-opacity:1;fill-rule:nonzero;stroke:none"
             id="path592"
             inkscape:connector-curvature="0" />
        </g>
      </g>
    </g>
    <g
       id="g594"
       transform="matrix(1.25,0,0,-1.25,31.341442,69.86829)">
      <path
         d="M 0,0 0.65,0.112 -1.184,0.294 0,0 Z"
         style="fill:#231f20;fill-opacity:1;fill-rule:nonzero;stroke:none"
         id="path596"
         inkscape:connector-curvature="0" />
    </g>
    <g
       transform="matrix(1.25,0,0,-1.25,9.0023217,117.36239)"
       id="g598">
      <g
         id="g600"
         clip-path="url(#clipPath602-3-2)">
        <g
           id="g606"
           transform="translate(15.0024,37.457)">
          <path
             d="m 0,0 -0.432,0.559 -1.1,-0.506 C -1.118,0.078 -0.314,0.126 0,0"
             style="fill:#231f20;fill-opacity:1;fill-rule:nonzero;stroke:none"
             id="path608"
             inkscape:connector-curvature="0" />
        </g>
        <g
           id="g610"
           transform="translate(265.4399,32.9922)">
          <path
             d="M 0,0 0.14,0.134 C -0.144,0.28 -0.573,0.291 -1.433,0.314 L 0,0 Z"
             style="fill:#231f20;fill-opacity:1;fill-rule:nonzero;stroke:none"
             id="path612"
             inkscape:connector-curvature="0" />
        </g>
      </g>
    </g>
    <g
       id="g614"
       transform="matrix(1.25,0,0,-1.25,309.7317,75.60009)">
      <path
         d="M 0,0 0.428,-0.012 -0.371,0.494 0,0 Z"
         style="fill:#231f20;fill-opacity:1;fill-rule:nonzero;stroke:none"
         id="path616"
         inkscape:connector-curvature="0" />
    </g>
  </g>
</svg>
