<?xml version="1.0" encoding="UTF-8" standalone="no"?>
<!-- Created with Inkscape (http://www.inkscape.org/) -->

<svg
   xmlns:dc="http://purl.org/dc/elements/1.1/"
   xmlns:cc="http://creativecommons.org/ns#"
   xmlns:rdf="http://www.w3.org/1999/02/22-rdf-syntax-ns#"
   xmlns:svg="http://www.w3.org/2000/svg"
   xmlns="http://www.w3.org/2000/svg"
   xmlns:sodipodi="http://sodipodi.sourceforge.net/DTD/sodipodi-0.dtd"
   xmlns:inkscape="http://www.inkscape.org/namespaces/inkscape"
   width="206.94096mm"
   height="4.4137888mm"
   viewBox="0 0 733.25538 15.639409"
   id="svg8802"
   version="1.1"
   inkscape:version="0.91 r13725"
   sodipodi:docname="border-2.svg">
  <defs
     id="defs8804">
    <clipPath
       clipPathUnits="userSpaceOnUse"
       id="clipPath622">
      <path
         d="m 0,0 595.276,0 0,841.89 L 0,841.89 0,0 Z"
         id="path624"
         inkscape:connector-curvature="0" />
    </clipPath>
  </defs>
  <sodipodi:namedview
     id="base"
     pagecolor="#ffffff"
     bordercolor="#666666"
     borderopacity="1.0"
     inkscape:pageopacity="0.0"
     inkscape:pageshadow="2"
     inkscape:zoom="0.35"
     inkscape:cx="518.77055"
     inkscape:cy="-180.75172"
     inkscape:document-units="px"
     inkscape:current-layer="layer1"
     showgrid="false"
     fit-margin-top="0"
     fit-margin-left="0"
     fit-margin-right="0"
     fit-margin-bottom="0"
     inkscape:window-width="1920"
     inkscape:window-height="1017"
     inkscape:window-x="-4"
     inkscape:window-y="-4"
     inkscape:window-maximized="1" />
  <metadata
     id="metadata8807">
    <rdf:RDF>
      <cc:Work
         rdf:about="">
        <dc:format>image/svg+xml</dc:format>
        <dc:type
           rdf:resource="http://purl.org/dc/dcmitype/StillImage" />
        <dc:title></dc:title>
      </cc:Work>
    </rdf:RDF>
  </metadata>
  <g
     inkscape:label="Layer 1"
     inkscape:groupmode="layer"
     id="layer1"
     transform="translate(143.77055,-335.97108)">
    <g
       transform="matrix(1.25,0,0,-1.25,-154.61017,377.27611)"
       id="g618">
      <g
         id="g620"
         clip-path="url(#clipPath622)">
        <g
           id="g626"
           transform="translate(219.7226,32.7661)">
          <path
             d="M 0,0 C 0.852,-0.021 1.852,0.092 2.708,0.07 0.852,-0.021 -0.23,0.63 0,0"
             style="fill:#231f20;fill-opacity:1;fill-rule:nonzero;stroke:none"
             id="path628"
             inkscape:connector-curvature="0" />
        </g>
        <g
           id="g630"
           transform="translate(395.9531,21.5838)">
          <path
             d="M 0,0 -1.653,-0.08 C -0.871,-0.055 -0.368,-0.028 0,0"
             style="fill:#231f20;fill-opacity:1;fill-rule:nonzero;stroke:none"
             id="path632"
             inkscape:connector-curvature="0" />
        </g>
        <g
           id="g634"
           transform="translate(407.9189,21.5648)">
          <path
             d="M 0,0 0.293,0.138 C -0.261,0.062 -0.489,0.006 0,0"
             style="fill:#231f20;fill-opacity:1;fill-rule:nonzero;stroke:none"
             id="path636"
             inkscape:connector-curvature="0" />
        </g>
        <g
           id="g638"
           transform="translate(505.9687,23.1962)">
          <path
             d="M 0,0 C 0.229,-0.03 0.468,-0.062 0.705,-0.093 1.289,0.012 1.839,0.112 2.331,0.201 1.63,0.141 0.834,0.072 0,0"
             style="fill:#231f20;fill-opacity:1;fill-rule:nonzero;stroke:none"
             id="path640"
             inkscape:connector-curvature="0" />
        </g>
        <g
           id="g642"
           transform="translate(504.2705,21.9241)">
          <path
             d="M 0,0 -3.174,0.198 C -2.46,0.129 -1.44,0.062 0,0"
             style="fill:#231f20;fill-opacity:1;fill-rule:nonzero;stroke:none"
             id="path644"
             inkscape:connector-curvature="0" />
        </g>
        <g
           id="g646"
           transform="translate(330.602,21.2576)">
          <path
             d="M 0,0 -1.928,-0.312 C 1.089,-0.311 -0.239,-0.153 0,0"
             style="fill:#231f20;fill-opacity:1;fill-rule:nonzero;stroke:none"
             id="path648"
             inkscape:connector-curvature="0" />
        </g>
        <g
           id="g650"
           transform="translate(400.6616,24.8465)">
          <path
             d="M 0,0 C -1.012,-0.056 -1.443,-0.118 -1.414,-0.187 -0.373,-0.134 0.216,-0.076 0,0"
             style="fill:#231f20;fill-opacity:1;fill-rule:nonzero;stroke:none"
             id="path652"
             inkscape:connector-curvature="0" />
        </g>
        <g
           id="g654"
           transform="translate(93.5937,21.5126)">
          <path
             d="M 0,0 C -0.173,0.012 -0.378,0.026 -0.536,0.037 -0.588,-0.005 -0.35,-0.007 0,0"
             style="fill:#231f20;fill-opacity:1;fill-rule:nonzero;stroke:none"
             id="path656"
             inkscape:connector-curvature="0" />
        </g>
        <g
           id="g658"
           transform="translate(24.5459,24.6151)">
          <path
             d="M 0,0 C 0.68,0.006 1.789,0.015 2.835,0.023 2.326,0.044 1.471,0.042 0,0"
             style="fill:#231f20;fill-opacity:1;fill-rule:nonzero;stroke:none"
             id="path660"
             inkscape:connector-curvature="0" />
        </g>
        <g
           id="g662"
           transform="translate(220.5839,22.3358)">
          <path
             d="M 0,0 C -0.103,0.009 -0.22,0.019 -0.332,0.028 -1.896,-0.099 -1.209,-0.079 0,0"
             style="fill:#231f20;fill-opacity:1;fill-rule:nonzero;stroke:none"
             id="path664"
             inkscape:connector-curvature="0" />
        </g>
        <g
           id="g666"
           transform="translate(588.5673,21.8392)">
          <path
             d="M 0,0 C 0.072,0.006 0.111,0.009 0.178,0.015 0.104,0.018 0.014,0.023 -0.053,0.026 L 0,0 Z"
             style="fill:#231f20;fill-opacity:1;fill-rule:nonzero;stroke:none"
             id="path668"
             inkscape:connector-curvature="0" />
        </g>
        <g
           id="g670"
           transform="translate(582.999,21.6102)">
          <path
             d="M 0,0 C 2.372,0.383 3.72,0.335 5.516,0.255 L 3.675,1.141 0,0 Z"
             style="fill:#231f20;fill-opacity:1;fill-rule:nonzero;stroke:none"
             id="path672"
             inkscape:connector-curvature="0" />
        </g>
        <g
           id="g674"
           transform="translate(367.3017,21.4955)">
          <path
             d="M 0,0 3.911,-0.276 C -0.81,-0.731 -4.224,-0.574 -0.553,-0.963 0,0 14.647,-0.864 15.19,0.097 l 2.578,-0.202 c -0.739,0.009 -0.857,-0.047 -1.587,-0.038 5.013,-0.461 3.724,0.696 10.183,0.559 2.251,-0.074 3.822,-0.213 2.287,-0.328 l 5.016,0.239 c 1.46,-0.019 1.103,-0.186 -0.35,-0.168 l 7.65,0.077 -0.056,-0.028 c 1.091,0.151 3.565,0.384 4.772,0.483 1.944,-0.138 -0.975,-0.102 -0.478,-0.222 l 4.236,0.233 C 51.167,0.453 47.656,0.211 44.73,0.247 c 3.956,-0.961 3.515,0.242 12.052,-0.319 l -3.999,-0.123 c 2.578,-0.546 5.7,-0.347 10.222,-0.688 -1.073,0.177 -9.053,0.858 -4.456,1.097 1.296,-0.072 3.003,-0.107 5.484,0.087 0.023,-0.342 2.444,-0.258 5.474,-0.239 l -0.206,-0.453 c 3.276,0.131 3.016,0.361 4.945,0.565 3.651,-0.044 4.408,-0.395 5.267,-0.691 5.848,-0.072 -4.037,0.563 2.884,0.648 4.862,-0.173 8.277,0.012 14.095,0.284 3.404,-0.157 -0.595,-0.278 0.626,-0.407 l 3.017,0.361 c 0.739,-0.009 0.5,-0.12 0.379,-0.176 2.542,0.14 0.21,0.453 4.207,0.577 1.077,0.499 8.205,-0.73 13.152,-0.163 1.219,-0.129 -0.589,-0.278 -0.216,-0.454 6.786,0.372 5.818,0.271 11.391,0.772 l 4.747,-0.298 c -3.488,0.34 0.968,0.743 4.872,1.074 -1.237,0.164 -2.294,0.308 -3.003,0.377 l 6.229,0.243 c 0.753,-0.074 0.125,-0.23 -0.895,-0.42 0.424,0.041 0.826,0.079 1.141,0.109 2.228,-0.167 1.073,-0.429 -0.523,-0.682 -0.758,0.094 -1.511,0.188 -2.244,0.279 -1.54,-0.275 -2.978,-0.58 -2.658,-0.845 0.405,0.052 1.185,0.097 2.042,0.122 -0.403,-0.074 -0.66,-0.141 -0.473,-0.186 0.211,-0.048 0.862,0.052 1.88,0.168 l 1.417,-0.506 0.343,0.201 8.151,-0.316 c 5.831,0.508 10.904,1.257 20.159,1.466 -2.296,-0.371 -0.493,-0.605 -0.618,-1.045 -2.526,0.465 -7.169,-0.197 -11.966,-0.103 2.503,-0.048 1.953,-0.257 1.316,-0.331 l 8.556,0.423 c -0.193,-0.359 1.816,-0.269 4.051,-0.418 -1.689,0.71 6.377,0.473 9.859,0.691 0.216,-0.239 -0.618,-0.482 -4.866,-0.425 4.686,-0.534 6.054,0.834 10.654,0.38 -1.036,-0.006 -1.596,0.031 -2.005,-0.09 2.421,0.212 8.344,0.044 6.95,-0.164 L 191.13,0.624 c 6.884,-0.083 20.957,-0.005 21.985,0.598 0.069,-0.077 -0.903,-0.727 -1.319,-0.848 l 12.284,2.028 c -1.082,-0.518 3.072,-1.751 -2.637,-2.043 1.639,-0.074 3.667,-0.16 7.123,0.022 -1.119,0.074 -2.788,0.749 -1.259,0.796 4.194,-0.576 2.912,-0.308 8.082,-0.8 -1.675,0.112 0.186,0.923 2.836,0.897 -0.414,-0.121 0.219,-0.801 -0.748,-0.885 l 6.592,0.797 c -1.645,-0.144 -0.291,-0.676 1.185,-0.901 -0.685,0.156 5.7,-0.015 7.457,0.065 l -2.794,0.184 c 7.444,-0.12 7.353,1.121 14.737,1.079 -0.893,-0.165 -2.207,-1.013 1.549,-1.114 1.721,0.409 7.621,1.964 14.154,2.278 l 1.253,-0.234 5.014,0.267 C 283.502,2.195 274.742,0.903 269.959,0.4 c 2.785,-0.185 0.775,-0.275 4.947,-0.254 1.473,-0.218 -2.273,-0.332 -3.502,-0.344 l 9.713,-0.142 c -0.431,0.477 7.428,0.478 7.058,0.875 l -10.55,-0.494 c -0.428,0.476 6.1,1.353 12.982,1.269 1.75,-0.19 -1.309,-0.849 -1.167,-1.007 0.894,0.164 6.533,0.313 7.165,0.196 l -2.919,-0.254 c 3.831,-0.179 6.252,0.631 10.856,0.176 1.589,-0.03 4.745,-0.613 5.019,-0.331 -2.591,0.544 -3.098,2.225 -1.37,2.634 0.557,-0.037 8.344,-0.52 10.159,-0.788 2.616,-0.427 -3.929,-1.017 -1.701,-1.383 0.095,0.131 1.541,0.291 2.144,0.342 1.668,-0.11 -0.691,-0.402 2.935,-0.343 0.604,0.483 7.375,-0.041 1.714,0.407 3.546,0.139 3.77,-0.099 7.935,-0.078 -1.326,0.312 3.74,1.063 7.293,1.201 -0.209,-0.124 0.589,-0.283 0.976,-0.356 7.271,-0.044 11.174,-0.263 17.954,-0.268 0.626,-0.117 3.897,-0.258 2.503,-0.466 0.975,0.086 1.872,0.25 3.963,0.261 4.047,-0.418 -4.663,-0.065 -1.578,-0.566 0.264,0.28 5.409,0.387 8.387,0.562 -0.916,0.434 -6.882,0.083 -9.864,-0.092 -0.014,0.598 5.178,1.224 12.265,1.501 5.632,0.148 2.442,-0.387 3.419,-0.302 10.579,-0.104 9.013,1.044 17.798,0.613 3.485,-0.381 0.157,-0.758 0.93,-1.033 -4.588,-0.144 -7.043,0.242 -10.153,0.227 l 3.828,-0.181 c -1.459,-0.126 -4.522,-0.222 -6.191,-0.112 2.922,-0.342 17.872,-0.066 26.034,-0.382 1.452,0.128 3.955,0.261 2.77,0.413 l -2.583,-0.053 c -2.373,0.308 4.861,0.425 1.592,0.568 3.465,0.217 7.347,0.556 12.224,0.382 l 0.917,-0.434 c -0.105,0.127 -3.187,0.259 -4.558,0.126 2.032,0.193 7.477,-0.588 9.705,-0.019 l -3.419,0.301 c 3.478,0.219 7.777,0.68 12.1,0.543 -1.967,0.429 -0.996,-0.049 -4.068,0.453 2.662,-0.625 -11.057,0.026 -6.779,-0.63 -3.152,0.582 -5.455,0.247 -9.574,0.744 0.127,-0.144 1.46,-0.275 -2.169,-0.204 -0.164,-0.042 -0.55,-0.095 -0.796,-0.126 -0.112,0.005 -0.151,0.006 -0.245,0.011 0.072,-0.007 0.127,-0.011 0.2,-0.018 -0.157,-0.021 -0.171,-0.025 0.074,-0.005 0.864,-0.063 1.565,-0.138 1.849,-0.218 -1.801,-0.329 -7.572,-0.319 -9.522,-0.489 -2.153,0.068 0.901,0.164 -0.275,0.317 l -2.915,-0.255 c -0.288,0.319 -5.72,0.529 -0.648,0.716 l -4.565,0.014 c -2.688,0.178 -6.384,0.249 -8.664,0.116 -2.153,0.069 -5.439,-0.353 -3.564,-0.104 l -7.159,-0.197 -0.065,0.08 c -7.065,0.04 -14.542,-0.527 -22.618,0.047 -2.378,-0.08 -4.836,-0.178 -8.815,-0.088 l -0.775,0.275 C 343.543,3.658 337.427,4.03 336.115,3.743 332.82,4.484 321.296,3.904 315.926,4.036 l -0.202,-0.36 c -3.698,0.021 -7.242,-0.081 -11.83,-0.225 l 0.282,-0.318 c -3.956,-0.261 -10.17,0.226 -16.427,0.193 0.426,0.122 2.013,0.09 3.136,0.016 -7.476,0.718 -15.772,-0.522 -22.552,10e-4 -1.689,-0.115 -2.912,-0.076 -4.097,0.004 0.157,10e-4 0.298,0.007 0.418,0.016 -0.172,10e-4 -0.429,0.003 -0.693,0.005 -0.746,0.053 -1.516,0.109 -2.347,0.169 0.707,-0.078 1.385,-0.142 1.974,-0.171 C 262.285,3.36 260.31,3.32 258.373,3.241 l -0.826,0.341 c -0.156,-0.003 -0.283,-0.006 -0.447,-0.01 -1.902,0.126 -1.529,-0.161 -0.514,-0.418 -0.976,-0.056 -1.869,-0.124 -2.562,-0.206 -1.544,0.551 -5.083,-0.185 -7.19,0.402 -1.305,-0.287 -9.737,-0.216 -10.77,-0.818 -0.066,0.078 -0.636,0.116 0.41,0.121 -2.16,0.069 -4.318,0.137 -6.255,-0.033 l -0.916,0.434 -4.716,-0.583 c -2.864,0.264 -4.051,0.418 -1.207,0.751 -6.868,-0.513 -5.572,-0.193 -11.413,-0.702 l 0.284,0.281 c -2.087,-0.011 -5.425,-0.387 -6.685,-0.155 -4.669,0.533 -23.108,0.074 -35.096,0.569 2.326,-0.826 -5.573,0.37 -6.048,-0.27 -0.698,0.195 -2.369,0.306 -0.427,0.476 -6.119,-0.192 -9.192,0.309 -13.417,-0.231 -0.7,0.197 1.31,0.287 0.687,0.403 -0.491,-0.042 -1.944,-0.17 -2.58,-0.053 -0.624,0.116 0.895,0.164 1.864,0.249 -6.25,-0.033 -6.882,-0.635 -7.337,-1.2 -3.167,0.267 -4.747,0.23 -7.034,-0.141 -1.103,0.185 -2.943,0.378 0.941,0.445 -2.185,0.026 -13.346,0.271 -13.569,-0.183 -0.684,0.116 -3.053,0.034 -3.629,-0.018 -4.901,0.027 -5.333,0.068 -10.147,0.025 l 1.335,-0.074 c -1.9,-0.547 -4.002,-0.122 -7.882,-0.188 l 0.111,0.056 C 94.439,2.905 99.496,2.322 90.718,2.772 l 0.477,-0.34 C 90.376,1.701 83.417,2.864 78.322,2.584 L 80.161,2.39 C 77.378,2.14 72.383,3.384 69.589,3.476 68.98,3.539 70.551,3.578 71.401,3.624 64.085,4.056 70.453,3.179 65.002,3.076 63.996,3.316 66.297,3.687 62.628,3.731 60.8,3.926 51.985,2.951 46.979,3.412 48.082,3.227 49.177,3.042 46.645,2.903 42.764,2.837 36.152,3.603 32.646,3.02 32.153,3.07 31.966,3.118 31.946,3.164 28.979,3.014 22.304,2.914 20.517,2.598 17.775,3.772 2.071,2.027 2.137,3.109 l -9.126,-0.057 0.239,0.11 c -5.834,0.072 -7.896,-0.188 -9.947,-0.448 -1.348,0.074 -0.364,0.175 -0.252,0.232 -8.524,0.218 -9.372,0.172 -16.518,-0.367 L -34.21,2.93 c -1.937,-0.204 -12.323,0.551 -20.683,0.141 0.082,0.04 0.255,0.108 0.918,0.158 -9.405,-0.413 -22.517,0.974 -25.963,-0.305 l -6.207,-0.315 c 8.03,-0.1 -1.196,-0.555 2.107,-0.768 -3.158,-0.075 -8.164,0.386 -4.283,0.451 l 0.607,-0.063 c 1.425,0.666 -9.979,0.236 -9.763,0.69 -15.801,-0.033 -31.202,0.336 -46.003,0.365 l 1.705,-0.518 -5.163,0.029 c -1.355,0.121 -1.819,0.405 1.864,0.384 -1.937,0.294 -6.177,-0.246 -6.282,-0.359 -7.211,0.21 2.817,0.605 0.605,0.617 l -3.003,-0.039 0.677,-0.06 c -2.435,-0.212 -2.651,-0.436 -7.077,-0.411 -2.801,0.104 -1.437,0.32 -2.54,0.34 0.007,0.037 -0.366,0.054 -1.692,0.015 l -6.504,0.044 2.601,-0.409 c -2.883,-0.202 -6.116,0.021 -3.115,-0.442 -4.406,0.714 -24.264,0.256 -26.969,0.478 -4.038,-0.298 -8.023,-0.293 -12.962,-0.257 1.228,-0.085 1.963,-0.545 -2.296,-0.488 1.557,0.948 -7.798,0.412 -11.241,1.094 3.077,-0.453 -12.106,-0.112 -7.279,-0.755 -3.554,0.077 -0.217,0.356 -2.913,0.579 -8.457,-0.368 -18.639,0.239 -29.093,0.115 -0.163,-0.124 1.588,-0.315 -0.654,-0.501 l -5.52,0.623 c -2.065,-0.061 -1.901,-0.719 -5.673,-0.286 0.532,-0.105 1.328,-0.263 -0.057,-0.303 -20.48,0.607 -41.85,-0.498 -62.648,0.643 2.817,-0.241 0.939,-0.265 -1.212,-0.274 1.399,-0.058 -0.032,-0.308 0.243,-0.477 l -8.707,0.47 c -1.587,-0.47 -9.336,-0.032 -10.245,-0.481 l 2.758,0.081 c -3.667,-0.528 5.131,-1.175 4.595,-1.855 4.106,0.602 10.826,-0.89 17.563,-0.029 1.487,-0.139 -1.268,-0.219 -0.473,-0.376 1.708,0.291 3.77,0.351 7.592,0.221 l -0.432,-0.073 c 10.736,0.072 15.34,-0.215 27.401,-0.406 l -0.894,0.335 c 2.592,-0.045 3.138,-0.15 4.352,-0.234 2.974,0.509 -7.28,0.029 -4.57,0.59 3.437,-0.683 18.277,-0.011 20.601,-0.786 3.988,-0.004 -1.169,0.388 2.817,0.384 l 1.057,-0.21 1.007,0.27 c 2.614,-0.045 3.933,-0.307 4.031,-0.485 -0.634,0.022 -1.803,-0.049 -2.483,-0.065 3.39,-0.247 9.558,0.085 10.722,0.004 l -3.83,0.129 c 10.881,0.197 24.168,-0.079 34.68,0.348 l -0.798,0.159 c 8.028,0.293 6.43,-0.174 15.245,-0.039 l -0.321,-0.037 c 1.764,0.157 4.12,0.237 6.532,0.219 -2.226,-0.186 4.188,-0.361 1.268,-0.566 8.706,0.315 4.307,0.247 10.057,0.836 l 1.325,-0.263 c 1.96,0.237 2.123,0.363 6.525,0.431 -3.61,-0.225 2.81,-0.4 -1.234,-0.698 9.237,-0.575 13.716,0.58 17.954,-0.261 4.243,0.728 -7.994,0.405 -5.618,0.56 -1.989,0.238 3.501,0.544 6.4,0.471 2.951,-0.017 5.018,-0.931 12.441,-0.917 -0.739,0.003 -0.789,-0.052 -1.525,-0.048 2.778,-0.186 5.443,0.251 8.85,-0.051 1.911,0.44 4.425,-0.025 4.975,0.536 l -6.809,-0.13 c 3.86,0.147 7.48,0.803 13.839,0.485 -0.496,-0.113 -2.387,-0.262 -3.688,-0.345 1.86,-0.165 3.581,0.11 5.509,-0.06 -0.55,-0.562 -8.276,-0.123 -12.411,-0.551 1.996,-0.236 7.823,0.407 5.745,-0.201 2.987,0.773 7.314,-0.097 12.341,0.493 l -0.332,-0.336 c 0.796,0.052 2.444,0.211 3.908,0.203 l -2.651,-0.436 c 4.07,0.372 7.846,-0.326 11.75,-0.123 -8.173,-0.011 -1.835,0.405 -5.29,0.65 10.081,0.451 5.797,-0.879 17.083,-0.718 -1.528,-0.047 -5.736,0.202 -3.347,0.358 2.149,-0.069 4.986,-0.199 6.305,-0.375 7.478,0.07 -1.148,0.346 2.035,0.553 2.546,-0.41 3.672,0.167 6.95,0.298 L -99.1,0.253 c 8.521,-0.22 2.26,0.712 9.931,0.447 l -3.242,-0.474 3.999,0.123 -0.825,-0.39 c 4.351,0.289 5.706,0.215 9.969,0.105 -0.991,0.242 0.557,0.621 4.332,0.632 2.573,-0.203 -1.442,-0.325 3.908,-0.276 -1.208,-0.214 -2.531,-0.483 -4.859,-0.168 -0.239,-0.111 -1.192,-0.214 -1.437,-0.324 2.771,-0.234 6.966,-0.054 8.903,-0.051 -0.745,0.013 -1.637,0.032 -2.094,0.081 l 7.755,0.473 c 1.221,-0.128 0.253,-0.231 -0.707,-0.332 1.572,0.036 2.658,0.194 4.968,0.223 -0.598,-0.278 -0.455,-0.565 -3.724,-0.696 l 7.389,0.309 c 0.494,-0.121 3.793,-0.332 2.833,-0.435 4.097,-0.163 10.049,0.54 15.481,0.324 0.282,0.054 0.848,0.106 2.003,0.145 5.104,-0.063 9.626,-0.404 15.676,-0.022 l 3.433,-0.499 c 4.738,0.114 -4.647,0.628 3.242,0.816 5.586,0.159 2.085,-0.425 4.045,-0.564 2.778,0.251 7.607,0.762 12.739,0.357 C 2.92,-0.037 1.587,0.037 0,0 M 58.438,0.221 C 57.305,0.149 55.047,-0.072 54.22,0.129 c 1.289,0.392 2.287,0.204 4.218,0.092 m 88.832,0.823 c -0.841,-0.113 -2.144,-0.058 -3.612,0.072 1.066,0.029 2.273,0.015 3.612,-0.072 m 247.462,2.38 c -0.047,-0.007 -0.082,-0.011 -0.121,-0.017 -2.525,0.134 -1.629,0.081 0.121,0.017 m 5.245,-0.149 c 0.528,0.049 0.491,0.096 0.268,0.143 -0.366,-0.086 -1.544,-0.092 -2.885,-0.067 0.373,-0.09 1.05,-0.152 2.617,-0.076 m -563.253,-0.134 1.021,-0.089 c -2.305,-0.099 -1.66,-0.01 -1.021,0.089"
             style="fill:#231f20;fill-opacity:1;fill-rule:nonzero;stroke:none"
             id="path676"
             inkscape:connector-curvature="0" />
        </g>
        <g
           id="g678"
           transform="translate(504.5,22.0716)">
          <path
             d="M 0,0 C -0.32,0.058 -0.409,0.122 -0.484,0.186 -0.93,0.128 -0.939,0.062 0,0"
             style="fill:#231f20;fill-opacity:1;fill-rule:nonzero;stroke:none"
             id="path680"
             inkscape:connector-curvature="0" />
        </g>
        <g
           id="g682"
           transform="translate(330.9589,21.3154)">
          <path
             d="m 0,0 -0.178,0.004 c -0.097,-0.02 -0.15,-0.041 -0.179,-0.062 L 0,0 Z"
             style="fill:#231f20;fill-opacity:1;fill-rule:nonzero;stroke:none"
             id="path684"
             inkscape:connector-curvature="0" />
        </g>
      </g>
    </g>
  </g>
</svg>
