<?xml version="1.0" encoding="UTF-8" standalone="no"?>
<!-- Created with Inkscape (http://www.inkscape.org/) -->

<svg
   xmlns:dc="http://purl.org/dc/elements/1.1/"
   xmlns:cc="http://creativecommons.org/ns#"
   xmlns:rdf="http://www.w3.org/1999/02/22-rdf-syntax-ns#"
   xmlns:svg="http://www.w3.org/2000/svg"
   xmlns="http://www.w3.org/2000/svg"
   xmlns:sodipodi="http://sodipodi.sourceforge.net/DTD/sodipodi-0.dtd"
   xmlns:inkscape="http://www.inkscape.org/namespaces/inkscape"
   width="53.31525mm"
   height="15.444963mm"
   viewBox="0 0 188.9123 54.726248"
   id="svg6572"
   version="1.1"
   inkscape:version="0.91 r13725"
   sodipodi:docname="breadcrumb_border.svg">
  <defs
     id="defs6574" />
  <sodipodi:namedview
     id="base"
     pagecolor="#ffffff"
     bordercolor="#666666"
     borderopacity="1.0"
     inkscape:pageopacity="0.0"
     inkscape:pageshadow="2"
     inkscape:zoom="2.8"
     inkscape:cx="87.228616"
     inkscape:cy="-17.765516"
     inkscape:document-units="px"
     inkscape:current-layer="layer1"
     showgrid="false"
     inkscape:window-width="1920"
     inkscape:window-height="1017"
     inkscape:window-x="-4"
     inkscape:window-y="-4"
     inkscape:window-maximized="1"
     fit-margin-top="0"
     fit-margin-left="0"
     fit-margin-right="0"
     fit-margin-bottom="0" />
  <metadata
     id="metadata6577">
    <rdf:RDF>
      <cc:Work
         rdf:about="">
        <dc:format>image/svg+xml</dc:format>
        <dc:type
           rdf:resource="http://purl.org/dc/dcmitype/StillImage" />
        <dc:title></dc:title>
      </cc:Work>
    </rdf:RDF>
  </metadata>
  <g
     inkscape:label="Layer 1"
     inkscape:groupmode="layer"
     id="layer1"
     transform="translate(-214.11528,-410.71336)">
    <g
       id="g2384"
       transform="matrix(1.25,0,0,-1.25,254.19614,458.69336)">
      <path
         d="m 0,0 c -5.279,0.004 -10.336,0.008 -15.236,0.012 -2.449,0.014 -4.859,0.028 -7.237,0.041 -1.18,0.009 -2.352,0.017 -3.517,0.025 -0.658,0.01 -1.312,0.019 -1.963,0.028 0.022,2.598 0.044,5.166 0.066,7.717 0.019,3.112 0.038,6.205 0.057,9.296 0.012,3.092 0.024,6.182 0.035,9.29 -10e-4,2.491 -0.002,4.995 -0.002,7.529 3.519,0.033 7.095,0.067 10.766,0.101 4.258,0.058 8.627,0.14 13.15,0.255 16.037,0.409 32.478,0.565 48.383,0.565 6.158,10e-4 12.234,-0.023 18.178,-0.064 10.648,-0.074 20.866,-0.206 30.343,-0.362 4.738,-0.087 9.291,-0.171 13.619,-0.25 2.164,-0.045 4.272,-0.089 6.32,-0.132 0.511,-0.011 1.02,-0.022 1.523,-0.033 0.252,-0.006 0.503,-0.011 0.754,-0.017 l 0.447,-0.016 c 0.505,-0.023 1.001,-0.045 1.489,-0.067 -0.019,-0.497 -0.037,-0.986 -0.056,-1.468 l -0.014,-0.346 -0.013,-0.523 c -0.01,-0.458 -0.019,-0.911 -0.028,-1.36 -0.037,-1.796 -0.072,-3.527 -0.106,-5.19 -0.071,-3.323 -0.135,-6.371 -0.193,-9.109 -0.104,-5.475 -0.185,-9.713 -0.238,-12.449 l 0.294,-4.236 c -1.963,0.114 -4.815,0.237 -6.415,0.494 -0.583,0.125 0.772,0.402 1.348,0.704 -3.287,0 -3.478,0.327 -2.127,0.603 -0.775,0.025 -1.546,0.05 -1.546,0.05 0.192,0.101 0.771,0.403 0.771,0.403 -6.686,0.303 -14,0.833 -20.829,0.833 -1.665,0 -3.3,-0.031 -4.891,-0.105 C 81.391,2.169 78.493,1.942 76.56,1.79 76.392,1.777 76.189,1.772 75.964,1.772 c -1.068,0 -2.63,0.124 -3.27,0.145 C 71.338,1.64 71.534,1.313 70.957,1.011 67.679,1.176 62.321,1.408 58.201,1.408 54.783,1.408 52.216,1.248 52.393,0.758 52.166,0.76 51.946,0.761 51.735,0.761 47.461,0.761 46.358,0.302 41.568,0.254 34.909,0.168 26.462,0.106 18.132,0.065 15.145,0.017 12.234,0.01 9.336,0.01 7.816,0.01 6.299,0.012 4.777,0.012 3.128,0.008 1.525,0.004 0,0 m 17.478,38.384 c -0.828,0 -1.512,-0.004 -2.036,-0.013 -6.776,-0.102 -12.955,-0.756 -20.495,-0.832 -0.175,-0.001 -0.348,-0.002 -0.52,-0.002 -0.769,0 -1.502,0.016 -2.204,0.032 -0.701,0.016 -1.372,0.032 -2.018,0.032 -0.634,0 -1.244,-0.016 -1.836,-0.062 -0.191,-0.1 -1.157,-0.176 -2.128,-0.252 -0.325,-0.003 -0.651,-0.005 -0.976,-0.005 -2.183,0 -4.353,0.068 -6.414,0.111 -0.988,0.021 -1.95,0.037 -2.877,0.037 -0.184,0 -0.367,-10e-4 -0.549,-0.002 -0.273,-0.004 -0.543,-0.007 -0.809,-0.011 -0.297,-0.008 -0.589,-0.015 -0.878,-0.022 -0.729,-0.019 -1.429,-0.046 -2.084,-0.084 -0.137,-0.005 -0.284,-0.007 -0.44,-0.007 -0.6,0 -1.339,0.033 -2.203,0.087 -0.073,-1.192 -0.189,-2.58 -0.318,-4.112 l -0.099,-1.171 -0.013,-0.149 -0.013,-0.102 -0.025,-0.195 -0.05,-0.386 c -0.068,-0.514 -0.135,-1.017 -0.198,-1.496 -0.253,-1.917 -0.44,-3.446 -0.325,-3.704 1.023,-2.291 0.278,-0.624 0.185,-7.532 -0.022,-0.836 0.396,-3.553 0.351,-5.228 -0.128,-2.823 -0.105,-4.653 -0.036,-6.588 0.04,-0.966 0.08,-1.96 0.127,-3.117 0.011,-0.289 0.022,-0.588 0.033,-0.9 0.01,-0.398 0.021,-0.813 0.032,-1.246 0.016,-1.01 0.034,-2.107 0.053,-3.315 0.013,-0.59 0.026,-1.16 0.036,-1.61 1.499,0.022 2.859,0.042 4.114,0.06 0.978,10e-4 1.875,0.002 2.715,0.003 1.448,-0.023 2.702,-0.042 3.942,-0.062 0.565,-0.009 1.127,-0.015 1.703,-0.015 1.952,0 4.065,0.068 6.995,0.328 0.961,0.076 13.335,0.529 13.335,0.529 0.852,-0.008 1.676,-0.012 2.475,-0.012 2.182,0 4.178,0.028 6.061,0.056 1.884,0.027 3.655,0.055 5.384,0.055 3.085,0 6.042,-0.089 9.285,-0.423 2.647,0.206 5.562,0.276 8.599,0.276 3.096,0 6.317,-0.072 9.509,-0.144 3.191,-0.072 6.352,-0.144 9.327,-0.144 0.728,0 1.443,0.004 2.146,0.014 0.913,0.012 1.775,0.018 2.593,0.018 7.493,0 11.361,-0.493 18.684,-0.923 2.32,-0.075 4.06,-0.024 5.412,-0.175 0.206,-0.023 0.458,-0.033 0.744,-0.033 0.718,0 1.654,0.061 2.646,0.122 0.992,0.061 2.04,0.122 2.981,0.122 0.201,0 0.397,-0.003 0.587,-0.01 L 87.411,-4.12 c 0.778,-0.025 2.321,-0.074 3.096,-0.099 0.775,-0.026 0.58,-0.127 0.387,-0.227 -0.387,-0.202 -0.771,-0.403 0.584,-0.554 3.232,-0.171 6.539,-0.303 9.923,-0.397 3.344,0.152 6.644,0.322 9.896,0.513 0.188,0.138 0.408,0.276 0.865,0.389 0.969,0.076 1.935,0.151 2.899,0.226 0.58,0.302 0.384,0.63 0.774,0.832 -0.005,0.854 4.051,1.684 3.08,2.464 -0.136,0.08 -0.915,0.14 -1.978,0.203 0.225,3.334 0.396,8.518 0.535,14.623 0.062,3.314 0.129,6.901 0.198,10.608 0.053,3.324 0.107,6.757 0.16,10.166 -0.901,0.019 -1.799,0.037 -2.691,0.055 -1.251,0.019 -2.492,0.036 -3.718,0.054 -2.451,0.036 -4.837,0.071 -7.108,0.105 -4.543,0.07 -8.624,0.142 -11.834,0.228 -5.914,0.089 -10.426,0.179 -13.806,0.288 -0.66,0.021 -0.813,0.031 -0.533,0.031 0.93,0 6.611,-0.114 14.339,-0.319 4.498,-0.059 9.81,-0.128 16.056,-0.21 -7.78,0.406 -15.258,0.807 -20.615,1.137 -3.935,0.029 -7.91,0.059 -11.954,0.09 -17.787,0.15 -34.996,0.174 -52.595,0.425 -6.382,0.099 -20.307,0.124 -26.493,0.324 l 77.547,-0.3 c -0.702,0.024 -1.4,0.048 -2.088,0.071 L 31.57,37.039 c -2.307,0.006 -4.639,0.026 -7.039,0.075 l 7.039,-0.075 c 0.397,-0.001 0.792,-0.002 1.187,-0.002 5.625,0 11.15,0.086 17.296,0.104 4.059,-0.063 8.699,-0.136 12.764,-0.2 3.317,-0.035 6.367,-0.212 9.52,-0.335 l 6.087,-0.065 c 0.592,0.012 1.227,0.025 1.877,0.038 l -0.08,0.011 c -4.726,0.754 -50.139,1.794 -62.743,1.794"
         style="fill:#4f764f;fill-opacity:1;fill-rule:nonzero;stroke:none"
         id="path2386"
         inkscape:connector-curvature="0" />
    </g>
  </g>
</svg>
