<?xml version="1.0" encoding="UTF-8" standalone="no"?>
<!-- Generator: Adobe Illustrator 21.1.0, SVG Export Plug-In . SVG Version: 6.00 Build 0)  -->

<svg
   xmlns:dc="http://purl.org/dc/elements/1.1/"
   xmlns:cc="http://creativecommons.org/ns#"
   xmlns:rdf="http://www.w3.org/1999/02/22-rdf-syntax-ns#"
   xmlns:svg="http://www.w3.org/2000/svg"
   xmlns="http://www.w3.org/2000/svg"
   xmlns:sodipodi="http://sodipodi.sourceforge.net/DTD/sodipodi-0.dtd"
   xmlns:inkscape="http://www.inkscape.org/namespaces/inkscape"
   version="1.1"
   id="Laag_1"
   x="0px"
   y="0px"
   viewBox="0 0 297.70001 109.1"
   xml:space="preserve"
   inkscape:version="0.91 r13725"
   sodipodi:docname="category_border.svg"
   width="297.70001"
   height="109.1"><metadata
     id="metadata572"><rdf:RDF><cc:Work
         rdf:about=""><dc:format>image/svg+xml</dc:format><dc:type
           rdf:resource="http://purl.org/dc/dcmitype/StillImage" /><dc:title></dc:title></cc:Work></rdf:RDF></metadata><defs
     id="defs570" /><sodipodi:namedview
     pagecolor="#ffffff"
     bordercolor="#666666"
     borderopacity="1"
     objecttolerance="10"
     gridtolerance="10"
     guidetolerance="10"
     inkscape:pageopacity="0"
     inkscape:pageshadow="2"
     inkscape:window-width="1920"
     inkscape:window-height="1017"
     id="namedview568"
     showgrid="false"
     fit-margin-top="0"
     fit-margin-left="0"
     fit-margin-right="0"
     fit-margin-bottom="0"
     inkscape:zoom="1.8"
     inkscape:cx="248.90384"
     inkscape:cy="1.6724627"
     inkscape:window-x="-4"
     inkscape:window-y="-4"
     inkscape:window-maximized="1"
     inkscape:current-layer="_x5B_YOUR_SCREEN_HERE_x5D__1_" /><style
     type="text/css"
     id="style3">
	.st0{fill:#1D1D1D;}
</style><g
     id="Shadow"
     transform="translate(-491.5,-211.1)" /><g
     id="Desktop"
     transform="translate(-491.5,-211.1)"><g
       id="_x5B_YOUR_SCREEN_HERE_x5D__1_"><g
         id="g120" /><g
         id="g232" /><g
         id="g344" /><g
         id="g456"><g
           id="g458"><g
             id="g460"><g
               id="g462"><g
                 id="g464"><path
                   class="st0"
                   d="m 491.8,318.5 c 0.1,0.4 0.3,0.2 0.2,-1 l -0.3,-0.8 0.1,1.8 z"
                   id="path466"
                   inkscape:connector-curvature="0"
                   style="fill:#1d1d1d" /><path
                   class="st0"
                   d="m 492.4,310.7 c -0.2,-1.4 -0.4,-2.9 -0.7,-2.1 0.3,1.4 0.2,1.7 0.6,3.1 0,1.2 -0.1,2 -0.2,1.8 0.1,0.4 -0.1,1.8 0.1,2.4 0.3,-1.5 0.3,-3.4 0.1,-5.4 0,-0.3 0.1,0.1 0.1,0.2 z"
                   id="path468"
                   inkscape:connector-curvature="0"
                   style="fill:#1d1d1d" /><path
                   class="st0"
                   d="m 508.1,213 -0.7,0 c 0.1,-0.1 0.4,0 0.7,0 z"
                   id="path470"
                   inkscape:connector-curvature="0"
                   style="fill:#1d1d1d" /><path
                   class="st0"
                   d="m 578.5,213.1 c -0.5,0 -0.8,0 -0.8,0.1 0.5,0 0.9,0 0.8,-0.1 z"
                   id="path472"
                   inkscape:connector-curvature="0"
                   style="fill:#1d1d1d" /><path
                   class="st0"
                   d="m 590.6,213.5 c -0.3,0 -0.5,0 -0.7,0 0.2,0 0.5,0 0.7,0 z"
                   id="path474"
                   inkscape:connector-curvature="0"
                   style="fill:#1d1d1d" /><path
                   class="st0"
                   d="m 508.1,213 1.9,0.1 c 0.1,-0.1 -1,-0.1 -1.9,-0.1 z"
                   id="path476"
                   inkscape:connector-curvature="0"
                   style="fill:#1d1d1d" /><path
                   class="st0"
                   d="m 491.6,295 c 0,0.4 0,0.7 0.1,1 0,-0.3 0,-0.6 -0.1,-1 0.1,0 0.1,0 0,0 z"
                   id="path478"
                   inkscape:connector-curvature="0"
                   style="fill:#1d1d1d" /><path
                   class="st0"
                   d="m 493.2,228 0,0.6 c 0,0.2 0.1,0.3 0.1,0.5 l -0.1,-1.1 z"
                   id="path480"
                   inkscape:connector-curvature="0"
                   style="fill:#1d1d1d" /><path
                   class="st0"
                   d="m 493.3,251.8 c 0,-0.5 -0.3,-0.7 -0.4,-0.9 0.1,0.3 0.2,0.7 0.2,1.2 0,0 0.1,-0.1 0.2,-0.3 z"
                   id="path482"
                   inkscape:connector-curvature="0"
                   style="fill:#1d1d1d" /><path
                   class="st0"
                   d="m 492.8,289.6 0,0.7 c 0,-0.2 0,-0.5 0,-0.7 z"
                   id="path484"
                   inkscape:connector-curvature="0"
                   style="fill:#1d1d1d" /><path
                   class="st0"
                   d="m 494.1,213.3 c 0,0 0.1,0.1 0.2,0.1 0,0 -0.1,-0.1 -0.2,-0.1 z"
                   id="path486"
                   inkscape:connector-curvature="0"
                   style="fill:#1d1d1d" /><path
                   class="st0"
                   d="m 520.1,319.8 c 0.1,0 0,0 0,0 -0.1,0 -0.1,0 0,0 z"
                   id="path488"
                   inkscape:connector-curvature="0"
                   style="fill:#1d1d1d" /><path
                   class="st0"
                   d="m 492.5,318.4 0.4,0 c 0,-0.1 0.1,-0.1 0.1,-0.2 l -0.5,0.2 z"
                   id="path490"
                   inkscape:connector-curvature="0"
                   style="fill:#1d1d1d" /><path
                   class="st0"
                   d="m 612.6,213.9 c -0.1,0 -0.1,0 0,0 -0.7,0 -0.4,0 0,0 z"
                   id="path492"
                   inkscape:connector-curvature="0"
                   style="fill:#1d1d1d" /><path
                   class="st0"
                   d="m 786.3,239.7 c 0.3,-2.3 0.3,3.7 0.6,0.3 -0.1,0.3 -0.4,-3.1 -0.6,-0.3 z"
                   id="path494"
                   inkscape:connector-curvature="0"
                   style="fill:#1d1d1d" /><path
                   class="st0"
                   d="m 491.7,294.4 c 0,-0.3 0,-0.6 0,-1 0,0.4 0,0.7 0,1 z"
                   id="path496"
                   inkscape:connector-curvature="0"
                   style="fill:#1d1d1d" /><path
                   class="st0"
                   d="m 786.9,240 0,0 0,-0.4 c 0.1,0.2 0,0.3 0,0.4 z"
                   id="path498"
                   inkscape:connector-curvature="0"
                   style="fill:#1d1d1d" /><path
                   class="st0"
                   d="m 663.3,213.7 c -0.1,0 -0.3,-0.1 -0.5,-0.1 0,0 0.1,0 0.5,0.1 z"
                   id="path500"
                   inkscape:connector-curvature="0"
                   style="fill:#1d1d1d" /><path
                   class="st0"
                   d="m 625.5,213.3 0.9,0 c -0.3,0 -0.6,0 -0.9,0 z"
                   id="path502"
                   inkscape:connector-curvature="0"
                   style="fill:#1d1d1d" /><path
                   class="st0"
                   d="m 682.9,213.3 c 0.5,0 0.7,0.1 1.4,0 -0.1,0 -0.1,0 -0.2,0 -0.2,0 -0.6,0 -1.2,0 z"
                   id="path504"
                   inkscape:connector-curvature="0"
                   style="fill:#1d1d1d" /><path
                   class="st0"
                   d="m 703.4,213.3 c -0.1,0 -0.3,0 -0.4,-0.1 -0.2,0 -0.4,0 -0.6,0 l 1,0.1 z"
                   id="path506"
                   inkscape:connector-curvature="0"
                   style="fill:#1d1d1d" /><path
                   class="st0"
                   d="m 582.2,319.7 c -0.4,-0.1 -0.7,-0.2 -0.9,-0.3 0.3,0.2 -2.7,0.3 0.9,0.3 z"
                   id="path508"
                   inkscape:connector-curvature="0"
                   style="fill:#1d1d1d" /><path
                   class="st0"
                   d="m 491.8,295 c -0.1,-0.1 -0.1,-0.3 -0.1,-0.6 0,0.2 0,0.5 0,0.7 0,0 0.1,0 0.1,-0.1 z"
                   id="path510"
                   inkscape:connector-curvature="0"
                   style="fill:#1d1d1d" /><path
                   class="st0"
                   d="m 683.8,211.1 3.2,0 c -0.9,0 -2.1,0 -3.2,0 z"
                   id="path512"
                   inkscape:connector-curvature="0"
                   style="fill:#1d1d1d" /><path
                   class="st0"
                   d="m 728.7,319.6 -0.7,0 c 0.3,0.1 0.6,0.1 0.7,0 z"
                   id="path514"
                   inkscape:connector-curvature="0"
                   style="fill:#1d1d1d" /><path
                   class="st0"
                   d="m 696.6,211.1 c 0.6,0.1 1.2,0.2 1.8,0.2 0.1,0 0.3,0 0.4,-0.1 l -2.2,-0.1 z"
                   id="path516"
                   inkscape:connector-curvature="0"
                   style="fill:#1d1d1d" /><path
                   class="st0"
                   d="m 581.3,319.4 0,0 0,0 z"
                   id="path518"
                   inkscape:connector-curvature="0"
                   style="fill:#1d1d1d" /><path
                   class="st0"
                   d="m 559.9,320.1 c 3.1,0 1.5,-0.4 2.1,-0.6 3.7,-0.1 1.7,0.3 3,0.5 2.3,-0.1 4.1,-0.4 5.8,-0.4 0.1,0.1 0.5,0.1 0.1,0.2 2.4,-0.3 7.2,0 10.1,-0.4 0.2,0 0.3,0.1 0.4,0.1 -0.5,-0.2 -0.5,-0.4 -0.4,-0.5 1.4,0 2.6,-0.2 3.1,0 -0.8,0 -0.9,0.1 -1.3,0.2 l 1.5,-0.1 c 1.3,0.3 -2,0.1 -2,0.4 2.8,-0.1 6.1,-0.4 8.3,-0.3 0.5,0.3 -5.1,0.1 -2.2,0.4 l -3.4,-0.1 c 2.6,0.5 -2,0 0.3,0.5 4.4,0.1 4.9,-0.2 9.4,-0.1 1,-0.2 -0.3,-0.3 0.7,-0.5 6.3,-0.3 4.9,0.9 9.5,0.4 1.2,-0.2 1.7,-0.7 4.9,-0.4 l -1.1,0.4 c 4.3,0 2.4,-0.6 6.9,-0.3 -0.8,0.2 -3.4,0.1 -2.7,0.2 2.9,0.3 2.1,-0.2 4.3,-0.2 l 0.5,0.3 c 4.6,-0.1 9.6,-0.3 14.6,-0.4 -0.3,0.1 -1.1,0.2 0,0.3 6.4,-0.2 13.6,0 19.7,0.2 l 2.3,-0.3 c 0.5,0 1,0.1 0.4,0.2 2.4,0.1 0.1,-0.2 1.3,-0.3 1.4,0 1.8,0.2 0.9,0.3 4.2,-0.2 12,-0.5 16.5,-0.2 l -0.9,0.1 c 3.5,0.1 3.9,-0.6 7.1,-0.3 l -0.6,0.1 c 7.5,0.1 15.8,-0.1 21.6,0.3 1.1,-0.4 7.4,0.2 7.9,-0.4 4.3,0.3 3.1,0.4 9.1,0.6 1.6,0 2.4,-0.4 4.4,-0.4 l 0,0.3 2.7,-0.3 1.4,0.4 1.9,-0.1 c -0.7,0 -1.6,-0.1 -1.5,-0.2 2.9,-0.1 7.1,0.2 7.2,0.4 l 6.9,-0.3 c -0.2,0.1 -1.3,0.2 -2.2,0.2 3.7,-0.3 0.7,0.3 4.1,0 -0.5,-0.1 0.2,-0.2 0.3,-0.2 1.7,0.2 5.5,0.2 8.4,0.1 l -0.5,0.2 c 5.1,0.1 10.8,-0.1 16.6,-0.1 -2.1,-0.1 -1.6,-0.5 0.1,-0.5 l 0.7,0.3 c 1.1,-0.2 -1.8,-0.1 0.5,-0.4 2.2,0 1.4,0.4 0.2,0.5 l 2.6,-0.1 c 0.2,0.1 -0.5,0.1 -0.6,0.3 1.1,-0.2 4.5,0.3 6.1,0 l 0.1,0.1 c 2.3,0 4.1,0 5.8,0 2.1,0 4.1,0 6.3,-0.1 0,-1 0,-2.3 0,-3.8 -0.3,-0.1 -0.2,-1.9 -0.4,-3.3 0.1,-3.4 0.3,-7.3 0.3,-11.4 -0.1,-2.9 -0.2,-0.9 -0.4,-2.2 0.3,-0.2 0.2,-4.4 0.4,-2.2 0,-5 -0.1,-6.4 -0.3,-12.7 -0.1,0.7 -0.2,1.5 -0.2,1.1 0,-1.1 0.1,-2.6 0.2,-2.4 l 0,0.3 c -0.4,-7.1 0.7,-16.3 0.2,-22 l 0,0.3 -0.3,-5.8 c 0,-2.7 0.2,1.6 0.4,-0.4 -0.4,-6.3 0.1,-10 -0.2,-15.1 0.8,-4 -0.1,-14.3 0.4,-19.7 l -0.2,0.3 c -0.2,-1.4 0.1,-1.7 0.1,-2.7 -0.1,0.1 -0.2,1.5 -0.3,0.6 0,-1 0,-2.1 0,-3.1 0,-1.4 0,-2.9 0,-4.3 -1.6,0 -3.3,0 -4.9,0 -1.3,0 -2.5,0 -3.8,0 -2.5,0 -5.1,-0.1 -7.6,-0.1 -5.1,-0.1 -10.2,-0.2 -15.2,-0.3 -4.5,0 -2.5,0.9 -8.1,0.5 l 1.6,-0.3 c -9,0.4 -18.4,0 -27.2,0.3 0.5,-0.1 0.5,-0.2 1.4,-0.2 -1.9,-0.2 -6.9,0 -6.9,0.2 -1.4,0 -0.3,-0.2 -1.2,-0.3 -1.9,-0.1 -4.7,0.3 -5.7,0.1 -0.2,0 0.5,-0.1 0.9,-0.1 -1.2,0.1 -5.7,0 -4.5,0.2 -3.3,-0.1 -6.3,0.1 -8.9,0 -1.7,0.3 -5.7,-0.1 -6.2,0.3 0.2,-0.5 -5.8,-0.4 -7.9,-0.2 0.7,-0.1 -1.8,-0.1 -1,-0.3 -2.4,0 -4.6,0.1 -4.1,0.3 -4.4,-0.5 -8.8,0.4 -11.3,-0.3 -7.1,0.2 -13.6,0.4 -20,0.5 0.2,-0.5 7,0 6.8,-0.5 -6,0.2 -9.5,0.6 -15.5,0.5 -1.6,-0.1 0.9,-0.2 1.4,-0.3 -6,0.2 -11.7,0 -17,0.2 0,0 0.6,-0.1 1.1,-0.1 -1.1,0 -2.5,-0.1 -2.3,0.1 l 1,-0.1 c 1.7,0.3 -4.2,0.6 -4.4,0.8 1.8,-0.6 -5.3,-0.1 -2.4,-0.9 -0.7,0 -1.6,0.1 -1.4,0.3 -1,0 -1.4,-0.1 -0.3,-0.3 -3.8,0.1 -2.4,0.3 -5.9,0.3 0,-0.1 0.7,-0.1 1.1,-0.3 -1.7,0.2 -3.5,0.4 -6.4,0.3 0.2,-0.1 -0.2,-0.1 0.7,-0.1 -5,0 -8.5,0.5 -14,0.3 1.6,-0.4 -1.9,-0.1 -2.1,-0.5 l -2.9,0.1 1.2,0.2 c -2.6,0 -4.8,0.3 -7.1,0.1 l 1.9,-0.2 -4.8,0.1 2.7,0.1 c -2.6,0.2 0.3,0.5 -3.1,0.4 0.7,0 -2.6,0 -3.9,-0.2 l 0,0 c -1.3,0.1 -2.6,0.2 -4.5,0.2 -0.5,-0.1 0.4,-0.4 0.1,-0.5 -1.3,0.3 -6,0.1 -7.6,0.4 0.5,-0.1 0.6,-0.3 0.4,-0.3 l -1.1,0.3 c -1.2,-0.1 -1.4,-0.1 -1.2,-0.3 -3.6,0 1.1,0.5 -3.1,0.3 0.3,0 0.2,-0.1 0.9,-0.1 -4.3,-0.1 -8.3,0.2 -12.2,0 -1.2,-0.4 3.4,-0.1 2.1,-0.4 -5.7,0.1 -11.7,0.5 -17.2,0.4 l 1,0 c -0.8,0.5 -4.1,-0.3 -6.9,0 0.7,0 0.9,-0.3 0.7,-0.2 -3.8,-0.1 -7.7,0.1 -13.4,0.3 l 0.7,-0.1 c -2.2,-0.1 -5.8,-0.1 -8.2,-0.1 -0.7,0.1 -2.1,0.1 -1.2,0.3 -1.6,-0.2 -3.1,-0.2 -4.6,-0.3 -0.8,0 -1.5,0 -2.2,0 -0.9,0 -1.9,0 -2.8,0.1 0.1,2.2 0.1,4.3 0.2,6.4 0,1.9 0,3.8 -0.2,5.7 0,-0.8 -0.1,-1.9 -0.1,-1.2 l 0.1,5.6 c 0.2,-0.4 0.1,-0.7 0.3,-1.9 0.1,0.7 0.2,2.3 0.2,3.7 -0.2,-2.5 -0.4,0 -0.5,1.1 0.1,-0.2 0.1,0.2 0.2,0.1 -0.4,2.9 0.5,0.5 0.2,4.5 l -0.1,-0.2 c 0.1,1.5 0.2,2.9 0.2,4.5 -0.3,0.7 -0.1,-1.6 -0.3,-1.7 0,2.3 0.5,4.4 0.2,6.5 -0.1,-1 -0.1,-2.3 -0.1,-3.3 -0.3,2.2 -0.2,2.5 -0.3,4.1 l 0,-0.2 -0.1,3.8 0.1,-1 c 0.7,2.8 0.1,5.7 0.6,9.5 -0.4,-3.7 -0.3,-0.6 -0.6,-0.9 -0.1,1 -0.2,2.4 -0.3,2 0.2,1.8 -0.2,3 0.2,5.5 -0.1,0.1 0,1.9 -0.3,1.5 0.1,2.3 0.2,-0.6 0.3,-0.4 0.3,3.6 -0.4,8.5 0.1,13.6 0.2,4.5 0.5,5.3 0.7,9.4 -0.2,1.4 -0.4,-1.1 -0.4,-1.1 -0.1,2.3 -0.1,3.9 0,6.1 -0.1,-0.4 -0.2,0 -0.3,0.7 0,1.7 0.4,1.1 0.2,3.4 -0.1,-0.4 -0.3,-0.9 -0.4,-1.7 0.1,2 0.3,4 0.4,6.1 -0.2,0.6 -0.3,-1.3 -0.4,-2 0.1,2.3 0.2,6.1 0.4,6.8 l 0.1,-1.5 c 0,0.9 -0.2,0.4 -0.3,-0.2 -0.2,-2 0.1,-2.9 0.2,-3 l 0.1,1.5 c 0.6,-1.5 -0.1,-5.9 -0.1,-8.9 l 0.4,1.2 -0.3,-3.1 c 0.1,-0.6 0.3,-1.1 0.4,0.4 0.2,-2.1 -0.1,-1.9 0.1,-3.7 0,-0.2 0.1,-0.1 0.1,0.1 l -0.1,-2.1 c 0.1,0.4 0.3,-0.3 0.2,0.9 0.2,-3.7 -0.3,-6 0,-7.5 l 0,0.3 c -0.1,-5.2 -0.3,-0.5 -0.7,-4.4 l 0.8,-2.6 -0.3,-0.5 c 0,-0.5 0,-1.6 0.2,-1.4 -0.2,-2 -0.1,0.3 -0.3,-0.8 0.3,-2.6 -0.1,-7.1 0.4,-7.7 -0.2,-0.9 -0.2,2.5 -0.3,-0.3 0.5,-0.8 -0.1,-3.2 0.2,-5.5 0.3,0.7 0.1,3 0.4,0.6 -0.5,-1.4 0.1,-4.6 0,-6.6 -0.4,-0.1 -0.2,-4.3 -0.3,-7.7 0.1,0.2 0.2,-6.3 0.3,-9.4 l 0.1,0.1 c -0.4,-0.6 -0.3,-3.8 -0.4,-6.1 0.2,0.1 0.3,0.5 0.4,1.8 l 0,-2.2 c -0.1,-0.5 -0.2,-1.2 -0.2,-2.6 l 0.3,0.6 c 0,-2.9 -0.3,-5.9 -0.1,-9.6 -0.3,-0.2 -0.7,3 -0.9,-1 0.1,-0.1 0.4,-0.3 0.4,0.7 0,-0.3 -0.1,-1.2 -0.1,-1.9 l 0.2,1.6 c 0.1,-1.7 -0.2,-0.9 -0.2,-2.3 0.2,0 0.1,-0.8 0.3,-0.6 0,0.1 0,0.3 0,0.5 0,0.3 0,0.6 0,0.9 0,-0.9 0.1,-1.4 0.1,-1.9 0.5,0.1 0.8,0.1 1,0.2 0,-0.1 -0.1,-0.1 0.1,-0.2 0.2,-0.1 0.5,-0.1 1,-0.1 2.9,0 1,0.2 2.7,0.3 0.7,-0.1 2.6,0 2.6,-0.3 0.9,0 1,0.1 1.3,0.2 1.5,-0.1 7.1,0 5.4,-0.4 l -0.4,0 c 0.1,0 0.2,0 0.2,0 l 0,0 0,0 c 4.9,-0.3 10.3,0.2 15.2,0 l 0,0.1 c 2.9,-0.1 6.5,-0.1 8.6,-0.3 0.9,0 2,0.2 1.7,0.3 2.2,-0.1 2.5,-0.2 5.7,0 -2.3,0.2 0.8,0.2 -2.3,0.1 2.9,0.1 3.6,0.2 6.7,0 -1.1,0.3 2.2,0.3 3.6,0.2 l -2,-0.2 c 1.6,0 2.9,0 4.3,0 l -0.7,0.3 c 6,0.4 10.7,-0.7 15.3,0 1.6,-0.2 -3.2,-0.2 -1.8,-0.4 2.7,0 5.6,0.5 6.5,0.5 3.8,0.2 3.5,-0.5 7.4,-0.4 -0.5,-0.1 -1,-0.4 2,-0.5 2.7,0 3.4,0.5 1.6,0.6 -0.7,0 -1,0 -0.9,-0.1 -0.9,0 -2,0.1 -1,0.2 l 0.4,-0.1 c 1.4,0.1 5.1,0.1 4.2,0.3 2.1,-0.1 0.9,-0.2 -0.6,-0.3 3.5,0.2 5.5,0 9.1,0.1 -0.6,-0.1 -1.1,-0.2 -0.5,-0.2 5.3,0.1 2.3,-0.2 5.9,-0.3 2,0.2 -0.7,0.4 2.9,0.3 2.2,0.1 0.5,0.3 -0.4,0.4 3.3,-0.2 6.2,0.2 8.1,0.2 L 604,214 c 1,-0.1 1.9,-0.1 2.8,-0.1 l -1,-0.2 c 1,0 1.9,0 1.9,0.1 1.1,-0.2 -0.8,-0.4 1.3,-0.6 1.4,0.1 4.1,-0.1 4.6,0.2 -4.3,-0.1 0.5,0.3 -3.2,0.4 0.7,0 1.6,0 2.6,0 0.2,0 -0.1,0.1 -0.4,0.1 4.1,0.3 1.9,-0.4 6.1,-0.3 -0.5,0.2 1,0.3 1.7,0.3 -1.7,0 -0.8,-0.3 0.8,-0.4 2.7,0.1 3,-0.1 4.4,-0.1 l -1.6,-0.1 c 0.6,-0.2 1.9,-0.2 3.8,-0.2 0.2,0.1 -1.7,0.1 -1,0.2 2.1,-0.3 4.8,0.3 7.7,0.1 1.4,0.1 0.1,0.3 1.3,0.4 3.3,-0.2 3.6,0.2 7,0.1 -1,-0.2 -1.2,-0.2 1.3,-0.4 l -5.7,0.2 3.7,-0.3 c -1.7,0 -3.6,0.2 -4.7,0.1 1.7,-0.2 1.6,-0.1 0.7,-0.3 2.3,0.4 4.7,-0.2 7.4,0 l -0.1,0.6 c 4.1,0.3 7.3,-0.3 12.6,-0.2 l -1.7,-0.1 c 0.7,-0.2 3.3,0 5,-0.1 -0.2,0.2 0.9,0.3 1.6,0.4 -0.1,-0.1 3.9,0 4.4,-0.4 l 2.4,0.3 c 4.3,0.1 4.9,-0.6 9,-0.5 -1.2,0.2 0.6,0.4 -2.1,0.5 1.4,0 2.6,0 2.6,-0.1 0.8,0.1 3.8,-0.3 5.1,-0.1 0.6,-0.1 0.8,-0.3 2.3,-0.3 0.2,0 0,0.1 0,0.1 0,-0.1 2.4,-0.1 1.1,-0.4 4.2,0.6 11.8,0 15.5,0.5 3,-0.1 6.6,-0.1 9.3,-0.1 -0.2,0.1 0,0.1 -0.5,0.1 3.8,0.2 2.3,-0.6 6.6,-0.4 2.2,0.3 -2.3,0.2 -0.9,0.3 0.6,0.6 5.2,-0.1 8,0.3 l -0.7,0 c 2.2,0.2 5.4,-0.2 9,-0.2 0,0 -0.2,0.1 0,0.1 2.5,-0.3 7.1,-0.4 10.6,-0.5 -1.1,0.3 -1.6,0.1 -0.9,0.4 1.5,0 -0.5,-0.4 2.6,-0.5 1,0.1 3.2,0.3 3.5,0.5 l -2.9,0 c 1.5,0.4 3.8,0 5.3,0 l -0.2,0.2 c 4.5,-0.1 4.5,-0.4 9.3,-0.4 l -0.5,-0.1 c 2.6,-0.4 2.2,0.2 4.8,-0.1 l 0.8,0.4 c 1.7,-0.1 6.1,-0.4 9.2,-0.5 -1.8,0.3 -5.4,0.4 -7.6,0.6 1.7,0 5.8,0 6.7,-0.2 -0.7,0 -1.6,0.1 -2.2,0.1 2.1,-0.3 4.9,-0.5 8.3,-0.5 -0.2,0.3 0.7,0.4 2.1,0.4 0.7,0 1.5,0 2.3,0 0.6,0 1.2,0 1.8,0 0,0.6 -0.1,1.2 -0.1,1.8 0,0.8 -0.1,1.4 -0.2,1.8 0.3,6.1 -0.1,12 -0.1,19.1 0.6,-2.5 0,2.1 0.6,1.6 0,1.6 0,2.3 0,2.4 l -0.4,5 c -0.2,1.2 -0.1,-1.6 -0.3,-1.4 0,3.6 -0.3,1.5 -0.4,3.9 0.2,-0.5 0.3,1.3 0.2,3.3 l 0.3,-2.9 c 0.3,5 -0.5,4.3 -0.2,9.4 l -0.2,-1.6 c 0.1,2.6 0,9.6 0.5,12.1 -0.1,0.5 -0.2,1.1 -0.3,-0.1 -0.1,6.2 0.5,13.8 0.2,18.7 l -0.1,-0.5 c 0,1.2 0.3,2 0.1,3.5 -0.1,-0.1 -0.1,-0.5 -0.2,0.1 0.1,0.6 0.3,3.1 0.2,4.6 l -0.2,-1.3 c -0.2,6.1 0.4,9.3 0.5,14.4 -0.4,0 -0.6,4.8 -0.7,7.1 l -0.1,-0.1 c 0,0.8 0,1.5 0,2.2 l 0,0.5 0,0.1 0,0.1 -0.1,0 -0.1,0 0,0 -0.2,0 c -0.6,0 -1.2,0 -1.8,0.1 -1.2,0 -2.3,0.1 -3.4,0.1 -2.3,0.1 -4.6,0.2 -7.1,0.3 -4.1,-0.5 -13.7,-0.2 -20.3,-0.5 1,0.1 -0.2,0.3 -1.3,0.4 -1.5,-0.1 -4.2,0.3 -4,-0.1 l 0.5,0 c -1.2,-0.4 -4.3,-0.3 -6.7,-0.3 l -0.4,0.5 c -6.4,-0.8 -16.8,0.3 -20.3,-0.4 -1.5,0.1 -3.5,0.1 -5,0.3 l 0.1,-0.3 c -4.3,-0.1 -6.4,-0.1 -11.7,0 l 1.1,-0.2 c -3,0 -3.8,0.8 -6.5,0.8 l -0.8,-0.4 c -5.2,0 -10.5,-0.4 -15.7,0 0.1,-0.1 0.2,-0.2 1.1,-0.2 -2.5,0 -9.5,-0.3 -8.6,0.3 -0.1,-0.4 -5.4,0 -8.2,0.1 l 0.4,-0.3 c -2.4,0.4 -2.5,0.5 -5.8,0.6 -0.8,0 -0.7,-0.2 0.4,-0.2 -2.6,-0.1 -2,0.3 -5.2,0.1 l 1.2,-0.2 c -2.7,0 -2.5,0.1 -4,0.3 -1.7,0.1 -5.1,-0.1 -5.5,-0.3 -0.4,0.2 -1.8,0.4 -3.4,0.3 -0.2,-0.1 0.4,-0.2 0.7,-0.2 -4.5,-0.2 -6.7,0.3 -9.8,0.1 -0.1,-0.1 -0.3,-0.1 -0.5,-0.2 3.6,0 6.5,0 6.2,0 0,-0.3 -2.9,-0.3 -0.6,-0.7 -2.3,0.2 -6.3,0.6 -9.1,0.5 -0.1,0 -0.3,0 -0.4,-0.1 l 0.3,0 c -0.7,0 -1.2,0 -1.8,0 -0.9,0 -1.5,-0.1 -2.3,-0.1 -0.3,-0.2 -3.3,-0.1 -4.8,-0.1 0.1,0.3 -1.8,0.2 0,0.5 -0.2,0 0.3,0 1.2,0 0.2,0 0.5,0 0.6,0 l -0.1,0 c 0.9,0 2.2,0 3.6,0 -1.1,0.1 -2.3,0.3 -3.9,0.1 -0.7,0.2 -1.6,0.4 -2,0.5 -2,-0.4 -5.8,-0.6 -6.3,-0.8 -4.4,0.2 -10.4,0.1 -13.2,0.6 -1.3,0.1 -1.4,-0.2 -1.9,-0.2 0.7,-0.1 1.6,0 2,-0.1 -2.5,0.1 -7.4,0.1 -8,0.4 -3.2,-0.2 1.8,-0.3 -2.6,-0.3 l 0.6,-0.1 c -8.5,-0.6 -13.9,0.9 -23.4,0.2 0.7,0 1,0.1 1.1,0.1 -10.8,-0.3 -22.3,0.3 -32.9,-0.2 -3,-0.1 -3.4,0.1 -5.2,0.3 l -0.7,-0.3 -3.2,0.3 c -4.5,0.3 -7.8,-0.7 -13.4,-0.3 l 0.7,0.2 c -2,0 -6.5,0.1 -6.1,-0.1 -0.2,0 -0.7,0.2 -1.5,0.1 l -0.1,-0.2 -5,0.3 c -3.9,-0.1 0.6,-0.6 -5.1,-0.7 -2.1,0.1 -6,0.5 -5.2,0.6 0.8,0 2.2,0.1 2.2,0.3 l -1.9,0.1 c -0.3,0.5 -1.8,0.9 2.9,1.3 l 3.3,-0.3 1.1,0.2 -2.8,0 c 1.6,0.2 2.6,0 3.7,-0.1 0.3,0.1 0.7,0.2 1.4,0.2 l 3.2,-0.4 c 0.4,0.2 -1.4,0.4 0.7,0.5 1.5,-0.2 -1.5,-0.4 1.1,-0.5 1.6,0.2 1.1,0.4 3,0.2 0.3,0.1 -0.1,0.2 -0.9,0.2 1.6,-0.1 4.4,-0.1 5.2,-0.3 1.6,0.3 5.6,-0.1 5.4,0.4 0.5,-0.1 2.9,-0.3 4.4,-0.4 -2.8,0.5 5.7,0 4.9,0.6 2,-0.5 7.4,-0.2 11,-0.5 -0.2,0 -0.6,0.1 -0.9,0.1 2,0 2.6,0.2 3.9,0.3 0.3,-0.4 3.4,-0.5 5.1,-0.7 2.5,0.4 -1.5,0.5 -0.7,0.8 -0.1,-0.3 4.3,-0.3 3.5,-0.6 1.9,0.2 1.6,0.1 2.6,0.4 0.3,-0.5 1.8,-0.1 3.4,-0.4 2.8,0.2 0.7,0.5 3.7,0.3 1.4,0.2 -1.3,0.4 -1.3,0.4 z m 72.2,-0.9 0,0 c -0.6,0 -1.2,0 -1.5,0 0.3,0.1 0.8,0.1 1.5,0 z m 6.1,0 c -0.7,0 -1.7,0 -2.6,0 -0.2,-0.1 0,-0.2 0.6,-0.2 -0.4,0.1 1.1,0.2 2,0.2 z m -12.9,-1.9 c 1,0 1.3,0 1.4,0.1 -0.5,0 -1,0 -1.7,0 l -0.1,0 c 0.2,0 0.3,-0.1 0.4,-0.1 z"
                   id="path520"
                   inkscape:connector-curvature="0"
                   style="fill:#1d1d1d" /><path
                   class="st0"
                   d="m 623.6,317.7 c -0.1,0 -0.2,0 -0.4,0 0.2,0 0.4,0 0.6,0.1 0.1,0 0.2,-0.1 0.3,-0.1 -0.1,0 -0.3,0 -0.5,0 z"
                   id="path522"
                   inkscape:connector-curvature="0"
                   style="fill:#1d1d1d" /><path
                   class="st0"
                   d="m 507.2,212.9 0.1,0 c -0.1,0 -0.2,0 -0.3,0 0.1,0 0.1,0 0.2,0 z"
                   id="path524"
                   inkscape:connector-curvature="0"
                   style="fill:#1d1d1d" /><polygon
                   class="st0"
                   points="722,319.8 722,319.7 721.4,319.8 "
                   id="polygon526"
                   style="fill:#1d1d1d" /><path
                   class="st0"
                   d="m 492,231.2 c 0,0.1 -0.1,0.2 -0.1,0.4 0,0 0,-0.1 0.1,-0.4 z"
                   id="path528"
                   inkscape:connector-curvature="0"
                   style="fill:#1d1d1d" /><path
                   class="st0"
                   d="m 491.9,245.7 -0.1,2 c 0,-0.9 0.1,-1.5 0.1,-2 z"
                   id="path530"
                   inkscape:connector-curvature="0"
                   style="fill:#1d1d1d" /><path
                   class="st0"
                   d="m 491.8,256.8 c 0,0.1 0.1,0.2 0.1,0.2 l 0,0 -0.1,-0.2 z"
                   id="path532"
                   inkscape:connector-curvature="0"
                   style="fill:#1d1d1d" /><path
                   class="st0"
                   d="m 624.8,211.4 c 0.1,0 0.3,0 0.4,0 1,0 0.3,0 -0.4,0 z"
                   id="path534"
                   inkscape:connector-curvature="0"
                   style="fill:#1d1d1d" /><path
                   class="st0"
                   d="m 572.2,212.1 c 0.6,-0.1 1.1,-0.1 1.7,-0.1 -0.9,-0.1 -1.7,-0.1 -1.7,0.1 z"
                   id="path536"
                   inkscape:connector-curvature="0"
                   style="fill:#1d1d1d" /><path
                   class="st0"
                   d="m 683.4,211.1 0,0 c 0.1,0 0.2,0 0.4,0 l -0.4,0 z"
                   id="path538"
                   inkscape:connector-curvature="0"
                   style="fill:#1d1d1d" /><path
                   class="st0"
                   d="m 576.4,211.9 c -0.9,-0.1 -1.7,0 -2.4,0 0.7,0.1 1.6,0.1 2.4,0 z"
                   id="path540"
                   inkscape:connector-curvature="0"
                   style="fill:#1d1d1d" /><path
                   class="st0"
                   d="m 491.6,304.9 0,0.5 c 0,0 0,0 0,0.1 l 0,-0.6 z"
                   id="path542"
                   inkscape:connector-curvature="0"
                   style="fill:#1d1d1d" /><path
                   class="st0"
                   d="m 491.7,305.5 0,0.6 c 0,-0.3 0,-0.5 0,-0.6 z"
                   id="path544"
                   inkscape:connector-curvature="0"
                   style="fill:#1d1d1d" /><path
                   class="st0"
                   d="m 491.8,307.3 -0.1,-1.3 c 0,0.5 0,1 0.1,1.3 z"
                   id="path546"
                   inkscape:connector-curvature="0"
                   style="fill:#1d1d1d" /><path
                   class="st0"
                   d="m 491.8,290.2 -0.1,-0.2 c 0,0.1 0,0.2 0.1,0.2 z"
                   id="path548"
                   inkscape:connector-curvature="0"
                   style="fill:#1d1d1d" /><path
                   class="st0"
                   d="m 491.7,285.7 c 0,1.1 -0.2,2.7 -0.2,4.2 l 0.1,0.1 c -0.1,-0.7 0.3,-3.3 0.1,-4.3 z"
                   id="path550"
                   inkscape:connector-curvature="0"
                   style="fill:#1d1d1d" /><path
                   class="st0"
                   d="m 493,267.1 -0.1,3.7 c 0.1,-0.7 0.3,-1.5 0.3,0.2 0.3,-4.7 -0.3,1 -0.2,-3.9 z"
                   id="path552"
                   inkscape:connector-curvature="0"
                   style="fill:#1d1d1d" /><path
                   class="st0"
                   d="m 493.1,255.5 c 0.1,2 0.2,0 0.2,0.1 0,-1.3 -0.1,-1.6 -0.2,-0.1 z"
                   id="path554"
                   inkscape:connector-curvature="0"
                   style="fill:#1d1d1d" /><path
                   class="st0"
                   d="m 533.4,213.1 -0.2,0.3 c 1.5,0 0,-0.1 0.2,-0.3 z"
                   id="path556"
                   inkscape:connector-curvature="0"
                   style="fill:#1d1d1d" /><polygon
                   class="st0"
                   points="549.4,211.8 547.9,211.7 547.2,211.9 "
                   id="polygon558"
                   style="fill:#1d1d1d" /><polygon
                   class="st0"
                   points="558.9,213.6 558.2,213.7 560.8,213.6 "
                   id="polygon560"
                   style="fill:#1d1d1d" /><path
                   class="st0"
                   d="m 699.7,213.6 -0.5,-0.3 c -1,0 -1.2,0.3 0.5,0.3 z"
                   id="path562"
                   inkscape:connector-curvature="0"
                   style="fill:#1d1d1d" /><path
                   class="st0"
                   d="m 760.5,213.2 c 0.7,0.2 2.4,0.3 3.4,0.1 -1.3,0 -2.7,-0.1 -3.4,-0.1 z"
                   id="path564"
                   inkscape:connector-curvature="0"
                   style="fill:#1d1d1d" /><polygon
                   class="st0"
                   points="738.1,317.3 739.3,317.2 737,317.2 "
                   id="polygon566"
                   style="fill:#1d1d1d" /></g></g></g></g></g></g></g></svg>