<?xml version="1.0" encoding="UTF-8" standalone="no"?>
<!-- Created with Inkscape (http://www.inkscape.org/) -->

<svg
   xmlns:dc="http://purl.org/dc/elements/1.1/"
   xmlns:cc="http://creativecommons.org/ns#"
   xmlns:rdf="http://www.w3.org/1999/02/22-rdf-syntax-ns#"
   xmlns:svg="http://www.w3.org/2000/svg"
   xmlns="http://www.w3.org/2000/svg"
   xmlns:sodipodi="http://sodipodi.sourceforge.net/DTD/sodipodi-0.dtd"
   xmlns:inkscape="http://www.inkscape.org/namespaces/inkscape"
   id="svg2"
   version="1.1"
   inkscape:version="0.91 r13725"
   xml:space="preserve"
   width="200.90599"
   height="5.9715037"
   viewBox="0 0 200.90599 5.9715037"
   sodipodi:docname="divider_small.svg"><metadata
     id="metadata8"><rdf:RDF><cc:Work
         rdf:about=""><dc:format>image/svg+xml</dc:format><dc:type
           rdf:resource="http://purl.org/dc/dcmitype/StillImage" /><dc:title></dc:title></cc:Work></rdf:RDF></metadata><defs
     id="defs6"><clipPath
       clipPathUnits="userSpaceOnUse"
       id="clipPath20"><path
         d="m 0,0 419.528,0 0,595.276 L 0,595.276 0,0 Z"
         id="path22"
         inkscape:connector-curvature="0" /></clipPath><clipPath
       clipPathUnits="userSpaceOnUse"
       id="clipPath76"><path
         d="m 0,0 419.528,0 0,595.276 L 0,595.276 0,0 Z"
         id="path78"
         inkscape:connector-curvature="0" /></clipPath><clipPath
       clipPathUnits="userSpaceOnUse"
       id="clipPath116"><path
         d="m 0,0 419.528,0 0,595.276 L 0,595.276 0,0 Z"
         id="path118"
         inkscape:connector-curvature="0" /></clipPath><clipPath
       clipPathUnits="userSpaceOnUse"
       id="clipPath184"><path
         d="m 0,0 419.528,0 0,595.276 L 0,595.276 0,0 Z"
         id="path186"
         inkscape:connector-curvature="0" /></clipPath><clipPath
       clipPathUnits="userSpaceOnUse"
       id="clipPath312"><path
         d="m 0,0 419.528,0 0,595.276 L 0,595.276 0,0 Z"
         id="path314"
         inkscape:connector-curvature="0" /></clipPath><clipPath
       clipPathUnits="userSpaceOnUse"
       id="clipPath332"><path
         d="m 0,0 419.528,0 0,595.276 L 0,595.276 0,0 Z"
         id="path334"
         inkscape:connector-curvature="0" /></clipPath><clipPath
       clipPathUnits="userSpaceOnUse"
       id="clipPath356"><path
         d="m 0,0 419.528,0 0,595.276 L 0,595.276 0,0 Z"
         id="path358"
         inkscape:connector-curvature="0" /></clipPath><clipPath
       clipPathUnits="userSpaceOnUse"
       id="clipPath376"><path
         d="m 0,0 419.528,0 0,595.276 L 0,595.276 0,0 Z"
         id="path378"
         inkscape:connector-curvature="0" /></clipPath></defs><sodipodi:namedview
     pagecolor="#ffffff"
     bordercolor="#666666"
     borderopacity="1"
     objecttolerance="10"
     gridtolerance="10"
     guidetolerance="10"
     inkscape:pageopacity="0"
     inkscape:pageshadow="2"
     inkscape:window-width="1920"
     inkscape:window-height="1017"
     id="namedview4"
     showgrid="false"
     fit-margin-top="0"
     fit-margin-left="0"
     fit-margin-right="0"
     fit-margin-bottom="0"
     inkscape:zoom="5.074621"
     inkscape:cx="111.07788"
     inkscape:cy="8.6906093"
     inkscape:window-x="-4"
     inkscape:window-y="-4"
     inkscape:window-maximized="1"
     inkscape:current-layer="g10" /><g
     id="g10"
     inkscape:groupmode="layer"
     inkscape:label="Lijn onder ververs winkelwagen"
     transform="matrix(1.25,0,0,-1.25,-173.57426,372.8385)"><g
       id="g12"
       transform="matrix(1.1230701,0,0,2.2778958,298.99234,296.64711)"><path
         d="M 0,0 0.464,0.067 0.527,0.113 0,0 Z"
         style="fill:#231f20;fill-opacity:1;fill-rule:nonzero;stroke:none"
         id="path14"
         inkscape:connector-curvature="0" /></g><g
       id="g16"
       transform="matrix(1.1230701,0,0,2.2778958,-17.089435,-381.159)"><g
         id="g18"
         clip-path="url(#clipPath20)"><g
           id="g24"
           transform="translate(278.5632,297.6272)"><path
             d="M 0,0 C 0.316,-0.194 1.212,0.031 1.808,-0.038 L 1.907,-0.082 2.175,0.074 C 1.451,0.049 0.51,-0.054 0,0"
             style="fill:#231f20;fill-opacity:1;fill-rule:nonzero;stroke:none"
             id="path26"
             inkscape:connector-curvature="0" /></g><g
           id="g28"
           transform="translate(276.7793,298.0468)"><path
             d="M 0,0 C 0.11,-0.076 -0.386,-0.065 0.416,-0.024 0.376,-0.014 0.364,-0.011 0.341,-0.005 0.269,-0.004 0.169,-0.002 0,0"
             style="fill:#231f20;fill-opacity:1;fill-rule:nonzero;stroke:none"
             id="path30"
             inkscape:connector-curvature="0" /></g><g
           id="g32"
           transform="translate(277.1199,298.0422)"><path
             d="M 0,0 C 0.352,0.005 -0.231,0.063 0,0"
             style="fill:#231f20;fill-opacity:1;fill-rule:nonzero;stroke:none"
             id="path34"
             inkscape:connector-curvature="0" /></g><g
           id="g36"
           transform="translate(275.4928,297.9988)"><path
             d="M 0,0 0.464,0.067 C 0.367,0.112 -0.046,0.122 0.108,0.155 -0.369,0.118 -0.271,0.073 0,0"
             style="fill:#231f20;fill-opacity:1;fill-rule:nonzero;stroke:none"
             id="path38"
             inkscape:connector-curvature="0" /></g><g
           id="g40"
           transform="translate(275.0527,297.8574)"><path
             d="M 0,0 0.24,0.028 C 0.198,0.047 0.135,0.054 0,0"
             style="fill:#231f20;fill-opacity:1;fill-rule:nonzero;stroke:none"
             id="path42"
             inkscape:connector-curvature="0" /></g><g
           id="g44"
           transform="translate(275.8033,297.946)"><path
             d="m 0,0 -0.51,-0.06 c 0.067,-0.031 0.074,-0.094 0.234,0.022 C -0.318,-0.096 -0.217,-0.04 0,0"
             style="fill:#231f20;fill-opacity:1;fill-rule:nonzero;stroke:none"
             id="path46"
             inkscape:connector-curvature="0" /></g><g
           id="g48"
           transform="translate(276.0919,297.9165)"><path
             d="M 0,0 C 0.26,-0.042 0.597,-0.069 0.131,-0.136 1.019,-0.109 0.888,0.027 0,0"
             style="fill:#231f20;fill-opacity:1;fill-rule:nonzero;stroke:none"
             id="path50"
             inkscape:connector-curvature="0" /></g><g
           id="g52"
           transform="translate(278.3923,297.4265)"><path
             d="M 0,0 0.348,-0.057 0.649,0.008 C 0.499,-0.024 -0.022,0.061 0,0"
             style="fill:#231f20;fill-opacity:1;fill-rule:nonzero;stroke:none"
             id="path54"
             inkscape:connector-curvature="0" /></g><g
           id="g56"
           transform="translate(272.6018,298.0993)"><path
             d="m 0,0 c -0.029,-0.041 0.156,-0.11 0.191,-0.163 l 0.342,0.048 C 0.357,-0.087 0.023,-0.061 0,0"
             style="fill:#231f20;fill-opacity:1;fill-rule:nonzero;stroke:none"
             id="path58"
             inkscape:connector-curvature="0" /></g><g
           id="g60"
           transform="translate(272.7924,297.9365)"><path
             d="M 0,0 -0.513,-0.071 C -0.055,-0.079 0.029,-0.045 0,0"
             style="fill:#231f20;fill-opacity:1;fill-rule:nonzero;stroke:none"
             id="path62"
             inkscape:connector-curvature="0" /></g></g></g><g
       id="g64"
       transform="matrix(1.1230701,0,0,2.2778958,291.53898,296.83368)"><path
         d="M 0,0 0.162,0.002 1.004,0.151 0,0 Z"
         style="fill:#231f20;fill-opacity:1;fill-rule:nonzero;stroke:none"
         id="path66"
         inkscape:connector-curvature="0" /></g><g
       id="g68"
       transform="matrix(1.1230701,0,0,2.2778958,286.60645,297.78083)"><path
         d="M 0,0 0.227,0.049 0.517,0.144 0,0 Z"
         style="fill:#231f20;fill-opacity:1;fill-rule:nonzero;stroke:none"
         id="path70"
         inkscape:connector-curvature="0" /></g><g
       id="g72"
       transform="matrix(1.1230701,0,0,2.2778958,-17.089435,-381.159)"><g
         id="g74"
         clip-path="url(#clipPath76)"><g
           id="g80"
           transform="translate(269.3435,298.0878)"><path
             d="M 0,0 C 0.215,0.079 -0.295,0.134 -0.068,0.183 -0.421,0.169 -0.722,0.1 -0.993,0.039 -0.705,0.074 -0.397,0.065 0,0"
             style="fill:#231f20;fill-opacity:1;fill-rule:nonzero;stroke:none"
             id="path82"
             inkscape:connector-curvature="0" /></g><g
           id="g84"
           transform="translate(267.8947,298.0381)"><path
             d="M 0,0 C 0.144,0.019 0.293,0.053 0.456,0.089 0.302,0.071 0.152,0.044 0,0"
             style="fill:#231f20;fill-opacity:1;fill-rule:nonzero;stroke:none"
             id="path86"
             inkscape:connector-curvature="0" /></g><g
           id="g88"
           transform="translate(271.4058,297.8861)"><path
             d="M 0,0 C -0.04,0.025 -0.116,0.09 -0.404,0.118 L -0.202,0.002 C -0.14,0.001 -0.071,0.001 0,0"
             style="fill:#231f20;fill-opacity:1;fill-rule:nonzero;stroke:none"
             id="path90"
             inkscape:connector-curvature="0" /></g><g
           id="g92"
           transform="translate(271.2109,297.8842)"><path
             d="M 0,0 -0.007,0.004 C -0.226,0.007 -0.378,0.009 -0.443,0.01 -0.387,0.009 -0.254,0.006 0,0"
             style="fill:#231f20;fill-opacity:1;fill-rule:nonzero;stroke:none"
             id="path94"
             inkscape:connector-curvature="0" /></g><g
           id="g96"
           transform="translate(271.4567,297.8857)"><path
             d="M 0,0 C -0.019,0 -0.032,0 -0.051,0 -0.031,-0.011 -0.02,-0.015 0,0"
             style="fill:#231f20;fill-opacity:1;fill-rule:nonzero;stroke:none"
             id="path98"
             inkscape:connector-curvature="0" /></g><g
           id="g100"
           transform="translate(273.6255,297.747)"><path
             d="M 0,0 C -0.301,-0.065 -0.93,-0.134 -0.322,-0.233 -0.105,-0.154 -0.454,-0.098 0,0"
             style="fill:#231f20;fill-opacity:1;fill-rule:nonzero;stroke:none"
             id="path102"
             inkscape:connector-curvature="0" /></g><g
           id="g104"
           transform="translate(271.7072,297.7404)"><path
             d="M 0,0 0.545,-0.026 C 0.534,0.004 0.436,0.049 0.585,0.081 L 0,0 Z"
             style="fill:#231f20;fill-opacity:1;fill-rule:nonzero;stroke:none"
             id="path106"
             inkscape:connector-curvature="0" /></g></g></g><g
       id="g108"
       transform="matrix(1.1230701,0,0,2.2778958,287.7567,296.97923)"><path
         d="M 0,0 0.267,0.037 0.065,0.047 0,0 Z"
         style="fill:#231f20;fill-opacity:1;fill-rule:nonzero;stroke:none"
         id="path110"
         inkscape:connector-curvature="0" /></g><g
       id="g112"
       transform="matrix(1.1230701,0,0,2.2778958,-17.089435,-381.159)"><g
         id="g114"
         clip-path="url(#clipPath116)"><g
           id="g120"
           transform="translate(268.8279,297.9294)"><path
             d="M 0,0 C -0.235,-0.05 -0.493,-0.055 -0.784,-0.063 -0.472,-0.086 -0.15,-0.098 0.156,-0.098 0.199,-0.061 0.334,0.004 0,0"
             style="fill:#231f20;fill-opacity:1;fill-rule:nonzero;stroke:none"
             id="path122"
             inkscape:connector-curvature="0" /></g><g
           id="g124"
           transform="translate(269.9858,297.8972)"><path
             d="M 0,0 C -0.016,-0.002 -0.037,-0.005 -0.052,-0.007 -0.02,-0.016 0.006,-0.02 0,0"
             style="fill:#231f20;fill-opacity:1;fill-rule:nonzero;stroke:none"
             id="path126"
             inkscape:connector-curvature="0" /></g><g
           id="g128"
           transform="translate(265.1815,297.8674)"><path
             d="m 0,0 c 0.016,-0.007 0.03,-0.014 0.046,-0.021 0.004,0.007 0.006,0.013 0.011,0.02 L 0,0 Z"
             style="fill:#231f20;fill-opacity:1;fill-rule:nonzero;stroke:none"
             id="path130"
             inkscape:connector-curvature="0" /></g><g
           id="g132"
           transform="translate(269.0364,297.8101)"><path
             d="M 0,0 C 0.234,-0.022 0.374,0.006 0.508,0.042 0.333,0.03 0.147,0.022 -0.052,0.022 -0.072,0.005 -0.075,-0.006 0,0"
             style="fill:#231f20;fill-opacity:1;fill-rule:nonzero;stroke:none"
             id="path134"
             inkscape:connector-curvature="0" /></g><g
           id="g136"
           transform="translate(267.0959,297.9839)"><path
             d="M 0,0 C 0.122,-0.024 0.26,-0.045 0.406,-0.064 0.286,-0.027 0.043,0.03 0,0"
             style="fill:#231f20;fill-opacity:1;fill-rule:nonzero;stroke:none"
             id="path138"
             inkscape:connector-curvature="0" /></g><g
           id="g140"
           transform="translate(269.8547,297.9228)"><path
             d="M 0,0 C 0.012,0.002 0.022,0.003 0.035,0.005 -0.042,0.03 -0.032,0.018 0,0"
             style="fill:#231f20;fill-opacity:1;fill-rule:nonzero;stroke:none"
             id="path142"
             inkscape:connector-curvature="0" /></g><g
           id="g144"
           transform="translate(269.8547,297.9228)"><path
             d="m 0,0 c -0.121,-0.017 -0.215,-0.045 -0.311,-0.071 0.143,0.009 0.275,0.022 0.39,0.039 C 0.05,-0.024 0.021,-0.011 0,0"
             style="fill:#231f20;fill-opacity:1;fill-rule:nonzero;stroke:none"
             id="path146"
             inkscape:connector-curvature="0" /></g><g
           id="g148"
           transform="translate(264.3141,297.1221)"><path
             d="M 0,0 C 0.042,0.108 0.657,0.207 1.189,0.092 1.712,0.172 1.37,0.526 0.913,0.724 0.897,0.677 0.897,0.634 0.359,0.57 0.547,0.512 1.553,0.433 1.099,0.335 0.386,0.28 0.515,0.373 0.168,0.431 0.463,0.296 -0.739,0.235 -0.584,0.038 l 0.626,0.07 C 0.053,0.077 -0.174,0.028 0,0"
             style="fill:#231f20;fill-opacity:1;fill-rule:nonzero;stroke:none"
             id="path150"
             inkscape:connector-curvature="0" /></g><g
           id="g152"
           transform="translate(266.2533,297.8352)"><path
             d="M 0,0 0.221,0.013 C -0.031,0.032 -0.212,0.075 -0.545,0.159 -0.913,0.107 -0.99,0.067 -1.015,0.031 L 0.076,0.016 0,0 Z"
             style="fill:#231f20;fill-opacity:1;fill-rule:nonzero;stroke:none"
             id="path154"
             inkscape:connector-curvature="0" /></g><g
           id="g156"
           transform="translate(267.4695,297.8491)"><path
             d="m 0,0 c -0.173,-0.117 -0.705,-0.167 -0.379,-0.293 0.65,0.007 0.455,0.097 0.844,0.148 C -0.584,-0.174 0.766,-0.08 0.008,-0.013 0.214,0.006 0.4,0.013 0.575,0.018 0.386,0.036 0.204,0.054 0.032,0.071 0.042,0.068 0.048,0.066 0.056,0.064 l 0.005,0 C 0.061,0.063 0.06,0.063 0.06,0.062 0.105,0.048 0.12,0.039 0.069,0.047 0.066,0.047 0.053,0.045 0.047,0.045 0.04,0.029 0.021,0.014 0,0.001 -0.304,0.025 -0.048,0.031 0.047,0.045 0.051,0.051 0.059,0.056 0.06,0.062 0.059,0.063 0.058,0.063 0.056,0.064 L -0.995,0 C -0.772,-0.017 -0.494,-0.013 0,0"
             style="fill:#231f20;fill-opacity:1;fill-rule:nonzero;stroke:none"
             id="path158"
             inkscape:connector-curvature="0" /></g><g
           id="g160"
           transform="translate(272.7433,297.2618)"><path
             d="M 0,0 C -0.033,0.01 -0.031,0.019 -0.034,0.027 -0.102,0.013 -0.127,0.003 0,0"
             style="fill:#231f20;fill-opacity:1;fill-rule:nonzero;stroke:none"
             id="path162"
             inkscape:connector-curvature="0" /></g><g
           id="g164"
           transform="translate(272.3109,297.3325)"><path
             d="M 0,0 C 0.077,0.016 0.14,0.063 0.388,0.051 0.604,0.016 0.387,-0.005 0.399,-0.044 0.548,-0.013 0.923,0.04 0.453,0.097 L 0.379,0.081 C -0.044,0.122 -0.588,0.268 -0.514,0.284 -0.39,0.178 -0.281,0.103 0,0"
             style="fill:#231f20;fill-opacity:1;fill-rule:nonzero;stroke:none"
             id="path166"
             inkscape:connector-curvature="0" /></g><g
           id="g168"
           transform="translate(269.8599,297.5609)"><path
             d="m 0,0 -0.875,-0.057 0.446,-0.102 -0.023,0.061 C 0.046,-0.122 -0.062,-0.047 0,0"
             style="fill:#231f20;fill-opacity:1;fill-rule:nonzero;stroke:none"
             id="path170"
             inkscape:connector-curvature="0" /></g></g></g><g
       id="g172"
       transform="matrix(1.1230701,0,0,2.2778958,280.178,297.36875)"><path
         d="M 0,0 0.39,0.05 0.506,0.175 0,0 Z"
         style="fill:#231f20;fill-opacity:1;fill-rule:nonzero;stroke:none"
         id="path174"
         inkscape:connector-curvature="0" /></g><g
       id="g176"
       transform="matrix(1.1230701,0,0,2.2778958,279.04797,297.54711)"><path
         d="M 0,0 0.258,-0.042 0.301,0.066 0,0 Z"
         style="fill:#231f20;fill-opacity:1;fill-rule:nonzero;stroke:none"
         id="path178"
         inkscape:connector-curvature="0" /></g><g
       id="g180"
       transform="matrix(1.1230701,0,0,2.2778958,-17.089435,-381.159)"><g
         id="g182"
         clip-path="url(#clipPath184)"><g
           id="g188"
           transform="translate(199.7682,296.5766)"><path
             d="M 0,0 -0.257,-0.03 C -0.135,-0.021 -0.057,-0.011 0,0"
             style="fill:#231f20;fill-opacity:1;fill-rule:nonzero;stroke:none"
             id="path190"
             inkscape:connector-curvature="0" /></g><g
           id="g192"
           transform="translate(201.6299,296.5693)"><path
             d="M 0,0 0.046,0.053 C -0.041,0.024 -0.076,0.002 0,0"
             style="fill:#231f20;fill-opacity:1;fill-rule:nonzero;stroke:none"
             id="path194"
             inkscape:connector-curvature="0" /></g><g
           id="g196"
           transform="translate(236.0135,297.8989)"><path
             d="M 0,0 C -0.375,0.1 -0.793,0.256 -0.748,0.135 L -0.633,0.017 C -0.371,0.038 -0.17,0.025 0,0"
             style="fill:#231f20;fill-opacity:1;fill-rule:nonzero;stroke:none"
             id="path198"
             inkscape:connector-curvature="0" /></g><g
           id="g200"
           transform="translate(216.8849,297.1948)"><path
             d="M 0,0 C 0.036,-0.012 0.073,-0.024 0.11,-0.036 0.201,0.005 0.286,0.043 0.363,0.077 0.254,0.054 0.13,0.028 0,0"
             style="fill:#231f20;fill-opacity:1;fill-rule:nonzero;stroke:none"
             id="path202"
             inkscape:connector-curvature="0" /></g><g
           id="g204"
           transform="translate(216.6206,296.707)"><path
             d="M 0,0 -0.494,0.076 C -0.383,0.05 -0.224,0.024 0,0"
             style="fill:#231f20;fill-opacity:1;fill-rule:nonzero;stroke:none"
             id="path206"
             inkscape:connector-curvature="0" /></g><g
           id="g208"
           transform="translate(189.6006,296.4515)"><path
             d="M 0,0 -0.3,-0.12 C 0.169,-0.119 -0.037,-0.059 0,0"
             style="fill:#231f20;fill-opacity:1;fill-rule:nonzero;stroke:none"
             id="path210"
             inkscape:connector-curvature="0" /></g><g
           id="g212"
           transform="translate(252.2965,297.8674)"><path
             d="M 0,0 C -0.323,0.046 -0.58,0.065 -0.807,0.071 -0.417,0.003 -0.103,-0.098 0,0"
             style="fill:#231f20;fill-opacity:1;fill-rule:nonzero;stroke:none"
             id="path214"
             inkscape:connector-curvature="0" /></g><g
           id="g216"
           transform="translate(200.5009,297.8276)"><path
             d="M 0,0 C -0.157,-0.021 -0.225,-0.045 -0.22,-0.072 -0.058,-0.051 0.034,-0.029 0,0"
             style="fill:#231f20;fill-opacity:1;fill-rule:nonzero;stroke:none"
             id="path218"
             inkscape:connector-curvature="0" /></g><g
           id="g220"
           transform="translate(250.5565,297.9382)"><path
             d="M 0,0 C 0.057,-0.009 0.113,-0.018 0.171,-0.028 0.407,-0.008 0.645,0.008 0.933,0 0.646,0.051 0.317,0.082 0,0"
             style="fill:#231f20;fill-opacity:1;fill-rule:nonzero;stroke:none"
             id="path222"
             inkscape:connector-curvature="0" /></g><g
           id="g224"
           transform="translate(152.726,296.5493)"><path
             d="M 0,0 C -0.027,0.004 -0.059,0.01 -0.083,0.014 -0.092,-0.002 -0.055,-0.003 0,0"
             style="fill:#231f20;fill-opacity:1;fill-rule:nonzero;stroke:none"
             id="path226"
             inkscape:connector-curvature="0" /></g><g
           id="g228"
           transform="translate(141.983,297.7389)"><path
             d="M 0,0 C 0.106,0.002 0.278,0.006 0.441,0.009 0.362,0.017 0.229,0.016 0,0"
             style="fill:#231f20;fill-opacity:1;fill-rule:nonzero;stroke:none"
             id="path230"
             inkscape:connector-curvature="0" /></g><g
           id="g232"
           transform="translate(259.3683,297.9622)"><path
             d="M 0,0 C 0.241,0.008 0.038,0.013 0,0"
             style="fill:#231f20;fill-opacity:1;fill-rule:nonzero;stroke:none"
             id="path234"
             inkscape:connector-curvature="0" /></g><g
           id="g236"
           transform="translate(260.5413,297.4961)"><path
             d="M 0,0 C -0.051,-0.013 -0.09,-0.03 -0.096,-0.057 -0.076,-0.029 -0.043,-0.011 0,0"
             style="fill:#231f20;fill-opacity:1;fill-rule:nonzero;stroke:none"
             id="path238"
             inkscape:connector-curvature="0" /></g><g
           id="g240"
           transform="translate(248.1539,297.2044)"><path
             d="M 0,0 C -0.007,0 -0.013,0 -0.021,0 0.051,-0.023 0.039,-0.018 0,0"
             style="fill:#231f20;fill-opacity:1;fill-rule:nonzero;stroke:none"
             id="path242"
             inkscape:connector-curvature="0" /></g><g
           id="g244"
           transform="translate(259.7312,297.9086)"><path
             d="M 0,0 C -0.09,0.015 -0.195,0.027 -0.308,0.035 -0.259,0.026 -0.165,0.015 0,0"
             style="fill:#231f20;fill-opacity:1;fill-rule:nonzero;stroke:none"
             id="path246"
             inkscape:connector-curvature="0" /></g><g
           id="g248"
           transform="translate(259.6825,297.9645)"><path
             d="M 0,0 C 0.083,-0.005 0.149,-0.008 0.211,-0.011 0.241,0.008 0.214,0.021 0,0"
             style="fill:#231f20;fill-opacity:1;fill-rule:nonzero;stroke:none"
             id="path250"
             inkscape:connector-curvature="0" /></g><g
           id="g252"
           transform="translate(259.0323,297.9561)"><path
             d="M 0,0 C 0.138,0.002 0.267,-0.004 0.39,-0.012 0.343,-0.004 0.323,0.002 0.336,0.006 0.265,0.005 0.166,0.003 0,0"
             style="fill:#231f20;fill-opacity:1;fill-rule:nonzero;stroke:none"
             id="path254"
             inkscape:connector-curvature="0" /></g><g
           id="g256"
           transform="translate(172.4835,296.8648)"><path
             d="M 0,0 C -0.016,0.003 -0.034,0.007 -0.052,0.011 -0.295,-0.038 -0.188,-0.03 0,0"
             style="fill:#231f20;fill-opacity:1;fill-rule:nonzero;stroke:none"
             id="path258"
             inkscape:connector-curvature="0" /></g><g
           id="g260"
           transform="translate(229.736,296.6744)"><path
             d="M 0,0 C 0.011,0.003 0.017,0.004 0.028,0.006 0.016,0.007 0.002,0.009 -0.008,0.01 L 0,0 Z"
             style="fill:#231f20;fill-opacity:1;fill-rule:nonzero;stroke:none"
             id="path262"
             inkscape:connector-curvature="0" /></g><g
           id="g264"
           transform="translate(228.8696,296.5867)"><path
             d="M 0,0 C 0.369,0.147 0.579,0.129 0.858,0.098 L 0.572,0.438 0,0 Z"
             style="fill:#231f20;fill-opacity:1;fill-rule:nonzero;stroke:none"
             id="path266"
             inkscape:connector-curvature="0" /></g><g
           id="g268"
           transform="translate(195.3105,296.5426)"><path
             d="M 0,0 0.608,-0.106 C -0.126,-0.28 -0.657,-0.22 -0.086,-0.369 0,0 2.279,-0.331 2.363,0.038 L 2.764,-0.04 C 2.649,-0.037 2.631,-0.058 2.517,-0.055 3.297,-0.231 3.097,0.212 4.102,0.16 4.452,0.131 4.696,0.078 4.458,0.034 l 0.78,0.091 C 5.465,0.118 5.41,0.054 5.183,0.061 L 6.374,0.091 6.365,0.08 C 6.535,0.138 6.92,0.227 7.107,0.265 7.41,0.212 6.956,0.226 7.033,0.18 L 7.692,0.269 C 7.961,0.174 7.415,0.081 6.959,0.095 7.575,-0.274 7.506,0.188 8.834,-0.028 L 8.212,-0.075 C 8.613,-0.284 9.099,-0.208 9.802,-0.338 9.635,-0.27 8.394,-0.01 9.109,0.082 9.311,0.055 9.577,0.041 9.962,0.116 9.966,-0.016 10.343,0.017 10.814,0.024 L 10.782,-0.15 c 0.51,0.05 0.469,0.139 0.769,0.217 0.569,-0.017 0.686,-0.152 0.82,-0.265 0.91,-0.028 -0.628,0.216 0.448,0.249 0.757,-0.067 1.288,0.004 2.194,0.108 0.529,-0.06 -0.093,-0.106 0.097,-0.156 l 0.469,0.139 c 0.115,-0.004 0.078,-0.046 0.059,-0.068 0.396,0.054 0.033,0.174 0.655,0.221 0.167,0.192 1.276,-0.28 2.046,-0.062 0.19,-0.05 -0.092,-0.107 -0.033,-0.174 1.055,0.143 0.905,0.104 1.772,0.296 l 0.738,-0.114 c -0.542,0.13 0.151,0.284 0.758,0.411 -0.192,0.063 -0.357,0.118 -0.467,0.145 l 0.969,0.093 c 0.117,-0.029 0.02,-0.088 -0.139,-0.161 0.066,0.016 0.129,0.03 0.178,0.042 0.346,-0.064 0.166,-0.165 -0.082,-0.262 -0.118,0.037 -0.235,0.072 -0.349,0.107 -0.239,-0.105 -0.463,-0.222 -0.413,-0.324 0.062,0.02 0.184,0.038 0.317,0.047 -0.062,-0.028 -0.103,-0.054 -0.073,-0.071 0.032,-0.019 0.134,0.02 0.292,0.064 l 0.22,-0.194 0.054,0.077 1.268,-0.121 c 0.907,0.195 1.697,0.482 3.137,0.562 C 26.128,0.514 26.409,0.424 26.389,0.256 25.996,0.434 25.274,0.18 24.528,0.216 24.917,0.197 24.832,0.117 24.732,0.089 l 1.331,0.162 c -0.03,-0.137 0.283,-0.103 0.631,-0.16 -0.263,0.272 0.992,0.181 1.534,0.265 0.033,-0.091 -0.097,-0.185 -0.757,-0.163 0.729,-0.205 0.942,0.32 1.657,0.146 -0.161,-0.002 -0.248,0.012 -0.312,-0.035 0.377,0.081 1.299,0.017 1.082,-0.063 L 29.737,0.24 c 1.071,-0.033 3.26,-0.002 3.42,0.229 0.011,-0.03 -0.14,-0.279 -0.205,-0.326 l 1.911,0.778 C 34.695,0.723 35.341,0.25 34.453,0.138 34.708,0.109 35.023,0.077 35.561,0.146 35.387,0.175 35.128,0.434 35.365,0.452 36.018,0.23 35.818,0.333 36.623,0.145 36.362,0.188 36.652,0.499 37.064,0.489 37,0.442 37.098,0.182 36.948,0.149 l 1.025,0.306 C 37.717,0.4 37.928,0.196 38.158,0.109 c -0.107,0.06 0.886,-0.005 1.16,0.025 l -0.435,0.071 c 1.158,-0.046 1.144,0.43 2.293,0.414 -0.139,-0.063 -0.343,-0.389 0.241,-0.427 0.268,0.156 1.186,0.752 2.202,0.873 l 0.195,-0.089 0.78,0.101 C 44.109,0.842 42.745,0.346 42.001,0.154 42.435,0.083 42.122,0.048 42.771,0.056 43,-0.028 42.417,-0.071 42.226,-0.076 l 1.511,-0.054 c -0.067,0.183 1.156,0.183 1.098,0.335 L 43.194,0.016 c -0.066,0.182 0.949,0.518 2.02,0.486 0.272,-0.073 -0.204,-0.325 -0.182,-0.386 0.139,0.063 1.017,0.12 1.115,0.076 L 45.693,0.094 C 46.289,0.025 46.666,0.336 47.382,0.162 47.629,0.15 48.12,-0.073 48.163,0.035 47.76,0.243 47.681,0.888 47.95,1.044 48.036,1.03 49.248,0.845 49.53,0.742 49.937,0.579 48.919,0.353 49.266,0.212 c 0.014,0.05 0.239,0.112 0.333,0.132 0.26,-0.043 -0.108,-0.155 0.457,-0.132 0.094,0.185 1.147,-0.016 0.266,0.156 0.552,0.053 0.587,-0.038 1.235,-0.03 -0.206,0.12 0.582,0.407 1.135,0.46 -0.033,-0.047 0.091,-0.108 0.151,-0.136 1.132,-0.017 1.739,-0.101 2.794,-0.103 0.097,-0.045 0.606,-0.099 0.389,-0.178 0.152,0.032 0.292,0.095 0.617,0.1 0.629,-0.161 -0.726,-0.025 -0.246,-0.218 0.041,0.108 0.842,0.149 1.305,0.216 -0.142,0.166 -1.07,0.032 -1.535,-0.035 -0.002,0.229 0.806,0.469 1.909,0.575 0.876,0.057 0.38,-0.148 0.532,-0.115 1.646,-0.041 1.402,0.4 2.769,0.235 0.542,-0.146 0.024,-0.291 0.144,-0.397 -0.713,-0.055 -1.095,0.093 -1.579,0.087 L 60.537,0.76 C 60.31,0.712 59.834,0.675 59.574,0.717 60.029,0.586 62.355,0.692 63.625,0.571 63.85,0.62 64.24,0.67 64.056,0.729 l -0.402,-0.02 c -0.37,0.118 0.756,0.163 0.247,0.218 0.539,0.083 1.144,0.213 1.902,0.146 L 65.946,0.907 C 65.93,0.955 65.45,1.006 65.237,0.955 65.553,1.029 66.4,0.729 66.747,0.948 l -0.532,0.115 c 0.541,0.084 1.21,0.261 1.882,0.208 C 67.791,1.436 67.942,1.252 67.465,1.445 67.879,1.205 65.744,1.455 66.41,1.203 65.919,1.427 65.561,1.298 64.92,1.488 64.94,1.433 65.147,1.383 64.583,1.41 64.557,1.394 64.497,1.374 64.459,1.362 64.442,1.364 64.436,1.365 64.421,1.366 64.432,1.364 64.44,1.362 64.452,1.36 64.427,1.352 64.425,1.35 64.464,1.357 64.598,1.333 64.707,1.305 64.751,1.274 64.471,1.148 63.573,1.152 63.27,1.086 62.935,1.112 63.41,1.149 63.227,1.208 L 62.773,1.11 c -0.045,0.123 -0.89,0.203 -0.101,0.275 L 61.962,1.39 C 61.544,1.458 60.969,1.486 60.614,1.434 60.279,1.461 59.768,1.299 60.06,1.395 L 58.946,1.319 58.936,1.35 C 57.837,1.365 56.673,1.148 55.417,1.368 55.047,1.337 54.664,1.299 54.045,1.334 L 53.925,1.44 C 53.45,1.403 52.498,1.545 52.294,1.435 51.781,1.719 49.988,1.497 49.153,1.548 L 49.122,1.41 C 48.546,1.418 47.995,1.379 47.281,1.323 l 0.044,-0.122 c -0.616,-0.1 -1.582,0.087 -2.556,0.074 0.066,0.047 0.313,0.035 0.488,0.007 -1.163,0.275 -2.454,-0.201 -3.509,0 -0.263,-0.044 -0.453,-0.029 -0.637,0.002 0.024,0 0.046,0.002 0.065,0.006 -0.027,0 -0.067,10e-4 -0.108,10e-4 C 40.952,1.312 40.832,1.333 40.703,1.356 40.813,1.327 40.918,1.302 41.01,1.291 40.807,1.288 40.5,1.273 40.199,1.243 L 40.07,1.374 C 40.046,1.372 40.026,1.371 40.001,1.37 39.705,1.418 39.763,1.308 39.921,1.21 39.769,1.188 39.63,1.162 39.522,1.131 39.282,1.342 38.731,1.059 38.403,1.285 38.2,1.175 36.888,1.202 36.728,0.971 36.718,1.001 36.629,1.015 36.792,1.017 36.455,1.044 36.12,1.07 35.818,1.005 L 35.676,1.171 34.942,0.947 C 34.496,1.049 34.312,1.108 34.754,1.236 33.686,1.039 33.887,1.161 32.979,0.966 l 0.044,0.108 C 32.698,1.07 32.179,0.926 31.983,1.015 31.256,1.219 28.387,1.043 26.522,1.233 26.884,0.916 25.655,1.375 25.581,1.129 25.473,1.204 25.213,1.247 25.515,1.312 24.563,1.238 24.085,1.431 23.428,1.223 23.319,1.299 23.631,1.333 23.534,1.378 23.458,1.362 23.232,1.313 23.133,1.357 23.036,1.402 23.272,1.42 23.423,1.453 22.451,1.44 22.352,1.21 22.281,0.993 21.789,1.095 21.543,1.081 21.187,0.939 21.015,1.01 20.729,1.084 21.333,1.109 20.994,1.12 19.257,1.213 19.222,1.039 19.116,1.083 18.747,1.052 18.658,1.032 17.895,1.043 17.828,1.058 17.079,1.042 L 17.287,1.014 C 16.991,0.804 16.664,0.967 16.06,0.941 l 0.018,0.022 c -1.385,0.151 -0.598,-0.072 -1.964,0.1 l 0.074,-0.13 C 14.061,0.652 12.978,1.098 12.186,0.991 L 12.472,0.916 C 12.039,0.821 11.262,1.298 10.827,1.333 10.732,1.357 10.977,1.372 11.109,1.39 9.971,1.555 10.961,1.219 10.113,1.179 9.957,1.272 10.315,1.414 9.744,1.431 9.459,1.505 8.088,1.132 7.309,1.308 7.481,1.237 7.651,1.167 7.257,1.113 6.653,1.088 5.625,1.382 5.079,1.158 5.002,1.177 4.973,1.196 4.97,1.213 4.509,1.156 3.47,1.118 3.192,0.996 2.765,1.447 0.322,0.777 0.332,1.193 L -1.087,1.17 -1.05,1.213 C -1.958,1.24 -2.279,1.141 -2.598,1.041 -2.808,1.069 -2.654,1.108 -2.637,1.13 -3.963,1.213 -4.095,1.196 -5.207,0.989 l -0.116,0.135 c -0.301,-0.079 -1.917,0.211 -3.218,0.054 0.013,0.015 0.04,0.041 0.143,0.06 -1.463,-0.158 -3.503,0.374 -4.039,-0.117 L -13.403,1 c 1.249,-0.038 -0.186,-0.212 0.328,-0.294 -0.491,-0.029 -1.27,0.148 -0.666,0.173 l 0.094,-0.024 c 0.222,0.255 -1.553,0.09 -1.519,0.264 -2.458,-0.012 -4.855,0.129 -7.157,0.14 l 0.265,-0.199 -0.803,0.012 c -0.211,0.046 -0.283,0.155 0.29,0.147 -0.302,0.113 -0.961,-0.094 -0.978,-0.138 -1.122,0.081 0.439,0.232 0.094,0.237 l -0.467,-0.015 0.106,-0.023 c -0.379,-0.081 -0.413,-0.167 -1.102,-0.158 -0.435,0.04 -0.223,0.123 -0.395,0.131 10e-4,0.007 -0.013,0.012 -0.054,0.014 -0.04,0.001 -0.106,-10e-4 -0.209,-0.009 l -1.012,0.017 0.405,-0.157 c -0.449,-0.077 -0.952,0.009 -0.485,-0.169 -0.685,0.274 -3.775,0.098 -4.196,0.184 -0.628,-0.115 -1.248,-0.113 -2.016,-0.099 0.191,-0.033 0.305,-0.209 -0.358,-0.188 0.243,0.364 -1.213,0.158 -1.748,0.42 0.478,-0.173 -1.884,-0.043 -1.133,-0.289 -0.553,0.029 -0.034,0.136 -0.453,0.222 -1.316,-0.141 -2.9,0.091 -4.527,0.044 -0.025,-0.048 0.247,-0.121 -0.102,-0.192 l -0.858,0.239 c -0.321,-0.024 -0.296,-0.276 -0.883,-0.11 0.083,-0.04 0.207,-0.101 -0.009,-0.116 -3.186,0.233 -6.511,-0.191 -9.747,0.247 0.438,-0.093 0.146,-0.102 -0.188,-0.106 0.217,-0.022 -0.005,-0.118 0.037,-0.182 l -1.354,0.179 C -54.45,1.023 -55.656,1.19 -55.797,1.018 l 0.429,0.031 c -0.571,-0.203 0.798,-0.451 0.715,-0.711 0.639,0.231 1.684,-0.341 2.732,-0.011 0.232,-0.053 -0.197,-0.084 -0.073,-0.145 0.265,0.112 0.586,0.135 1.181,0.085 L -50.88,0.24 c 1.67,0.027 2.386,-0.083 4.263,-0.156 l -0.139,0.128 c 0.403,-0.017 0.488,-0.057 0.677,-0.089 0.463,0.195 -1.133,0.011 -0.711,0.226 0.535,-0.262 2.843,-0.004 3.205,-0.302 0.62,-0.001 -0.182,0.149 0.438,0.147 l 0.165,-0.08 0.156,0.104 c 0.407,-0.017 0.612,-0.118 0.628,-0.186 -0.099,0.008 -0.281,-0.019 -0.387,-0.025 0.528,-0.095 1.487,0.032 1.668,0.001 l -0.595,0.05 c 1.692,0.075 3.76,-0.031 5.395,0.133 l -0.124,0.061 c 1.249,0.112 1.001,-0.067 2.372,-0.015 l -0.05,-0.014 c 0.275,0.06 0.641,0.091 1.016,0.084 -0.346,-0.071 0.652,-0.138 0.198,-0.217 1.354,0.121 0.67,0.095 1.564,0.32 l 0.206,-0.1 c 0.305,0.091 0.331,0.139 1.016,0.165 -0.562,-0.087 0.437,-0.154 -0.192,-0.268 1.437,-0.22 2.134,0.222 2.793,-0.1 0.66,0.279 -1.244,0.155 -0.874,0.215 -0.31,0.091 0.545,0.208 0.996,0.18 0.459,-0.006 0.78,-0.356 1.935,-0.351 -0.115,0.001 -0.122,-0.02 -0.237,-0.019 0.432,-0.071 0.847,0.097 1.377,-0.019 0.297,0.169 0.688,-0.01 0.774,0.205 l -1.059,-0.049 c 0.6,0.056 1.163,0.308 2.153,0.186 -0.077,-0.044 -0.372,-0.101 -0.574,-0.133 0.289,-0.063 0.557,0.042 0.857,-0.023 -0.086,-0.215 -1.288,-0.047 -1.931,-0.211 0.311,-0.091 1.217,0.156 0.894,-0.077 0.465,0.296 1.138,-0.037 1.92,0.189 l -0.052,-0.129 c 0.124,0.02 0.381,0.081 0.608,0.078 l -0.412,-0.167 c 0.633,0.142 1.221,-0.125 1.828,-0.047 -1.272,-0.004 -0.285,0.155 -0.823,0.249 1.568,0.173 0.902,-0.337 2.658,-0.275 -0.238,-0.019 -0.893,0.077 -0.521,0.137 0.334,-0.027 0.776,-0.076 0.981,-0.144 1.164,0.027 -0.179,0.133 0.317,0.212 0.396,-0.157 0.571,0.064 1.081,0.114 l 0.004,-0.131 c 1.325,-0.084 0.351,0.273 1.545,0.172 l -0.505,-0.182 0.622,0.047 -0.128,-0.149 c 0.677,0.11 0.888,0.082 1.551,0.04 -0.154,0.092 0.087,0.238 0.674,0.242 0.4,-0.078 -0.224,-0.125 0.608,-0.106 -0.188,-0.082 -0.394,-0.185 -0.756,-0.064 -0.037,-0.043 -0.185,-0.082 -0.224,-0.125 0.432,-0.089 1.084,-0.02 1.386,-0.019 -0.116,0.005 -0.255,0.012 -0.326,0.031 l 1.207,0.181 c 0.19,-0.049 0.039,-0.088 -0.111,-0.127 0.245,0.014 0.414,0.074 0.773,0.086 -0.093,-0.107 -0.07,-0.217 -0.579,-0.267 l 1.15,0.118 c 0.076,-0.046 0.59,-0.127 0.44,-0.166 0.638,-0.063 1.564,0.206 2.409,0.124 0.044,0.02 0.132,0.04 0.312,0.055 0.794,-0.024 1.497,-0.154 2.439,-0.008 l 0.534,-0.191 c 0.737,0.043 -0.723,0.24 0.504,0.312 0.869,0.061 0.325,-0.163 0.629,-0.216 0.433,0.096 1.184,0.292 1.982,0.137 C 0.454,-0.014 0.247,0.014 0,0 M 9.092,0.085 C 8.916,0.057 8.564,-0.028 8.436,0.05 8.636,0.2 8.792,0.128 9.092,0.085 M 22.913,0.4 C 22.782,0.357 22.579,0.378 22.351,0.428 22.517,0.439 22.704,0.434 22.913,0.4 M 61.414,1.313 C 61.406,1.311 61.401,1.309 61.395,1.307 61.002,1.358 61.142,1.338 61.414,1.313 M 62.23,1.256 c 0.082,0.019 0.077,0.037 0.042,0.055 C 62.215,1.278 62.032,1.275 61.823,1.285 61.881,1.251 61.986,1.227 62.23,1.256 M -25.403,1.204 -25.244,1.17 c -0.359,-0.037 -0.259,-0.003 -0.159,0.034"
             style="fill:#231f20;fill-opacity:1;fill-rule:nonzero;stroke:none"
             id="path270"
             inkscape:connector-curvature="0" /></g><g
           id="g272"
           transform="translate(216.6564,296.7635)"><path
             d="M 0,0 C -0.05,0.022 -0.064,0.047 -0.075,0.071 -0.145,0.049 -0.146,0.024 0,0"
             style="fill:#231f20;fill-opacity:1;fill-rule:nonzero;stroke:none"
             id="path274"
             inkscape:connector-curvature="0" /></g><g
           id="g276"
           transform="translate(189.6561,296.4736)"><path
             d="M 0,0 -0.028,0.002 C -0.043,-0.006 -0.051,-0.014 -0.056,-0.022 L 0,0 Z"
             style="fill:#231f20;fill-opacity:1;fill-rule:nonzero;stroke:none"
             id="path278"
             inkscape:connector-curvature="0" /></g><g
           id="g280"
           transform="translate(244.9,296.6871)"><path
             d="M 0,0 C -0.168,0.019 -0.262,0.043 -0.324,0.068 -0.333,0.036 -0.257,0.009 0,0"
             style="fill:#231f20;fill-opacity:1;fill-rule:nonzero;stroke:none"
             id="path282"
             inkscape:connector-curvature="0" /></g><g
           id="g284"
           transform="translate(261.865,298.0215)"><path
             d="M 0,0 -0.523,-0.034 C -0.27,-0.028 -0.18,-0.056 -0.052,-0.077 -0.064,-0.046 -0.163,-0.002 0,0"
             style="fill:#231f20;fill-opacity:1;fill-rule:nonzero;stroke:none"
             id="path286"
             inkscape:connector-curvature="0" /></g><g
           id="g288"
           transform="translate(266.402,297.2102)"><path
             d="M 0,0 C 0.076,0.016 0.162,0.002 0.237,0.018 L 0.216,0.079 C -0.109,0.075 -0.337,0.026 0,0"
             style="fill:#231f20;fill-opacity:1;fill-rule:nonzero;stroke:none"
             id="path290"
             inkscape:connector-curvature="0" /></g><g
           id="g292"
           transform="translate(262.3489,297.5859)"><path
             d="m 0,0 c 0.041,-0.11 0.369,-0.073 0.735,-0.052 l -0.064,0 C 0.779,0.102 0.388,0.051 0,0"
             style="fill:#231f20;fill-opacity:1;fill-rule:nonzero;stroke:none"
             id="path294"
             inkscape:connector-curvature="0" /></g><g
           id="g296"
           transform="translate(263.1691,297.5373)"><path
             d="M 0,0 C 0.113,0.005 0.228,0.008 0.339,0.003 0.381,0.065 0.201,0.016 0,0"
             style="fill:#231f20;fill-opacity:1;fill-rule:nonzero;stroke:none"
             id="path298"
             inkscape:connector-curvature="0" /></g><g
           id="g300"
           transform="translate(258.5756,297.8717)"><path
             d="M 0,0 C 0.174,-0.028 0.109,0.141 0.207,0.096 0.401,0.237 -0.95,-0.074 0,0"
             style="fill:#231f20;fill-opacity:1;fill-rule:nonzero;stroke:none"
             id="path302"
             inkscape:connector-curvature="0" /></g></g></g><g
       id="g304"
       transform="matrix(1.1230701,0,0,2.2778958,277.5015,295.94392)"><path
         d="M 0,0 0.337,-0.027 0.205,0.11 0,0 Z"
         style="fill:#231f20;fill-opacity:1;fill-rule:nonzero;stroke:none"
         id="path306"
         inkscape:connector-curvature="0" /></g><g
       id="g308"
       transform="matrix(1.1230701,0,0,2.2778958,-17.089435,-381.159)"><g
         id="g310"
         clip-path="url(#clipPath312)"><g
           id="g316"
           transform="translate(259.7543,297.3226)"><path
             d="M 0,0 0.585,-0.038 C 0.576,-0.015 0.651,-0.001 0.742,0.009 0.381,0.013 -0.014,0.04 0,0"
             style="fill:#231f20;fill-opacity:1;fill-rule:nonzero;stroke:none"
             id="path318"
             inkscape:connector-curvature="0" /></g><g
           id="g320"
           transform="translate(260.496,297.3314)"><path
             d="M 0,0 C 0.188,-0.003 0.367,0 0.471,0.022 0.369,0.021 0.151,0.017 0,0"
             style="fill:#231f20;fill-opacity:1;fill-rule:nonzero;stroke:none"
             id="path322"
             inkscape:connector-curvature="0" /></g></g></g><g
       id="g324"
       transform="matrix(1.1230701,0,0,2.2778958,276.98096,295.79017)"><path
         d="M 0,0 -0.173,0.029 -0.586,0.039 0,0 Z"
         style="fill:#231f20;fill-opacity:1;fill-rule:nonzero;stroke:none"
         id="path326"
         inkscape:connector-curvature="0" /></g><g
       id="g328"
       transform="matrix(1.1230701,0,0,2.2778958,-17.089435,-381.159)"><g
         id="g330"
         clip-path="url(#clipPath332)"><g
           id="g336"
           transform="translate(253.4648,297.3487)"><path
             d="M 0,0 -0.638,-0.039 C -0.703,-0.086 -0.53,-0.114 -0.292,-0.096 -0.139,-0.063 0.098,-0.045 0,0"
             style="fill:#231f20;fill-opacity:1;fill-rule:nonzero;stroke:none"
             id="path338"
             inkscape:connector-curvature="0" /></g><g
           id="g340"
           transform="translate(255.396,296.9761)"><path
             d="M 0,0 C -0.173,0.028 -0.184,0.058 -0.282,0.103 L -0.301,-0.065 0,0 Z"
             style="fill:#231f20;fill-opacity:1;fill-rule:nonzero;stroke:none"
             id="path342"
             inkscape:connector-curvature="0" /></g><g
           id="g344"
           transform="translate(253.5339,296.9366)"><path
             d="M 0,0 C -0.064,-0.047 -0.927,-0.134 -0.117,-0.124 -0.053,-0.077 0.587,-0.039 0,0"
             style="fill:#231f20;fill-opacity:1;fill-rule:nonzero;stroke:none"
             id="path346"
             inkscape:connector-curvature="0" /></g></g></g><g
       id="g348"
       transform="matrix(1.1230701,0,0,2.2778958,256.8415,295.71841)"><path
         d="M 0,0 0.163,0.002 0.139,0.278 0,0 Z"
         style="fill:#231f20;fill-opacity:1;fill-rule:nonzero;stroke:none"
         id="path350"
         inkscape:connector-curvature="0" /></g><g
       id="g352"
       transform="matrix(1.1230701,0,0,2.2778958,-17.089435,-381.159)"><g
         id="g354"
         clip-path="url(#clipPath356)"><g
           id="g360"
           transform="translate(235.4327,296.488)"><path
             d="M 0,0 C 0.757,-0.066 0.18,0.171 0.863,0.088 1.041,0.153 0.305,0.156 0.487,0.212 0.03,0.143 -0.21,0.182 0,0"
             style="fill:#231f20;fill-opacity:1;fill-rule:nonzero;stroke:none"
             id="path362"
             inkscape:connector-curvature="0" /></g><g
           id="g364"
           transform="translate(235.9194,296.7001)"><path
             d="M 0,0 C 0.073,0.013 0.151,0.027 0.233,0.042 0.101,0.025 0.039,0.011 0,0"
             style="fill:#231f20;fill-opacity:1;fill-rule:nonzero;stroke:none"
             id="path366"
             inkscape:connector-curvature="0" /></g></g></g><g
       id="g368"
       transform="matrix(1.1230701,0,0,2.2778958,140.17216,297.3175)"><path
         d="M 0,0 0.173,0.035 -0.314,0.093 0,0 Z"
         style="fill:#231f20;fill-opacity:1;fill-rule:nonzero;stroke:none"
         id="path370"
         inkscape:connector-curvature="0" /></g><g
       id="g372"
       transform="matrix(1.1230701,0,0,2.2778958,-17.089435,-381.159)"><g
         id="g374"
         clip-path="url(#clipPath376)"><g
           id="g380"
           transform="translate(139.2664,297.6822)"><path
             d="M 0,0 -0.115,0.176 -0.407,0.017 C -0.297,0.025 -0.083,0.04 0,0"
             style="fill:#231f20;fill-opacity:1;fill-rule:nonzero;stroke:none"
             id="path382"
             inkscape:connector-curvature="0" /></g></g></g><g
       id="g384"
       transform="matrix(1.1230701,0,0,2.2778958,206.57525,294.01888)"><path
         d="M 0,0 0.114,-0.004 -0.098,0.156 0,0 Z"
         style="fill:#231f20;fill-opacity:1;fill-rule:nonzero;stroke:none"
         id="path386"
         inkscape:connector-curvature="0" /></g></g></svg>