<?xml version="1.0" encoding="UTF-8" standalone="no"?>
<!-- Created with Inkscape (http://www.inkscape.org/) -->

<svg
   xmlns:dc="http://purl.org/dc/elements/1.1/"
   xmlns:cc="http://creativecommons.org/ns#"
   xmlns:rdf="http://www.w3.org/1999/02/22-rdf-syntax-ns#"
   xmlns:svg="http://www.w3.org/2000/svg"
   xmlns="http://www.w3.org/2000/svg"
   xmlns:sodipodi="http://sodipodi.sourceforge.net/DTD/sodipodi-0.dtd"
   xmlns:inkscape="http://www.inkscape.org/namespaces/inkscape"
   width="78.232002mm"
   height="28.109333mm"
   viewBox="0 0 277.20001 99.599999"
   id="svg5022"
   version="1.1"
   inkscape:version="0.91 r13725"
   sodipodi:docname="header_border.svg">
  <defs
     id="defs5024" />
  <sodipodi:namedview
     id="base"
     pagecolor="#ffffff"
     bordercolor="#666666"
     borderopacity="1.0"
     inkscape:pageopacity="0.0"
     inkscape:pageshadow="2"
     inkscape:zoom="15.839192"
     inkscape:cx="16.742094"
     inkscape:cy="5.6986343"
     inkscape:document-units="px"
     inkscape:current-layer="layer1"
     showgrid="false"
     fit-margin-top="0"
     fit-margin-left="0"
     fit-margin-right="0"
     fit-margin-bottom="0"
     inkscape:window-width="1920"
     inkscape:window-height="1017"
     inkscape:window-x="-4"
     inkscape:window-y="-4"
     inkscape:window-maximized="1" />
  <metadata
     id="metadata5027">
    <rdf:RDF>
      <cc:Work
         rdf:about="">
        <dc:format>image/svg+xml</dc:format>
        <dc:type
           rdf:resource="http://purl.org/dc/dcmitype/StillImage" />
        <dc:title></dc:title>
      </cc:Work>
    </rdf:RDF>
  </metadata>
  <g
     inkscape:label="Layer 1"
     inkscape:groupmode="layer"
     id="layer1"
     transform="translate(182.17143,-482.5622)">
    <g
       transform="translate(-663.97143,216.5622)"
       id="g6">
      <g
         id="g8">
        <g
           id="g10">
          <g
             id="g12">
            <g
               id="g14">
              <path
                 inkscape:connector-curvature="0"
                 class="st0"
                 d="m 757.4,364 c 0.1,0.4 0.3,0.2 0.2,-0.9 l -0.3,-0.8 0.1,1.7 z"
                 id="path16" />
              <path
                 inkscape:connector-curvature="0"
                 class="st0"
                 d="m 758,356.7 c -0.2,-1.3 -0.4,-2.7 -0.7,-1.9 0.3,1.3 0.2,1.6 0.6,2.9 0,1.1 -0.1,1.9 -0.2,1.7 0.1,0.4 -0.1,1.7 0.1,2.3 0.3,-1.4 0.3,-3.2 0.1,-5 0,-0.4 0.1,-0.1 0.1,0 z"
                 id="path18" />
              <path
                 inkscape:connector-curvature="0"
                 class="st0"
                 d="m 742,267 0.7,0 c -0.2,0 -0.4,0 -0.7,0 z"
                 id="path20" />
              <path
                 inkscape:connector-curvature="0"
                 class="st0"
                 d="m 676.7,266.8 c 0.5,0 0.7,0 0.7,-0.1 -0.4,0.1 -0.8,0.1 -0.7,0.1 z"
                 id="path22" />
              <path
                 inkscape:connector-curvature="0"
                 class="st0"
                 d="m 665.6,266.4 c 0.2,0 0.4,0 0.7,0 -0.3,0 -0.6,0 -0.7,0 z"
                 id="path24" />
              <path
                 inkscape:connector-curvature="0"
                 class="st0"
                 d="m 742,267 -1.7,-0.1 c -0.1,0.1 0.9,0.1 1.7,0.1 z"
                 id="path26" />
              <path
                 inkscape:connector-curvature="0"
                 class="st0"
                 d="m 757.2,342.2 c 0,0.4 0,0.7 0.1,0.9 0,-0.2 0,-0.5 -0.1,-0.9 0.1,0.1 0.1,0 0,0 z"
                 id="path28" />
              <path
                 inkscape:connector-curvature="0"
                 class="st0"
                 d="m 758.8,280.2 0,0.5 c 0,0.2 0.1,0.3 0.1,0.4 l -0.1,-0.9 z"
                 id="path30" />
              <path
                 inkscape:connector-curvature="0"
                 class="st0"
                 d="m 758.9,302.2 c 0,-0.5 -0.3,-0.7 -0.4,-0.9 0.1,0.3 0.2,0.7 0.2,1.1 0,0.1 0.1,0 0.2,-0.2 z"
                 id="path32" />
              <path
                 inkscape:connector-curvature="0"
                 class="st0"
                 d="m 758.4,337.3 0,0.6 c 0,-0.2 0,-0.5 0,-0.6 z"
                 id="path34" />
              <path
                 inkscape:connector-curvature="0"
                 class="st0"
                 d="m 755,266.7 c 0,0 -0.1,-0.1 -0.2,-0.1 0,0 0.1,0 0.2,0.1 z"
                 id="path36" />
              <path
                 inkscape:connector-curvature="0"
                 class="st0"
                 d="m 732.5,362.7 c 0,0 0,0 0,0 0.1,0 0.2,0 0,0 z"
                 id="path38" />
              <path
                 inkscape:connector-curvature="0"
                 class="st0"
                 d="m 758.1,364.1 -0.4,0 c 0,0.1 -0.1,0.1 -0.1,0.2 l 0.5,-0.2 z"
                 id="path40" />
              <path
                 inkscape:connector-curvature="0"
                 class="st0"
                 d="m 645.2,266.1 c 0,0 0,0 0,0 0.6,0 0.3,0 0,0 z"
                 id="path42" />
              <path
                 inkscape:connector-curvature="0"
                 class="st0"
                 d="m 482,292.7 c 0.3,-2.1 0.3,3.5 0.6,0.3 -0.1,0.2 -0.5,-3 -0.6,-0.3 z"
                 id="path44" />
              <path
                 inkscape:connector-curvature="0"
                 class="st0"
                 d="m 757.3,341.6 c 0,-0.3 0,-0.6 0,-0.9 0,0.4 0,0.7 0,0.9 z"
                 id="path46" />
              <path
                 inkscape:connector-curvature="0"
                 class="st0"
                 d="m 482.6,292.9 0,0 0,-0.3 c 0,0.1 0,0.2 0,0.3 z"
                 id="path48" />
              <path
                 inkscape:connector-curvature="0"
                 class="st0"
                 d="m 598.2,266.2 c 0.1,0 0.3,0.1 0.5,0.1 0,0 -0.2,0 -0.5,-0.1 z"
                 id="path50" />
              <path
                 inkscape:connector-curvature="0"
                 class="st0"
                 d="m 633.2,266.6 -0.9,0 c 0.4,0 0.7,0 0.9,0 z"
                 id="path52" />
              <path
                 inkscape:connector-curvature="0"
                 class="st0"
                 d="m 580,266.6 c -0.5,0 -0.6,-0.1 -1.3,0 0.1,0 0.1,0 0.2,0 0.3,0 0.6,0 1.1,0 z"
                 id="path54" />
              <path
                 inkscape:connector-curvature="0"
                 class="st0"
                 d="m 561.1,266.6 c 0.1,0 0.2,0 0.3,0.1 0.2,0 0.4,0 0.6,0 l -0.9,-0.1 z"
                 id="path56" />
              <path
                 inkscape:connector-curvature="0"
                 class="st0"
                 d="m 675,362.8 c 0.4,0.1 0.7,0.2 0.9,0.3 -0.3,-0.2 2.4,-0.3 -0.9,-0.3 z"
                 id="path58" />
              <path
                 inkscape:connector-curvature="0"
                 class="st0"
                 d="m 757.4,342.2 c -0.1,-0.1 -0.1,-0.3 -0.1,-0.6 0,0.2 0,0.4 0,0.6 0,0.1 0.1,0.1 0.1,0 z"
                 id="path60" />
              <path
                 inkscape:connector-curvature="0"
                 class="st0"
                 d="m 579.2,268.9 -3,0 c 0.9,-0.1 2,0 3,0 z"
                 id="path62" />
              <path
                 inkscape:connector-curvature="0"
                 class="st0"
                 d="m 539.2,362.8 0.7,0 c -0.2,0 -0.5,0 -0.7,0 z"
                 id="path64" />
              <path
                 inkscape:connector-curvature="0"
                 class="st0"
                 d="m 567.3,268.9 c -0.5,-0.1 -1.1,-0.2 -1.7,-0.2 -0.1,0 -0.3,0 -0.3,0.1 l 2,0.1 z"
                 id="path66" />
              <path
                 inkscape:connector-curvature="0"
                 class="st0"
                 d="m 675.9,363.1 c 0,0 0,0 0,0 0,0 0,0 0,0 z"
                 id="path68" />
              <path
                 inkscape:connector-curvature="0"
                 class="st0"
                 d="m 695.7,362.4 c -2.9,0 -1.3,0.4 -2,0.6 -3.4,0.1 -1.6,-0.3 -2.7,-0.5 -2.1,0.1 -3.8,0.4 -5.4,0.4 -0.1,-0.1 -0.4,-0.1 -0.1,-0.2 -2.3,0.3 -6.7,0 -9.3,0.4 -0.2,0 -0.3,-0.1 -0.3,-0.1 0.4,0.2 0.5,0.4 0.4,0.5 -1.3,0 -2.4,0.2 -2.9,0 0.8,0 0.9,-0.1 1.2,-0.2 l -1.3,0.1 c -1.2,-0.3 1.8,-0.1 1.8,-0.4 -2.6,0.1 -5.7,0.4 -7.7,0.3 -0.4,-0.3 4.7,-0.1 2,-0.4 l 3.1,0.1 c -2.4,-0.5 1.9,0 -0.3,-0.5 -4.1,-0.1 -4.6,0.2 -8.7,0.1 -0.9,0.2 0.3,0.3 -0.6,0.5 -5.8,0.3 -4.6,-0.9 -8.8,-0.4 -1.1,0.2 -1.5,0.7 -4.6,0.4 l 1,-0.4 c -4,0 -2.3,0.6 -6.4,0.3 0.7,-0.2 3.1,-0.1 2.5,-0.2 -2.7,-0.3 -1.9,0.2 -4,0.2 l -0.4,-0.3 c -4.2,0.1 -8.9,0.3 -13.5,0.4 0.3,-0.1 1.1,-0.2 0,-0.3 -5.9,0.2 -12.6,0 -18.3,-0.2 l -2.2,0.3 c -0.5,0 -0.9,-0.1 -0.4,-0.2 -2.2,-0.1 -0.1,0.2 -1.2,0.3 -1.3,0 -1.7,-0.2 -0.9,-0.3 -3.9,0.2 -11.1,0.5 -15.3,0.2 l 0.8,-0.1 c -3.2,-0.1 -3.6,0.6 -6.6,0.3 l 0.6,-0.1 c -7,-0.1 -14.7,0.1 -20,-0.3 -1,0.4 -6.9,-0.2 -7.3,0.4 -4,-0.3 -2.8,-0.4 -8.4,-0.6 -1.5,0 -2.2,0.4 -4.1,0.4 l 0,-0.3 -2.5,0.3 -1.3,-0.4 -1.7,0.1 c 0.7,0 1.5,0.1 1.4,0.2 -2.7,0.1 -6.6,-0.2 -6.7,-0.4 l -6.4,0.3 c 0.1,-0.1 1.2,-0.2 2.1,-0.2 -3.4,0.3 -0.6,-0.3 -3.8,0 0.4,0.1 -0.2,0.2 -0.3,0.2 -1.6,-0.2 -5.1,-0.2 -7.8,-0.1 l 0.5,-0.2 c -4.8,-0.1 -10,0.1 -15.4,0.1 1.9,0.1 1.5,0.5 -0.1,0.5 l -0.6,-0.3 c -1,0.2 1.6,0.1 -0.4,0.4 -2,0 -1.3,-0.4 -0.2,-0.5 l -2.4,0.1 c -0.1,-0.1 0.4,-0.1 0.6,-0.3 -1,0.2 -4.2,-0.3 -5.6,0 l -0.1,-0.1 c -2.5,0 -4.4,0 -6.1,0.1 -0.9,0 -1.7,0 -2.6,0 -0.4,0 -0.8,0 -1.2,0 -0.1,0 -0.1,0 -0.2,0 0,0 0,-0.1 0,-0.1 -0.1,0.1 -0.2,0 -0.2,-0.2 0,-0.6 -0.1,-1.3 -0.2,-2 0.1,-3.2 0.3,-6.7 0.3,-10.6 -0.1,-2.7 -0.2,-0.8 -0.4,-2 0.3,-0.2 0.2,-4 0.4,-2 0,-4.6 -0.1,-5.9 -0.3,-11.7 -0.1,0.6 -0.2,1.3 -0.2,1 0,-1.1 0.1,-2.4 0.2,-2.3 l 0,0.3 c -0.4,-6.6 0.7,-15.1 0.2,-20.3 l 0,0.3 -0.3,-5.4 c 0,-2.5 0.2,1.5 0.4,-0.3 -0.4,-5.8 0.1,-9.2 -0.2,-14 0.8,-3.7 -0.1,-13.2 0.4,-18.2 l -0.2,0.3 c -0.2,-1.3 0.1,-1.6 0.1,-2.5 -0.1,0.1 -0.2,1.4 -0.3,0.6 0,-1.5 0,-3.1 -0.1,-4.7 1.9,0 3.9,0 5.8,0.1 2.3,0 4.7,0.1 7.1,0.1 4.7,0.1 9.5,0.2 14.1,0.3 4.1,0 2.3,-0.9 7.5,-0.5 l -1.5,0.3 c 8.3,-0.4 17,0 25.2,-0.3 -0.5,0.1 -0.5,0.2 -1.3,0.2 1.7,0.2 6.4,0 6.4,-0.2 1.3,0 0.3,0.2 1.1,0.3 1.7,0.1 4.3,-0.3 5.2,-0.1 0.2,0 -0.5,0.1 -0.8,0.1 1.1,-0.1 5.2,0 4.2,-0.2 3.1,0.1 5.8,-0.1 8.3,0 1.6,-0.3 5.2,0.1 5.7,-0.3 -0.2,0.5 5.4,0.4 7.3,0.2 -0.6,0.1 1.7,0.1 0.9,0.3 2.2,0 4.2,-0.1 3.8,-0.3 4.1,0.5 8.2,-0.4 10.5,0.3 6.6,-0.2 12.6,-0.4 18.5,-0.5 -0.2,0.5 -6.5,0 -6.3,0.5 5.6,-0.2 8.8,-0.6 14.4,-0.5 1.4,0.1 -0.8,0.2 -1.3,0.3 5.6,-0.2 10.8,0 15.8,-0.2 0,0 -0.6,0.1 -1.1,0.1 1,0 2.3,0.1 2.2,-0.1 l -1,0.1 c -1.6,-0.3 3.9,-0.6 4.1,-0.8 -1.7,0.6 4.9,0.1 2.3,0.9 0.6,0 1.5,-0.1 1.3,-0.3 1,0 1.3,0.1 0.3,0.3 3.5,-0.1 2.3,-0.3 5.4,-0.3 0,0.1 -0.7,0.1 -1,0.3 1.6,-0.2 3.2,-0.4 5.9,-0.3 -0.2,0.1 0.2,0.1 -0.7,0.1 4.6,0 7.9,-0.5 12.9,-0.3 -1.5,0.4 1.7,0.1 2,0.5 l 2.7,-0.1 -1.1,-0.2 c 2.4,0 4.5,-0.3 6.5,-0.1 l -1.8,0.2 4.5,-0.1 -2.2,-0.4 c 2.4,-0.2 -0.3,-0.5 2.9,-0.4 -0.6,0 2.4,0 3.6,0.2 l 0,0 c 1.2,-0.1 2.4,-0.2 4.2,-0.2 0.5,0.1 -0.4,0.4 -0.1,0.5 1.2,-0.3 5.6,-0.1 7.1,-0.4 -0.5,0.1 -0.5,0.3 -0.4,0.3 l 1,-0.3 c 1.1,0.1 1.3,0.1 1.1,0.3 3.3,0 -1.1,-0.5 2.9,-0.3 -0.3,0 -0.2,0.1 -0.8,0.1 4,0.1 7.7,-0.2 11.3,0 1.1,0.4 -3.2,0.1 -2,0.4 5.2,-0.1 10.9,-0.5 15.9,-0.4 l -0.9,0 c 0.7,-0.5 3.8,0.3 6.4,0 -0.6,0 -0.8,0.3 -0.7,0.2 3.5,0.1 7.1,-0.1 12.4,-0.3 l -0.7,0.1 c 2,0.1 5.4,0.1 7.6,0.1 0.7,-0.1 1.9,-0.1 1.2,-0.3 1.7,0.2 3.5,0.3 5.1,0.3 1.6,0 3.5,-0.1 4.4,-0.1 0.1,0.8 0.1,2.6 0.1,4 0,1.5 0,3 -0.2,4.5 0,-0.7 -0.1,-1.7 -0.1,-1.1 l 0.1,5.2 c 0.2,-0.4 0.1,-0.7 0.3,-1.8 0.1,0.7 0.2,2.1 0.2,3.4 -0.2,-2.3 -0.4,0 -0.5,1 0.1,-0.2 0.1,0.2 0.2,0.1 -0.4,2.7 0.5,0.5 0.2,4.1 l -0.1,-0.2 c 0.1,1.4 0.2,2.6 0.2,4.1 -0.3,0.6 -0.1,-1.5 -0.3,-1.6 0,2.1 0.5,4.1 0.2,6 -0.1,-0.9 -0.1,-2.2 -0.1,-3 -0.3,2.1 -0.2,2.3 -0.3,3.8 l 0,-0.2 -0.1,3.5 0.1,-0.9 c 0.7,2.6 0.1,5.3 0.6,8.8 -0.4,-3.4 -0.3,-0.6 -0.6,-0.8 -0.1,0.9 -0.2,2.3 -0.3,1.9 0.2,1.7 -0.2,2.8 0.2,5.1 -0.1,0.1 0,1.8 -0.3,1.4 0.1,2.2 0.2,-0.5 0.3,-0.3 0.3,3.3 -0.4,7.8 0.1,12.6 0.2,4.1 0.5,4.9 0.7,8.7 -0.2,1.3 -0.4,-1.1 -0.4,-1.1 -0.1,2.1 -0.1,3.7 0,5.6 -0.1,-0.4 -0.2,0 -0.3,0.6 0,1.6 0.4,1.1 0.2,3.1 -0.1,-0.4 -0.3,-0.8 -0.4,-1.6 0.1,1.9 0.3,3.7 0.4,5.6 -0.2,0.5 -0.3,-1.2 -0.4,-1.8 0.1,2.2 0.2,5.6 0.4,6.3 l 0.1,-1.4 c 0,0.8 -0.2,0.4 -0.3,-0.2 -0.2,-1.9 0.1,-2.7 0.2,-2.8 l 0.1,1.4 c 0.6,-1.4 -0.1,-5.5 -0.1,-8.3 l 0.4,1.2 -0.3,-2.8 c 0.1,-0.6 0.3,-1 0.4,0.3 0.2,-2 -0.1,-1.8 0.1,-3.5 0,-0.2 0.1,-0.1 0.1,0.1 l -0.1,-1.9 c 0.1,0.4 0.3,-0.3 0.2,0.9 0.2,-3.5 -0.3,-5.6 0,-6.9 l 0,0.3 c -0.1,-4.8 -0.3,-0.5 -0.7,-4.1 l 0.8,-2.4 -0.3,-0.5 c 0,-0.5 0,-1.5 0.2,-1.3 -0.2,-1.8 -0.1,0.3 -0.3,-0.8 0.3,-2.4 -0.1,-6.6 0.4,-7.1 -0.2,-0.9 -0.2,2.3 -0.3,-0.3 0.5,-0.7 -0.1,-3 0.2,-5.1 0.3,0.7 0.1,2.7 0.4,0.6 -0.5,-1.3 0.1,-4.3 0,-6.1 -0.4,-0.1 -0.2,-4 -0.3,-7.1 0.1,0.2 0.2,-5.8 0.3,-8.7 l 0.1,0.1 c -0.4,-0.6 -0.3,-3.5 -0.4,-5.7 0.2,0.1 0.3,0.5 0.4,1.6 l 0,-2 c -0.1,-0.5 -0.2,-1.1 -0.2,-2.4 l 0.3,0.5 c 0,-2.7 -0.3,-5.4 -0.1,-8.9 -0.3,-0.2 -0.7,2.7 -0.9,-0.9 0.1,-0.1 0.4,-0.3 0.4,0.7 0,-0.3 -0.1,-1.1 -0.1,-1.9 l 0.2,1.6 c 0,-0.3 0,-0.7 0,-0.9 0,-0.2 0,-0.3 -0.1,-0.4 -0.1,-0.2 -0.1,-0.2 -0.1,-0.8 -0.1,0 -0.1,0 -0.2,0 0.2,-0.2 -1,-0.1 -0.7,-0.3 0.3,0 0.8,0 1.2,0 0,0.3 0,0.6 0,0.8 0,-0.3 0,-0.5 0,-0.8 -0.4,0 -0.8,0 -1.2,0 -0.2,0 -0.4,0 -0.6,0 -0.2,0 -0.3,0 -0.5,0 -0.6,0 -1,-0.1 -1.3,-0.2 0.1,0.1 0,0.3 -1,0.3 -2.7,0 -0.9,-0.2 -2.5,-0.3 -0.7,0.1 -2.4,0 -2.4,0.3 -0.8,0 -0.9,-0.1 -1.2,-0.2 -1.4,0.1 -6.5,0 -5,0.4 l 0.4,0 c -0.1,0 -0.1,0 -0.2,0 0,0 0,0 0,0 l 0,0 c -4.6,0.3 -9.5,-0.2 -14.1,0 l 0,-0.1 c -2.7,0.1 -6,0.1 -8,0.3 -0.8,0 -1.9,-0.2 -1.6,-0.3 -2.1,0.1 -2.3,0.2 -5.3,0 2.1,-0.2 -0.7,-0.2 2.1,-0.1 -2.7,-0.1 -3.3,-0.2 -6.2,0 1,-0.3 -2,-0.3 -3.3,-0.2 l 1.9,0.2 c -1.4,0 -2.7,0 -4,0 l 0.7,-0.3 c -5.5,-0.4 -10,0.7 -14.2,0 -1.5,0.2 3,0.2 1.7,0.4 -2.5,0 -5.2,-0.5 -6,-0.5 -3.5,-0.2 -3.2,0.5 -6.9,0.4 0.5,0.1 0.9,0.4 -1.8,0.5 -2.5,0 -3.1,-0.5 -1.5,-0.6 0.6,0 0.9,0 0.9,0.1 0.8,0 1.9,-0.1 0.9,-0.2 l -0.3,0.1 c -1.3,-0.1 -4.8,-0.1 -3.9,-0.3 -1.9,0.1 -0.8,0.2 0.6,0.3 -3.3,-0.2 -5.1,0 -8.4,-0.1 0.5,0.1 1,0.2 0.5,0.2 -4.9,-0.1 -2.2,0.2 -5.5,0.3 -1.9,-0.2 0.7,-0.4 -2.7,-0.3 -2,-0.1 -0.4,-0.3 0.4,-0.4 -3.1,0.2 -5.7,-0.2 -7.5,-0.2 l 1.6,-0.1 c -1,0.1 -1.8,0.1 -2.6,0.1 l 0.9,0.2 c -0.9,0 -1.7,0 -1.7,-0.1 -1,0.2 0.7,0.4 -1.2,0.6 -1.3,-0.1 -3.8,0.1 -4.3,-0.2 4,0.1 -0.4,-0.3 2.9,-0.4 -0.6,0 -1.4,0 -2.4,0 -0.1,0 0.1,-0.1 0.4,-0.1 -3.8,-0.3 -1.7,0.4 -5.7,0.3 0.5,-0.2 -0.9,-0.3 -1.6,-0.3 1.6,0 0.8,0.3 -0.7,0.4 -2.5,-0.1 -2.7,0.1 -4.1,0.1 l 1.5,0.1 c -0.5,0.2 -1.8,0.2 -3.5,0.2 -0.2,-0.1 1.6,-0.1 1,-0.2 -2,0.3 -4.4,-0.3 -7.1,-0.1 -1.3,-0.1 -0.1,-0.3 -1.2,-0.4 -3,0.2 -3.3,-0.2 -6.5,-0.1 0.9,0.2 1.1,0.2 -1.2,0.4 l 5.3,-0.2 -3.4,0.3 c 1.6,0 3.4,-0.2 4.3,-0.1 -1.6,0.2 -1.4,0.1 -0.7,0.3 -2.2,-0.4 -4.3,0.2 -6.8,0 l 0.1,-0.6 c -3.8,-0.3 -6.7,0.3 -11.6,0.2 l 1.6,0.1 c -0.7,0.2 -3,0 -4.6,0.1 0.1,-0.2 -0.8,-0.3 -1.5,-0.4 0.1,0.1 -3.6,0 -4,0.4 l -2.2,-0.3 c -4,-0.1 -4.5,0.6 -8.3,0.5 1.1,-0.2 -0.6,-0.4 2,-0.5 -1.3,0 -2.4,0 -2.4,0.1 -0.7,-0.1 -3.5,0.3 -4.7,0.1 -0.5,0.1 -0.7,0.3 -2.1,0.3 -0.2,0 0,-0.1 0,-0.1 0,0.1 -2.2,0.1 -1,0.4 -3.9,-0.6 -11,0 -14.4,-0.5 -2.8,0.1 -6.1,0.1 -8.6,0.1 0.2,-0.1 0,-0.1 0.5,-0.1 -3.5,-0.2 -2.1,0.6 -6.1,0.4 -2,-0.3 2.1,-0.2 0.8,-0.3 -0.5,-0.6 -4.8,0.1 -7.4,-0.3 l 0.6,0 c -2,-0.2 -5,0.2 -8.3,0.2 0,0 0.2,-0.1 0,-0.1 -2.3,0.3 -6.6,0.4 -9.8,0.5 1,-0.3 1.5,-0.1 0.8,-0.4 -1.4,0 0.4,0.4 -2.4,0.5 -0.9,-0.1 -3,-0.3 -3.3,-0.5 l 2.7,0 c -1.4,-0.4 -3.5,0 -4.9,0 l 0.2,-0.2 c -4.1,0.1 -4.2,0.4 -8.6,0.4 l 0.5,0.1 c -2.4,0.4 -2,-0.2 -4.5,0.1 l -0.7,-0.4 c -1.6,0.1 -5.6,0.4 -8.5,0.5 1.6,-0.3 5,-0.4 7.1,-0.6 -1.6,0 -5.4,0 -6.2,0.2 0.6,0 1.4,-0.1 2.1,-0.1 -2,0.3 -4.5,0.5 -7.7,0.5 0.2,-0.3 -0.6,-0.4 -1.9,-0.4 -1.4,-0.1 -2.6,0 -5.4,-0.1 0,2.9 -0.1,4 -0.3,4.9 0.3,5.6 -0.1,11.1 -0.1,17.7 0.6,-2.3 0,1.9 0.6,1.5 0,1.5 0,2.1 0,2.2 l -0.4,4.6 c -0.2,1.1 -0.1,-1.4 -0.3,-1.3 0,3.3 -0.3,1.4 -0.4,3.6 0.2,-0.5 0.3,1.2 0.2,3.1 l 0.3,-2.7 c 0.3,4.7 -0.5,4 -0.2,8.7 l -0.2,-1.5 c 0.1,2.4 0,8.9 0.5,11.2 -0.1,0.4 -0.2,1 -0.3,-0.1 -0.1,5.8 0.5,12.8 0.2,17.3 l -0.1,-0.4 c 0,1.1 0.3,1.9 0.1,3.2 -0.1,-0.1 -0.1,-0.4 -0.2,0.1 0.1,0.6 0.3,2.9 0.2,4.3 l -0.2,-1.2 c -0.2,5.6 0.4,8.6 0.5,13.3 -0.4,0 -0.6,4.4 -0.7,6.6 l -0.1,-0.1 c 0,1.4 0,2.7 0,3.8 1.2,0 2.3,0 3.4,0 0.6,0 1.3,0 1.9,-0.1 1.2,-0.1 2.4,-0.1 3.6,-0.1 2.4,-0.1 4.7,-0.2 7.4,-0.3 3.8,0.5 12.7,0.2 18.8,0.5 -0.9,-0.1 0.2,-0.3 1.2,-0.4 1.4,0.1 3.9,-0.3 3.7,0.1 l -0.5,0 c 1.1,0.4 4,0.3 6.3,0.3 l 0.4,-0.5 c 5.9,0.8 15.6,-0.3 18.8,0.4 1.4,-0.1 3.2,-0.1 4.6,-0.3 l -0.1,0.3 c 4,0.1 6,0.1 10.9,0 l -1,0.2 c 2.8,0 3.5,-0.8 6.1,-0.8 l 0.8,0.4 c 4.8,0 9.7,0.4 14.5,0 -0.1,0.1 -0.2,0.2 -1,0.2 2.3,0 8.8,0.3 8,-0.3 0.1,0.4 5,0 7.6,-0.1 l -0.4,0.3 c 2.2,-0.4 2.3,-0.5 5.4,-0.6 0.7,0 0.6,0.2 -0.3,0.2 2.4,0.1 1.9,-0.3 4.8,-0.1 l -1.1,0.2 c 2.5,0 2.3,-0.1 3.7,-0.3 1.6,-0.1 4.7,0.1 5.1,0.3 0.3,-0.2 1.7,-0.4 3.2,-0.3 0.2,0.1 -0.3,0.2 -0.6,0.2 4.2,0.2 6.2,-0.3 9.1,-0.1 0.1,0.1 0.2,0.1 0.5,0.2 -3.3,0 -6,0 -5.7,0 0,0.3 2.7,0.3 0.5,0.7 2.2,-0.2 5.8,-0.6 8.5,-0.5 0.1,0 0.3,0 0.3,0.1 l -0.3,0 c 0.6,0 1.1,0 1.7,0 0.8,0 1.4,0.1 2.2,0.1 0.3,0.2 3.1,0.1 4.4,0.1 -0.1,-0.3 1.6,-0.2 0,-0.5 0.2,0 -0.3,0 -1.1,0 -0.2,0 -0.4,0 -0.6,0 0,0 0.1,0 0.1,0 -0.9,0 -2,0 -3.3,0 1.1,-0.1 2.2,-0.3 3.6,-0.1 0.7,-0.2 1.4,-0.4 1.9,-0.5 1.8,0.4 5.4,0.6 5.9,0.8 4.1,-0.2 9.6,-0.1 12.2,-0.6 1.2,-0.1 1.3,0.2 1.8,0.2 -0.7,0.1 -1.5,0 -1.8,0.1 2.3,-0.1 6.9,-0.1 7.4,-0.4 2.9,0.2 -1.6,0.3 2.4,0.3 l -0.5,0.1 c 7.9,0.6 12.9,-0.9 21.6,-0.2 -0.6,0 -0.9,-0.1 -1,-0.1 10,0.3 20.6,-0.3 30.5,0.2 2.8,0.1 3.1,-0.1 4.8,-0.3 l 0.6,0.3 2.9,-0.3 c 4.2,-0.3 7.2,0.7 12.4,0.3 l -0.7,-0.2 c 1.9,0 6,-0.1 5.7,0.1 0.2,0 0.6,-0.2 1.4,-0.1 l 0.1,0.2 4.6,-0.3 c 3.6,0.1 -0.6,0.6 4.7,0.7 2,-0.1 5.6,-0.5 4.8,-0.6 -0.8,0 -2,-0.1 -2.1,-0.3 l 1.8,-0.1 c 0.3,-0.5 1.7,-0.9 -2.7,-1.3 l -3.1,0.3 -1,-0.2 2.6,0 c -1.5,-0.2 -2.4,0 -3.4,0.1 -0.2,-0.1 -0.7,-0.2 -1.3,-0.2 l -3,0.4 c -0.4,-0.2 1.3,-0.4 -0.7,-0.5 -1.4,0.2 1.3,0.4 -1,0.5 -1.5,-0.2 -1,-0.4 -2.7,-0.2 -0.2,-0.1 0.1,-0.2 0.8,-0.2 -1.5,0.1 -4,0.1 -4.8,0.3 -1.5,-0.3 -5.1,0.1 -5,-0.4 -0.5,0.1 -2.7,0.3 -4.1,0.4 2.6,-0.5 -5.2,0 -4.6,-0.6 -1.9,0.5 -6.8,0.2 -10.2,0.5 0.2,0 0.6,-0.1 0.9,-0.1 -1.9,0 -2.4,-0.2 -3.6,-0.3 -0.2,0.4 -3.2,0.5 -4.8,0.7 -2.3,-0.4 1.4,-0.5 0.7,-0.8 0.1,0.3 -4,0.3 -3.2,0.6 -1.8,-0.2 -1.5,-0.1 -2.4,-0.4 -0.3,0.5 -1.6,0.1 -3.1,0.4 -2.6,-0.2 -0.7,-0.5 -3.5,-0.3 -1.9,-0.2 0.6,-0.4 0.6,-0.4 z m -66.9,0.8 0,0 c 0.6,0 1.1,0 1.4,0 -0.3,0 -0.7,0 -1.4,0 z m -5.7,0 c 0.7,0 1.5,0 2.4,0 0.2,0.1 0,0.2 -0.6,0.2 0.4,0 -0.9,-0.1 -1.8,-0.2 z m 11.9,2 c -0.9,0 -1.2,0 -1.3,-0.1 0.4,0 0.9,0 1.6,0 0,0 0.1,0 0.1,0 -0.1,0 -0.2,0.1 -0.4,0.1 z"
                 id="path70" />
              <path
                 inkscape:connector-curvature="0"
                 class="st0"
                 d="m 636.6,364.8 c 0.1,0 0.2,0 0.4,0 -0.2,0 -0.4,0 -0.5,-0.1 -0.1,0 -0.2,0.1 -0.3,0.1 0.1,0 0.3,0 0.4,0 z"
                 id="path72" />
              <path
                 inkscape:connector-curvature="0"
                 class="st0"
                 d="m 742.8,267 -0.1,0 c 0.1,0 0.2,0 0.2,0 0,0.1 0,0 -0.1,0 z"
                 id="path74" />
              <polygon
                 class="st0"
                 points="546,362.7 545.5,362.7 545.5,362.8 "
                 id="polygon76" />
              <path
                 inkscape:connector-curvature="0"
                 class="st0"
                 d="m 757.5,283.1 c 0,0.1 -0.1,0.2 -0.1,0.4 0.1,0 0.1,-0.1 0.1,-0.4 z"
                 id="path78" />
              <path
                 inkscape:connector-curvature="0"
                 class="st0"
                 d="m 757.5,296.5 -0.1,1.9 c 0,-0.8 0.1,-1.4 0.1,-1.9 z"
                 id="path80" />
              <path
                 inkscape:connector-curvature="0"
                 class="st0"
                 d="m 757.3,306.8 c 0,0.1 0.1,0.2 0.1,0.2 l 0,0 -0.1,-0.2 z"
                 id="path82" />
              <path
                 inkscape:connector-curvature="0"
                 class="st0"
                 d="m 633.9,268.5 c -0.1,0 -0.3,0 -0.4,0 -0.9,0.1 -0.3,0.1 0.4,0 z"
                 id="path84" />
              <path
                 inkscape:connector-curvature="0"
                 class="st0"
                 d="m 682.6,267.9 c -0.5,0.1 -1,0.1 -1.6,0.1 0.9,0 1.6,0 1.6,-0.1 z"
                 id="path86" />
              <path
                 inkscape:connector-curvature="0"
                 class="st0"
                 d="m 579.6,268.9 c 0,0 0,0 0,0 -0.1,0 -0.2,0 -0.3,0 l 0.3,0 z"
                 id="path88" />
              <path
                 inkscape:connector-curvature="0"
                 class="st0"
                 d="m 678.8,268 c 0.9,0.1 1.6,0 2.3,0 -0.8,0 -1.6,0 -2.3,0 z"
                 id="path90" />
              <path
                 inkscape:connector-curvature="0"
                 class="st0"
                 d="m 757.2,351.4 0,0.5 c 0,0 0,0 0,0.1 l 0,-0.6 z"
                 id="path92" />
              <path
                 inkscape:connector-curvature="0"
                 class="st0"
                 d="m 757.2,351.9 0,0.6 c 0.1,-0.3 0.1,-0.5 0,-0.6 z"
                 id="path94" />
              <path
                 inkscape:connector-curvature="0"
                 class="st0"
                 d="m 757.4,353.6 -0.1,-1.2 c 0,0.5 0,1 0.1,1.2 z"
                 id="path96" />
              <path
                 inkscape:connector-curvature="0"
                 class="st0"
                 d="m 757.3,337.8 -0.1,-0.2 c 0.1,0.1 0.1,0.2 0.1,0.2 z"
                 id="path98" />
              <path
                 inkscape:connector-curvature="0"
                 class="st0"
                 d="m 757.3,333.6 c 0,1 -0.2,2.5 -0.2,3.9 l 0.1,0.1 c -0.1,-0.6 0.3,-3 0.1,-4 z"
                 id="path100" />
              <path
                 inkscape:connector-curvature="0"
                 class="st0"
                 d="m 758.6,316.4 -0.1,3.5 c 0.1,-0.6 0.3,-1.4 0.3,0.2 0.3,-4.5 -0.3,0.8 -0.2,-3.7 z"
                 id="path102" />
              <path
                 inkscape:connector-curvature="0"
                 class="st0"
                 d="m 758.7,305.6 c 0.1,1.9 0.2,0 0.2,0.1 0,-1.2 -0.1,-1.5 -0.2,-0.1 z"
                 id="path104" />
              <path
                 inkscape:connector-curvature="0"
                 class="st0"
                 d="m 718.6,266.8 0.2,-0.3 c -1.5,0.1 -0.1,0.2 -0.2,0.3 z"
                 id="path106" />
              <polygon
                 class="st0"
                 points="705.8,268.1 703.7,268.1 705.1,268.3 "
                 id="polygon108" />
              <polygon
                 class="st0"
                 points="693.2,266.4 694.9,266.3 695.6,266.3 "
                 id="polygon110" />
              <path
                 inkscape:connector-curvature="0"
                 class="st0"
                 d="m 564.5,266.4 0.4,0.3 c 1,0 1.2,-0.4 -0.4,-0.3 z"
                 id="path112" />
              <path
                 inkscape:connector-curvature="0"
                 class="st0"
                 d="m 508.1,266.7 c -0.6,-0.2 -2.2,-0.3 -3.2,-0.1 1.3,0 2.6,0.2 3.2,0.1 z"
                 id="path114" />
              <polygon
                 class="st0"
                 points="531.6,365.3 530.6,365.2 529.4,365.3 "
                 id="polygon116" />
            </g>
          </g>
        </g>
      </g>
    </g>
  </g>
</svg>
